<?xml version="1.0" encoding="UTF-8"?>
<!--Generator: Apple Native CoreSVG 175-->
<!DOCTYPE svg
PUBLIC "-//W3C//DTD SVG 1.1//EN"
       "http://www.w3.org/Graphics/SVG/1.1/DTD/svg11.dtd">
<svg version="1.1" xmlns="http://www.w3.org/2000/svg" xmlns:xlink="http://www.w3.org/1999/xlink" width="3300" height="2200">
 <!--glyph: "uni100D3E.medium", point size: 100.0, font version: "17.1d1e1", template writer version: "65.1"-->
 <g id="Notes">
  <rect height="2200" id="artboard" style="fill:white;opacity:1" width="3300" x="0" y="0"/>
  <line style="fill:none;stroke:black;opacity:1;stroke-width:0.5;" x1="263" x2="3036" y1="292" y2="292"/>
  <text style="stroke:none;fill:black;font-family:sans-serif;font-size:13;font-weight:bold;" transform="matrix(1 0 0 1 263 322)">Weight/Scale Variations</text>
  <text style="stroke:none;fill:black;font-family:sans-serif;font-size:13;text-anchor:middle;" transform="matrix(1 0 0 1 559.711 322)">Ultralight</text>
  <text style="stroke:none;fill:black;font-family:sans-serif;font-size:13;text-anchor:middle;" transform="matrix(1 0 0 1 856.422 322)">Thin</text>
  <text style="stroke:none;fill:black;font-family:sans-serif;font-size:13;text-anchor:middle;" transform="matrix(1 0 0 1 1153.13 322)">Light</text>
  <text style="stroke:none;fill:black;font-family:sans-serif;font-size:13;text-anchor:middle;" transform="matrix(1 0 0 1 1449.84 322)">Regular</text>
  <text style="stroke:none;fill:black;font-family:sans-serif;font-size:13;text-anchor:middle;" transform="matrix(1 0 0 1 1746.56 322)">Medium</text>
  <text style="stroke:none;fill:black;font-family:sans-serif;font-size:13;text-anchor:middle;" transform="matrix(1 0 0 1 2043.27 322)">Semibold</text>
  <text style="stroke:none;fill:black;font-family:sans-serif;font-size:13;text-anchor:middle;" transform="matrix(1 0 0 1 2339.98 322)">Bold</text>
  <text style="stroke:none;fill:black;font-family:sans-serif;font-size:13;text-anchor:middle;" transform="matrix(1 0 0 1 2636.69 322)">Heavy</text>
  <text style="stroke:none;fill:black;font-family:sans-serif;font-size:13;text-anchor:middle;" transform="matrix(1 0 0 1 2933.4 322)">Black</text>
  <line style="fill:none;stroke:black;opacity:1;stroke-width:0.5;" x1="263" x2="3036" y1="1903" y2="1903"/>
  <g transform="matrix(1 0 0 1 263 1933)">
   <path d="M9.24805 0.830078Q10.8691 0.830078 12.2949 0.214844Q13.7207-0.400391 14.8096-1.49414Q15.8984-2.58789 16.5186-4.01367Q17.1387-5.43945 17.1387-7.05078Q17.1387-8.66211 16.5186-10.0879Q15.8984-11.5137 14.8047-12.6074Q13.7109-13.7012 12.2852-14.3164Q10.8594-14.9316 9.23828-14.9316Q7.62695-14.9316 6.20117-14.3164Q4.77539-13.7012 3.69141-12.6074Q2.60742-11.5137 1.9873-10.0879Q1.36719-8.66211 1.36719-7.05078Q1.36719-5.43945 1.9873-4.01367Q2.60742-2.58789 3.69629-1.49414Q4.78516-0.400391 6.21094 0.214844Q7.63672 0.830078 9.24805 0.830078ZM9.24805-0.654297Q7.91992-0.654297 6.7627-1.14746Q5.60547-1.64062 4.73145-2.51953Q3.85742-3.39844 3.36426-4.56055Q2.87109-5.72266 2.87109-7.05078Q2.87109-8.37891 3.35938-9.54102Q3.84766-10.7031 4.72168-11.582Q5.5957-12.4609 6.75293-12.9541Q7.91016-13.4473 9.23828-13.4473Q10.5762-13.4473 11.7334-12.9541Q12.8906-12.4609 13.7695-11.582Q14.6484-10.7031 15.1465-9.54102Q15.6445-8.37891 15.6445-7.05078Q15.6445-5.72266 15.1514-4.56055Q14.6582-3.39844 13.7842-2.51953Q12.9102-1.64062 11.748-1.14746Q10.5859-0.654297 9.24805-0.654297ZM5.6543-7.05078Q5.6543-6.72852 5.85938-6.52832Q6.06445-6.32812 6.40625-6.32812L8.51562-6.32812L8.51562-4.20898Q8.51562-3.88672 8.71094-3.67676Q8.90625-3.4668 9.23828-3.4668Q9.56055-3.4668 9.77051-3.67676Q9.98047-3.88672 9.98047-4.20898L9.98047-6.32812L12.0898-6.32812Q12.4219-6.32812 12.627-6.52832Q12.832-6.72852 12.832-7.05078Q12.832-7.38281 12.627-7.58789Q12.4219-7.79297 12.0898-7.79297L9.98047-7.79297L9.98047-9.90234Q9.98047-10.2344 9.77051-10.4443Q9.56055-10.6543 9.23828-10.6543Q8.90625-10.6543 8.71094-10.4443Q8.51562-10.2344 8.51562-9.90234L8.51562-7.79297L6.40625-7.79297Q6.06445-7.79297 5.85938-7.58789Q5.6543-7.38281 5.6543-7.05078Z"/>
  </g>
  <g transform="matrix(1 0 0 1 281.867 1933)">
   <path d="M11.709 2.91016Q13.75 2.91016 15.5518 2.12891Q17.3535 1.34766 18.7305-0.0292969Q20.1074-1.40625 20.8887-3.20801Q21.6699-5.00977 21.6699-7.05078Q21.6699-9.0918 20.8887-10.8936Q20.1074-12.6953 18.7305-14.0723Q17.3535-15.4492 15.5469-16.2305Q13.7402-17.0117 11.6992-17.0117Q9.6582-17.0117 7.85645-16.2305Q6.05469-15.4492 4.68262-14.0723Q3.31055-12.6953 2.5293-10.8936Q1.74805-9.0918 1.74805-7.05078Q1.74805-5.00977 2.5293-3.20801Q3.31055-1.40625 4.6875-0.0292969Q6.06445 1.34766 7.86621 2.12891Q9.66797 2.91016 11.709 2.91016ZM11.709 1.25Q9.98047 1.25 8.47656 0.605469Q6.97266-0.0390625 5.83496-1.17676Q4.69727-2.31445 4.05762-3.81836Q3.41797-5.32227 3.41797-7.05078Q3.41797-8.7793 4.05762-10.2832Q4.69727-11.7871 5.83008-12.9297Q6.96289-14.0723 8.4668-14.7119Q9.9707-15.3516 11.6992-15.3516Q13.4277-15.3516 14.9316-14.7119Q16.4355-14.0723 17.5781-12.9297Q18.7207-11.7871 19.3652-10.2832Q20.0098-8.7793 20.0098-7.05078Q20.0098-5.32227 19.3701-3.81836Q18.7305-2.31445 17.5928-1.17676Q16.4551-0.0390625 14.9463 0.605469Q13.4375 1.25 11.709 1.25ZM7.17773-7.05078Q7.17773-6.69922 7.41211-6.47461Q7.64648-6.25 8.01758-6.25L10.8887-6.25L10.8887-3.36914Q10.8887-2.99805 11.1133-2.76855Q11.3379-2.53906 11.6895-2.53906Q12.0605-2.53906 12.29-2.76855Q12.5195-2.99805 12.5195-3.36914L12.5195-6.25L15.4004-6.25Q15.7715-6.25 16.001-6.47461Q16.2305-6.69922 16.2305-7.05078Q16.2305-7.42188 16.001-7.65137Q15.7715-7.88086 15.4004-7.88086L12.5195-7.88086L12.5195-10.752Q12.5195-11.1328 12.29-11.3623Q12.0605-11.5918 11.6895-11.5918Q11.3379-11.5918 11.1133-11.3574Q10.8887-11.123 10.8887-10.752L10.8887-7.88086L8.01758-7.88086Q7.63672-7.88086 7.40723-7.65137Q7.17773-7.42188 7.17773-7.05078Z"/>
  </g>
  <g transform="matrix(1 0 0 1 305.646 1933)">
   <path d="M14.9707 5.66406Q17.0605 5.66406 18.96 5.01465Q20.8594 4.36523 22.4512 3.19336Q24.043 2.02148 25.2197 0.429688Q26.3965-1.16211 27.0459-3.06641Q27.6953-4.9707 27.6953-7.05078Q27.6953-9.14062 27.0459-11.04Q26.3965-12.9395 25.2197-14.5312Q24.043-16.123 22.4512-17.2998Q20.8594-18.4766 18.9551-19.126Q17.0508-19.7754 14.9609-19.7754Q12.8711-19.7754 10.9717-19.126Q9.07227-18.4766 7.48535-17.2998Q5.89844-16.123 4.72168-14.5312Q3.54492-12.9395 2.90039-11.04Q2.25586-9.14062 2.25586-7.05078Q2.25586-4.9707 2.90527-3.06641Q3.55469-1.16211 4.72656 0.429688Q5.89844 2.02148 7.49023 3.19336Q9.08203 4.36523 10.9814 5.01465Q12.8809 5.66406 14.9707 5.66406ZM14.9707 3.84766Q13.1641 3.84766 11.5283 3.2959Q9.89258 2.74414 8.53516 1.74805Q7.17773 0.751953 6.17676-0.610352Q5.17578-1.97266 4.62891-3.6084Q4.08203-5.24414 4.08203-7.05078Q4.08203-8.86719 4.62891-10.5029Q5.17578-12.1387 6.17188-13.501Q7.16797-14.8633 8.52539-15.8594Q9.88281-16.8555 11.5186-17.4023Q13.1543-17.9492 14.9609-17.9492Q16.7773-17.9492 18.4131-17.4023Q20.0488-16.8555 21.4111-15.8594Q22.7734-14.8633 23.7695-13.501Q24.7656-12.1387 25.3174-10.5029Q25.8691-8.86719 25.8691-7.05078Q25.8789-5.24414 25.332-3.6084Q24.7852-1.97266 23.7842-0.610352Q22.7832 0.751953 21.4209 1.74805Q20.0586 2.74414 18.4229 3.2959Q16.7871 3.84766 14.9707 3.84766ZM9.19922-7.05078Q9.19922-6.66992 9.45801-6.4209Q9.7168-6.17188 10.1172-6.17188L14.0625-6.17188L14.0625-2.2168Q14.0625-1.81641 14.3115-1.55762Q14.5605-1.29883 14.9512-1.29883Q15.3516-1.29883 15.6104-1.55273Q15.8691-1.80664 15.8691-2.2168L15.8691-6.17188L19.8242-6.17188Q20.2246-6.17188 20.4785-6.4209Q20.7324-6.66992 20.7324-7.05078Q20.7324-7.46094 20.4785-7.71484Q20.2246-7.96875 19.8242-7.96875L15.8691-7.96875L15.8691-11.9141Q15.8691-12.3242 15.6104-12.583Q15.3516-12.8418 14.9512-12.8418Q14.5605-12.8418 14.3115-12.583Q14.0625-12.3242 14.0625-11.9141L14.0625-7.96875L10.1172-7.96875Q9.70703-7.96875 9.45312-7.71484Q9.19922-7.46094 9.19922-7.05078Z"/>
  </g>
  <text style="stroke:none;fill:black;font-family:sans-serif;font-size:13;font-weight:bold;" transform="matrix(1 0 0 1 263 1953)">Design Variations</text>
  <text style="stroke:none;fill:black;font-family:sans-serif;font-size:13;" transform="matrix(1 0 0 1 263 1971)">Symbols are supported in up to nine weights and three scales.</text>
  <text style="stroke:none;fill:black;font-family:sans-serif;font-size:13;" transform="matrix(1 0 0 1 263 1989)">For optimal layout with text and other symbols, vertically align</text>
  <text style="stroke:none;fill:black;font-family:sans-serif;font-size:13;" transform="matrix(1 0 0 1 263 2007)">symbols with the adjacent text.</text>
  <line style="fill:none;stroke:#00AEEF;stroke-width:0.5;opacity:1.0;" x1="776" x2="776" y1="1919" y2="1933"/>
  <g transform="matrix(1 0 0 1 776 1933)">
   <path d="M3.31055 0.15625Q3.70117 0.15625 3.91602-0.00976562Q4.13086-0.175781 4.26758-0.585938L5.52734-4.0332L11.2891-4.0332L12.5488-0.585938Q12.6855-0.175781 12.9004-0.00976562Q13.1152 0.15625 13.4961 0.15625Q13.8867 0.15625 14.1162-0.0585938Q14.3457-0.273438 14.3457-0.644531Q14.3457-0.869141 14.2383-1.17188L9.6582-13.3691Q9.48242-13.8184 9.17969-14.043Q8.87695-14.2676 8.4082-14.2676Q7.5-14.2676 7.17773-13.3789L2.59766-1.16211Q2.49023-0.859375 2.49023-0.634766Q2.49023-0.263672 2.70996-0.0537109Q2.92969 0.15625 3.31055 0.15625ZM6.00586-5.51758L8.37891-12.0898L8.42773-12.0898L10.8008-5.51758Z"/>
  </g>
  <line style="fill:none;stroke:#00AEEF;stroke-width:0.5;opacity:1.0;" x1="793.197" x2="793.197" y1="1919" y2="1933"/>
  <text style="stroke:none;fill:black;font-family:sans-serif;font-size:13;font-weight:bold;" transform="matrix(1 0 0 1 776 1953)">Margins</text>
  <text style="stroke:none;fill:black;font-family:sans-serif;font-size:13;" transform="matrix(1 0 0 1 776 1971)">Leading and trailing margins on the left and right side of each symbol</text>
  <text style="stroke:none;fill:black;font-family:sans-serif;font-size:13;" transform="matrix(1 0 0 1 776 1989)">can be adjusted by modifying the x-location of the margin guidelines.</text>
  <text style="stroke:none;fill:black;font-family:sans-serif;font-size:13;" transform="matrix(1 0 0 1 776 2007)">Modifications are automatically applied proportionally to all</text>
  <text style="stroke:none;fill:black;font-family:sans-serif;font-size:13;" transform="matrix(1 0 0 1 776 2025)">scales and weights.</text>
  <g transform="matrix(1 0 0 1 1289 1933)">
   <path d="M2.8418 1.86523L4.54102 3.57422Q5.18555 4.22852 5.90332 4.17969Q6.62109 4.13086 7.31445 3.35938L18.0078-8.42773L17.041-9.4043L6.42578 2.27539Q6.16211 2.57812 5.89355 2.61719Q5.625 2.65625 5.27344 2.30469L4.10156 1.14258Q3.75 0.791016 3.79395 0.522461Q3.83789 0.253906 4.14062-0.0195312L15.6152-10.8203L14.6387-11.7871L3.04688-0.898438Q2.30469-0.214844 2.25098 0.498047Q2.19727 1.21094 2.8418 1.86523ZM9.25781-16.3281Q8.94531-16.0254 8.90625-15.6348Q8.86719-15.2441 9.04297-14.9512Q9.21875-14.6777 9.55566-14.541Q9.89258-14.4043 10.3809-14.5215Q11.4746-14.7754 12.5977-14.7314Q13.7207-14.6875 14.7949-13.9844L14.209-12.5293Q13.9551-11.9043 14.0674-11.4404Q14.1797-10.9766 14.5801-10.5664L16.875-8.25195Q17.2363-7.88086 17.5781-7.82227Q17.9199-7.76367 18.3398-7.8418L19.4043-8.03711L20.0684-7.36328L20.0293-6.80664Q20-6.43555 20.1221-6.12305Q20.2441-5.81055 20.6055-5.44922L21.3672-4.70703Q21.7285-4.3457 22.1533-4.33105Q22.5781-4.31641 22.9297-4.66797L25.8398-7.58789Q26.1914-7.93945 26.1816-8.35449Q26.1719-8.76953 25.8105-9.13086L25.0391-9.89258Q24.6875-10.2539 24.3799-10.3857Q24.0723-10.5176 23.7109-10.4883L23.1348-10.4395L22.4902-11.0742L22.7344-12.1973Q22.832-12.6172 22.6953-12.9834Q22.5586-13.3496 22.1191-13.7891L19.9219-15.9766Q18.6719-17.2168 17.2607-17.8369Q15.8496-18.457 14.4189-18.4814Q12.9883-18.5059 11.665-17.959Q10.3418-17.4121 9.25781-16.3281ZM10.752-15.957Q11.6602-16.6211 12.7002-16.9043Q13.7402-17.1875 14.8047-17.085Q15.8691-16.9824 16.8701-16.5137Q17.8711-16.0449 18.7012-15.2051L21.1328-12.793Q21.3086-12.6172 21.3525-12.4512Q21.3965-12.2852 21.3379-12.0312L21.0156-10.5469L22.5195-9.0625L23.5059-9.12109Q23.6914-9.13086 23.7891-9.09668Q23.8867-9.0625 24.0332-8.91602L24.6094-8.33984L22.168-5.89844L21.5918-6.47461Q21.4453-6.62109 21.4062-6.71875Q21.3672-6.81641 21.377-7.01172L21.4453-7.98828L19.9512-9.47266L18.4277-9.21875Q18.1836-9.16992 18.042-9.2041Q17.9004-9.23828 17.7148-9.41406L15.7129-11.416Q15.5176-11.5918 15.4932-11.7529Q15.4688-11.9141 15.5859-12.1875L16.4648-14.2773Q15.293-15.3711 13.8281-15.791Q12.3633-16.2109 10.8398-15.7617Q10.7227-15.7324 10.6885-15.8057Q10.6543-15.8789 10.752-15.957Z"/>
  </g>
  <text style="stroke:none;fill:black;font-family:sans-serif;font-size:13;font-weight:bold;" transform="matrix(1 0 0 1 1289 1953)">Exporting</text>
  <text style="stroke:none;fill:black;font-family:sans-serif;font-size:13;" transform="matrix(1 0 0 1 1289 1971)">Symbols should be outlined when exporting to ensure the</text>
  <text style="stroke:none;fill:black;font-family:sans-serif;font-size:13;" transform="matrix(1 0 0 1 1289 1989)">design is preserved when submitting to Xcode.</text>
  <text id="template-version" style="stroke:none;fill:black;font-family:sans-serif;font-size:13;text-anchor:end;" transform="matrix(1 0 0 1 3036 1933)">Template v.3.0</text>
  <text style="stroke:none;fill:black;font-family:sans-serif;font-size:13;text-anchor:end;" transform="matrix(1 0 0 1 3036 1951)">Requires Xcode 13 or greater</text>
  <text id="descriptive-name" style="stroke:none;fill:black;font-family:sans-serif;font-size:13;text-anchor:end;" transform="matrix(1 0 0 1 3036 1969)">Generated from aqi.low</text>
  <text style="stroke:none;fill:black;font-family:sans-serif;font-size:13;text-anchor:end;" transform="matrix(1 0 0 1 3036 1987)">Typeset at 100 points</text>
  <text style="stroke:none;fill:black;font-family:sans-serif;font-size:13;" transform="matrix(1 0 0 1 263 726)">Small</text>
  <text style="stroke:none;fill:black;font-family:sans-serif;font-size:13;" transform="matrix(1 0 0 1 263 1156)">Medium</text>
  <text style="stroke:none;fill:black;font-family:sans-serif;font-size:13;" transform="matrix(1 0 0 1 263 1586)">Large</text>
 </g>
 <g id="Guides">
  <g id="H-reference" style="fill:#27AAE1;stroke:none;" transform="matrix(1 0 0 1 339 696)">
   <path d="M0.993347 0L3.6377 0L29.3282-67.1326L30.0301-67.1326L30.0301-70.459L28.1227-70.459ZM11.6882-24.4797L46.9818-24.4797L46.2311-26.7288L12.4382-26.7288ZM55.1193 0L57.7637 0L30.6381-70.459L29.4327-70.459L29.4327-67.1326Z"/>
  </g>
  <line id="Baseline-S" style="fill:none;stroke:#27AAE1;opacity:1;stroke-width:0.5;" x1="263" x2="3036" y1="696" y2="696"/>
  <line id="Capline-S" style="fill:none;stroke:#27AAE1;opacity:1;stroke-width:0.5;" x1="263" x2="3036" y1="625.541" y2="625.541"/>
  <g id="H-reference" style="fill:#27AAE1;stroke:none;" transform="matrix(1 0 0 1 339 1126)">
   <path d="M0.993347 0L3.6377 0L29.3282-67.1326L30.0301-67.1326L30.0301-70.459L28.1227-70.459ZM11.6882-24.4797L46.9818-24.4797L46.2311-26.7288L12.4382-26.7288ZM55.1193 0L57.7637 0L30.6381-70.459L29.4327-70.459L29.4327-67.1326Z"/>
  </g>
  <line id="Baseline-M" style="fill:none;stroke:#27AAE1;opacity:1;stroke-width:0.5;" x1="263" x2="3036" y1="1126" y2="1126"/>
  <line id="Capline-M" style="fill:none;stroke:#27AAE1;opacity:1;stroke-width:0.5;" x1="263" x2="3036" y1="1055.54" y2="1055.54"/>
  <g id="H-reference" style="fill:#27AAE1;stroke:none;" transform="matrix(1 0 0 1 339 1556)">
   <path d="M0.993347 0L3.6377 0L29.3282-67.1326L30.0301-67.1326L30.0301-70.459L28.1227-70.459ZM11.6882-24.4797L46.9818-24.4797L46.2311-26.7288L12.4382-26.7288ZM55.1193 0L57.7637 0L30.6381-70.459L29.4327-70.459L29.4327-67.1326Z"/>
  </g>
  <line id="Baseline-L" style="fill:none;stroke:#27AAE1;opacity:1;stroke-width:0.5;" x1="263" x2="3036" y1="1556" y2="1556"/>
  <line id="Capline-L" style="fill:none;stroke:#27AAE1;opacity:1;stroke-width:0.5;" x1="263" x2="3036" y1="1485.54" y2="1485.54"/>
  <line id="left-margin-Ultralight-S" style="fill:none;stroke:#00AEEF;stroke-width:0.5;opacity:1.0;" x1="507.79" x2="507.79" y1="600.785" y2="720.121"/>
  <line id="right-margin-Ultralight-S" style="fill:none;stroke:#00AEEF;stroke-width:0.5;opacity:1.0;" x1="611.632" x2="611.632" y1="600.785" y2="720.121"/>
  <line id="left-margin-Regular-S" style="fill:none;stroke:#00AEEF;stroke-width:0.5;opacity:1.0;" x1="1395.11" x2="1395.11" y1="600.785" y2="720.121"/>
  <line id="right-margin-Regular-S" style="fill:none;stroke:#00AEEF;stroke-width:0.5;opacity:1.0;" x1="1504.58" x2="1504.58" y1="600.785" y2="720.121"/>
  <line id="left-margin-Black-S" style="fill:none;stroke:#00AEEF;stroke-width:0.5;opacity:1.0;" x1="2875.32" x2="2875.32" y1="600.785" y2="720.121"/>
  <line id="right-margin-Black-S" style="fill:none;stroke:#00AEEF;stroke-width:0.5;opacity:1.0;" x1="2991.48" x2="2991.48" y1="600.785" y2="720.121"/>
 </g>
 <g id="Symbols">
  <g id="Black-S" transform="matrix(1 0 0 1 2875.32 696)">
   <path d="M58.1543-75.4883Q60.2051-75.4883 61.5723-76.8555Q62.9395-78.2227 62.9395-80.2734Q62.9395-82.2754 61.5479-83.667Q60.1562-85.0586 58.1543-85.0586Q56.2012-85.0586 54.7852-83.6426Q53.3691-82.2266 53.3691-80.2734Q53.3691-78.3203 54.7852-76.9043Q56.2012-75.4883 58.1543-75.4883ZM38.7695-64.3066Q40.8203-64.3066 42.1875-65.6738Q43.5547-67.041 43.5547-69.0918Q43.5547-71.0938 42.1631-72.4854Q40.7715-73.877 38.7695-73.877Q36.8164-73.877 35.4004-72.4609Q33.9844-71.0449 33.9844-69.0918Q33.9844-67.1387 35.4004-65.7227Q36.8164-64.3066 38.7695-64.3066ZM77.5391-64.3066Q79.5898-64.3066 80.957-65.6738Q82.3242-67.041 82.3242-69.0918Q82.3242-71.0938 80.9326-72.4854Q79.541-73.877 77.5391-73.877Q75.5859-73.877 74.1699-72.4609Q72.7539-71.0449 72.7539-69.0918Q72.7539-67.0898 74.1455-65.6982Q75.5371-64.3066 77.5391-64.3066ZM19.3848-52.9785Q21.4355-52.9785 22.8027-54.3457Q24.1699-55.7129 24.1699-57.7637Q24.1699-59.7656 22.7783-61.1572Q21.3867-62.5488 19.3848-62.5488Q17.4316-62.5488 16.04-61.1328Q14.6484-59.7168 14.6484-57.7637Q14.6484-55.7617 16.04-54.3701Q17.4316-52.9785 19.3848-52.9785ZM58.1543-52.9785Q60.2051-52.9785 61.5723-54.3457Q62.9395-55.7129 62.9395-57.7637Q62.9395-59.7656 61.5479-61.1572Q60.1562-62.5488 58.1543-62.5488Q56.2012-62.5488 54.7852-61.1328Q53.3691-59.7168 53.3691-57.7637Q53.3691-55.8105 54.7852-54.3945Q56.2012-52.9785 58.1543-52.9785ZM96.7773-52.9785Q98.7793-52.9785 100.146-54.3457Q101.514-55.7129 101.514-57.7637Q101.514-59.7656 100.146-61.1572Q98.7793-62.5488 96.7773-62.5488Q94.8242-62.5488 93.4082-61.1328Q91.9922-59.7168 91.9922-57.7637Q91.9922-55.7617 93.3838-54.3701Q94.7754-52.9785 96.7773-52.9785ZM38.7695-41.748Q40.8203-41.748 42.1875-43.1152Q43.5547-44.4824 43.5547-46.5332Q43.5547-48.5352 42.1631-49.9268Q40.7715-51.3184 38.7695-51.3184Q36.8164-51.3184 35.4004-49.9023Q33.9844-48.4863 33.9844-46.5332Q33.9844-44.5801 35.4004-43.1641Q36.8164-41.748 38.7695-41.748ZM77.5391-41.748Q79.5898-41.748 80.957-43.1152Q82.3242-44.4824 82.3242-46.5332Q82.3242-48.5352 80.9326-49.9268Q79.541-51.3184 77.5391-51.3184Q75.5859-51.3184 74.1699-49.9023Q72.7539-48.4863 72.7539-46.5332Q72.7539-44.5312 74.1455-43.1396Q75.5371-41.748 77.5391-41.748ZM19.3848-30.4688Q21.4355-30.4688 22.8027-31.8359Q24.1699-33.2031 24.1699-35.2539Q24.1699-37.2559 22.7783-38.6475Q21.3867-40.0391 19.3848-40.0391Q17.4316-40.0391 16.04-38.623Q14.6484-37.207 14.6484-35.2539Q14.6484-33.252 16.04-31.8604Q17.4316-30.4688 19.3848-30.4688ZM58.1543-30.4688Q60.2051-30.4688 61.5723-31.8359Q62.9395-33.2031 62.9395-35.2539Q62.9395-37.2559 61.5479-38.6475Q60.1562-40.0391 58.1543-40.0391Q56.2012-40.0391 54.7852-38.623Q53.3691-37.207 53.3691-35.2539Q53.3691-33.3008 54.7852-31.8848Q56.2012-30.4688 58.1543-30.4688ZM96.7773-30.4688Q98.7793-30.4688 100.146-31.8359Q101.514-33.2031 101.514-35.2539Q101.514-37.2559 100.146-38.6475Q98.7793-40.0391 96.7773-40.0391Q94.8242-40.0391 93.4082-38.623Q91.9922-37.207 91.9922-35.2539Q91.9922-33.252 93.3838-31.8604Q94.7754-30.4688 96.7773-30.4688ZM38.7695-19.1895Q40.8203-19.1895 42.1875-20.5566Q43.5547-21.9238 43.5547-23.9746Q43.5547-25.9766 42.1631-27.3682Q40.7715-28.7598 38.7695-28.7598Q36.8164-28.7598 35.4004-27.3438Q33.9844-25.9277 33.9844-23.9746Q33.9844-22.0215 35.4004-20.6055Q36.8164-19.1895 38.7695-19.1895ZM77.5391-19.1895Q79.5898-19.1895 80.957-20.5566Q82.3242-21.9238 82.3242-23.9746Q82.3242-25.9766 80.9326-27.3682Q79.541-28.7598 77.5391-28.7598Q75.5859-28.7598 74.1699-27.3682Q72.7539-25.9766 72.7539-23.9746Q72.7539-21.9727 74.1455-20.5811Q75.5371-19.1895 77.5391-19.1895ZM19.3848-7.95898Q21.4355-7.95898 22.8027-9.32617Q24.1699-10.6934 24.1699-12.7441Q24.1699-14.7461 22.7783-16.1377Q21.3867-17.5293 19.3848-17.5293Q17.4316-17.5293 16.04-16.1377Q14.6484-14.7461 14.6484-12.7441Q14.6484-10.7422 16.04-9.35059Q17.4316-7.95898 19.3848-7.95898ZM58.1543-7.95898Q60.2051-7.95898 61.5723-9.32617Q62.9395-10.6934 62.9395-12.7441Q62.9395-14.7461 61.5479-16.1377Q60.1562-17.5293 58.1543-17.5293Q56.2012-17.5293 54.7852-16.1133Q53.3691-14.6973 53.3691-12.7441Q53.3691-10.791 54.7852-9.375Q56.2012-7.95898 58.1543-7.95898ZM96.7773-7.95898Q98.7793-7.95898 100.146-9.32617Q101.514-10.6934 101.514-12.7441Q101.514-14.7461 100.146-16.1377Q98.7793-17.5293 96.7773-17.5293Q94.8242-17.5293 93.4082-16.1377Q91.9922-14.7461 91.9922-12.7441Q91.9922-10.7422 93.3838-9.35059Q94.7754-7.95898 96.7773-7.95898ZM38.7695 3.36914Q40.8203 3.36914 42.1875 2.00195Q43.5547 0.634766 43.5547-1.41602Q43.5547-3.41797 42.1631-4.80957Q40.7715-6.20117 38.7695-6.20117Q36.8164-6.20117 35.4004-4.78516Q33.9844-3.36914 33.9844-1.41602Q33.9844 0.537109 35.4004 1.95312Q36.8164 3.36914 38.7695 3.36914ZM77.5391 3.36914Q79.5898 3.36914 80.957 2.00195Q82.3242 0.634766 82.3242-1.41602Q82.3242-3.41797 80.9326-4.80957Q79.541-6.20117 77.5391-6.20117Q75.5859-6.20117 74.1699-4.80957Q72.7539-3.41797 72.7539-1.41602Q72.7539 0.585938 74.1455 1.97754Q75.5371 3.36914 77.5391 3.36914ZM58.1543 14.5508Q60.1562 14.5508 61.5479 13.1592Q62.9395 11.7676 62.9395 9.76562Q62.9395 7.76367 61.5479 6.37207Q60.1562 4.98047 58.1543 4.98047Q56.2012 4.98047 54.7852 6.39648Q53.3691 7.8125 53.3691 9.76562Q53.3691 11.7188 54.7852 13.1348Q56.2012 14.5508 58.1543 14.5508Z"/>
  </g>
  <g id="Regular-S" transform="matrix(1 0 0 1 1395.11 696)">
   <path d="M54.834-74.6582Q56.25-74.6582 57.2021-75.6104Q58.1543-76.5625 58.1543-78.0273Q58.1543-79.3945 57.1777-80.3711Q56.2012-81.3477 54.834-81.3477Q53.4668-81.3477 52.4658-80.3711Q51.4648-79.3945 51.4648-78.0273Q51.4648-76.6113 52.4414-75.6348Q53.418-74.6582 54.834-74.6582ZM36.4258-64.0625Q37.8418-64.0625 38.7939-65.0146Q39.7461-65.9668 39.7461-67.3828Q39.7461-68.7988 38.7695-69.7754Q37.793-70.752 36.4258-70.752Q35.0586-70.752 34.0576-69.751Q33.0566-68.75 33.0566-67.3828Q33.0566-66.0156 34.0332-65.0391Q35.0098-64.0625 36.4258-64.0625ZM73.2422-64.0625Q74.6582-64.0625 75.6104-65.0146Q76.5625-65.9668 76.5625-67.3828Q76.5625-68.7988 75.5859-69.7754Q74.6094-70.752 73.2422-70.752Q71.875-70.752 70.874-69.751Q69.873-68.75 69.873-67.3828Q69.873-66.0156 70.8496-65.0391Q71.8262-64.0625 73.2422-64.0625ZM18.0176-53.2715Q19.4336-53.2715 20.3857-54.2236Q21.3379-55.1758 21.3379-56.6406Q21.3379-58.0566 20.3613-59.0088Q19.3848-59.9609 18.0176-59.9609Q16.6504-59.9609 15.6494-58.9844Q14.6484-58.0078 14.6484-56.6406Q14.6484-55.2246 15.625-54.248Q16.6016-53.2715 18.0176-53.2715ZM54.834-53.2715Q56.25-53.2715 57.2021-54.2236Q58.1543-55.1758 58.1543-56.6406Q58.1543-58.0566 57.1777-59.0088Q56.2012-59.9609 54.834-59.9609Q53.4668-59.9609 52.4658-58.9844Q51.4648-58.0078 51.4648-56.6406Q51.4648-55.2246 52.4414-54.248Q53.418-53.2715 54.834-53.2715ZM91.5039-53.2715Q92.9199-53.2715 93.8721-54.2236Q94.8242-55.1758 94.8242-56.6406Q94.8242-58.0566 93.8477-59.0088Q92.8711-59.9609 91.5039-59.9609Q90.1367-59.9609 89.1357-58.9844Q88.1348-58.0078 88.1348-56.6406Q88.1348-55.2246 89.1113-54.248Q90.0879-53.2715 91.5039-53.2715ZM36.4258-42.627Q37.8418-42.627 38.7939-43.5791Q39.7461-44.5312 39.7461-45.9473Q39.7461-47.3633 38.7695-48.3398Q37.793-49.3164 36.4258-49.3164Q35.0586-49.3164 34.0576-48.3154Q33.0566-47.3145 33.0566-45.9473Q33.0566-44.5801 34.0332-43.6035Q35.0098-42.627 36.4258-42.627ZM73.2422-42.627Q74.6582-42.627 75.6104-43.5791Q76.5625-44.5312 76.5625-45.9473Q76.5625-47.3633 75.5859-48.3398Q74.6094-49.3164 73.2422-49.3164Q71.875-49.3164 70.874-48.3154Q69.873-47.3145 69.873-45.9473Q69.873-44.5801 70.8496-43.6035Q71.8262-42.627 73.2422-42.627ZM18.0176-31.8848Q19.4336-31.8848 20.3857-32.8613Q21.3379-33.8379 21.3379-35.2539Q21.3379-36.6699 20.3613-37.6465Q19.3848-38.623 18.0176-38.623Q16.6504-38.623 15.6494-37.6221Q14.6484-36.6211 14.6484-35.2539Q14.6484-33.8379 15.625-32.8613Q16.6016-31.8848 18.0176-31.8848ZM54.834-31.8848Q56.25-31.8848 57.2021-32.8613Q58.1543-33.8379 58.1543-35.2539Q58.1543-36.6699 57.1777-37.6465Q56.2012-38.623 54.834-38.623Q53.4668-38.623 52.4658-37.6221Q51.4648-36.6211 51.4648-35.2539Q51.4648-33.8379 52.4414-32.8613Q53.418-31.8848 54.834-31.8848ZM91.5039-31.8848Q92.9199-31.8848 93.8721-32.8613Q94.8242-33.8379 94.8242-35.2539Q94.8242-36.6699 93.8477-37.6465Q92.8711-38.623 91.5039-38.623Q90.1367-38.623 89.1357-37.6221Q88.1348-36.6211 88.1348-35.2539Q88.1348-33.8379 89.1113-32.8613Q90.0879-31.8848 91.5039-31.8848ZM36.4258-21.1914Q37.8418-21.1914 38.7939-22.1436Q39.7461-23.0957 39.7461-24.5605Q39.7461-25.9277 38.7695-26.9043Q37.793-27.8809 36.4258-27.8809Q35.0586-27.8809 34.0576-26.8799Q33.0566-25.8789 33.0566-24.5605Q33.0566-23.1445 34.0332-22.168Q35.0098-21.1914 36.4258-21.1914ZM73.2422-21.1914Q74.6582-21.1914 75.6104-22.1436Q76.5625-23.0957 76.5625-24.5605Q76.5625-25.9277 75.5859-26.9043Q74.6094-27.8809 73.2422-27.8809Q71.875-27.8809 70.874-26.8799Q69.873-25.8789 69.873-24.5605Q69.873-23.1445 70.8496-22.168Q71.8262-21.1914 73.2422-21.1914ZM18.0176-10.5469Q19.4336-10.5469 20.3857-11.499Q21.3379-12.4512 21.3379-13.8672Q21.3379-15.2832 20.3613-16.2598Q19.3848-17.2363 18.0176-17.2363Q16.6504-17.2363 15.6494-16.2354Q14.6484-15.2344 14.6484-13.8672Q14.6484-12.4512 15.625-11.499Q16.6016-10.5469 18.0176-10.5469ZM54.834-10.5469Q56.25-10.5469 57.2021-11.499Q58.1543-12.4512 58.1543-13.8672Q58.1543-15.2832 57.1777-16.2598Q56.2012-17.2363 54.834-17.2363Q53.4668-17.2363 52.4658-16.2354Q51.4648-15.2344 51.4648-13.8672Q51.4648-12.4512 52.4414-11.499Q53.418-10.5469 54.834-10.5469ZM91.5039-10.5469Q92.9199-10.5469 93.8721-11.499Q94.8242-12.4512 94.8242-13.8672Q94.8242-15.2832 93.8477-16.2598Q92.8711-17.2363 91.5039-17.2363Q90.1367-17.2363 89.1357-16.2354Q88.1348-15.2344 88.1348-13.8672Q88.1348-12.4512 89.1113-11.499Q90.0879-10.5469 91.5039-10.5469ZM36.4258 0.244141Q37.8418 0.244141 38.7939-0.708008Q39.7461-1.66016 39.7461-3.125Q39.7461-4.49219 38.7695-5.46875Q37.793-6.44531 36.4258-6.44531Q35.0586-6.44531 34.0576-5.46875Q33.0566-4.49219 33.0566-3.125Q33.0566-1.70898 34.0332-0.732422Q35.0098 0.244141 36.4258 0.244141ZM73.2422 0.244141Q74.6582 0.244141 75.6104-0.708008Q76.5625-1.66016 76.5625-3.125Q76.5625-4.49219 75.5859-5.46875Q74.6094-6.44531 73.2422-6.44531Q71.875-6.44531 70.874-5.46875Q69.873-4.49219 69.873-3.125Q69.873-1.70898 70.8496-0.732422Q71.8262 0.244141 73.2422 0.244141ZM54.834 10.8398Q56.25 10.8398 57.2021 9.8877Q58.1543 8.93555 58.1543 7.51953Q58.1543 6.10352 57.1777 5.12695Q56.2012 4.15039 54.834 4.15039Q53.4668 4.15039 52.4658 5.15137Q51.4648 6.15234 51.4648 7.51953Q51.4648 8.88672 52.4414 9.86328Q53.418 10.8398 54.834 10.8398Z"/>
  </g>
  <g id="Ultralight-S" transform="matrix(1 0 0 1 507.79 696)">
   <path d="M52.0187-74.0677Q52.935-74.0677 53.524-74.6567Q54.113-75.2457 54.113-76.1658Q54.113-77.079 53.4996-77.7149Q52.8862-78.3508 52.0187-78.3508Q51.1513-78.3508 50.5135-77.7149Q49.8756-77.079 49.8756-76.1658Q49.8756-75.2487 50.489-74.6582Q51.1024-74.0677 52.0187-74.0677ZM34.3826-63.8809Q35.3439-63.8809 35.9104-64.4924Q36.4769-65.1039 36.4769-66.0202Q36.4769-66.9373 35.886-67.5503Q35.2951-68.1633 34.3826-68.1633Q33.5144-68.1633 32.8995-67.5259Q32.2845-66.8884 32.2845-66.0202Q32.2845-65.1077 32.8751-64.4943Q33.4656-63.8809 34.3826-63.8809ZM69.6091-63.8809Q70.5711-63.8809 71.1601-64.4924Q71.7491-65.1039 71.7491-66.0202Q71.7491-66.9373 71.1357-67.5503Q70.5223-68.1633 69.6091-68.1633Q68.7416-68.1633 68.1267-67.5259Q67.5117-66.8884 67.5117-66.0202Q67.5117-65.1077 68.1252-64.4943Q68.7386-63.8809 69.6091-63.8809ZM16.7458-53.5896Q17.7078-53.5896 18.2968-54.1782Q18.8858-54.7668 18.8858-55.7327Q18.8858-56.6032 18.2724-57.2151Q17.659-57.827 16.7458-57.827Q15.8783-57.827 15.2634-57.2136Q14.6484-56.6002 14.6484-55.7327Q14.6484-54.8157 15.2618-54.2027Q15.8752-53.5896 16.7458-53.5896ZM52.0187-53.5896Q52.935-53.5896 53.524-54.1782Q54.113-54.7668 54.113-55.7327Q54.113-56.6032 53.4996-57.2151Q52.8862-57.827 52.0187-57.827Q51.1055-57.827 50.4906-57.2136Q49.8756-56.6002 49.8756-55.7327Q49.8756-54.8157 50.489-54.2027Q51.1024-53.5896 52.0187-53.5896ZM87.0995-53.5896Q88.0157-53.5896 88.6047-54.1782Q89.1937-54.7668 89.1937-55.7327Q89.1937-56.649 88.6028-57.238Q88.0119-57.827 87.0995-57.827Q86.2312-57.827 85.5938-57.2136Q84.9564-56.6002 84.9564-55.7327Q84.9564-54.8157 85.5694-54.2027Q86.1824-53.5896 87.0995-53.5896ZM34.3826-43.3533Q35.3439-43.3533 35.9104-43.9651Q36.4769-44.577 36.4769-45.5383Q36.4769-46.4554 35.886-47.0459Q35.2951-47.6364 34.3826-47.6364Q33.5144-47.6364 32.8995-47.0215Q32.2845-46.4066 32.2845-45.5383Q32.2845-44.5801 32.8751-43.9667Q33.4656-43.3533 34.3826-43.3533ZM69.6091-43.3533Q70.5711-43.3533 71.1601-43.9651Q71.7491-44.577 71.7491-45.5383Q71.7491-46.4554 71.1357-47.0459Q70.5223-47.6364 69.6091-47.6364Q68.7416-47.6364 68.1267-47.0215Q67.5117-46.4066 67.5117-45.5383Q67.5117-44.5801 68.1252-43.9667Q68.7386-43.3533 69.6091-43.3533ZM16.7458-33.1566Q17.7078-33.1566 18.2968-33.7242Q18.8858-34.2918 18.8858-35.2539Q18.8858-36.1702 18.2724-36.7607Q17.659-37.3512 16.7458-37.3512Q15.8783-37.3512 15.2634-36.7592Q14.6484-36.1671 14.6484-35.2539Q14.6484-34.3376 15.2618-33.7471Q15.8752-33.1566 16.7458-33.1566ZM52.0187-33.1566Q52.935-33.1566 53.524-33.7242Q54.113-34.2918 54.113-35.2539Q54.113-36.1702 53.4996-36.7607Q52.8862-37.3512 52.0187-37.3512Q51.1055-37.3512 50.4906-36.7592Q49.8756-36.1671 49.8756-35.2539Q49.8756-34.3376 50.489-33.7471Q51.1024-33.1566 52.0187-33.1566ZM87.0995-33.1566Q88.0157-33.1566 88.6047-33.7242Q89.1937-34.2918 89.1937-35.2539Q89.1937-36.216 88.6028-36.7836Q88.0119-37.3512 87.0995-37.3512Q86.2312-37.3512 85.5938-36.7363Q84.9564-36.1214 84.9564-35.2539Q84.9564-34.3376 85.5694-33.7471Q86.1824-33.1566 87.0995-33.1566ZM34.3826-22.8714Q35.3439-22.8714 35.9104-23.4604Q36.4769-24.0494 36.4769-24.9695Q36.4769-25.882 35.886-26.5182Q35.2951-27.1545 34.3826-27.1545Q33.5144-27.1545 32.8995-26.5167Q32.2845-25.8789 32.2845-24.9695Q32.2845-24.0524 32.8751-23.4619Q33.4656-22.8714 34.3826-22.8714ZM69.6091-22.8714Q70.5711-22.8714 71.1601-23.4604Q71.7491-24.0494 71.7491-24.9695Q71.7491-25.882 71.1357-26.5182Q70.5223-27.1545 69.6091-27.1545Q68.7416-27.1545 68.1267-26.5167Q67.5117-25.8789 67.5117-24.9695Q67.5117-24.0524 68.1252-23.4619Q68.7386-22.8714 69.6091-22.8714ZM16.7458-12.6808Q17.7078-12.6808 18.2968-13.2698Q18.8858-13.8588 18.8858-14.7751Q18.8858-15.6921 18.2724-16.3052Q17.659-16.9182 16.7458-16.9182Q15.8783-16.9182 15.2634-16.2807Q14.6484-15.6433 14.6484-14.7751Q14.6484-13.8588 15.239-13.2698Q15.8295-12.6808 16.7458-12.6808ZM52.0187-12.6808Q52.935-12.6808 53.524-13.2698Q54.113-13.8588 54.113-14.7751Q54.113-15.6921 53.4996-16.3052Q52.8862-16.9182 52.0187-16.9182Q51.1513-16.9182 50.5135-16.2807Q49.8756-15.6433 49.8756-14.7751Q49.8756-13.8588 50.4662-13.2698Q51.0567-12.6808 52.0187-12.6808ZM87.0995-12.6808Q88.0608-12.6808 88.6272-13.2473Q89.1937-13.8138 89.1937-14.7751Q89.1937-15.6921 88.6028-16.3052Q88.0119-16.9182 87.0995-16.9182Q86.2312-16.9182 85.5938-16.2807Q84.9564-15.6433 84.9564-14.7751Q84.9564-13.9046 85.5694-13.2927Q86.1824-12.6808 87.0995-12.6808ZM34.3826-2.34451Q35.3439-2.34451 35.9104-2.93312Q36.4769-3.52173 36.4769-4.48761Q36.4769-5.35507 35.886-5.99098Q35.2951-6.62689 34.3826-6.62689Q33.5144-6.62689 32.8995-5.99098Q32.2845-5.35507 32.2845-4.48761Q32.2845-3.57056 32.8751-2.95753Q33.4656-2.34451 34.3826-2.34451ZM69.6091-2.34451Q70.5711-2.34451 71.1601-2.93312Q71.7491-3.52173 71.7491-4.48761Q71.7491-5.35507 71.1357-5.99098Q70.5223-6.62689 69.6091-6.62689Q68.7416-6.62689 68.1267-5.99098Q67.5117-5.35507 67.5117-4.48761Q67.5117-3.57056 68.1252-2.95753Q68.7386-2.34451 69.6091-2.34451ZM52.0187 7.84302Q52.935 7.84302 53.524 7.23152Q54.113 6.62003 54.113 5.65796Q54.113 4.74091 53.4996 4.15039Q52.8862 3.55988 52.0187 3.55988Q51.1513 3.55988 50.5135 4.1748Q49.8756 4.78973 49.8756 5.65796Q49.8756 6.61621 50.489 7.22961Q51.1024 7.84302 52.0187 7.84302Z"/>
  </g>
 </g>
</svg>
