<?xml version="1.0" encoding="UTF-8"?>
<!--Generator: Apple Native CoreSVG 175-->
<!DOCTYPE svg
PUBLIC "-//W3C//DTD SVG 1.1//EN"
       "http://www.w3.org/Graphics/SVG/1.1/DTD/svg11.dtd">
<svg version="1.1" xmlns="http://www.w3.org/2000/svg" xmlns:xlink="http://www.w3.org/1999/xlink" width="3300" height="2200">
 <!--glyph: "uni100D3F.medium", point size: 100.0, font version: "17.1d1e1", template writer version: "65.1"-->
 <g id="Notes">
  <rect height="2200" id="artboard" style="fill:white;opacity:1" width="3300" x="0" y="0"/>
  <line style="fill:none;stroke:black;opacity:1;stroke-width:0.5;" x1="263" x2="3036" y1="292" y2="292"/>
  <text style="stroke:none;fill:black;font-family:sans-serif;font-size:13;font-weight:bold;" transform="matrix(1 0 0 1 263 322)">Weight/Scale Variations</text>
  <text style="stroke:none;fill:black;font-family:sans-serif;font-size:13;text-anchor:middle;" transform="matrix(1 0 0 1 559.711 322)">Ultralight</text>
  <text style="stroke:none;fill:black;font-family:sans-serif;font-size:13;text-anchor:middle;" transform="matrix(1 0 0 1 856.422 322)">Thin</text>
  <text style="stroke:none;fill:black;font-family:sans-serif;font-size:13;text-anchor:middle;" transform="matrix(1 0 0 1 1153.13 322)">Light</text>
  <text style="stroke:none;fill:black;font-family:sans-serif;font-size:13;text-anchor:middle;" transform="matrix(1 0 0 1 1449.84 322)">Regular</text>
  <text style="stroke:none;fill:black;font-family:sans-serif;font-size:13;text-anchor:middle;" transform="matrix(1 0 0 1 1746.56 322)">Medium</text>
  <text style="stroke:none;fill:black;font-family:sans-serif;font-size:13;text-anchor:middle;" transform="matrix(1 0 0 1 2043.27 322)">Semibold</text>
  <text style="stroke:none;fill:black;font-family:sans-serif;font-size:13;text-anchor:middle;" transform="matrix(1 0 0 1 2339.98 322)">Bold</text>
  <text style="stroke:none;fill:black;font-family:sans-serif;font-size:13;text-anchor:middle;" transform="matrix(1 0 0 1 2636.69 322)">Heavy</text>
  <text style="stroke:none;fill:black;font-family:sans-serif;font-size:13;text-anchor:middle;" transform="matrix(1 0 0 1 2933.4 322)">Black</text>
  <line style="fill:none;stroke:black;opacity:1;stroke-width:0.5;" x1="263" x2="3036" y1="1903" y2="1903"/>
  <g transform="matrix(1 0 0 1 263 1933)">
   <path d="M9.24805 0.830078Q10.8691 0.830078 12.2949 0.214844Q13.7207-0.400391 14.8096-1.49414Q15.8984-2.58789 16.5186-4.01367Q17.1387-5.43945 17.1387-7.05078Q17.1387-8.66211 16.5186-10.0879Q15.8984-11.5137 14.8047-12.6074Q13.7109-13.7012 12.2852-14.3164Q10.8594-14.9316 9.23828-14.9316Q7.62695-14.9316 6.20117-14.3164Q4.77539-13.7012 3.69141-12.6074Q2.60742-11.5137 1.9873-10.0879Q1.36719-8.66211 1.36719-7.05078Q1.36719-5.43945 1.9873-4.01367Q2.60742-2.58789 3.69629-1.49414Q4.78516-0.400391 6.21094 0.214844Q7.63672 0.830078 9.24805 0.830078ZM9.24805-0.654297Q7.91992-0.654297 6.7627-1.14746Q5.60547-1.64062 4.73145-2.51953Q3.85742-3.39844 3.36426-4.56055Q2.87109-5.72266 2.87109-7.05078Q2.87109-8.37891 3.35938-9.54102Q3.84766-10.7031 4.72168-11.582Q5.5957-12.4609 6.75293-12.9541Q7.91016-13.4473 9.23828-13.4473Q10.5762-13.4473 11.7334-12.9541Q12.8906-12.4609 13.7695-11.582Q14.6484-10.7031 15.1465-9.54102Q15.6445-8.37891 15.6445-7.05078Q15.6445-5.72266 15.1514-4.56055Q14.6582-3.39844 13.7842-2.51953Q12.9102-1.64062 11.748-1.14746Q10.5859-0.654297 9.24805-0.654297ZM5.6543-7.05078Q5.6543-6.72852 5.85938-6.52832Q6.06445-6.32812 6.40625-6.32812L8.51562-6.32812L8.51562-4.20898Q8.51562-3.88672 8.71094-3.67676Q8.90625-3.4668 9.23828-3.4668Q9.56055-3.4668 9.77051-3.67676Q9.98047-3.88672 9.98047-4.20898L9.98047-6.32812L12.0898-6.32812Q12.4219-6.32812 12.627-6.52832Q12.832-6.72852 12.832-7.05078Q12.832-7.38281 12.627-7.58789Q12.4219-7.79297 12.0898-7.79297L9.98047-7.79297L9.98047-9.90234Q9.98047-10.2344 9.77051-10.4443Q9.56055-10.6543 9.23828-10.6543Q8.90625-10.6543 8.71094-10.4443Q8.51562-10.2344 8.51562-9.90234L8.51562-7.79297L6.40625-7.79297Q6.06445-7.79297 5.85938-7.58789Q5.6543-7.38281 5.6543-7.05078Z"/>
  </g>
  <g transform="matrix(1 0 0 1 281.867 1933)">
   <path d="M11.709 2.91016Q13.75 2.91016 15.5518 2.12891Q17.3535 1.34766 18.7305-0.0292969Q20.1074-1.40625 20.8887-3.20801Q21.6699-5.00977 21.6699-7.05078Q21.6699-9.0918 20.8887-10.8936Q20.1074-12.6953 18.7305-14.0723Q17.3535-15.4492 15.5469-16.2305Q13.7402-17.0117 11.6992-17.0117Q9.6582-17.0117 7.85645-16.2305Q6.05469-15.4492 4.68262-14.0723Q3.31055-12.6953 2.5293-10.8936Q1.74805-9.0918 1.74805-7.05078Q1.74805-5.00977 2.5293-3.20801Q3.31055-1.40625 4.6875-0.0292969Q6.06445 1.34766 7.86621 2.12891Q9.66797 2.91016 11.709 2.91016ZM11.709 1.25Q9.98047 1.25 8.47656 0.605469Q6.97266-0.0390625 5.83496-1.17676Q4.69727-2.31445 4.05762-3.81836Q3.41797-5.32227 3.41797-7.05078Q3.41797-8.7793 4.05762-10.2832Q4.69727-11.7871 5.83008-12.9297Q6.96289-14.0723 8.4668-14.7119Q9.9707-15.3516 11.6992-15.3516Q13.4277-15.3516 14.9316-14.7119Q16.4355-14.0723 17.5781-12.9297Q18.7207-11.7871 19.3652-10.2832Q20.0098-8.7793 20.0098-7.05078Q20.0098-5.32227 19.3701-3.81836Q18.7305-2.31445 17.5928-1.17676Q16.4551-0.0390625 14.9463 0.605469Q13.4375 1.25 11.709 1.25ZM7.17773-7.05078Q7.17773-6.69922 7.41211-6.47461Q7.64648-6.25 8.01758-6.25L10.8887-6.25L10.8887-3.36914Q10.8887-2.99805 11.1133-2.76855Q11.3379-2.53906 11.6895-2.53906Q12.0605-2.53906 12.29-2.76855Q12.5195-2.99805 12.5195-3.36914L12.5195-6.25L15.4004-6.25Q15.7715-6.25 16.001-6.47461Q16.2305-6.69922 16.2305-7.05078Q16.2305-7.42188 16.001-7.65137Q15.7715-7.88086 15.4004-7.88086L12.5195-7.88086L12.5195-10.752Q12.5195-11.1328 12.29-11.3623Q12.0605-11.5918 11.6895-11.5918Q11.3379-11.5918 11.1133-11.3574Q10.8887-11.123 10.8887-10.752L10.8887-7.88086L8.01758-7.88086Q7.63672-7.88086 7.40723-7.65137Q7.17773-7.42188 7.17773-7.05078Z"/>
  </g>
  <g transform="matrix(1 0 0 1 305.646 1933)">
   <path d="M14.9707 5.66406Q17.0605 5.66406 18.96 5.01465Q20.8594 4.36523 22.4512 3.19336Q24.043 2.02148 25.2197 0.429688Q26.3965-1.16211 27.0459-3.06641Q27.6953-4.9707 27.6953-7.05078Q27.6953-9.14062 27.0459-11.04Q26.3965-12.9395 25.2197-14.5312Q24.043-16.123 22.4512-17.2998Q20.8594-18.4766 18.9551-19.126Q17.0508-19.7754 14.9609-19.7754Q12.8711-19.7754 10.9717-19.126Q9.07227-18.4766 7.48535-17.2998Q5.89844-16.123 4.72168-14.5312Q3.54492-12.9395 2.90039-11.04Q2.25586-9.14062 2.25586-7.05078Q2.25586-4.9707 2.90527-3.06641Q3.55469-1.16211 4.72656 0.429688Q5.89844 2.02148 7.49023 3.19336Q9.08203 4.36523 10.9814 5.01465Q12.8809 5.66406 14.9707 5.66406ZM14.9707 3.84766Q13.1641 3.84766 11.5283 3.2959Q9.89258 2.74414 8.53516 1.74805Q7.17773 0.751953 6.17676-0.610352Q5.17578-1.97266 4.62891-3.6084Q4.08203-5.24414 4.08203-7.05078Q4.08203-8.86719 4.62891-10.5029Q5.17578-12.1387 6.17188-13.501Q7.16797-14.8633 8.52539-15.8594Q9.88281-16.8555 11.5186-17.4023Q13.1543-17.9492 14.9609-17.9492Q16.7773-17.9492 18.4131-17.4023Q20.0488-16.8555 21.4111-15.8594Q22.7734-14.8633 23.7695-13.501Q24.7656-12.1387 25.3174-10.5029Q25.8691-8.86719 25.8691-7.05078Q25.8789-5.24414 25.332-3.6084Q24.7852-1.97266 23.7842-0.610352Q22.7832 0.751953 21.4209 1.74805Q20.0586 2.74414 18.4229 3.2959Q16.7871 3.84766 14.9707 3.84766ZM9.19922-7.05078Q9.19922-6.66992 9.45801-6.4209Q9.7168-6.17188 10.1172-6.17188L14.0625-6.17188L14.0625-2.2168Q14.0625-1.81641 14.3115-1.55762Q14.5605-1.29883 14.9512-1.29883Q15.3516-1.29883 15.6104-1.55273Q15.8691-1.80664 15.8691-2.2168L15.8691-6.17188L19.8242-6.17188Q20.2246-6.17188 20.4785-6.4209Q20.7324-6.66992 20.7324-7.05078Q20.7324-7.46094 20.4785-7.71484Q20.2246-7.96875 19.8242-7.96875L15.8691-7.96875L15.8691-11.9141Q15.8691-12.3242 15.6104-12.583Q15.3516-12.8418 14.9512-12.8418Q14.5605-12.8418 14.3115-12.583Q14.0625-12.3242 14.0625-11.9141L14.0625-7.96875L10.1172-7.96875Q9.70703-7.96875 9.45312-7.71484Q9.19922-7.46094 9.19922-7.05078Z"/>
  </g>
  <text style="stroke:none;fill:black;font-family:sans-serif;font-size:13;font-weight:bold;" transform="matrix(1 0 0 1 263 1953)">Design Variations</text>
  <text style="stroke:none;fill:black;font-family:sans-serif;font-size:13;" transform="matrix(1 0 0 1 263 1971)">Symbols are supported in up to nine weights and three scales.</text>
  <text style="stroke:none;fill:black;font-family:sans-serif;font-size:13;" transform="matrix(1 0 0 1 263 1989)">For optimal layout with text and other symbols, vertically align</text>
  <text style="stroke:none;fill:black;font-family:sans-serif;font-size:13;" transform="matrix(1 0 0 1 263 2007)">symbols with the adjacent text.</text>
  <line style="fill:none;stroke:#00AEEF;stroke-width:0.5;opacity:1.0;" x1="776" x2="776" y1="1919" y2="1933"/>
  <g transform="matrix(1 0 0 1 776 1933)">
   <path d="M3.31055 0.15625Q3.70117 0.15625 3.91602-0.00976562Q4.13086-0.175781 4.26758-0.585938L5.52734-4.0332L11.2891-4.0332L12.5488-0.585938Q12.6855-0.175781 12.9004-0.00976562Q13.1152 0.15625 13.4961 0.15625Q13.8867 0.15625 14.1162-0.0585938Q14.3457-0.273438 14.3457-0.644531Q14.3457-0.869141 14.2383-1.17188L9.6582-13.3691Q9.48242-13.8184 9.17969-14.043Q8.87695-14.2676 8.4082-14.2676Q7.5-14.2676 7.17773-13.3789L2.59766-1.16211Q2.49023-0.859375 2.49023-0.634766Q2.49023-0.263672 2.70996-0.0537109Q2.92969 0.15625 3.31055 0.15625ZM6.00586-5.51758L8.37891-12.0898L8.42773-12.0898L10.8008-5.51758Z"/>
  </g>
  <line style="fill:none;stroke:#00AEEF;stroke-width:0.5;opacity:1.0;" x1="793.197" x2="793.197" y1="1919" y2="1933"/>
  <text style="stroke:none;fill:black;font-family:sans-serif;font-size:13;font-weight:bold;" transform="matrix(1 0 0 1 776 1953)">Margins</text>
  <text style="stroke:none;fill:black;font-family:sans-serif;font-size:13;" transform="matrix(1 0 0 1 776 1971)">Leading and trailing margins on the left and right side of each symbol</text>
  <text style="stroke:none;fill:black;font-family:sans-serif;font-size:13;" transform="matrix(1 0 0 1 776 1989)">can be adjusted by modifying the x-location of the margin guidelines.</text>
  <text style="stroke:none;fill:black;font-family:sans-serif;font-size:13;" transform="matrix(1 0 0 1 776 2007)">Modifications are automatically applied proportionally to all</text>
  <text style="stroke:none;fill:black;font-family:sans-serif;font-size:13;" transform="matrix(1 0 0 1 776 2025)">scales and weights.</text>
  <g transform="matrix(1 0 0 1 1289 1933)">
   <path d="M2.8418 1.86523L4.54102 3.57422Q5.18555 4.22852 5.90332 4.17969Q6.62109 4.13086 7.31445 3.35938L18.0078-8.42773L17.041-9.4043L6.42578 2.27539Q6.16211 2.57812 5.89355 2.61719Q5.625 2.65625 5.27344 2.30469L4.10156 1.14258Q3.75 0.791016 3.79395 0.522461Q3.83789 0.253906 4.14062-0.0195312L15.6152-10.8203L14.6387-11.7871L3.04688-0.898438Q2.30469-0.214844 2.25098 0.498047Q2.19727 1.21094 2.8418 1.86523ZM9.25781-16.3281Q8.94531-16.0254 8.90625-15.6348Q8.86719-15.2441 9.04297-14.9512Q9.21875-14.6777 9.55566-14.541Q9.89258-14.4043 10.3809-14.5215Q11.4746-14.7754 12.5977-14.7314Q13.7207-14.6875 14.7949-13.9844L14.209-12.5293Q13.9551-11.9043 14.0674-11.4404Q14.1797-10.9766 14.5801-10.5664L16.875-8.25195Q17.2363-7.88086 17.5781-7.82227Q17.9199-7.76367 18.3398-7.8418L19.4043-8.03711L20.0684-7.36328L20.0293-6.80664Q20-6.43555 20.1221-6.12305Q20.2441-5.81055 20.6055-5.44922L21.3672-4.70703Q21.7285-4.3457 22.1533-4.33105Q22.5781-4.31641 22.9297-4.66797L25.8398-7.58789Q26.1914-7.93945 26.1816-8.35449Q26.1719-8.76953 25.8105-9.13086L25.0391-9.89258Q24.6875-10.2539 24.3799-10.3857Q24.0723-10.5176 23.7109-10.4883L23.1348-10.4395L22.4902-11.0742L22.7344-12.1973Q22.832-12.6172 22.6953-12.9834Q22.5586-13.3496 22.1191-13.7891L19.9219-15.9766Q18.6719-17.2168 17.2607-17.8369Q15.8496-18.457 14.4189-18.4814Q12.9883-18.5059 11.665-17.959Q10.3418-17.4121 9.25781-16.3281ZM10.752-15.957Q11.6602-16.6211 12.7002-16.9043Q13.7402-17.1875 14.8047-17.085Q15.8691-16.9824 16.8701-16.5137Q17.8711-16.0449 18.7012-15.2051L21.1328-12.793Q21.3086-12.6172 21.3525-12.4512Q21.3965-12.2852 21.3379-12.0312L21.0156-10.5469L22.5195-9.0625L23.5059-9.12109Q23.6914-9.13086 23.7891-9.09668Q23.8867-9.0625 24.0332-8.91602L24.6094-8.33984L22.168-5.89844L21.5918-6.47461Q21.4453-6.62109 21.4062-6.71875Q21.3672-6.81641 21.377-7.01172L21.4453-7.98828L19.9512-9.47266L18.4277-9.21875Q18.1836-9.16992 18.042-9.2041Q17.9004-9.23828 17.7148-9.41406L15.7129-11.416Q15.5176-11.5918 15.4932-11.7529Q15.4688-11.9141 15.5859-12.1875L16.4648-14.2773Q15.293-15.3711 13.8281-15.791Q12.3633-16.2109 10.8398-15.7617Q10.7227-15.7324 10.6885-15.8057Q10.6543-15.8789 10.752-15.957Z"/>
  </g>
  <text style="stroke:none;fill:black;font-family:sans-serif;font-size:13;font-weight:bold;" transform="matrix(1 0 0 1 1289 1953)">Exporting</text>
  <text style="stroke:none;fill:black;font-family:sans-serif;font-size:13;" transform="matrix(1 0 0 1 1289 1971)">Symbols should be outlined when exporting to ensure the</text>
  <text style="stroke:none;fill:black;font-family:sans-serif;font-size:13;" transform="matrix(1 0 0 1 1289 1989)">design is preserved when submitting to Xcode.</text>
  <text id="template-version" style="stroke:none;fill:black;font-family:sans-serif;font-size:13;text-anchor:end;" transform="matrix(1 0 0 1 3036 1933)">Template v.3.0</text>
  <text style="stroke:none;fill:black;font-family:sans-serif;font-size:13;text-anchor:end;" transform="matrix(1 0 0 1 3036 1951)">Requires Xcode 13 or greater</text>
  <text id="descriptive-name" style="stroke:none;fill:black;font-family:sans-serif;font-size:13;text-anchor:end;" transform="matrix(1 0 0 1 3036 1969)">Generated from aqi.medium</text>
  <text style="stroke:none;fill:black;font-family:sans-serif;font-size:13;text-anchor:end;" transform="matrix(1 0 0 1 3036 1987)">Typeset at 100 points</text>
  <text style="stroke:none;fill:black;font-family:sans-serif;font-size:13;" transform="matrix(1 0 0 1 263 726)">Small</text>
  <text style="stroke:none;fill:black;font-family:sans-serif;font-size:13;" transform="matrix(1 0 0 1 263 1156)">Medium</text>
  <text style="stroke:none;fill:black;font-family:sans-serif;font-size:13;" transform="matrix(1 0 0 1 263 1586)">Large</text>
 </g>
 <g id="Guides">
  <g id="H-reference" style="fill:#27AAE1;stroke:none;" transform="matrix(1 0 0 1 339 696)">
   <path d="M0.993347 0L3.6377 0L29.3282-67.1326L30.0301-67.1326L30.0301-70.459L28.1227-70.459ZM11.6882-24.4797L46.9818-24.4797L46.2311-26.7288L12.4382-26.7288ZM55.1193 0L57.7637 0L30.6381-70.459L29.4327-70.459L29.4327-67.1326Z"/>
  </g>
  <line id="Baseline-S" style="fill:none;stroke:#27AAE1;opacity:1;stroke-width:0.5;" x1="263" x2="3036" y1="696" y2="696"/>
  <line id="Capline-S" style="fill:none;stroke:#27AAE1;opacity:1;stroke-width:0.5;" x1="263" x2="3036" y1="625.541" y2="625.541"/>
  <g id="H-reference" style="fill:#27AAE1;stroke:none;" transform="matrix(1 0 0 1 339 1126)">
   <path d="M0.993347 0L3.6377 0L29.3282-67.1326L30.0301-67.1326L30.0301-70.459L28.1227-70.459ZM11.6882-24.4797L46.9818-24.4797L46.2311-26.7288L12.4382-26.7288ZM55.1193 0L57.7637 0L30.6381-70.459L29.4327-70.459L29.4327-67.1326Z"/>
  </g>
  <line id="Baseline-M" style="fill:none;stroke:#27AAE1;opacity:1;stroke-width:0.5;" x1="263" x2="3036" y1="1126" y2="1126"/>
  <line id="Capline-M" style="fill:none;stroke:#27AAE1;opacity:1;stroke-width:0.5;" x1="263" x2="3036" y1="1055.54" y2="1055.54"/>
  <g id="H-reference" style="fill:#27AAE1;stroke:none;" transform="matrix(1 0 0 1 339 1556)">
   <path d="M0.993347 0L3.6377 0L29.3282-67.1326L30.0301-67.1326L30.0301-70.459L28.1227-70.459ZM11.6882-24.4797L46.9818-24.4797L46.2311-26.7288L12.4382-26.7288ZM55.1193 0L57.7637 0L30.6381-70.459L29.4327-70.459L29.4327-67.1326Z"/>
  </g>
  <line id="Baseline-L" style="fill:none;stroke:#27AAE1;opacity:1;stroke-width:0.5;" x1="263" x2="3036" y1="1556" y2="1556"/>
  <line id="Capline-L" style="fill:none;stroke:#27AAE1;opacity:1;stroke-width:0.5;" x1="263" x2="3036" y1="1485.54" y2="1485.54"/>
  <line id="left-margin-Ultralight-S" style="fill:none;stroke:#00AEEF;stroke-width:0.5;opacity:1.0;" x1="507.79" x2="507.79" y1="600.785" y2="720.121"/>
  <line id="right-margin-Ultralight-S" style="fill:none;stroke:#00AEEF;stroke-width:0.5;opacity:1.0;" x1="611.632" x2="611.632" y1="600.785" y2="720.121"/>
  <line id="left-margin-Regular-S" style="fill:none;stroke:#00AEEF;stroke-width:0.5;opacity:1.0;" x1="1395.11" x2="1395.11" y1="600.785" y2="720.121"/>
  <line id="right-margin-Regular-S" style="fill:none;stroke:#00AEEF;stroke-width:0.5;opacity:1.0;" x1="1504.58" x2="1504.58" y1="600.785" y2="720.121"/>
  <line id="left-margin-Black-S" style="fill:none;stroke:#00AEEF;stroke-width:0.5;opacity:1.0;" x1="2875.32" x2="2875.32" y1="600.785" y2="720.121"/>
  <line id="right-margin-Black-S" style="fill:none;stroke:#00AEEF;stroke-width:0.5;opacity:1.0;" x1="2991.48" x2="2991.48" y1="600.785" y2="720.121"/>
 </g>
 <g id="Symbols">
  <g id="Black-S" transform="matrix(1 0 0 1 2875.32 696)">
   <path d="M58.1543-74.2676Q60.7422-74.2676 62.4512-76.001Q64.1602-77.7344 64.1602-80.2734Q64.1602-82.7637 62.4023-84.5215Q60.6445-86.2793 58.1543-86.2793Q55.7129-86.2793 53.9307-84.4971Q52.1484-82.7148 52.1484-80.2734Q52.1484-77.7832 53.9062-76.0254Q55.6641-74.2676 58.1543-74.2676ZM38.7695-63.0859Q41.3574-63.0859 43.0664-64.8193Q44.7754-66.5527 44.7754-69.0918Q44.7754-71.582 43.0176-73.3398Q41.2598-75.0977 38.7695-75.0977Q36.3281-75.0977 34.5459-73.3154Q32.7637-71.5332 32.7637-69.0918Q32.7637-66.6016 34.5215-64.8438Q36.2793-63.0859 38.7695-63.0859ZM77.5391-63.0859Q80.127-63.0859 81.8359-64.8193Q83.5449-66.5527 83.5449-69.0918Q83.5449-71.582 81.7871-73.3398Q80.0293-75.0977 77.5391-75.0977Q75.0977-75.0977 73.3154-73.3154Q71.5332-71.5332 71.5332-69.0918Q71.5332-66.5527 73.2666-64.8193Q75-63.0859 77.5391-63.0859ZM19.3848-51.7578Q21.9727-51.7578 23.6816-53.4912Q25.3906-55.2246 25.3906-57.7637Q25.3906-60.2539 23.6328-62.0117Q21.875-63.7695 19.3848-63.7695Q16.9922-63.7695 15.21-61.9873Q13.4277-60.2051 13.4277-57.7637Q13.4277-55.2734 15.1611-53.5156Q16.8945-51.7578 19.3848-51.7578ZM58.1543-50.0488Q61.4258-50.0488 63.6475-52.2705Q65.8691-54.4922 65.8691-57.7637Q65.8691-60.9375 63.5986-63.208Q61.3281-65.4785 58.1543-65.4785Q55.0293-65.4785 52.7344-63.208Q50.4395-60.9375 50.4395-57.7637Q50.4395-54.5898 52.71-52.3193Q54.9805-50.0488 58.1543-50.0488ZM96.7773-51.7578Q99.3164-51.7578 101.025-53.4912Q102.734-55.2246 102.734-57.7637Q102.734-60.2539 100.977-62.0117Q99.2188-63.7695 96.7773-63.7695Q94.3359-63.7695 92.5537-61.9873Q90.7715-60.2051 90.7715-57.7637Q90.7715-55.2246 92.5049-53.4912Q94.2383-51.7578 96.7773-51.7578ZM38.7695-38.8184Q42.041-38.8184 44.2627-41.0156Q46.4844-43.2129 46.4844-46.5332Q46.4844-49.707 44.2139-51.9775Q41.9434-54.248 38.7695-54.248Q35.6445-54.248 33.3496-51.9775Q31.0547-49.707 31.0547-46.5332Q31.0547-43.3594 33.3252-41.0889Q35.5957-38.8184 38.7695-38.8184ZM77.5391-38.8184Q80.8105-38.8184 83.0322-41.04Q85.2539-43.2617 85.2539-46.5332Q85.2539-49.707 82.9834-51.9775Q80.7129-54.248 77.5391-54.248Q74.4141-54.248 72.1191-51.9775Q69.8242-49.707 69.8242-46.5332Q69.8242-43.3105 72.0703-41.0645Q74.3164-38.8184 77.5391-38.8184ZM19.3848-29.248Q21.9727-29.248 23.6816-30.9814Q25.3906-32.7148 25.3906-35.2539Q25.3906-37.7441 23.6328-39.502Q21.875-41.2598 19.3848-41.2598Q16.9922-41.2598 15.21-39.4775Q13.4277-37.6953 13.4277-35.2539Q13.4277-32.7637 15.1611-31.0059Q16.8945-29.248 19.3848-29.248ZM58.1543-26.3184Q61.9141-26.3184 64.502-28.9062Q67.0898-31.4941 67.0898-35.2539Q67.0898-38.9648 64.4775-41.5771Q61.8652-44.1895 58.1543-44.1895Q54.4922-44.1895 51.8555-41.5527Q49.2188-38.916 49.2188-35.2539Q49.2188-31.543 51.8311-28.9307Q54.4434-26.3184 58.1543-26.3184ZM96.7773-29.248Q99.3164-29.248 101.025-30.9814Q102.734-32.7148 102.734-35.2539Q102.734-37.7441 100.977-39.502Q99.2188-41.2598 96.7773-41.2598Q94.3359-41.2598 92.5537-39.4775Q90.7715-37.6953 90.7715-35.2539Q90.7715-32.7148 92.5049-30.9814Q94.2383-29.248 96.7773-29.248ZM38.7695-16.2598Q42.041-16.2598 44.2627-18.4814Q46.4844-20.7031 46.4844-23.9746Q46.4844-27.1973 44.2383-29.4434Q41.9922-31.6895 38.7695-31.6895Q35.6445-31.6895 33.3496-29.4189Q31.0547-27.1484 31.0547-23.9746Q31.0547-20.8008 33.3252-18.5303Q35.5957-16.2598 38.7695-16.2598ZM77.5391-16.2598Q80.8105-16.2598 83.0322-18.4814Q85.2539-20.7031 85.2539-23.9746Q85.2539-27.1973 83.0078-29.4434Q80.7617-31.6895 77.5391-31.6895Q74.3652-31.6895 72.0947-29.4189Q69.8242-27.1484 69.8242-23.9746Q69.8242-20.752 72.0703-18.5059Q74.3164-16.2598 77.5391-16.2598ZM19.3848-6.73828Q22.0703-6.73828 23.7305-8.47168Q25.3906-10.2051 25.3906-12.7441Q25.3906-15.2832 23.6572-17.0166Q21.9238-18.75 19.3848-18.75Q16.9434-18.75 15.1855-16.9678Q13.4277-15.1855 13.4277-12.7441Q13.4277-10.2539 15.1611-8.49609Q16.8945-6.73828 19.3848-6.73828ZM58.1543-5.0293Q61.4258-5.0293 63.6475-7.25098Q65.8691-9.47266 65.8691-12.7441Q65.8691-15.9668 63.623-18.2129Q61.377-20.459 58.1543-20.459Q55.0293-20.459 52.7344-18.1885Q50.4395-15.918 50.4395-12.7441Q50.4395-9.57031 52.71-7.2998Q54.9805-5.0293 58.1543-5.0293ZM96.7773-6.73828Q99.3164-6.73828 101.025-8.47168Q102.734-10.2051 102.734-12.7441Q102.734-15.2344 101.001-16.9922Q99.2676-18.75 96.7773-18.75Q94.2871-18.75 92.5293-16.9922Q90.7715-15.2344 90.7715-12.7441Q90.7715-10.2051 92.5049-8.47168Q94.2383-6.73828 96.7773-6.73828ZM38.7695 4.58984Q41.3574 4.58984 43.0664 2.85645Q44.7754 1.12305 44.7754-1.41602Q44.7754-3.95508 43.042-5.68848Q41.3086-7.42188 38.7695-7.42188Q36.3281-7.42188 34.5459-5.63965Q32.7637-3.85742 32.7637-1.41602Q32.7637 1.07422 34.5215 2.83203Q36.2793 4.58984 38.7695 4.58984ZM77.5391 4.58984Q80.127 4.58984 81.8359 2.85645Q83.5449 1.12305 83.5449-1.41602Q83.5449-3.95508 81.8115-5.68848Q80.0781-7.42188 77.5391-7.42188Q75.0488-7.42188 73.291-5.66406Q71.5332-3.90625 71.5332-1.41602Q71.5332 1.12305 73.2666 2.85645Q75 4.58984 77.5391 4.58984ZM58.1543 15.7715Q60.6934 15.7715 62.4268 14.0381Q64.1602 12.3047 64.1602 9.76562Q64.1602 7.22656 62.4268 5.49316Q60.6934 3.75977 58.1543 3.75977Q55.7129 3.75977 53.9307 5.54199Q52.1484 7.32422 52.1484 9.76562Q52.1484 12.2559 53.9062 14.0137Q55.6641 15.7715 58.1543 15.7715Z"/>
  </g>
  <g id="Regular-S" transform="matrix(1 0 0 1 1395.11 696)">
   <path d="M54.7852-73.7305Q56.6406-73.7305 57.8857-74.9512Q59.1309-76.1719 59.1309-78.0273Q59.1309-79.834 57.8613-81.0791Q56.5918-82.3242 54.7852-82.3242Q53.0273-82.3242 51.7578-81.0547Q50.4883-79.7852 50.4883-78.0273Q50.4883-76.2207 51.7578-74.9756Q53.0273-73.7305 54.7852-73.7305ZM36.377-63.0859Q38.2324-63.0859 39.4775-64.3311Q40.7227-65.5762 40.7227-67.3828Q40.7227-69.1895 39.4531-70.459Q38.1836-71.7285 36.377-71.7285Q34.6191-71.7285 33.3496-70.4346Q32.0801-69.1406 32.0801-67.3828Q32.0801-65.625 33.3496-64.3555Q34.6191-63.0859 36.377-63.0859ZM73.1934-63.0859Q75.0488-63.0859 76.2939-64.3311Q77.5391-65.5762 77.5391-67.3828Q77.5391-69.1895 76.2695-70.459Q75-71.7285 73.1934-71.7285Q71.4355-71.7285 70.166-70.4346Q68.8965-69.1406 68.8965-67.3828Q68.8965-65.625 70.166-64.3555Q71.4355-63.0859 73.1934-63.0859ZM17.9688-52.3438Q19.8242-52.3438 21.0693-53.5645Q22.3145-54.7852 22.3145-56.6406Q22.3145-58.4473 21.0449-59.6924Q19.7754-60.9375 17.9688-60.9375Q16.2109-60.9375 14.9414-59.668Q13.6719-58.3984 13.6719-56.6406Q13.6719-54.834 14.917-53.5889Q16.1621-52.3438 17.9688-52.3438ZM54.7852-50.8789Q57.2266-50.8789 58.8867-52.5391Q60.5469-54.1992 60.5469-56.6406Q60.5469-59.0332 58.8623-60.7178Q57.1777-62.4023 54.7852-62.4023Q52.4414-62.4023 50.7324-60.6934Q49.0234-58.9844 49.0234-56.6406Q49.0234-54.248 50.7324-52.5635Q52.4414-50.8789 54.7852-50.8789ZM91.4551-52.3438Q93.3105-52.3438 94.5557-53.5645Q95.8008-54.7852 95.8008-56.6406Q95.8008-58.4473 94.5312-59.6924Q93.2617-60.9375 91.4551-60.9375Q89.6973-60.9375 88.4277-59.668Q87.1582-58.3984 87.1582-56.6406Q87.1582-54.834 88.4277-53.5889Q89.6973-52.3438 91.4551-52.3438ZM36.377-40.1855Q38.8184-40.1855 40.4785-41.8701Q42.1387-43.5547 42.1387-45.9473Q42.1387-48.3398 40.4541-50.0244Q38.7695-51.709 36.377-51.709Q34.0332-51.709 32.3242-50Q30.6152-48.291 30.6152-45.9473Q30.6152-43.6035 32.3242-41.8945Q34.0332-40.1855 36.377-40.1855ZM73.1934-40.1855Q75.6348-40.1855 77.2949-41.8701Q78.9551-43.5547 78.9551-45.9473Q78.9551-48.3398 77.2705-50.0244Q75.5859-51.709 73.1934-51.709Q70.8984-51.709 69.165-50Q67.4316-48.291 67.4316-45.9473Q67.4316-43.6035 69.1406-41.8945Q70.8496-40.1855 73.1934-40.1855ZM17.9688-30.957Q19.7754-30.957 21.0449-32.2021Q22.3145-33.4473 22.3145-35.2539Q22.3145-37.0605 21.0449-38.3057Q19.7754-39.5508 17.9688-39.5508Q16.2109-39.5508 14.9414-38.2812Q13.6719-37.0117 13.6719-35.2539Q13.6719-33.4473 14.917-32.2021Q16.1621-30.957 17.9688-30.957ZM54.7852-28.5156Q57.6172-28.5156 59.5703-30.4688Q61.5234-32.4219 61.5234-35.2539Q61.5234-38.0371 59.5459-40.0146Q57.5684-41.9922 54.7852-41.9922Q52.0508-41.9922 50.0732-39.9902Q48.0957-37.9883 48.0957-35.2539Q48.0957-32.4707 50.0732-30.4932Q52.0508-28.5156 54.7852-28.5156ZM91.4551-30.957Q93.3105-30.957 94.5557-32.1777Q95.8008-33.3984 95.8008-35.2539Q95.8008-37.0605 94.5312-38.3057Q93.2617-39.5508 91.4551-39.5508Q89.6973-39.5508 88.4277-38.2812Q87.1582-37.0117 87.1582-35.2539Q87.1582-33.4473 88.4277-32.2021Q89.6973-30.957 91.4551-30.957ZM36.377-18.7988Q38.8184-18.7988 40.4785-20.459Q42.1387-22.1191 42.1387-24.5605Q42.1387-26.9043 40.4541-28.6133Q38.7695-30.3223 36.377-30.3223Q34.0332-30.3223 32.3242-28.5889Q30.6152-26.8555 30.6152-24.5605Q30.6152-22.168 32.3242-20.4834Q34.0332-18.7988 36.377-18.7988ZM73.1934-18.7988Q75.6348-18.7988 77.2949-20.459Q78.9551-22.1191 78.9551-24.5605Q78.9551-26.9043 77.2705-28.6133Q75.5859-30.3223 73.1934-30.3223Q70.8496-30.3223 69.1406-28.5889Q67.4316-26.8555 67.4316-24.5605Q67.4316-22.168 69.1406-20.4834Q70.8496-18.7988 73.1934-18.7988ZM17.9688-9.57031Q19.8242-9.57031 21.0693-10.8154Q22.3145-12.0605 22.3145-13.8672Q22.3145-15.6738 21.0449-16.9189Q19.7754-18.1641 17.9688-18.1641Q16.2109-18.1641 14.9414-16.8945Q13.6719-15.625 13.6719-13.8672Q13.6719-12.0605 14.917-10.8154Q16.1621-9.57031 17.9688-9.57031ZM54.7852-8.10547Q57.2266-8.10547 58.8867-9.79004Q60.5469-11.4746 60.5469-13.8672Q60.5469-16.2598 58.8623-17.9443Q57.1777-19.6289 54.7852-19.6289Q52.4414-19.6289 50.7324-17.9199Q49.0234-16.2109 49.0234-13.8672Q49.0234-11.4746 50.7324-9.79004Q52.4414-8.10547 54.7852-8.10547ZM91.4551-9.57031Q93.3105-9.57031 94.5557-10.8154Q95.8008-12.0605 95.8008-13.8672Q95.8008-15.6738 94.5312-16.9189Q93.2617-18.1641 91.4551-18.1641Q89.6973-18.1641 88.4277-16.8945Q87.1582-15.625 87.1582-13.8672Q87.1582-12.0605 88.4277-10.8154Q89.6973-9.57031 91.4551-9.57031ZM36.377 1.2207Q38.2324 1.2207 39.4775-0.0244141Q40.7227-1.26953 40.7227-3.125Q40.7227-4.88281 39.4531-6.15234Q38.1836-7.42188 36.377-7.42188Q34.6191-7.42188 33.3496-6.15234Q32.0801-4.88281 32.0801-3.125Q32.0801-1.31836 33.3496-0.0488281Q34.6191 1.2207 36.377 1.2207ZM73.1934 1.2207Q75.0488 1.2207 76.2939-0.0244141Q77.5391-1.26953 77.5391-3.125Q77.5391-4.88281 76.2695-6.15234Q75-7.42188 73.1934-7.42188Q71.4355-7.42188 70.166-6.15234Q68.8965-4.88281 68.8965-3.125Q68.8965-1.31836 70.166-0.0488281Q71.4355 1.2207 73.1934 1.2207ZM54.7852 11.8164Q56.6406 11.8164 57.8857 10.5713Q59.1309 9.32617 59.1309 7.51953Q59.1309 5.71289 57.8613 4.46777Q56.5918 3.22266 54.7852 3.22266Q53.0273 3.22266 51.7578 4.49219Q50.4883 5.76172 50.4883 7.51953Q50.4883 9.32617 51.7578 10.5713Q53.0273 11.8164 54.7852 11.8164Z"/>
  </g>
  <g id="Ultralight-S" transform="matrix(1 0 0 1 507.79 696)">
   <path d="M52.0149-73.3215Q53.2349-73.3215 54.0485-74.1337Q54.8622-74.9458 54.8622-76.1658Q54.8622-77.3819 54.0241-78.2185Q53.186-79.055 52.0149-79.055Q50.8476-79.055 49.9866-78.2166Q49.1257-77.3781 49.1257-76.1658Q49.1257-74.9489 49.9641-74.1352Q50.8026-73.3215 52.0149-73.3215ZM34.3788-63.1317Q35.5988-63.1317 36.4124-63.9454Q37.2261-64.7591 37.2261-66.0202Q37.2261-67.2371 36.4105-68.0752Q35.5949-68.9133 34.3788-68.9133Q33.2115-68.9133 32.3734-68.0508Q31.5353-67.1883 31.5353-66.0202Q31.5353-64.8079 32.3505-63.9698Q33.1657-63.1317 34.3788-63.1317ZM69.606-63.1317Q70.871-63.1317 71.6621-63.9454Q72.4533-64.7591 72.4533-66.0202Q72.4533-67.2371 71.6377-68.0752Q70.8221-68.9133 69.606-68.9133Q68.4387-68.9133 67.6006-68.0508Q66.7625-67.1883 66.7625-66.0202Q66.7625-64.8079 67.5777-63.9698Q68.3929-63.1317 69.606-63.1317ZM16.7427-52.8435Q18.0077-52.8435 18.8213-53.6552Q19.635-54.467 19.635-55.7327Q19.635-56.9031 18.7969-57.7396Q17.9588-58.5762 16.7427-58.5762Q15.5754-58.5762 14.7373-57.7381Q13.8992-56.9 13.8992-55.7327Q13.8992-54.5158 14.7354-53.6797Q15.5716-52.8435 16.7427-52.8435ZM52.0149-51.6052Q53.73-51.6052 54.9133-52.7885Q56.0966-53.9719 56.0966-55.7327Q56.0966-57.3982 54.8889-58.606Q53.6812-59.8137 52.0149-59.8137Q50.3075-59.8137 49.0978-58.6044Q47.8882-57.3952 47.8882-55.7327Q47.8882-54.0207 49.0978-52.813Q50.3075-51.6052 52.0149-51.6052ZM87.0956-52.8435Q88.3156-52.8435 89.1293-53.6552Q89.9429-54.467 89.9429-55.7327Q89.9429-56.9489 89.1273-57.7625Q88.3118-58.5762 87.0956-58.5762Q85.9283-58.5762 85.0674-57.7381Q84.2064-56.9 84.2064-55.7327Q84.2064-54.5158 85.0445-53.6797Q85.8826-52.8435 87.0956-52.8435ZM34.3788-41.4116Q36.1389-41.4116 37.2997-42.5968Q38.4605-43.782 38.4605-45.5383Q38.4605-47.2046 37.2528-48.4123Q36.0451-49.6201 34.3788-49.6201Q32.7164-49.6201 31.5067-48.3879Q30.2971-47.1558 30.2971-45.5383Q30.2971-43.8309 31.4838-42.6212Q32.6706-41.4116 34.3788-41.4116ZM69.606-41.4116Q71.3661-41.4116 72.5269-42.5968Q73.6877-43.782 73.6877-45.5383Q73.6877-47.2046 72.5025-48.4123Q71.3173-49.6201 69.606-49.6201Q67.9924-49.6201 66.7583-48.3879Q65.5243-47.1558 65.5243-45.5383Q65.5243-43.8309 66.711-42.6212Q67.8978-41.4116 69.606-41.4116ZM16.7427-32.4104Q18.0046-32.4104 18.8198-33.2241Q19.635-34.0378 19.635-35.2539Q19.635-36.47 18.7969-37.2837Q17.9588-38.0974 16.7427-38.0974Q15.5754-38.0974 14.7373-37.2822Q13.8992-36.467 13.8992-35.2539Q13.8992-34.0378 14.7354-33.2241Q15.5716-32.4104 16.7427-32.4104ZM52.0149-30.423Q54.0298-30.423 55.4379-31.831Q56.8459-33.239 56.8459-35.2539Q56.8459-37.22 55.4134-38.6524Q53.981-40.0848 52.0149-40.0848Q50.0076-40.0848 48.5748-38.6505Q47.142-37.2162 47.142-35.2539Q47.142-33.2878 48.5748-31.8554Q50.0076-30.423 52.0149-30.423ZM87.0956-32.4104Q88.3156-32.4104 89.1293-33.2222Q89.9429-34.034 89.9429-35.2539Q89.9429-36.47 89.1273-37.2837Q88.3118-38.0974 87.0956-38.0974Q85.9283-38.0974 85.0674-37.2593Q84.2064-36.4212 84.2064-35.2539Q84.2064-34.0378 85.0445-33.2241Q85.8826-32.4104 87.0956-32.4104ZM34.3788-20.8878Q36.0939-20.8878 37.2772-22.0711Q38.4605-23.2544 38.4605-24.9695Q38.4605-26.6769 37.2528-27.8866Q36.0451-29.0962 34.3788-29.0962Q32.6706-29.0962 31.4838-27.8851Q30.2971-26.6739 30.2971-24.9695Q30.2971-23.3032 31.5067-22.0955Q32.7164-20.8878 34.3788-20.8878ZM69.606-20.8878Q71.3211-20.8878 72.5044-22.0711Q73.6877-23.2544 73.6877-24.9695Q73.6877-26.6769 72.5025-27.8866Q71.3173-29.0962 69.606-29.0962Q67.9436-29.0962 66.7339-27.8851Q65.5243-26.6739 65.5243-24.9695Q65.5243-23.3032 66.7339-22.0955Q67.9436-20.8878 69.606-20.8878ZM16.7427-11.9316Q18.0077-11.9316 18.8213-12.7453Q19.635-13.559 19.635-14.7751Q19.635-15.992 18.7969-16.8282Q17.9588-17.6643 16.7427-17.6643Q15.5754-17.6643 14.7373-16.8037Q13.8992-15.9431 13.8992-14.7751Q13.8992-13.559 14.7129-12.7453Q15.5266-11.9316 16.7427-11.9316ZM52.0149-10.6941Q53.73-10.6941 54.9133-11.879Q56.0966-13.0638 56.0966-14.7751Q56.0966-16.4871 54.8889-17.6949Q53.6812-18.9026 52.0149-18.9026Q50.3525-18.9026 49.1203-17.6704Q47.8882-16.4383 47.8882-14.7751Q47.8882-13.0638 49.0749-11.879Q50.2617-10.6941 52.0149-10.6941ZM87.0956-11.9316Q88.3606-11.9316 89.1518-12.7228Q89.9429-13.5139 89.9429-14.7751Q89.9429-15.992 89.1273-16.8282Q88.3118-17.6643 87.0956-17.6643Q85.9283-17.6643 85.0674-16.8037Q84.2064-15.9431 84.2064-14.7751Q84.2064-13.6047 85.0445-12.7682Q85.8826-11.9316 87.0956-11.9316ZM34.3788-1.59454Q35.5988-1.59454 36.4124-2.40822Q37.2261-3.22189 37.2261-4.48761Q37.2261-5.65491 36.4105-6.5155Q35.5949-7.3761 34.3788-7.3761Q33.2115-7.3761 32.3734-6.5155Q31.5353-5.65491 31.5353-4.48761Q31.5353-3.27072 32.3505-2.43263Q33.1657-1.59454 34.3788-1.59454ZM69.606-1.59454Q70.871-1.59454 71.6621-2.40822Q72.4533-3.22189 72.4533-4.48761Q72.4533-5.65491 71.6377-6.5155Q70.8221-7.3761 69.606-7.3761Q68.4387-7.3761 67.6006-6.5155Q66.7625-5.65491 66.7625-4.48761Q66.7625-3.27072 67.5777-2.43263Q68.3929-1.59454 69.606-1.59454ZM52.0149 8.54721Q53.2349 8.54721 54.0485 7.73315Q54.8622 6.9191 54.8622 5.65796Q54.8622 4.44107 54.0241 3.6274Q53.186 2.81372 52.0149 2.81372Q50.8476 2.81372 49.9866 3.65181Q49.1257 4.4899 49.1257 5.65796Q49.1257 6.9191 49.9641 7.73315Q50.8026 8.54721 52.0149 8.54721Z"/>
  </g>
 </g>
</svg>
