<?xml version="1.0" encoding="UTF-8"?>
<!--Generator: Apple Native CoreSVG 175-->
<!DOCTYPE svg
PUBLIC "-//W3C//DTD SVG 1.1//EN"
       "http://www.w3.org/Graphics/SVG/1.1/DTD/svg11.dtd">
<svg version="1.1" xmlns="http://www.w3.org/2000/svg" xmlns:xlink="http://www.w3.org/1999/xlink" width="3300" height="2200">
 <!--glyph: "uni100B2D.medium", point size: 100.0, font version: "17.1d1e1", template writer version: "65.1"-->
 <style>.multicolor-0:systemGrayColor {fill:#8E8E93;opacity:1.0}
.multicolor-1:systemCyanColor {fill:#55BEF0;opacity:1.0}
.multicolor-2:white {fill:#FFFFFF;opacity:0.65}

.SFSymbolsPreview55BEF0 {fill:#55BEF0;opacity:1.0}
.SFSymbolsPreview8E8E93 {fill:#8E8E93;opacity:1.0}
.SFSymbolsPreviewC3E8F9 {fill:#C3E8F9;opacity:1.0}
</style>
 <g id="Notes">
  <rect height="2200" id="artboard" style="fill:white;opacity:1" width="3300" x="0" y="0"/>
  <line style="fill:none;stroke:black;opacity:1;stroke-width:0.5;" x1="263" x2="3036" y1="292" y2="292"/>
  <text style="stroke:none;fill:black;font-family:sans-serif;font-size:13;font-weight:bold;" transform="matrix(1 0 0 1 263 322)">Weight/Scale Variations</text>
  <text style="stroke:none;fill:black;font-family:sans-serif;font-size:13;text-anchor:middle;" transform="matrix(1 0 0 1 559.711 322)">Ultralight</text>
  <text style="stroke:none;fill:black;font-family:sans-serif;font-size:13;text-anchor:middle;" transform="matrix(1 0 0 1 856.422 322)">Thin</text>
  <text style="stroke:none;fill:black;font-family:sans-serif;font-size:13;text-anchor:middle;" transform="matrix(1 0 0 1 1153.13 322)">Light</text>
  <text style="stroke:none;fill:black;font-family:sans-serif;font-size:13;text-anchor:middle;" transform="matrix(1 0 0 1 1449.84 322)">Regular</text>
  <text style="stroke:none;fill:black;font-family:sans-serif;font-size:13;text-anchor:middle;" transform="matrix(1 0 0 1 1746.56 322)">Medium</text>
  <text style="stroke:none;fill:black;font-family:sans-serif;font-size:13;text-anchor:middle;" transform="matrix(1 0 0 1 2043.27 322)">Semibold</text>
  <text style="stroke:none;fill:black;font-family:sans-serif;font-size:13;text-anchor:middle;" transform="matrix(1 0 0 1 2339.98 322)">Bold</text>
  <text style="stroke:none;fill:black;font-family:sans-serif;font-size:13;text-anchor:middle;" transform="matrix(1 0 0 1 2636.69 322)">Heavy</text>
  <text style="stroke:none;fill:black;font-family:sans-serif;font-size:13;text-anchor:middle;" transform="matrix(1 0 0 1 2933.4 322)">Black</text>
  <line style="fill:none;stroke:black;opacity:1;stroke-width:0.5;" x1="263" x2="3036" y1="1903" y2="1903"/>
  <g transform="matrix(1 0 0 1 263 1933)">
   <path d="M9.24805 0.830078Q10.8691 0.830078 12.2949 0.214844Q13.7207-0.400391 14.8096-1.49414Q15.8984-2.58789 16.5186-4.01367Q17.1387-5.43945 17.1387-7.05078Q17.1387-8.66211 16.5186-10.0879Q15.8984-11.5137 14.8047-12.6074Q13.7109-13.7012 12.2852-14.3164Q10.8594-14.9316 9.23828-14.9316Q7.62695-14.9316 6.20117-14.3164Q4.77539-13.7012 3.69141-12.6074Q2.60742-11.5137 1.9873-10.0879Q1.36719-8.66211 1.36719-7.05078Q1.36719-5.43945 1.9873-4.01367Q2.60742-2.58789 3.69629-1.49414Q4.78516-0.400391 6.21094 0.214844Q7.63672 0.830078 9.24805 0.830078ZM9.24805-0.654297Q7.91992-0.654297 6.7627-1.14746Q5.60547-1.64062 4.73145-2.51953Q3.85742-3.39844 3.36426-4.56055Q2.87109-5.72266 2.87109-7.05078Q2.87109-8.37891 3.35938-9.54102Q3.84766-10.7031 4.72168-11.582Q5.5957-12.4609 6.75293-12.9541Q7.91016-13.4473 9.23828-13.4473Q10.5762-13.4473 11.7334-12.9541Q12.8906-12.4609 13.7695-11.582Q14.6484-10.7031 15.1465-9.54102Q15.6445-8.37891 15.6445-7.05078Q15.6445-5.72266 15.1514-4.56055Q14.6582-3.39844 13.7842-2.51953Q12.9102-1.64062 11.748-1.14746Q10.5859-0.654297 9.24805-0.654297ZM5.6543-7.05078Q5.6543-6.72852 5.85938-6.52832Q6.06445-6.32812 6.40625-6.32812L8.51562-6.32812L8.51562-4.20898Q8.51562-3.88672 8.71094-3.67676Q8.90625-3.4668 9.23828-3.4668Q9.56055-3.4668 9.77051-3.67676Q9.98047-3.88672 9.98047-4.20898L9.98047-6.32812L12.0898-6.32812Q12.4219-6.32812 12.627-6.52832Q12.832-6.72852 12.832-7.05078Q12.832-7.38281 12.627-7.58789Q12.4219-7.79297 12.0898-7.79297L9.98047-7.79297L9.98047-9.90234Q9.98047-10.2344 9.77051-10.4443Q9.56055-10.6543 9.23828-10.6543Q8.90625-10.6543 8.71094-10.4443Q8.51562-10.2344 8.51562-9.90234L8.51562-7.79297L6.40625-7.79297Q6.06445-7.79297 5.85938-7.58789Q5.6543-7.38281 5.6543-7.05078Z"/>
  </g>
  <g transform="matrix(1 0 0 1 281.867 1933)">
   <path d="M11.709 2.91016Q13.75 2.91016 15.5518 2.12891Q17.3535 1.34766 18.7305-0.0292969Q20.1074-1.40625 20.8887-3.20801Q21.6699-5.00977 21.6699-7.05078Q21.6699-9.0918 20.8887-10.8936Q20.1074-12.6953 18.7305-14.0723Q17.3535-15.4492 15.5469-16.2305Q13.7402-17.0117 11.6992-17.0117Q9.6582-17.0117 7.85645-16.2305Q6.05469-15.4492 4.68262-14.0723Q3.31055-12.6953 2.5293-10.8936Q1.74805-9.0918 1.74805-7.05078Q1.74805-5.00977 2.5293-3.20801Q3.31055-1.40625 4.6875-0.0292969Q6.06445 1.34766 7.86621 2.12891Q9.66797 2.91016 11.709 2.91016ZM11.709 1.25Q9.98047 1.25 8.47656 0.605469Q6.97266-0.0390625 5.83496-1.17676Q4.69727-2.31445 4.05762-3.81836Q3.41797-5.32227 3.41797-7.05078Q3.41797-8.7793 4.05762-10.2832Q4.69727-11.7871 5.83008-12.9297Q6.96289-14.0723 8.4668-14.7119Q9.9707-15.3516 11.6992-15.3516Q13.4277-15.3516 14.9316-14.7119Q16.4355-14.0723 17.5781-12.9297Q18.7207-11.7871 19.3652-10.2832Q20.0098-8.7793 20.0098-7.05078Q20.0098-5.32227 19.3701-3.81836Q18.7305-2.31445 17.5928-1.17676Q16.4551-0.0390625 14.9463 0.605469Q13.4375 1.25 11.709 1.25ZM7.17773-7.05078Q7.17773-6.69922 7.41211-6.47461Q7.64648-6.25 8.01758-6.25L10.8887-6.25L10.8887-3.36914Q10.8887-2.99805 11.1133-2.76855Q11.3379-2.53906 11.6895-2.53906Q12.0605-2.53906 12.29-2.76855Q12.5195-2.99805 12.5195-3.36914L12.5195-6.25L15.4004-6.25Q15.7715-6.25 16.001-6.47461Q16.2305-6.69922 16.2305-7.05078Q16.2305-7.42188 16.001-7.65137Q15.7715-7.88086 15.4004-7.88086L12.5195-7.88086L12.5195-10.752Q12.5195-11.1328 12.29-11.3623Q12.0605-11.5918 11.6895-11.5918Q11.3379-11.5918 11.1133-11.3574Q10.8887-11.123 10.8887-10.752L10.8887-7.88086L8.01758-7.88086Q7.63672-7.88086 7.40723-7.65137Q7.17773-7.42188 7.17773-7.05078Z"/>
  </g>
  <g transform="matrix(1 0 0 1 305.646 1933)">
   <path d="M14.9707 5.66406Q17.0605 5.66406 18.96 5.01465Q20.8594 4.36523 22.4512 3.19336Q24.043 2.02148 25.2197 0.429688Q26.3965-1.16211 27.0459-3.06641Q27.6953-4.9707 27.6953-7.05078Q27.6953-9.14062 27.0459-11.04Q26.3965-12.9395 25.2197-14.5312Q24.043-16.123 22.4512-17.2998Q20.8594-18.4766 18.9551-19.126Q17.0508-19.7754 14.9609-19.7754Q12.8711-19.7754 10.9717-19.126Q9.07227-18.4766 7.48535-17.2998Q5.89844-16.123 4.72168-14.5312Q3.54492-12.9395 2.90039-11.04Q2.25586-9.14062 2.25586-7.05078Q2.25586-4.9707 2.90527-3.06641Q3.55469-1.16211 4.72656 0.429688Q5.89844 2.02148 7.49023 3.19336Q9.08203 4.36523 10.9814 5.01465Q12.8809 5.66406 14.9707 5.66406ZM14.9707 3.84766Q13.1641 3.84766 11.5283 3.2959Q9.89258 2.74414 8.53516 1.74805Q7.17773 0.751953 6.17676-0.610352Q5.17578-1.97266 4.62891-3.6084Q4.08203-5.24414 4.08203-7.05078Q4.08203-8.86719 4.62891-10.5029Q5.17578-12.1387 6.17188-13.501Q7.16797-14.8633 8.52539-15.8594Q9.88281-16.8555 11.5186-17.4023Q13.1543-17.9492 14.9609-17.9492Q16.7773-17.9492 18.4131-17.4023Q20.0488-16.8555 21.4111-15.8594Q22.7734-14.8633 23.7695-13.501Q24.7656-12.1387 25.3174-10.5029Q25.8691-8.86719 25.8691-7.05078Q25.8789-5.24414 25.332-3.6084Q24.7852-1.97266 23.7842-0.610352Q22.7832 0.751953 21.4209 1.74805Q20.0586 2.74414 18.4229 3.2959Q16.7871 3.84766 14.9707 3.84766ZM9.19922-7.05078Q9.19922-6.66992 9.45801-6.4209Q9.7168-6.17188 10.1172-6.17188L14.0625-6.17188L14.0625-2.2168Q14.0625-1.81641 14.3115-1.55762Q14.5605-1.29883 14.9512-1.29883Q15.3516-1.29883 15.6104-1.55273Q15.8691-1.80664 15.8691-2.2168L15.8691-6.17188L19.8242-6.17188Q20.2246-6.17188 20.4785-6.4209Q20.7324-6.66992 20.7324-7.05078Q20.7324-7.46094 20.4785-7.71484Q20.2246-7.96875 19.8242-7.96875L15.8691-7.96875L15.8691-11.9141Q15.8691-12.3242 15.6104-12.583Q15.3516-12.8418 14.9512-12.8418Q14.5605-12.8418 14.3115-12.583Q14.0625-12.3242 14.0625-11.9141L14.0625-7.96875L10.1172-7.96875Q9.70703-7.96875 9.45312-7.71484Q9.19922-7.46094 9.19922-7.05078Z"/>
  </g>
  <text style="stroke:none;fill:black;font-family:sans-serif;font-size:13;font-weight:bold;" transform="matrix(1 0 0 1 263 1953)">Design Variations</text>
  <text style="stroke:none;fill:black;font-family:sans-serif;font-size:13;" transform="matrix(1 0 0 1 263 1971)">Symbols are supported in up to nine weights and three scales.</text>
  <text style="stroke:none;fill:black;font-family:sans-serif;font-size:13;" transform="matrix(1 0 0 1 263 1989)">For optimal layout with text and other symbols, vertically align</text>
  <text style="stroke:none;fill:black;font-family:sans-serif;font-size:13;" transform="matrix(1 0 0 1 263 2007)">symbols with the adjacent text.</text>
  <line style="fill:none;stroke:#00AEEF;stroke-width:0.5;opacity:1.0;" x1="776" x2="776" y1="1919" y2="1933"/>
  <g transform="matrix(1 0 0 1 776 1933)">
   <path d="M3.31055 0.15625Q3.70117 0.15625 3.91602-0.00976562Q4.13086-0.175781 4.26758-0.585938L5.52734-4.0332L11.2891-4.0332L12.5488-0.585938Q12.6855-0.175781 12.9004-0.00976562Q13.1152 0.15625 13.4961 0.15625Q13.8867 0.15625 14.1162-0.0585938Q14.3457-0.273438 14.3457-0.644531Q14.3457-0.869141 14.2383-1.17188L9.6582-13.3691Q9.48242-13.8184 9.17969-14.043Q8.87695-14.2676 8.4082-14.2676Q7.5-14.2676 7.17773-13.3789L2.59766-1.16211Q2.49023-0.859375 2.49023-0.634766Q2.49023-0.263672 2.70996-0.0537109Q2.92969 0.15625 3.31055 0.15625ZM6.00586-5.51758L8.37891-12.0898L8.42773-12.0898L10.8008-5.51758Z"/>
  </g>
  <line style="fill:none;stroke:#00AEEF;stroke-width:0.5;opacity:1.0;" x1="793.197" x2="793.197" y1="1919" y2="1933"/>
  <text style="stroke:none;fill:black;font-family:sans-serif;font-size:13;font-weight:bold;" transform="matrix(1 0 0 1 776 1953)">Margins</text>
  <text style="stroke:none;fill:black;font-family:sans-serif;font-size:13;" transform="matrix(1 0 0 1 776 1971)">Leading and trailing margins on the left and right side of each symbol</text>
  <text style="stroke:none;fill:black;font-family:sans-serif;font-size:13;" transform="matrix(1 0 0 1 776 1989)">can be adjusted by modifying the x-location of the margin guidelines.</text>
  <text style="stroke:none;fill:black;font-family:sans-serif;font-size:13;" transform="matrix(1 0 0 1 776 2007)">Modifications are automatically applied proportionally to all</text>
  <text style="stroke:none;fill:black;font-family:sans-serif;font-size:13;" transform="matrix(1 0 0 1 776 2025)">scales and weights.</text>
  <g transform="matrix(1 0 0 1 1289 1933)">
   <path d="M2.8418 1.86523L4.54102 3.57422Q5.18555 4.22852 5.90332 4.17969Q6.62109 4.13086 7.31445 3.35938L18.0078-8.42773L17.041-9.4043L6.42578 2.27539Q6.16211 2.57812 5.89355 2.61719Q5.625 2.65625 5.27344 2.30469L4.10156 1.14258Q3.75 0.791016 3.79395 0.522461Q3.83789 0.253906 4.14062-0.0195312L15.6152-10.8203L14.6387-11.7871L3.04688-0.898438Q2.30469-0.214844 2.25098 0.498047Q2.19727 1.21094 2.8418 1.86523ZM9.25781-16.3281Q8.94531-16.0254 8.90625-15.6348Q8.86719-15.2441 9.04297-14.9512Q9.21875-14.6777 9.55566-14.541Q9.89258-14.4043 10.3809-14.5215Q11.4746-14.7754 12.5977-14.7314Q13.7207-14.6875 14.7949-13.9844L14.209-12.5293Q13.9551-11.9043 14.0674-11.4404Q14.1797-10.9766 14.5801-10.5664L16.875-8.25195Q17.2363-7.88086 17.5781-7.82227Q17.9199-7.76367 18.3398-7.8418L19.4043-8.03711L20.0684-7.36328L20.0293-6.80664Q20-6.43555 20.1221-6.12305Q20.2441-5.81055 20.6055-5.44922L21.3672-4.70703Q21.7285-4.3457 22.1533-4.33105Q22.5781-4.31641 22.9297-4.66797L25.8398-7.58789Q26.1914-7.93945 26.1816-8.35449Q26.1719-8.76953 25.8105-9.13086L25.0391-9.89258Q24.6875-10.2539 24.3799-10.3857Q24.0723-10.5176 23.7109-10.4883L23.1348-10.4395L22.4902-11.0742L22.7344-12.1973Q22.832-12.6172 22.6953-12.9834Q22.5586-13.3496 22.1191-13.7891L19.9219-15.9766Q18.6719-17.2168 17.2607-17.8369Q15.8496-18.457 14.4189-18.4814Q12.9883-18.5059 11.665-17.959Q10.3418-17.4121 9.25781-16.3281ZM10.752-15.957Q11.6602-16.6211 12.7002-16.9043Q13.7402-17.1875 14.8047-17.085Q15.8691-16.9824 16.8701-16.5137Q17.8711-16.0449 18.7012-15.2051L21.1328-12.793Q21.3086-12.6172 21.3525-12.4512Q21.3965-12.2852 21.3379-12.0312L21.0156-10.5469L22.5195-9.0625L23.5059-9.12109Q23.6914-9.13086 23.7891-9.09668Q23.8867-9.0625 24.0332-8.91602L24.6094-8.33984L22.168-5.89844L21.5918-6.47461Q21.4453-6.62109 21.4062-6.71875Q21.3672-6.81641 21.377-7.01172L21.4453-7.98828L19.9512-9.47266L18.4277-9.21875Q18.1836-9.16992 18.042-9.2041Q17.9004-9.23828 17.7148-9.41406L15.7129-11.416Q15.5176-11.5918 15.4932-11.7529Q15.4688-11.9141 15.5859-12.1875L16.4648-14.2773Q15.293-15.3711 13.8281-15.791Q12.3633-16.2109 10.8398-15.7617Q10.7227-15.7324 10.6885-15.8057Q10.6543-15.8789 10.752-15.957Z"/>
  </g>
  <text style="stroke:none;fill:black;font-family:sans-serif;font-size:13;font-weight:bold;" transform="matrix(1 0 0 1 1289 1953)">Exporting</text>
  <text style="stroke:none;fill:black;font-family:sans-serif;font-size:13;" transform="matrix(1 0 0 1 1289 1971)">Symbols should be outlined when exporting to ensure the</text>
  <text style="stroke:none;fill:black;font-family:sans-serif;font-size:13;" transform="matrix(1 0 0 1 1289 1989)">design is preserved when submitting to Xcode.</text>
  <text id="template-version" style="stroke:none;fill:black;font-family:sans-serif;font-size:13;text-anchor:end;" transform="matrix(1 0 0 1 3036 1933)">Template v.3.0</text>
  <text style="stroke:none;fill:black;font-family:sans-serif;font-size:13;text-anchor:end;" transform="matrix(1 0 0 1 3036 1951)">Requires Xcode 13 or greater</text>
  <text id="descriptive-name" style="stroke:none;fill:black;font-family:sans-serif;font-size:13;text-anchor:end;" transform="matrix(1 0 0 1 3036 1969)">Generated from allergens</text>
  <text style="stroke:none;fill:black;font-family:sans-serif;font-size:13;text-anchor:end;" transform="matrix(1 0 0 1 3036 1987)">Typeset at 100 points</text>
  <text style="stroke:none;fill:black;font-family:sans-serif;font-size:13;" transform="matrix(1 0 0 1 263 726)">Small</text>
  <text style="stroke:none;fill:black;font-family:sans-serif;font-size:13;" transform="matrix(1 0 0 1 263 1156)">Medium</text>
  <text style="stroke:none;fill:black;font-family:sans-serif;font-size:13;" transform="matrix(1 0 0 1 263 1586)">Large</text>
 </g>
 <g id="Guides">
  <g id="H-reference" style="fill:#27AAE1;stroke:none;" transform="matrix(1 0 0 1 339 696)">
   <path d="M0.993347 0L3.6377 0L29.3282-67.1326L30.0301-67.1326L30.0301-70.459L28.1227-70.459ZM11.6882-24.4797L46.9818-24.4797L46.2311-26.7288L12.4382-26.7288ZM55.1193 0L57.7637 0L30.6381-70.459L29.4327-70.459L29.4327-67.1326Z"/>
  </g>
  <line id="Baseline-S" style="fill:none;stroke:#27AAE1;opacity:1;stroke-width:0.5;" x1="263" x2="3036" y1="696" y2="696"/>
  <line id="Capline-S" style="fill:none;stroke:#27AAE1;opacity:1;stroke-width:0.5;" x1="263" x2="3036" y1="625.541" y2="625.541"/>
  <g id="H-reference" style="fill:#27AAE1;stroke:none;" transform="matrix(1 0 0 1 339 1126)">
   <path d="M0.993347 0L3.6377 0L29.3282-67.1326L30.0301-67.1326L30.0301-70.459L28.1227-70.459ZM11.6882-24.4797L46.9818-24.4797L46.2311-26.7288L12.4382-26.7288ZM55.1193 0L57.7637 0L30.6381-70.459L29.4327-70.459L29.4327-67.1326Z"/>
  </g>
  <line id="Baseline-M" style="fill:none;stroke:#27AAE1;opacity:1;stroke-width:0.5;" x1="263" x2="3036" y1="1126" y2="1126"/>
  <line id="Capline-M" style="fill:none;stroke:#27AAE1;opacity:1;stroke-width:0.5;" x1="263" x2="3036" y1="1055.54" y2="1055.54"/>
  <g id="H-reference" style="fill:#27AAE1;stroke:none;" transform="matrix(1 0 0 1 339 1556)">
   <path d="M0.993347 0L3.6377 0L29.3282-67.1326L30.0301-67.1326L30.0301-70.459L28.1227-70.459ZM11.6882-24.4797L46.9818-24.4797L46.2311-26.7288L12.4382-26.7288ZM55.1193 0L57.7637 0L30.6381-70.459L29.4327-70.459L29.4327-67.1326Z"/>
  </g>
  <line id="Baseline-L" style="fill:none;stroke:#27AAE1;opacity:1;stroke-width:0.5;" x1="263" x2="3036" y1="1556" y2="1556"/>
  <line id="Capline-L" style="fill:none;stroke:#27AAE1;opacity:1;stroke-width:0.5;" x1="263" x2="3036" y1="1485.54" y2="1485.54"/>
  <line id="left-margin-Ultralight-S" style="fill:none;stroke:#00AEEF;stroke-width:0.5;opacity:1.0;" x1="505.1" x2="505.1" y1="600.785" y2="720.121"/>
  <line id="right-margin-Ultralight-S" style="fill:none;stroke:#00AEEF;stroke-width:0.5;opacity:1.0;" x1="614.322" x2="614.322" y1="600.785" y2="720.121"/>
  <line id="left-margin-Regular-S" style="fill:none;stroke:#00AEEF;stroke-width:0.5;opacity:1.0;" x1="1391.06" x2="1391.06" y1="600.785" y2="720.121"/>
  <line id="right-margin-Regular-S" style="fill:none;stroke:#00AEEF;stroke-width:0.5;opacity:1.0;" x1="1508.63" x2="1508.63" y1="600.785" y2="720.121"/>
  <line id="left-margin-Black-S" style="fill:none;stroke:#00AEEF;stroke-width:0.5;opacity:1.0;" x1="2870.75" x2="2870.75" y1="600.785" y2="720.121"/>
  <line id="right-margin-Black-S" style="fill:none;stroke:#00AEEF;stroke-width:0.5;opacity:1.0;" x1="2996.05" x2="2996.05" y1="600.785" y2="720.121"/>
 </g>
 <g id="Symbols">
  <g id="Black-S" transform="matrix(1 0 0 1 2870.75 696)">
   <path class="multicolor-0:systemGrayColor SFSymbolsPreview8E8E93" d="M77.2949-11.9629Q79.9805-11.9629 81.8604-13.8428Q83.7402-15.7227 83.7402-18.4082Q83.7402-21.0938 81.8604-22.9492Q79.9805-24.8047 77.2949-24.8047Q74.6094-24.8047 72.7539-22.9492Q70.8984-21.0938 70.8984-18.4082Q70.8984-15.7227 72.7539-13.8428Q74.6094-11.9629 77.2949-11.9629ZM77.5879-76.3184Q80.2734-76.3184 82.1533-78.1738Q84.0332-80.0293 84.0332-82.7148Q84.0332-85.4004 82.1533-87.2803Q80.2734-89.1602 77.5879-89.1602Q74.9023-89.1602 73.0469-87.2803Q71.1914-85.4004 71.1914-82.7148Q71.1914-80.0293 73.0469-78.1738Q74.9023-76.3184 77.5879-76.3184ZM110.107-43.7012Q112.793-43.7012 114.648-45.5566Q116.504-47.4121 116.504-50.0977Q116.504-52.7832 114.648-54.6631Q112.793-56.543 110.107-56.543Q107.422-56.543 105.566-54.6631Q103.711-52.7832 103.711-50.0977Q103.711-47.4121 105.566-45.5566Q107.422-43.7012 110.107-43.7012ZM100.293-19.9219Q102.93-19.9219 104.81-21.8018Q106.689-23.6816 106.689-26.3184Q106.689-29.0039 104.81-30.8838Q102.93-32.7637 100.293-32.7637Q97.6074-32.7637 95.7275-30.8838Q93.8477-29.0039 93.8477-26.3184Q93.8477-23.6328 95.7275-21.7773Q97.6074-19.9219 100.293-19.9219ZM15.1855-11.8652Q17.8711-11.8652 19.7266-13.7451Q21.582-15.625 21.582-18.3105Q21.582-20.9961 19.7266-22.8516Q17.8711-24.707 15.1855-24.707Q12.5-24.707 10.6445-22.8516Q8.78906-20.9961 8.78906-18.3105Q8.78906-15.625 10.6445-13.7451Q12.5-11.8652 15.1855-11.8652ZM45.8496-43.5547Q48.5352-43.5547 50.3906-45.4346Q52.2461-47.3145 52.2461-50Q52.2461-52.6855 50.3906-54.541Q48.5352-56.3965 45.8496-56.3965Q43.1641-56.3965 41.2842-54.541Q39.4043-52.6855 39.4043-50Q39.4043-47.3145 41.2842-45.4346Q43.1641-43.5547 45.8496-43.5547ZM45.8496 18.7988Q48.5352 18.7988 50.3906 16.9189Q52.2461 15.0391 52.2461 12.3535Q52.2461 9.66797 50.3906 7.8125Q48.5352 5.95703 45.8496 5.95703Q43.1641 5.95703 41.2842 7.8125Q39.4043 9.66797 39.4043 12.3535Q39.4043 15.0391 41.2842 16.9189Q43.1641 18.7988 45.8496 18.7988ZM25-33.8379Q27.6855-33.8379 29.5654-35.6934Q31.4453-37.5488 31.4453-40.2344Q31.4453-42.9199 29.5654-44.7754Q27.6855-46.6309 25-46.6309Q22.3633-46.6309 20.4834-44.751Q18.6035-42.8711 18.6035-40.2344Q18.6035-37.5977 20.4834-35.7178Q22.3633-33.8379 25-33.8379ZM54.9316-67.627Q57.6172-67.627 59.4971-69.5068Q61.377-71.3867 61.377-74.0723Q61.377-76.7578 59.4971-78.6133Q57.6172-80.4688 54.9316-80.4688Q52.2461-80.4688 50.3906-78.6133Q48.5352-76.7578 48.5352-74.0723Q48.5352-71.3867 50.3906-69.5068Q52.2461-67.627 54.9316-67.627ZM67.9199 8.93555Q70.6055 8.93555 72.4854 7.08008Q74.3652 5.22461 74.3652 2.53906Q74.3652-0.146484 72.4854-2.02637Q70.6055-3.90625 67.9199-3.90625Q65.2344-3.90625 63.3789-2.02637Q61.5234-0.146484 61.5234 2.53906Q61.5234 5.22461 63.3789 7.08008Q65.2344 8.93555 67.9199 8.93555ZM101.465-66.5039Q104.15-66.5039 106.006-68.3838Q107.861-70.2637 107.861-72.9492Q107.861-75.6348 106.006-77.4902Q104.15-79.3457 101.465-79.3457Q98.7793-79.3457 96.8994-77.4902Q95.0195-75.6348 95.0195-72.9492Q95.0195-70.2637 96.8994-68.3838Q98.7793-66.5039 101.465-66.5039ZM25 10.0098Q27.6855 10.0098 29.5654 8.1543Q31.4453 6.29883 31.4453 3.61328Q31.4453 0.927734 29.5654-0.952148Q27.6855-2.83203 25-2.83203Q22.3633-2.83203 20.4834-0.952148Q18.6035 0.927734 18.6035 3.61328Q18.6035 6.25 20.4834 8.12988Q22.3633 10.0098 25 10.0098Z"/>
   <path class="multicolor-1:systemCyanColor SFSymbolsPreview55BEF0" d="M77.5879-30.3711Q83.0566-30.3711 87.5488-33.0811Q92.041-35.791 94.7266-40.3076Q97.4121-44.8242 97.4121-50.293Q97.4121-55.7129 94.7266-60.2051Q92.041-64.6973 87.5488-67.3584Q83.0566-70.0195 77.5879-70.0195Q72.168-70.0195 67.6758-67.3584Q63.1836-64.6973 60.4736-60.2051Q57.7637-55.7129 57.7637-50.293Q57.7637-44.8242 60.4736-40.3076Q63.1836-35.791 67.6758-33.0811Q72.168-30.3711 77.5879-30.3711ZM45.8496-0.976562Q50.6348-0.976562 54.5654-3.32031Q58.4961-5.66406 60.8154-9.61914Q63.1348-13.5742 63.1348-18.4082Q63.1348-23.1445 60.791-27.0508Q58.4473-30.957 54.541-33.2764Q50.6348-35.5957 45.8496-35.5957Q41.1133-35.5957 37.1582-33.2764Q33.2031-30.957 30.8594-27.0508Q28.5156-23.1445 28.5156-18.4082Q28.5156-13.5742 30.8594-9.61914Q33.2031-5.66406 37.1582-3.32031Q41.1133-0.976562 45.8496-0.976562Z"/>
   <path class="multicolor-2:white SFSymbolsPreviewC3E8F9" d="M77.5879-44.043Q75.0488-44.043 73.2422-45.874Q71.4355-47.7051 71.4355-50.2441Q71.4355-52.7344 73.2422-54.541Q75.0488-56.3477 77.5879-56.3477Q80.127-56.3477 81.9336-54.541Q83.7402-52.7344 83.7402-50.2441Q83.7402-47.7051 81.9336-45.874Q80.127-44.043 77.5879-44.043ZM45.8496-13.5742Q43.8965-13.5742 42.5049-14.9658Q41.1133-16.3574 41.1133-18.3594Q41.1133-20.3125 42.5049-21.7041Q43.8965-23.0957 45.8496-23.0957Q47.8027-23.0957 49.2188-21.6797Q50.6348-20.2637 50.6348-18.3594Q50.6348-16.3574 49.2188-14.9658Q47.8027-13.5742 45.8496-13.5742Z"/>
  </g>
  <g id="Regular-S" transform="matrix(1 0 0 1 1391.06 696)">
   <path class="multicolor-0:systemGrayColor SFSymbolsPreview8E8E93" d="M72.8516-14.8438Q74.9512-14.8438 76.4404-16.333Q77.9297-17.8223 77.9297-19.9219Q77.9297-22.0215 76.4404-23.4863Q74.9512-24.9512 72.8516-24.9512Q70.752-24.9512 69.2871-23.4863Q67.8223-22.0215 67.8223-19.9219Q67.8223-17.8223 69.2871-16.333Q70.752-14.8438 72.8516-14.8438ZM72.8516-75.6836Q74.9512-75.6836 76.4404-77.1729Q77.9297-78.6621 77.9297-80.7617Q77.9297-82.8613 76.4404-84.3262Q74.9512-85.791 72.8516-85.791Q70.752-85.791 69.2871-84.3262Q67.8223-82.8613 67.8223-80.7617Q67.8223-78.6621 69.2871-77.1729Q70.752-75.6836 72.8516-75.6836ZM103.76-44.7266Q105.859-44.7266 107.324-46.1914Q108.789-47.6562 108.789-49.7559Q108.789-51.8555 107.324-53.3447Q105.859-54.834 103.76-54.834Q101.66-54.834 100.171-53.3447Q98.6816-51.8555 98.6816-49.7559Q98.6816-47.6562 100.171-46.1914Q101.66-44.7266 103.76-44.7266ZM94.3848-22.1191Q96.4844-22.1191 97.9492-23.584Q99.4141-25.0488 99.4141-27.1484Q99.4141-29.2969 97.9492-30.7617Q96.4844-32.2266 94.3848-32.2266Q92.2852-32.2266 90.8203-30.7617Q89.3555-29.2969 89.3555-27.1484Q89.3555-25.0488 90.8203-23.584Q92.2852-22.1191 94.3848-22.1191ZM13.8184-14.7949Q15.918-14.7949 17.4072-16.2598Q18.8965-17.7246 18.8965-19.8242Q18.8965-21.9238 17.4072-23.3887Q15.918-24.8535 13.8184-24.8535Q11.7188-24.8535 10.2539-23.3887Q8.78906-21.9238 8.78906-19.8242Q8.78906-17.7246 10.2539-16.2598Q11.7188-14.7949 13.8184-14.7949ZM42.9688-44.873Q45.0684-44.873 46.5332-46.3379Q47.998-47.8027 47.998-49.9023Q47.998-52.002 46.5332-53.4912Q45.0684-54.9805 42.9688-54.9805Q40.8691-54.9805 39.4043-53.4912Q37.9395-52.002 37.9395-49.9023Q37.9395-47.8027 39.4043-46.3379Q40.8691-44.873 42.9688-44.873ZM42.9688 14.3555Q45.0684 14.3555 46.5332 12.8906Q47.998 11.4258 47.998 9.32617Q47.998 7.22656 46.5332 5.7373Q45.0684 4.24805 42.9688 4.24805Q40.8691 4.24805 39.4043 5.7373Q37.9395 7.22656 37.9395 9.32617Q37.9395 11.4258 39.4043 12.8906Q40.8691 14.3555 42.9688 14.3555ZM23.1934-35.5957Q25.293-35.5957 26.7578-37.085Q28.2227-38.5742 28.2227-40.6738Q28.2227-42.7734 26.7578-44.2383Q25.293-45.7031 23.1934-45.7031Q21.0938-45.7031 19.6289-44.2383Q18.1641-42.7734 18.1641-40.6738Q18.1641-38.5742 19.6289-37.085Q21.0938-35.5957 23.1934-35.5957ZM51.3184-67.4805Q53.418-67.4805 54.9072-68.9453Q56.3965-70.4102 56.3965-72.5098Q56.3965-74.6094 54.9072-76.0742Q53.418-77.5391 51.3184-77.5391Q49.2188-77.5391 47.7539-76.0742Q46.2891-74.6094 46.2891-72.5098Q46.2891-70.4102 47.7539-68.9453Q49.2188-67.4805 51.3184-67.4805ZM63.9648 4.98047Q66.0645 4.98047 67.5293 3.51562Q68.9941 2.05078 68.9941-0.0488281Q68.9941-2.14844 67.5293-3.61328Q66.0645-5.07812 63.9648-5.07812Q61.8652-5.07812 60.376-3.61328Q58.8867-2.14844 58.8867-0.0488281Q58.8867 2.05078 60.376 3.51562Q61.8652 4.98047 63.9648 4.98047ZM95.5078-66.4062Q97.6074-66.4062 99.0723-67.8711Q100.537-69.3359 100.537-71.4355Q100.537-73.5352 99.0723-75Q97.6074-76.4648 95.5078-76.4648Q93.4082-76.4648 91.9434-75Q90.4785-73.5352 90.4785-71.4355Q90.4785-69.3359 91.9434-67.8711Q93.4082-66.4062 95.5078-66.4062ZM23.1934 6.00586Q25.293 6.00586 26.7578 4.54102Q28.2227 3.07617 28.2227 0.976562Q28.2227-1.12305 26.7578-2.58789Q25.293-4.05273 23.1934-4.05273Q21.0938-4.05273 19.6289-2.58789Q18.1641-1.12305 18.1641 0.976562Q18.1641 3.07617 19.6289 4.54102Q21.0938 6.00586 23.1934 6.00586Z"/>
   <path class="multicolor-1:systemCyanColor SFSymbolsPreview55BEF0" d="M72.8516-30.1758Q78.2715-30.1758 82.7393-32.8613Q87.207-35.5469 89.8682-40.0146Q92.5293-44.4824 92.5293-49.9023Q92.5293-55.3223 89.8682-59.7656Q87.207-64.209 82.7393-66.8701Q78.2715-69.5312 72.8516-69.5312Q67.4805-69.5312 62.9883-66.8701Q58.4961-64.209 55.835-59.7656Q53.1738-55.3223 53.1738-49.9023Q53.1738-44.4824 55.835-40.0146Q58.4961-35.5469 62.9883-32.8613Q67.4805-30.1758 72.8516-30.1758ZM42.9688-2.68555Q47.7051-2.68555 51.5869-5.00488Q55.4688-7.32422 57.7881-11.2305Q60.1074-15.1367 60.1074-19.9219Q60.1074-24.6094 57.7881-28.4668Q55.4688-32.3242 51.5625-34.6191Q47.6562-36.9141 42.9688-36.9141Q38.2324-36.9141 34.3506-34.6191Q30.4688-32.3242 28.1494-28.4668Q25.8301-24.6094 25.8301-19.9219Q25.8301-15.1367 28.1494-11.2305Q30.4688-7.32422 34.3506-5.00488Q38.2324-2.68555 42.9688-2.68555Z"/>
   <path class="multicolor-2:white SFSymbolsPreviewC3E8F9" d="M72.8516-40.8203Q69.1895-40.8203 66.5039-43.5059Q63.8184-46.1914 63.8184-49.9023Q63.8184-53.5645 66.4795-56.2256Q69.1406-58.8867 72.8516-58.8867Q76.5625-58.8867 79.2236-56.2256Q81.8848-53.5645 81.8848-49.9023Q81.8848-46.1914 79.2236-43.5059Q76.5625-40.8203 72.8516-40.8203ZM42.9688-12.5488Q39.9902-12.5488 37.8418-14.6729Q35.6934-16.7969 35.6934-19.873Q35.6934-22.8516 37.8418-24.9756Q39.9902-27.0996 42.9688-27.0996Q45.9473-27.0996 48.0957-24.9512Q50.2441-22.8027 50.2441-19.873Q50.2441-16.7969 48.1201-14.6729Q45.9961-12.5488 42.9688-12.5488Z"/>
  </g>
  <g id="Ultralight-S" transform="matrix(1 0 0 1 505.1 696)">
   <path class="multicolor-0:systemGrayColor SFSymbolsPreview8E8E93" d="M68.0832-17.7498Q69.2299-17.7498 70.0603-18.5806Q70.8908-19.4115 70.8908-20.5574Q70.8908-21.7033 70.0603-22.5327Q69.2299-23.362 68.0832-23.362Q66.9373-23.362 66.1083-22.5327Q65.2794-21.7033 65.2794-20.5574Q65.2794-19.4115 66.1083-18.5806Q66.9373-17.7498 68.0832-17.7498ZM68.0832-76.0017Q69.2299-76.0017 70.0603-76.8326Q70.8908-77.6634 70.8908-78.8094Q70.8908-79.9553 70.0603-80.7842Q69.2299-81.6132 68.0832-81.6132Q66.9373-81.6132 66.1083-80.7842Q65.2794-79.9553 65.2794-78.8094Q65.2794-77.6634 66.1083-76.8326Q66.9373-76.0017 68.0832-76.0017ZM97.6295-46.3615Q98.7755-46.3615 99.6044-47.1905Q100.433-48.0194 100.433-49.1653Q100.433-50.3113 99.6044-51.1421Q98.7755-51.973 97.6295-51.973Q96.4836-51.973 95.6528-51.1421Q94.8219-50.3113 94.8219-49.1653Q94.8219-48.0194 95.6528-47.1905Q96.4836-46.3615 97.6295-46.3615ZM88.6635-24.7078Q89.8094-24.7078 90.6384-25.5367Q91.4673-26.3657 91.4673-27.5116Q91.4673-28.6613 90.6384-29.4903Q89.8094-30.3192 88.6635-30.3192Q87.5168-30.3192 86.6879-29.4903Q85.8589-28.6613 85.8589-27.5116Q85.8589-26.3657 86.6879-25.5367Q87.5168-24.7078 88.6635-24.7078ZM11.5936-17.701Q12.7396-17.701 13.5704-18.5303Q14.4012-19.3596 14.4012-20.5055Q14.4012-21.6515 13.5704-22.4804Q12.7396-23.3093 11.5936-23.3093Q10.4469-23.3093 9.618-22.4804Q8.78906-21.6515 8.78906-20.5055Q8.78906-19.3596 9.618-18.5303Q10.4469-17.701 11.5936-17.701ZM39.4722-46.508Q40.6181-46.508 41.4474-47.337Q42.2768-48.1659 42.2768-49.3118Q42.2768-50.4578 41.4474-51.2886Q40.6181-52.1194 39.4722-52.1194Q38.3263-52.1194 37.4969-51.2886Q36.6676-50.4578 36.6676-49.3118Q36.6676-48.1659 37.4969-47.337Q38.3263-46.508 39.4722-46.508ZM39.4722 10.1776Q40.6181 10.1776 41.4474 9.34868Q42.2768 8.51974 42.2768 7.37381Q42.2768 6.22787 41.4474 5.39703Q40.6181 4.56619 39.4722 4.56619Q38.3263 4.56619 37.4969 5.39703Q36.6676 6.22787 36.6676 7.37381Q36.6676 8.51974 37.4969 9.34868Q38.3263 10.1776 39.4722 10.1776ZM20.5597-37.6389Q21.7056-37.6389 22.5346-38.4697Q23.3635-39.3005 23.3635-40.4465Q23.3635-41.5924 22.5346-42.4217Q21.7056-43.251 20.5597-43.251Q19.4138-43.251 18.5844-42.4217Q17.7551-41.5924 17.7551-40.4465Q17.7551-39.3005 18.5844-38.4697Q19.4138-37.6389 20.5597-37.6389ZM47.4586-68.116Q48.6046-68.116 49.4354-68.9453Q50.2663-69.7746 50.2663-70.9206Q50.2663-72.0665 49.4354-72.8954Q48.6046-73.7244 47.4586-73.7244Q46.3127-73.7244 45.4834-72.8954Q44.6541-72.0665 44.6541-70.9206Q44.6541-69.7746 45.4834-68.9453Q46.3127-68.116 47.4586-68.116ZM59.5604 1.21155Q60.7063 1.21155 61.5353 0.382233Q62.3642-0.447083 62.3642-1.59302Q62.3642-2.73895 61.5353-3.56789Q60.7063-4.39682 59.5604-4.39682Q58.4145-4.39682 57.5836-3.56789Q56.7528-2.73895 56.7528-1.59302Q56.7528-0.447083 57.5836 0.382233Q58.4145 1.21155 59.5604 1.21155ZM89.7408-67.0876Q90.8867-67.0876 91.716-67.9165Q92.5453-68.7454 92.5453-69.8914Q92.5453-71.0373 91.716-71.8666Q90.8867-72.6959 89.7408-72.6959Q88.5948-72.6959 87.7655-71.8666Q86.9362-71.0373 86.9362-69.8914Q86.9362-68.7454 87.7655-67.9165Q88.5948-67.0876 89.7408-67.0876ZM20.5597 2.19116Q21.7056 2.19116 22.5346 1.36223Q23.3635 0.533295 23.3635-0.61264Q23.3635-1.75858 22.5346-2.58789Q21.7056-3.41721 20.5597-3.41721Q19.4138-3.41721 18.5844-2.58789Q17.7551-1.75858 17.7551-0.61264Q17.7551 0.533295 18.5844 1.36223Q19.4138 2.19116 20.5597 2.19116Z"/>
   <path class="multicolor-1:systemCyanColor SFSymbolsPreview55BEF0" d="M68.129-32.5371Q72.7318-32.5371 76.5182-34.8141Q80.3047-37.0911 82.5573-40.9004Q84.8099-44.7098 84.8099-49.3118Q84.8099-53.8689 82.5573-57.6538Q80.3047-61.4388 76.5182-63.6913Q72.7318-65.9439 68.129-65.9439Q63.53-65.9439 59.7187-63.6913Q55.9074-61.4388 53.6552-57.6538Q51.403-53.8689 51.403-49.3118Q51.403-44.7098 53.6552-40.9004Q55.9074-37.0911 59.7187-34.8141Q63.53-32.5371 68.129-32.5371ZM39.4722-6.22787Q43.4364-6.22787 46.7052-8.13828Q49.9741-10.0487 51.9073-13.3194Q53.8406-16.5901 53.8406-20.5574Q53.8406-24.4728 51.9073-27.7172Q49.9741-30.9616 46.7037-32.8934Q43.4334-34.8251 39.4722-34.8251Q35.553-34.8251 32.3071-32.8934Q29.0611-30.9616 27.1503-27.7172Q25.2396-24.4728 25.2396-20.5574Q25.2396-16.5901 27.1503-13.3423Q29.0611-10.0945 32.3071-8.16116Q35.553-6.22787 39.4722-6.22787Z"/>
   <path class="multicolor-2:white SFSymbolsPreviewC3E8F9" d="M68.129-39.0495Q63.9221-39.0495 60.9184-42.0757Q57.9147-45.1019 57.9147-49.3118Q57.9147-53.4279 60.9165-56.4072Q63.9183-59.3864 68.129-59.3864Q72.2488-59.3864 75.2502-56.4072Q78.2516-53.4279 78.2516-49.3118Q78.2516-45.1019 75.2502-42.0757Q72.2488-39.0495 68.129-39.0495ZM39.4722-12.0949Q35.994-12.0949 33.5506-14.5596Q31.1073-17.0242 31.1073-20.5544Q31.1073-24.0776 33.5506-26.5194Q35.994-28.9612 39.4722-28.9612Q42.9955-28.9612 45.4845-26.495Q47.9736-24.0288 47.9736-20.5544Q47.9736-17.0242 45.4865-14.5596Q42.9993-12.0949 39.4722-12.0949Z"/>
  </g>
 </g>
</svg>
