<?xml version="1.0" encoding="UTF-8"?>
<!--Generator: Apple Native CoreSVG 175.5-->
<!DOCTYPE svg
PUBLIC "-//W3C//DTD SVG 1.1//EN"
       "http://www.w3.org/Graphics/SVG/1.1/DTD/svg11.dtd">
<svg version="1.1" xmlns="http://www.w3.org/2000/svg" xmlns:xlink="http://www.w3.org/1999/xlink" width="3300" height="2200">
 <!--glyph: "uni100DC9.medium", point size: 100.0, font version: "18.0d10e1", template writer version: "90"-->
 <g id="Notes">
  <rect height="2200" id="artboard" style="fill:white;opacity:1" width="3300" x="0" y="0"/>
  <line style="fill:none;stroke:black;opacity:1;stroke-width:0.5;" x1="263" x2="3036" y1="292" y2="292"/>
  <text style="stroke:none;fill:black;font-family:sans-serif;font-size:13;font-weight:bold;" transform="matrix(1 0 0 1 263 322)">Weight/Scale Variations</text>
  <text style="stroke:none;fill:black;font-family:sans-serif;font-size:13;text-anchor:middle;" transform="matrix(1 0 0 1 559.711 322)">Ultralight</text>
  <text style="stroke:none;fill:black;font-family:sans-serif;font-size:13;text-anchor:middle;" transform="matrix(1 0 0 1 856.422 322)">Thin</text>
  <text style="stroke:none;fill:black;font-family:sans-serif;font-size:13;text-anchor:middle;" transform="matrix(1 0 0 1 1153.13 322)">Light</text>
  <text style="stroke:none;fill:black;font-family:sans-serif;font-size:13;text-anchor:middle;" transform="matrix(1 0 0 1 1449.84 322)">Regular</text>
  <text style="stroke:none;fill:black;font-family:sans-serif;font-size:13;text-anchor:middle;" transform="matrix(1 0 0 1 1746.56 322)">Medium</text>
  <text style="stroke:none;fill:black;font-family:sans-serif;font-size:13;text-anchor:middle;" transform="matrix(1 0 0 1 2043.27 322)">Semibold</text>
  <text style="stroke:none;fill:black;font-family:sans-serif;font-size:13;text-anchor:middle;" transform="matrix(1 0 0 1 2339.98 322)">Bold</text>
  <text style="stroke:none;fill:black;font-family:sans-serif;font-size:13;text-anchor:middle;" transform="matrix(1 0 0 1 2636.69 322)">Heavy</text>
  <text style="stroke:none;fill:black;font-family:sans-serif;font-size:13;text-anchor:middle;" transform="matrix(1 0 0 1 2933.4 322)">Black</text>
  <line style="fill:none;stroke:black;opacity:1;stroke-width:0.5;" x1="263" x2="3036" y1="1903" y2="1903"/>
  <g transform="matrix(1 0 0 1 263 1933)">
   <path d="M9.24805 0.830078C13.5547 0.830078 17.1387-2.74414 17.1387-7.05078C17.1387-11.3574 13.5449-14.9316 9.23828-14.9316C4.94141-14.9316 1.36719-11.3574 1.36719-7.05078C1.36719-2.74414 4.95117 0.830078 9.24805 0.830078ZM9.24805-0.654297C5.70312-0.654297 2.87109-3.49609 2.87109-7.05078C2.87109-10.6055 5.69336-13.4473 9.23828-13.4473C12.793-13.4473 15.6445-10.6055 15.6445-7.05078C15.6445-3.49609 12.8027-0.654297 9.24805-0.654297ZM5.6543-7.05078C5.6543-6.62109 5.95703-6.32812 6.40625-6.32812L8.50586-6.32812L8.50586-4.20898C8.50586-3.76953 8.79883-3.4668 9.22852-3.4668C9.67773-3.4668 9.9707-3.76953 9.9707-4.20898L9.9707-6.32812L12.0898-6.32812C12.5293-6.32812 12.832-6.62109 12.832-7.05078C12.832-7.49023 12.5293-7.79297 12.0898-7.79297L9.9707-7.79297L9.9707-9.90234C9.9707-10.3516 9.67773-10.6543 9.22852-10.6543C8.79883-10.6543 8.50586-10.3516 8.50586-9.90234L8.50586-7.79297L6.40625-7.79297C5.95703-7.79297 5.6543-7.49023 5.6543-7.05078Z"/>
  </g>
  <g transform="matrix(1 0 0 1 281.867 1933)">
   <path d="M11.709 2.91016C17.1582 2.91016 21.6699-1.61133 21.6699-7.05078C21.6699-12.5 17.1484-17.0117 11.6992-17.0117C6.25977-17.0117 1.74805-12.5 1.74805-7.05078C1.74805-1.61133 6.26953 2.91016 11.709 2.91016ZM11.709 1.25C7.09961 1.25 3.41797-2.44141 3.41797-7.05078C3.41797-11.6602 7.08984-15.3516 11.6992-15.3516C16.3086-15.3516 20.0098-11.6602 20.0098-7.05078C20.0098-2.44141 16.3184 1.25 11.709 1.25ZM7.17773-7.05078C7.17773-6.57227 7.50977-6.25 8.00781-6.25L10.8789-6.25L10.8789-3.36914C10.8789-2.88086 11.2109-2.53906 11.6895-2.53906C12.1777-2.53906 12.5195-2.87109 12.5195-3.36914L12.5195-6.25L15.4004-6.25C15.8887-6.25 16.2305-6.57227 16.2305-7.05078C16.2305-7.53906 15.8887-7.88086 15.4004-7.88086L12.5195-7.88086L12.5195-10.752C12.5195-11.25 12.1777-11.5918 11.6895-11.5918C11.2109-11.5918 10.8789-11.25 10.8789-10.752L10.8789-7.88086L8.00781-7.88086C7.50977-7.88086 7.17773-7.53906 7.17773-7.05078Z"/>
  </g>
  <g transform="matrix(1 0 0 1 305.646 1933)">
   <path d="M14.9707 5.66406C21.9336 5.66406 27.6953-0.0976562 27.6953-7.05078C27.6953-14.0137 21.9238-19.7754 14.9609-19.7754C8.00781-19.7754 2.25586-14.0137 2.25586-7.05078C2.25586-0.0976562 8.01758 5.66406 14.9707 5.66406ZM14.9707 3.84766C8.93555 3.84766 4.08203-1.01562 4.08203-7.05078C4.08203-13.0957 8.92578-17.9492 14.9609-17.9492C21.0059-17.9492 25.8691-13.0957 25.8691-7.05078C25.8691-1.01562 21.0156 3.84766 14.9707 3.84766ZM9.19922-7.05078C9.19922-6.5332 9.57031-6.17188 10.1172-6.17188L14.0625-6.17188L14.0625-2.2168C14.0625-1.67969 14.4336-1.29883 14.9512-1.29883C15.4883-1.29883 15.8594-1.66992 15.8594-2.2168L15.8594-6.17188L19.8145-6.17188C20.3516-6.17188 20.7324-6.5332 20.7324-7.05078C20.7324-7.59766 20.3613-7.96875 19.8145-7.96875L15.8594-7.96875L15.8594-11.9141C15.8594-12.4609 15.4883-12.8418 14.9512-12.8418C14.4336-12.8418 14.0625-12.4609 14.0625-11.9141L14.0625-7.96875L10.1172-7.96875C9.57031-7.96875 9.19922-7.59766 9.19922-7.05078Z"/>
  </g>
  <text style="stroke:none;fill:black;font-family:sans-serif;font-size:13;font-weight:bold;" transform="matrix(1 0 0 1 263 1953)">Design Variations</text>
  <text style="stroke:none;fill:black;font-family:sans-serif;font-size:13;" transform="matrix(1 0 0 1 263 1971)">Symbols are supported in up to nine weights and three scales.</text>
  <text style="stroke:none;fill:black;font-family:sans-serif;font-size:13;" transform="matrix(1 0 0 1 263 1989)">For optimal layout with text and other symbols, vertically align</text>
  <text style="stroke:none;fill:black;font-family:sans-serif;font-size:13;" transform="matrix(1 0 0 1 263 2007)">symbols with the adjacent text.</text>
  <line style="fill:none;stroke:#00AEEF;stroke-width:0.5;opacity:1.0;" x1="776" x2="776" y1="1919" y2="1933"/>
  <g transform="matrix(1 0 0 1 776 1933)">
   <path d="M3.31055 0.15625C3.82812 0.15625 4.08203-0.0390625 4.26758-0.585938L5.52734-4.0332L11.2891-4.0332L12.5488-0.585938C12.7344-0.0390625 12.9883 0.15625 13.4961 0.15625C14.0137 0.15625 14.3457-0.15625 14.3457-0.644531C14.3457-0.810547 14.3164-0.966797 14.2383-1.17188L9.6582-13.3691C9.43359-13.9648 9.0332-14.2676 8.4082-14.2676C7.80273-14.2676 7.39258-13.9746 7.17773-13.3789L2.59766-1.16211C2.51953-0.957031 2.49023-0.800781 2.49023-0.634766C2.49023-0.146484 2.80273 0.15625 3.31055 0.15625ZM6.00586-5.51758L8.37891-12.0898L8.42773-12.0898L10.8008-5.51758Z"/>
  </g>
  <line style="fill:none;stroke:#00AEEF;stroke-width:0.5;opacity:1.0;" x1="793.197" x2="793.197" y1="1919" y2="1933"/>
  <text style="stroke:none;fill:black;font-family:sans-serif;font-size:13;font-weight:bold;" transform="matrix(1 0 0 1 776 1953)">Margins</text>
  <text style="stroke:none;fill:black;font-family:sans-serif;font-size:13;" transform="matrix(1 0 0 1 776 1971)">Leading and trailing margins on the left and right side of each symbol</text>
  <text style="stroke:none;fill:black;font-family:sans-serif;font-size:13;" transform="matrix(1 0 0 1 776 1989)">can be adjusted by modifying the x-location of the margin guidelines.</text>
  <text style="stroke:none;fill:black;font-family:sans-serif;font-size:13;" transform="matrix(1 0 0 1 776 2007)">Modifications are automatically applied proportionally to all</text>
  <text style="stroke:none;fill:black;font-family:sans-serif;font-size:13;" transform="matrix(1 0 0 1 776 2025)">scales and weights.</text>
  <g transform="matrix(1 0 0 1 1289 1933)">
   <path d="M2.8418 1.86523L4.54102 3.57422C5.40039 4.44336 6.38672 4.38477 7.31445 3.35938L18.0078-8.42773L17.041-9.4043L6.42578 2.27539C6.07422 2.67578 5.74219 2.77344 5.27344 2.30469L4.10156 1.14258C3.63281 0.683594 3.74023 0.341797 4.14062-0.0195312L15.6152-10.8203L14.6387-11.7871L3.04688-0.898438C2.06055 0.0195312 1.98242 0.996094 2.8418 1.86523ZM9.25781-16.3281C8.83789-15.918 8.80859-15.3418 9.04297-14.9512C9.27734-14.5898 9.73633-14.3555 10.3809-14.5215C11.8457-14.8633 13.3691-14.9219 14.7949-13.9844L14.209-12.5293C13.8672-11.6992 14.043-11.1133 14.5801-10.5664L16.875-8.25195C17.3633-7.76367 17.7734-7.74414 18.3398-7.8418L19.4043-8.03711L20.0684-7.36328L20.0293-6.80664C19.9902-6.30859 20.1172-5.92773 20.6055-5.44922L21.3672-4.70703C21.8457-4.22852 22.4609-4.19922 22.9297-4.66797L25.8398-7.58789C26.3086-8.05664 26.2891-8.65234 25.8105-9.13086L25.0391-9.89258C24.5605-10.3711 24.1895-10.5273 23.7109-10.4883L23.1348-10.4395L22.4902-11.0742L22.7344-12.1973C22.8613-12.7637 22.7051-13.2031 22.1191-13.7891L19.9219-15.9766C16.582-19.2969 12.1484-19.2188 9.25781-16.3281ZM10.752-15.957C13.1836-17.7344 16.4746-17.4316 18.7012-15.2051L21.1328-12.793C21.3672-12.5586 21.4062-12.373 21.3379-12.0312L21.0156-10.5469L22.5195-9.0625L23.5059-9.12109C23.7598-9.13086 23.8379-9.11133 24.0332-8.91602L24.6094-8.33984L22.168-5.89844L21.5918-6.47461C21.3965-6.66992 21.3672-6.74805 21.377-7.01172L21.4453-7.98828L19.9512-9.47266L18.4277-9.21875C18.1055-9.15039 17.959-9.17969 17.7148-9.41406L15.7129-11.416C15.459-11.6504 15.4297-11.8164 15.5859-12.1875L16.4648-14.2773C14.9023-15.7324 12.8711-16.3574 10.8398-15.7617C10.6836-15.7227 10.625-15.8496 10.752-15.957Z"/>
  </g>
  <text style="stroke:none;fill:black;font-family:sans-serif;font-size:13;font-weight:bold;" transform="matrix(1 0 0 1 1289 1953)">Exporting</text>
  <text style="stroke:none;fill:black;font-family:sans-serif;font-size:13;" transform="matrix(1 0 0 1 1289 1971)">Symbols should be outlined when exporting to ensure the</text>
  <text style="stroke:none;fill:black;font-family:sans-serif;font-size:13;" transform="matrix(1 0 0 1 1289 1989)">design is preserved when submitting to Xcode.</text>
  <text id="template-version" style="stroke:none;fill:black;font-family:sans-serif;font-size:13;text-anchor:end;" transform="matrix(1 0 0 1 3036 1933)">Template v.4.0</text>
  <text style="stroke:none;fill:black;font-family:sans-serif;font-size:13;text-anchor:end;" transform="matrix(1 0 0 1 3036 1951)">Requires Xcode 14 or greater</text>
  <text id="descriptive-name" style="stroke:none;fill:black;font-family:sans-serif;font-size:13;text-anchor:end;" transform="matrix(1 0 0 1 3036 1969)">Generated from antenna.radiowaves.left.and.right.circle.fill</text>
  <text style="stroke:none;fill:black;font-family:sans-serif;font-size:13;text-anchor:end;" transform="matrix(1 0 0 1 3036 1987)">Typeset at 100 points</text>
  <text style="stroke:none;fill:black;font-family:sans-serif;font-size:13;" transform="matrix(1 0 0 1 263 726)">Small</text>
  <text style="stroke:none;fill:black;font-family:sans-serif;font-size:13;" transform="matrix(1 0 0 1 263 1156)">Medium</text>
  <text style="stroke:none;fill:black;font-family:sans-serif;font-size:13;" transform="matrix(1 0 0 1 263 1586)">Large</text>
 </g>
 <g id="Guides">
  <g id="H-reference" style="fill:#27AAE1;stroke:none;" transform="matrix(1 0 0 1 339 696)">
   <path d="M0.993654 0L3.63775 0L29.3281-67.1323L30.0303-67.1323L30.0303-70.459L28.1226-70.459ZM11.6885-24.4799L46.9815-24.4799L46.2315-26.7285L12.4385-26.7285ZM55.1196 0L57.7637 0L30.6382-70.459L29.4326-70.459L29.4326-67.1323Z"/>
  </g>
  <line id="Baseline-S" style="fill:none;stroke:#27AAE1;opacity:1;stroke-width:0.5;" x1="263" x2="3036" y1="696" y2="696"/>
  <line id="Capline-S" style="fill:none;stroke:#27AAE1;opacity:1;stroke-width:0.5;" x1="263" x2="3036" y1="625.541" y2="625.541"/>
  <g id="H-reference" style="fill:#27AAE1;stroke:none;" transform="matrix(1 0 0 1 339 1126)">
   <path d="M0.993654 0L3.63775 0L29.3281-67.1323L30.0303-67.1323L30.0303-70.459L28.1226-70.459ZM11.6885-24.4799L46.9815-24.4799L46.2315-26.7285L12.4385-26.7285ZM55.1196 0L57.7637 0L30.6382-70.459L29.4326-70.459L29.4326-67.1323Z"/>
  </g>
  <line id="Baseline-M" style="fill:none;stroke:#27AAE1;opacity:1;stroke-width:0.5;" x1="263" x2="3036" y1="1126" y2="1126"/>
  <line id="Capline-M" style="fill:none;stroke:#27AAE1;opacity:1;stroke-width:0.5;" x1="263" x2="3036" y1="1055.54" y2="1055.54"/>
  <g id="H-reference" style="fill:#27AAE1;stroke:none;" transform="matrix(1 0 0 1 339 1556)">
   <path d="M0.993654 0L3.63775 0L29.3281-67.1323L30.0303-67.1323L30.0303-70.459L28.1226-70.459ZM11.6885-24.4799L46.9815-24.4799L46.2315-26.7285L12.4385-26.7285ZM55.1196 0L57.7637 0L30.6382-70.459L29.4326-70.459L29.4326-67.1323Z"/>
  </g>
  <line id="Baseline-L" style="fill:none;stroke:#27AAE1;opacity:1;stroke-width:0.5;" x1="263" x2="3036" y1="1556" y2="1556"/>
  <line id="Capline-L" style="fill:none;stroke:#27AAE1;opacity:1;stroke-width:0.5;" x1="263" x2="3036" y1="1485.54" y2="1485.54"/>
  <line id="left-margin-Regular-M" style="fill:none;stroke:#00AEEF;stroke-width:0.5;opacity:1.0;" x1="1391.32" x2="1391.32" y1="1030.79" y2="1150.12"/>
  <line id="right-margin-Regular-M" style="fill:none;stroke:#00AEEF;stroke-width:0.5;opacity:1.0;" x1="1508.37" x2="1508.37" y1="1030.79" y2="1150.12"/>
 </g>
 <g id="Symbols">
  <g id="Black-L" transform="matrix(1 0 0 1 2854.19 1556)">
   <path d="M79.1958 32.8061C116.56 32.8061 147.154 2.23301 147.154-35.1309C147.154-72.4948 116.539-103.068 79.175-103.068C41.8307-103.068 11.2588-72.4948 11.2588-35.1309C11.2588 2.23301 41.8515 32.8061 79.1958 32.8061ZM39.1456-36.9197C39.1456-46.2625 42.3968-55.2784 47.7875-61.0108C50.3213-63.5694 53.5977-63.5694 55.641-61.0524C57.2703-59.2039 57.0326-56.5584 55.0257-54.389C51.0723-50.0806 48.9321-43.8022 48.9321-36.9197C48.9321-29.9371 51.0723-23.738 55.0257-19.5036C57.0338-17.159 57.2703-14.5939 55.6202-12.6662C53.5965-10.2284 50.3213-10.3284 47.7875-12.7858C42.2592-18.6571 39.1456-27.2421 39.1456-36.9197ZM54.0334-36.9197C54.0334-42.5271 55.7127-47.6244 58.6094-50.8889C60.946-53.3724 64.5185-53.4141 66.3514-50.9918C67.7262-49.0861 67.6226-46.7772 66.0477-44.3713C64.8958-42.634 63.82-39.4988 63.82-36.9197C63.82-34.4242 64.6414-31.6787 65.8117-29.8378C67.3913-27.1959 67.9026-24.7504 66.3514-22.8996C64.3653-20.5602 60.946-20.4838 58.6094-23.0036C55.7711-26.115 54.0334-31.2903 54.0334-36.9197ZM70.63-36.9197C70.63-41.7313 74.3842-45.6023 79.1958-45.6023C84.0074-45.6023 87.7824-41.7313 87.7824-36.9197C87.7824-33.9138 86.2324-31.2903 83.9598-29.7599L83.9598-2.22672C83.9598 0.986078 82.0541 3.0306 79.1958 3.0306C76.3583 3.0306 74.4526 0.906855 74.4526-2.22672L74.4526-29.7391C72.18-31.2707 70.63-33.8929 70.63-36.9197ZM94.5924-36.9197C94.5924-39.4988 93.5166-42.634 92.3647-44.3713C90.7898-46.7772 90.6862-49.0861 92.0402-50.9918C93.8939-53.4141 97.4652-53.3724 99.7822-50.8889C102.7-47.6244 104.379-42.5271 104.379-36.9197C104.379-31.2903 102.641-26.115 99.7822-23.0036C97.4652-20.4838 93.8719-20.4433 92.0402-22.8996C90.685-24.692 90.7874-27.079 92.3671-29.4873C93.479-31.1531 94.5924-34.249 94.5924-36.9197ZM109.459-36.9197C109.459-43.8022 107.34-50.0806 103.387-54.389C101.359-56.5584 101.141-59.2039 102.771-61.0524C104.815-63.5694 108.091-63.5694 110.625-61.0108C115.995-55.2784 119.267-46.2625 119.267-36.9197C119.267-27.2421 116.132-18.6571 110.625-12.7858C108.091-10.3284 104.816-10.2284 102.792-12.6662C101.141-14.5939 101.358-17.159 103.387-19.5036C107.34-23.738 109.459-29.9371 109.459-36.9197Z"/>
  </g>
  <g id="Heavy-L" transform="matrix(1 0 0 1 2558.42 1556)">
   <path d="M78.2532 31.8498C115.056 31.8498 145.278 1.65836 145.278-35.1447C145.278-71.9477 115.026-102.139 78.2231-102.139C41.4446-102.139 11.2588-71.9477 11.2588-35.1447C11.2588 1.65836 41.4748 31.8498 78.2532 31.8498ZM38.0643-37.0328C38.0643-46.4814 41.4021-55.5568 47.0718-61.6019C49.3783-63.9845 52.4567-63.9845 54.3649-61.6622C55.9091-59.9125 55.6847-57.3923 53.7854-55.2974C49.5418-50.7111 47.2334-44.1691 47.2334-37.0328C47.2334-29.7915 49.5418-23.3243 53.7854-18.7613C55.6903-16.5325 55.9091-14.0927 54.3347-12.2682C52.4511-10.0207 49.3783-10.1257 47.0718-12.3977C41.2827-18.5678 38.0643-27.2951 38.0643-37.0328ZM53.1919-37.0328C53.1919-42.6264 54.9302-47.797 57.9543-51.2782C60.0912-53.632 63.4386-53.6924 65.2097-51.4236C66.5453-49.6348 66.4235-47.4384 64.8779-45.1247C63.4816-43.1006 62.3611-39.8755 62.3611-37.0328C62.3611-34.1639 63.273-31.2557 64.6882-29.2041C66.2562-26.7007 66.6848-24.3904 65.2097-22.6295C63.3406-20.4523 60.0912-20.4178 57.9543-22.7804C54.9748-26.1636 53.1919-31.4034 53.1919-37.0328ZM69.9804-37.0328C69.9804-41.6728 73.6132-45.3948 78.2532-45.3948C82.8933-45.3948 86.5562-41.6728 86.5562-37.0328C86.5562-34.0765 84.9925-31.4977 82.7105-30.0529L82.7105-0.926861C82.7105 2.05535 80.9218 3.96912 78.2532 3.96912C75.6149 3.96912 73.8262 1.98054 73.8262-0.926861L73.8262-30.0227C71.5442-31.4732 69.9804-34.0463 69.9804-37.0328ZM94.1756-37.0328C94.1756-39.8755 93.055-43.1006 91.6588-45.1247C90.1132-47.4384 89.9914-49.6348 91.2968-51.4236C93.098-53.6924 96.4398-53.632 98.5521-51.2782C101.606-47.797 103.345-42.6264 103.345-37.0328C103.345-31.4034 101.562-26.1636 98.5521-22.7804C96.4398-20.4178 93.0622-20.3631 91.2968-22.6295C89.9858-24.3458 90.102-26.6115 91.67-28.9364C93.0406-30.8541 94.1756-34.03 94.1756-37.0328ZM109.273-37.0328C109.273-44.1691 106.995-50.7111 102.751-55.2974C100.822-57.3923 100.622-59.9125 102.172-61.6622C104.08-63.9845 107.158-63.9845 109.465-61.6019C115.104-55.5568 118.472-46.4814 118.472-37.0328C118.472-27.2951 115.224-18.5678 109.465-12.3977C107.158-10.1257 104.086-10.0207 102.202-12.2682C100.622-14.0927 100.816-16.5325 102.751-18.7613C106.995-23.3243 109.273-29.7915 109.273-37.0328Z"/>
  </g>
  <g id="Bold-L" transform="matrix(1 0 0 1 2262.89 1556)">
   <path d="M77.0704 30.6515C113.182 30.6515 142.92 0.951291 142.92-35.1601C142.92-71.2714 113.144-100.972 77.0324-100.972C40.9458-100.972 11.2588-71.2714 11.2588-35.1601C11.2588 0.951291 40.9838 30.6515 77.0704 30.6515ZM36.8092-37.1861C36.8092-46.7504 40.2546-55.8951 46.2551-62.2872C48.27-64.4248 51.0652-64.4248 52.782-62.3632C54.1964-60.7587 53.9948-58.4295 52.256-56.4715C47.629-51.5395 45.1057-44.6597 45.1057-37.1861C45.1057-29.6073 47.629-22.7947 52.256-17.8318C54.0081-15.7863 54.1964-13.5374 52.744-11.8658C51.052-9.87134 48.27-9.97652 46.2551-11.9957C40.1582-18.4974 36.8092-27.3865 36.8092-37.1861ZM52.1917-37.1861C52.1917-42.7642 54.0067-48.0196 57.1921-51.7325C59.0681-53.8877 62.0942-53.9636 63.7586-51.9092C65.0182-50.2888 64.8733-48.253 63.4034-46.1067C61.6775-43.7217 60.4883-40.3665 60.4883-37.1861C60.4883-33.8486 61.5227-30.7182 63.2601-28.4203C64.783-26.1307 65.119-24.0118 63.7586-22.3809C62.0578-20.4334 59.0681-20.4377 57.1921-22.5709C54.0359-26.2474 52.1917-31.5567 52.1917-37.1861ZM69.2109-37.1861C69.2109-41.5887 72.6678-45.1039 77.0704-45.1039C81.473-45.1039 84.9678-41.5887 84.9678-37.1861C84.9678-34.2987 83.3886-31.7887 81.0989-30.4662L81.0989 0.671756C81.0989 3.33981 79.4785 5.06985 77.0704 5.06985C74.7003 5.06985 73.0799 3.27262 73.0799 0.671756L73.0799-30.4282C70.7901-31.7639 69.2109-34.2607 69.2109-37.1861ZM93.6905-37.1861C93.6905-40.3665 92.5012-43.7217 90.7754-46.1067C89.3054-48.253 89.1606-50.2888 90.3822-51.9092C92.0846-53.9636 95.0974-53.8877 96.9487-51.7325C100.172-48.0196 101.987-42.7642 101.987-37.1861C101.987-31.5567 100.143-26.2474 96.9487-22.5709C95.0974-20.4377 92.0334-20.375 90.3822-22.3809C89.1473-23.9826 89.279-26.0723 90.8018-28.2451C92.51-30.4554 93.6905-33.761 93.6905-37.1861ZM109.035-37.1861C109.035-44.6597 106.55-51.5395 101.923-56.4715C100.146-58.4295 99.9691-60.7587 101.397-62.3632C103.114-64.4248 105.909-64.4248 107.924-62.2872C113.886-55.8951 117.37-46.7504 117.37-37.1861C117.37-27.3865 113.983-18.4974 107.924-11.9957C105.909-9.97652 103.127-9.87134 101.435-11.8658C99.9691-13.5374 100.133-15.7863 101.923-17.8318C106.55-22.7947 109.035-29.6073 109.035-37.1861Z"/>
  </g>
  <g id="Semibold-L" transform="matrix(1 0 0 1 1966.99 1556)">
   <path d="M76.2549 29.8254C111.889 29.8254 141.294 0.463842 141.294-35.1707C141.294-70.8053 111.846-100.167 76.2116-100.167C40.6019-100.167 11.2588-70.8053 11.2588-35.1707C11.2588 0.463842 40.6453 29.8254 76.2549 29.8254ZM35.9439-37.2917C35.9439-46.9359 39.4634-56.1284 45.6921-62.7597C47.5059-64.7283 50.1059-64.7283 51.6908-62.8464C53.0157-61.3421 52.8299-59.1445 51.2017-57.281C46.3104-52.1106 43.6389-44.9979 43.6389-37.2917C43.6389-29.4802 46.3104-22.4295 51.2017-17.1911C52.8484-15.2718 53.0157-13.1546 51.6475-11.5884C50.0875-9.76838 47.5059-9.87369 45.6921-11.7186C39.3829-18.4489 35.9439-27.4495 35.9439-37.2917ZM51.5022-37.2917C51.5022-42.8593 53.37-48.173 56.6666-52.0456C58.3628-54.0639 61.1673-54.1506 62.7582-52.244C63.9654-50.7396 63.8047-48.8146 62.3869-46.7837C60.4338-44.1498 59.1971-40.705 59.1971-37.2917C59.1971-33.6313 60.3162-30.3477 62.2756-27.88C63.7673-25.7378 64.0396-23.7508 62.7582-22.2096C61.1734-20.4203 58.3628-20.4514 56.6666-22.4264C53.3886-26.3051 51.5022-31.6623 51.5022-37.2917ZM68.6805-37.2917C68.6805-41.5307 72.016-44.9033 76.2549-44.9033C80.4939-44.9033 83.8728-41.5307 83.8728-37.2917C83.8728-34.4519 82.283-31.9892 79.9878-30.7512L79.9878 1.77383C79.9878 4.22531 78.4835 5.82868 76.2549 5.82868C74.0698 5.82868 72.5654 4.16338 72.5654 1.77383L72.5654-30.7078C70.2703-31.9643 68.6805-34.4085 68.6805-37.2917ZM93.3561-37.2917C93.3561-40.705 92.1194-44.1498 90.1664-46.7837C88.7486-48.8146 88.5878-50.7396 89.7517-52.244C91.386-54.1506 94.1719-54.0639 95.8433-52.0456C99.1832-48.173 101.051-42.8593 101.051-37.2917C101.051-31.6623 99.1646-26.3051 95.8433-22.4264C94.1719-20.4514 91.3241-20.3832 89.7517-22.2096C88.5693-23.7323 88.7116-25.7007 90.2034-27.7685C92.1442-30.1806 93.3561-33.5756 93.3561-37.2917ZM108.871-37.2917C108.871-44.9979 106.243-52.1106 101.352-57.281C99.68-59.1445 99.5191-61.3421 100.862-62.8464C102.447-64.7283 105.047-64.7283 106.861-62.7597C113.046-56.1284 116.609-46.9359 116.609-37.2917C116.609-27.4495 113.127-18.4489 106.861-11.7186C105.047-9.87369 102.466-9.76838 100.906-11.5884C99.5191-13.1546 99.6615-15.2718 101.352-17.1911C106.243-22.4295 108.871-29.4802 108.871-37.2917Z"/>
  </g>
  <g id="Medium-L" transform="matrix(1 0 0 1 1670.9 1556)">
   <path d="M75.6366 29.1991C110.91 29.1991 140.062 0.0942366 140.062-35.1788C140.062-70.4518 110.862-99.5566 75.5892-99.5566C40.3412-99.5566 11.2588-70.4518 11.2588-35.1788C11.2588 0.0942366 40.3886 29.1991 75.6366 29.1991ZM35.2878-37.3718C35.2878-47.0765 38.8636-56.3052 45.2652-63.1179C46.9265-64.9585 49.3786-64.9585 50.8634-63.2128C52.1204-61.7844 51.9466-59.6867 50.4023-57.8947C45.3105-52.5436 42.5267-45.2544 42.5267-37.3718C42.5267-29.3839 45.3105-22.1526 50.4023-16.7052C51.969-14.8817 52.1204-12.8644 50.816-11.3781C49.3561-9.69031 46.9265-9.79571 45.2652-11.5084C38.7951-18.4121 35.2878-27.4973 35.2878-37.3718ZM50.9793-37.3718C50.9793-42.9313 52.8873-48.2894 56.2682-52.283C57.8281-54.1975 60.4645-54.2924 61.9997-52.4978C63.1672-51.0814 62.9944-49.2405 61.6161-47.2971C59.4908-44.4745 58.2182-40.9617 58.2182-37.3718C58.2182-33.4665 59.4013-30.0668 61.5291-27.4702C62.9972-25.4399 63.2212-23.5529 61.9997-22.0797C60.5029-20.4104 57.8281-20.4618 56.2682-22.3169C52.8978-26.3489 50.9793-31.7425 50.9793-37.3718ZM68.2782-37.3718C68.2782-41.4867 71.5218-44.7513 75.6366-44.7513C79.7514-44.7513 83.0425-41.4867 83.0425-37.3718C83.0425-34.568 81.4446-32.1413 79.1454-30.9673L79.1454 2.60947C79.1454 4.89674 77.729 6.40406 75.6366 6.40406C73.5917 6.40406 72.1753 4.83878 72.1753 2.60947L72.1753-30.9198C69.8761-32.1163 68.2782-34.5206 68.2782-37.3718ZM93.1026-37.3718C93.1026-40.9617 91.8299-44.4745 89.7046-47.2971C88.3263-49.2405 88.1536-51.0814 89.2736-52.4978C90.8562-54.2924 93.4702-54.1975 95.0051-52.283C98.4334-48.2894 100.341-42.9313 100.341-37.3718C100.341-31.7425 98.4229-26.3489 95.0051-22.3169C93.4702-20.4618 90.7863-20.3894 89.2736-22.0797C88.1311-23.5424 88.2814-25.4189 89.7496-27.4072C91.8669-29.9722 93.1026-33.435 93.1026-37.3718ZM108.747-37.3718C108.747-45.2544 106.01-52.5436 100.918-57.8947C99.3267-59.6867 99.1778-61.7844 100.457-63.2128C101.942-64.9585 104.394-64.9585 106.056-63.1179C112.41-56.3052 116.033-47.0765 116.033-37.3718C116.033-27.4973 112.478-18.4121 106.056-11.5084C104.394-9.79571 101.965-9.69031 100.505-11.3781C99.1778-12.8644 99.3042-14.8817 100.918-16.7052C106.01-22.1526 108.747-29.3839 108.747-37.3718Z"/>
  </g>
  <g id="Regular-L" transform="matrix(1 0 0 1 1374.99 1556)">
   <path d="M74.8301 28.3821C109.632 28.3821 138.454-0.387857 138.454-35.1893C138.454-69.9907 109.579-98.7606 74.7774-98.7606C40.0011-98.7606 11.2588-69.9907 11.2588-35.1893C11.2588-0.387857 40.0538 28.3821 74.8301 28.3821ZM34.4321-37.4763C34.4321-47.2599 38.0812-56.5359 44.7084-63.5852C46.1708-65.2587 48.4299-65.2587 49.7842-63.6907C50.9527-62.3614 50.7944-60.3939 49.3596-58.6952C44.0064-53.1084 41.0759-45.589 41.0759-37.4763C41.0759-29.2582 44.0064-21.7915 49.3596-16.0715C50.8221-14.3729 50.9527-12.4858 49.7315-11.1037C48.4022-9.58848 46.1708-9.69401 44.7084-11.2343C38.0284-18.3641 34.4321-27.5596 34.4321-37.4763ZM50.2974-37.4763C50.2974-43.0253 52.2576-48.4411 55.7485-52.5927C57.1305-54.3718 59.5478-54.4773 61.0103-52.8289C62.126-51.5273 61.9375-49.7959 60.6107-47.9666C58.2607-44.8979 56.9412-41.2965 56.9412-37.4763C56.9412-33.2516 58.2079-29.7003 60.5554-26.9358C61.9928-25.0513 62.1536-23.2948 61.0103-21.9102C59.6282-20.3975 57.1305-20.4754 55.7485-22.174C52.2576-26.4061 50.2974-31.847 50.2974-37.4763ZM67.7536-37.4763C67.7536-41.4293 70.8772-44.5529 74.8301-44.5529C78.7831-44.5529 81.9595-41.4293 81.9595-37.4763C81.9595-34.7195 80.3511-32.3397 78.0465-31.2491L78.0465 3.69944C78.0465 5.77251 76.7449 7.15455 74.8301 7.15455C72.9681 7.15455 71.6665 5.71975 71.6665 3.69944L71.6665-31.1963C69.362-32.3146 67.7536-34.6667 67.7536-37.4763ZM92.7718-37.4763C92.7718-41.2965 91.4524-44.8979 89.1023-47.9666C87.7756-49.7959 87.5871-51.5273 88.65-52.8289C90.1652-54.4773 92.5549-54.3718 93.9118-52.5927C97.4554-48.4411 99.4157-43.0253 99.4157-37.4763C99.4157-31.847 97.4554-26.4061 93.9118-22.174C92.5549-20.4754 90.0848-20.3975 88.65-21.9102C87.5594-23.2948 87.7203-25.0513 89.1576-26.9358C91.5051-29.7003 92.7718-33.2516 92.7718-37.4763ZM108.584-37.4763C108.584-45.589 105.707-53.1084 100.353-58.6952C98.8659-60.3939 98.7327-62.3614 99.9288-63.6907C101.283-65.2587 103.542-65.2587 105.005-63.5852C111.579-56.5359 115.281-47.2599 115.281-37.4763C115.281-27.5596 111.632-18.3641 105.005-11.2343C103.542-9.69401 101.311-9.58848 99.9816-11.1037C98.7327-12.4858 98.8382-14.3729 100.353-16.0715C105.707-21.7915 108.584-29.2582 108.584-37.4763Z"/>
  </g>
  <g id="Light-L" transform="matrix(1 0 0 1 1079.2 1556)">
   <path d="M73.9141 27.466C108.257 27.466 136.603-0.845903 136.603-35.1893C136.603-69.5327 108.224-97.8445 73.8804-97.8445C39.5239-97.8445 11.2588-69.5327 11.2588-35.1893C11.2588-0.845903 39.5576 27.466 73.9141 27.466ZM34.1076-37.6672C34.1076-47.4317 37.8331-56.7267 44.5939-63.7569C45.7891-65.0869 47.6092-65.0869 48.6773-63.8243C49.5976-62.7431 49.4966-61.1382 48.3481-59.8213C42.575-53.9863 39.4537-46.1615 39.4537-37.6672C39.4537-29.1055 42.575-21.3144 48.3481-15.3653C49.5433-14.0484 49.5976-12.5239 48.6436-11.4091C47.5624-10.1801 45.7891-10.2475 44.5939-11.4634C37.7994-18.574 34.1076-27.7886 34.1076-37.6672ZM49.8775-37.6672C49.8775-43.2162 51.9141-48.6511 55.5385-52.7263C56.6534-54.1237 58.5745-54.191 59.7697-52.848C60.6564-51.8136 60.4488-50.3303 59.4274-48.9591C56.6766-45.6041 55.2235-41.7927 55.2235-37.6672C55.2235-33.0798 56.6429-29.2423 59.334-26.4015C60.5423-24.9368 60.7031-23.4666 59.7697-22.2919C58.6549-21.1228 56.6534-21.1434 55.5385-22.4603C51.9141-26.616 49.8775-32.0378 49.8775-37.6672ZM67.4482-37.6672C67.4482-41.2957 70.2856-44.133 73.9141-44.133C77.5425-44.133 80.4136-41.2957 80.4136-37.6672C80.4136-35.0058 78.8052-32.7595 76.5197-31.8598L76.5197 4.73005C76.5197 6.40232 75.4853 7.51717 73.9141 7.51717C72.3765 7.51717 71.3421 6.36865 71.3421 4.73005L71.3421-31.8262C69.0566-32.7726 67.4482-34.9721 67.4482-37.6672ZM92.6382-37.6672C92.6382-41.7927 91.1852-45.6041 88.4343-48.9591C87.413-50.3303 87.2054-51.8136 88.0584-52.848C89.2873-54.191 91.1617-54.1237 92.2896-52.7263C95.9477-48.6511 97.9843-43.2162 97.9843-37.6672C97.9843-32.0378 95.9477-26.616 92.2896-22.4603C91.1617-21.1434 89.2069-21.1228 88.0584-22.2919C87.1587-23.4666 87.3195-24.9368 88.5278-26.4015C91.2188-29.2423 92.6382-33.0798 92.6382-37.6672ZM108.374-37.6672C108.374-46.1615 105.287-53.9863 99.5137-59.8213C98.3315-61.1382 98.2174-62.7431 99.1845-63.8243C100.253-65.0869 102.073-65.0869 103.268-63.7569C109.995-56.7267 113.754-47.4317 113.754-37.6672C113.754-27.7886 110.029-18.574 103.268-11.4634C102.073-10.2475 100.299-10.1801 99.2182-11.4091C98.2174-12.5239 98.2848-14.0484 99.5137-15.3653C105.287-21.3144 108.374-29.1055 108.374-37.6672Z"/>
  </g>
  <g id="Thin-L" transform="matrix(1 0 0 1 783.716 1556)">
   <path d="M72.7024 26.2544C106.44 26.2544 134.155-1.45171 134.155-35.1893C134.155-68.9269 106.432-96.6329 72.694-96.6329C38.8929-96.6329 11.2588-68.9269 11.2588-35.1893C11.2588-1.45171 38.9013 26.2544 72.7024 26.2544ZM33.6785-37.9196C33.6785-47.6589 37.5049-56.9791 44.4424-63.9841C45.2843-64.8597 46.5238-64.8597 47.2133-64.001C47.8055-63.248 47.7802-62.1226 47.0103-61.3105C40.6818-55.1475 37.3081-46.9188 37.3081-37.9196C37.3081-28.9036 40.6818-20.6833 47.0103-14.4314C47.8521-13.6193 47.8055-12.5744 47.2048-11.8129C46.4518-10.9626 45.2843-10.9795 44.4424-11.7663C37.4965-18.8517 33.6785-28.0915 33.6785-37.9196ZM49.3222-37.9196C49.3222-43.4686 51.4598-48.9287 55.2609-52.903C56.0223-53.7955 57.2871-53.8124 58.129-52.8732C58.7128-52.1922 58.4799-51.0371 57.8624-50.2716C54.5815-46.538 52.9518-42.449 52.9518-37.9196C52.9518-32.8526 54.5731-28.6365 57.7185-25.6947C58.6239-24.7853 58.7848-23.6937 58.129-22.7967C57.3675-22.0819 56.0223-22.0268 55.2609-22.8389C51.4598-26.8937 49.3222-32.2902 49.3222-37.9196ZM67.0444-37.9196C67.0444-41.119 69.5031-43.5777 72.7024-43.5777C75.9018-43.5777 78.369-41.119 78.369-37.9196C78.369-35.3844 76.7606-33.3149 74.5004-32.6676L74.5004 6.0931C74.5004 7.2353 73.8193 7.99677 72.7024 7.99677C71.594 7.99677 70.9129 7.22687 70.9129 6.0931L70.9129-32.6591C68.6528-33.3784 67.0444-35.376 67.0444-37.9196ZM92.4615-37.9196C92.4615-42.449 90.8318-46.538 87.5509-50.2716C86.9334-51.0371 86.7006-52.1922 87.2759-52.8732C88.1262-53.8124 89.319-53.7955 90.144-52.903C93.9536-48.9287 96.0912-43.4686 96.0912-37.9196C96.0912-32.2902 93.9536-26.8937 90.144-22.8389C89.319-22.0268 88.0458-22.0819 87.2759-22.7967C86.6286-23.6937 86.7894-24.7853 87.6948-25.6947C90.8402-28.6365 92.4615-32.8526 92.4615-37.9196ZM108.097-37.9196C108.097-46.9188 104.731-55.1475 98.4031-61.3105C97.6247-62.1226 97.5359-63.248 98.2001-64.001C98.8895-64.8597 100.129-64.8597 100.971-63.9841C107.9-56.9791 111.735-47.6589 111.735-37.9196C111.735-28.0915 107.908-18.8517 100.971-11.7663C100.129-10.9795 98.9615-10.9626 98.2085-11.8129C97.5359-12.5744 97.5528-13.6193 98.4031-14.4314C104.731-20.6833 108.097-28.9036 108.097-37.9196Z"/>
  </g>
  <g id="Ultralight-L" transform="matrix(1 0 0 1 487.631 1556)">
   <path d="M72.0819 25.6338C105.509 25.6338 132.9-1.762 132.9-35.1893C132.9-68.6166 105.514-96.0124 72.0864-96.0124C38.5697-96.0124 11.2588-68.6166 11.2588-35.1893C11.2588-1.762 38.5652 25.6338 72.0819 25.6338ZM33.4587-38.0489C33.4587-47.7752 37.3369-57.1084 44.3648-64.1005C45.0257-64.7434 45.9679-64.7434 46.4634-64.0915C46.8875-63.5065 46.901-62.6268 46.325-62.0733C39.7122-55.7422 36.2092-47.3066 36.2092-38.0489C36.2092-28.8002 39.7122-20.3601 46.325-13.953C46.9859-13.3995 46.8875-12.6003 46.4679-12.0198C45.8829-11.3634 45.0257-11.3544 44.3648-11.9214C37.3414-18.9939 33.4587-28.2467 33.4587-38.0489ZM49.0377-38.0489C49.0377-43.5979 51.227-49.0709 55.1186-52.9935C55.6991-53.6275 56.6278-53.6185 57.2886-52.8862C57.7173-52.3861 57.4715-51.3991 57.0609-50.9439C53.5085-47.0164 51.7882-42.7851 51.7882-38.0489C51.7882-32.7363 53.513-28.3262 56.891-25.3327C57.6413-24.7077 57.8022-23.8101 57.2886-23.0553C56.7082-22.5732 55.6991-22.4793 55.1186-23.0328C51.227-27.0359 49.0377-32.4195 49.0377-38.0489ZM66.8375-38.0489C66.8375-41.0285 69.1023-43.2933 72.0819-43.2933C75.0614-43.2933 77.3217-41.0285 77.3217-38.0489C77.3217-35.5784 75.7133-33.5993 73.4661-33.0813L73.4661 6.79126C73.4661 7.66195 72.966 8.24241 72.0819 8.24241C71.1932 8.24241 70.6932 7.66644 70.6932 6.79126L70.6932-33.0858C68.4459-33.6887 66.8375-35.5828 66.8375-38.0489ZM92.371-38.0489C92.371-42.7851 90.6508-47.0164 87.0984-50.9439C86.6877-51.3991 86.442-52.3861 86.8751-52.8862C87.5315-53.6185 88.3752-53.6275 89.0451-52.9935C92.9322-49.0709 95.1215-43.5979 95.1215-38.0489C95.1215-32.4195 92.9322-27.0359 89.0451-23.0328C88.3752-22.4793 87.4511-22.5732 86.8751-23.0553C86.3571-23.8101 86.5179-24.7077 87.2682-25.3327C90.6463-28.3262 92.371-32.7363 92.371-38.0489ZM107.955-38.0489C107.955-47.3066 104.447-55.7422 97.8342-62.0733C97.2627-62.6268 97.1868-63.5065 97.6958-64.0915C98.1914-64.7434 99.1335-64.7434 99.7944-64.1005C106.827-57.1084 110.701-47.7752 110.701-38.0489C110.701-28.2467 106.822-18.9939 99.7944-11.9214C99.1335-11.3544 98.2763-11.3634 97.6913-12.0198C97.1868-12.6003 97.1778-13.3995 97.8342-13.953C104.447-20.3601 107.955-28.8002 107.955-38.0489Z"/>
  </g>
  <g id="Black-M" transform="matrix(1 0 0 1 2871.36 1126)">
   <path d="M62.0422 18.1783C91.4096 18.1783 115.367-5.7739 115.367-35.1412C115.367-64.5086 91.4041-88.4608 62.0367-88.4608C32.6752-88.4608 8.72266-64.5086 8.72266-35.1412C8.72266-5.7739 32.6807 18.1783 62.0422 18.1783ZM31.2131-36.4676C31.2131-43.6123 33.6679-50.5487 37.6225-54.7186C39.7447-56.8056 42.3938-56.8056 44.0542-54.7296C45.3559-53.2462 45.1681-51.1381 43.5596-49.445C40.6892-46.3124 39.1498-41.6335 39.1498-36.4676C39.1498-31.2337 40.6892-26.6174 43.5596-23.5883C45.1679-21.7239 45.3559-19.6781 44.0488-18.1322C42.3941-16.1187 39.7447-16.1868 37.6225-18.206C33.5482-22.4953 31.2131-29.0268 31.2131-36.4676ZM42.5283-36.4676C42.5283-40.8238 43.7889-44.7124 45.9417-47.0451C47.8873-49.0288 50.7814-49.0398 52.2183-47.0728C53.2861-45.532 53.2189-43.6801 52.0149-41.7989C51.2782-40.6607 50.4651-38.2806 50.4651-36.4676C50.4651-34.806 51.0444-32.7801 51.7871-31.5245C52.9899-29.4155 53.4571-27.4436 52.2183-25.9608C50.6153-24.0555 47.8873-23.9526 45.9417-25.9882C43.846-28.1548 42.5283-32.1063 42.5283-36.4676ZM55.237-36.4676C55.237-40.2989 58.211-43.3871 62.0422-43.3871C65.8735-43.3871 68.853-40.2989 68.853-36.4676C68.853-34.1091 67.664-32.0562 65.914-30.8229L65.914-10.6384C65.914-8.0054 64.3732-6.34525 62.0422-6.34525C59.7167-6.34525 58.176-8.06799 58.176-10.6384L58.176-30.8174C56.4259-32.0505 55.237-34.1036 55.237-36.4676ZM73.6249-36.4676C73.6249-38.2806 72.8117-40.6607 72.075-41.7989C70.8711-43.6801 70.8038-45.532 71.8661-47.0728C73.3086-49.0398 76.2029-49.0288 78.1427-47.0451C80.3011-44.7124 81.5617-40.8238 81.5617-36.4676C81.5617-32.1063 80.244-28.1548 78.1427-25.9882C76.2029-23.9526 73.3034-23.9413 71.8661-25.9608C70.8041-27.3865 70.8716-29.3013 72.0744-31.1819C72.7601-32.2662 73.6249-34.6347 73.6249-36.4676ZM84.9346-36.4676C84.9346-41.6335 83.4008-46.3124 80.5304-49.445C78.9163-51.1381 78.7343-53.2462 80.0357-54.7296C81.6961-56.8056 84.3453-56.8056 86.4674-54.7186C90.4166-50.5487 92.8769-43.6123 92.8769-36.4676C92.8769-29.0268 90.5363-22.4953 86.4674-18.206C84.3453-16.1868 81.6959-16.1187 80.0412-18.1322C78.7343-19.6781 78.9166-21.7239 80.5304-23.5883C83.4008-26.6174 84.9346-31.2337 84.9346-36.4676Z"/>
  </g>
  <g id="Heavy-M" transform="matrix(1 0 0 1 2575.48 1126)">
   <path d="M61.2053 17.328C90.0667 17.328 113.704-6.29341 113.704-35.1547C113.704-64.016 90.0502-87.6374 61.1889-87.6374C32.3418-87.6374 8.72266-64.016 8.72266-35.1547C8.72266-6.29341 32.3582 17.328 61.2053 17.328ZM30.186-36.5606C30.186-43.8105 32.7184-50.8033 36.9335-55.2806C38.8581-57.2272 41.3541-57.2272 42.9088-55.3134C44.1503-53.9037 43.9702-51.8846 42.4404-50.2292C39.3251-46.8477 37.6389-41.9392 37.6389-36.5606C37.6389-31.1055 39.3251-26.257 42.4404-22.9278C43.9725-21.1415 44.1503-19.1847 42.8924-17.7149C41.3518-15.8611 38.8581-15.9376 36.9335-17.8055C32.6147-22.3887 30.186-29.0575 30.186-36.5606ZM41.7444-36.5606C41.7444-40.9032 43.0556-44.8618 45.3207-47.4133C47.0958-49.3055 49.8155-49.3383 51.2167-47.4931C52.2673-46.042 52.184-44.2772 50.9806-42.4439C50.0419-41.0517 49.1974-38.6031 49.1974-36.5606C49.1974-34.5674 49.8511-32.4088 50.8015-30.9543C52.0141-28.9421 52.4004-27.0758 51.2167-25.6616C49.7033-23.8832 47.0958-23.8265 45.3207-25.7436C43.0993-28.1829 41.7444-32.1993 41.7444-36.5606ZM54.6301-36.5606C54.6301-40.254 57.5119-43.2231 61.2053-43.2231C64.8988-43.2231 67.797-40.254 67.797-36.5606C67.797-34.2417 66.5945-32.2203 64.8336-31.053L64.8336-9.46274C64.8336-7.01822 63.3825-5.46124 61.2053-5.46124C59.0446-5.46124 57.5935-7.07825 57.5935-9.46274L57.5935-31.0366C55.8326-32.2062 54.6301-34.2253 54.6301-36.5606ZM73.2297-36.5606C73.2297-38.6031 72.3851-41.0517 71.4465-42.4439C70.2431-44.2772 70.1598-46.042 71.194-47.4931C72.6116-49.3383 75.329-49.3055 77.09-47.4133C79.3714-44.8618 80.6827-40.9032 80.6827-36.5606C80.6827-32.1993 79.3278-28.1829 77.09-25.7436C75.329-23.8265 72.5929-23.7959 71.194-25.6616C70.1575-27.0322 70.2385-28.8548 71.4511-30.6926C72.3579-32.0162 73.2297-34.4366 73.2297-36.5606ZM84.7718-36.5606C84.7718-41.9392 83.102-46.8477 79.9867-50.2292C78.4405-51.8846 78.2745-53.9037 79.5183-55.3134C81.073-57.2272 83.569-57.2272 85.4936-55.2806C89.6923-50.8033 92.2411-43.8105 92.2411-36.5606C92.2411-29.0575 89.796-22.3887 85.4936-17.8055C83.569-15.9376 81.0753-15.8611 79.5347-17.7149C78.2745-19.1847 78.4382-21.1415 79.9867-22.9278C83.102-26.257 84.7718-31.1055 84.7718-36.5606Z"/>
  </g>
  <g id="Bold-M" transform="matrix(1 0 0 1 2279.69 1126)">
   <path d="M60.2692 16.3767C88.5644 16.3767 111.844-6.87455 111.844-35.1698C111.844-63.465 88.5358-86.7163 60.2405-86.7163C31.9688-86.7163 8.72266-63.465 8.72266-35.1698C8.72266-6.87455 31.9974 16.3767 60.2692 16.3767ZM29.037-36.6646C29.037-44.0322 31.6562-51.0882 36.1626-55.9093C37.8663-57.6989 40.1911-57.6989 41.6275-55.9665C42.8016-54.6392 42.6301-52.7197 41.1885-51.1064C37.7992-47.4466 35.9488-42.2813 35.9488-36.6646C35.9488-30.962 37.7992-25.8539 41.1885-22.1889C42.6353-20.4899 42.8016-18.6327 41.5989-17.2482C40.1859-15.573 37.8663-15.6587 36.1626-17.3575C31.5705-22.2694 29.037-29.0918 29.037-36.6646ZM40.8675-36.6646C40.8675-40.9921 42.2354-45.0289 44.626-47.8252C46.2103-49.615 48.7351-49.6723 50.0962-47.9632C51.1276-46.6125 51.0264-44.9451 49.8235-43.1654C48.659-41.4891 47.7793-38.9638 47.7793-36.6646C47.7793-34.3005 48.5162-31.9935 49.699-30.3165C50.9224-28.4124 51.2183-26.6644 50.0962-25.3269C48.6832-23.6904 46.2103-23.6854 44.626-25.47C42.264-28.2144 40.8675-32.3032 40.8675-36.6646ZM53.9513-36.6646C53.9513-40.2039 56.7298-43.0396 60.2692-43.0396C63.8085-43.0396 66.6157-40.2039 66.6157-36.6646C66.6157-34.3902 65.3981-32.4038 63.625-31.3103L63.625-8.14763C63.625-5.91391 62.2743-4.47234 60.2692-4.47234C58.2927-4.47234 56.942-5.97108 56.942-8.14763L56.942-31.2817C55.1688-32.3803 53.9513-34.3615 53.9513-36.6646ZM72.7876-36.6646C72.7876-38.9638 71.908-41.4891 70.7435-43.1654C69.5406-44.9451 69.4394-46.6125 70.4421-47.9632C71.8318-49.6723 74.3515-49.615 75.9123-47.8252C78.3315-45.0289 79.6994-40.9921 79.6994-36.6646C79.6994-32.3032 78.303-28.2144 75.9123-25.47C74.3515-23.6854 71.7981-23.6333 70.4421-25.3269C69.4342-26.6359 69.5303-28.3553 70.7538-30.1452C71.908-31.7365 72.7876-34.2149 72.7876-36.6646ZM84.5896-36.6646C84.5896-42.2813 82.7677-47.4466 79.3785-51.1064C77.9082-52.7197 77.7602-54.6392 78.9395-55.9665C80.3759-57.6989 82.7006-57.6989 84.4043-55.9093C88.8821-51.0882 91.53-44.0322 91.53-36.6646C91.53-29.0918 88.9679-22.2694 84.4043-17.3575C82.7006-15.6587 80.381-15.573 78.9681-17.2482C77.7602-18.6327 77.9031-20.4899 79.3785-22.1889C82.7677-25.8539 84.5896-30.962 84.5896-36.6646Z"/>
  </g>
  <g id="Semibold-M" transform="matrix(1 0 0 1 1983.62 1126)">
   <path d="M59.6238 15.7209C87.5288 15.7209 110.562-7.27519 110.562-35.1802C110.562-63.0852 87.4917-86.0813 59.5867-86.0813C31.7117-86.0813 8.72266-63.0852 8.72266-35.1802C8.72266-7.27519 31.7487 15.7209 59.6238 15.7209ZM28.2449-36.7362C28.2449-44.185 30.9239-51.2846 35.6312-56.3427C37.1826-58.0241 39.3893-58.0241 40.7442-56.4168C41.8719-55.1463 41.7063-53.2954 40.3254-51.7111C36.7473-47.8594 34.7836-42.5171 34.7836-36.7362C34.7836-30.8631 36.7473-25.576 40.3254-21.6794C41.7134-20.0407 41.8719-18.2521 40.7071-16.9264C39.3821-15.3743 37.1826-15.4665 35.6312-17.0486C30.8506-22.1872 28.2449-29.1154 28.2449-36.7362ZM40.263-36.7362C40.263-41.0534 41.67-45.1441 44.1471-48.1092C45.5999-49.8284 47.9903-49.9025 49.3238-48.2873C50.3419-47.0058 50.2283-45.4056 49.0258-43.6628C47.7056-41.7907 46.8017-39.2125 46.8017-36.7362C46.8017-34.1165 47.5959-31.7071 48.9389-29.8768C50.1699-28.0472 50.4034-26.3808 49.3238-25.0961C47.9799-23.5575 45.5999-23.5881 44.1471-25.2813C41.6881-28.2361 40.263-32.3749 40.263-36.7362ZM53.4833-36.7362C53.4833-40.1693 56.1907-42.913 59.6238-42.913C63.0568-42.913 65.8013-40.1693 65.8013-36.7362C65.8013-34.4925 64.5734-32.5303 62.7918-31.4877L62.7918-7.24101C62.7918-5.15261 61.5103-3.7906 59.6238-3.7906C57.7743-3.7906 56.4928-5.20781 56.4928-7.24101L56.4928-31.4507C54.7112-32.5004 53.4833-34.4554 53.4833-36.7362ZM72.4829-36.7362C72.4829-39.2125 71.579-41.7907 70.2588-43.6628C69.0563-45.4056 68.9427-47.0058 69.9237-48.2873C71.2943-49.9025 73.6776-49.8284 75.1004-48.1092C77.6146-45.1441 79.0216-41.0534 79.0216-36.7362C79.0216-32.3749 77.5965-28.2361 75.1004-25.2813C73.6776-23.5881 71.2502-23.5212 69.9237-25.0961C68.9356-26.3627 69.0421-28.0109 70.273-29.7679C71.5979-31.5437 72.4829-34.062 72.4829-36.7362ZM84.4639-36.7362C84.4639-42.5171 82.5373-47.8594 78.9592-51.7111C77.5412-53.2954 77.4056-55.1463 78.5404-56.4168C79.8953-58.0241 82.1019-58.0241 83.6534-56.3427C88.3236-51.2846 91.0397-44.185 91.0397-36.7362C91.0397-29.1154 88.397-22.1872 83.6534-17.0486C82.1019-15.4665 79.9024-15.3743 78.5775-16.9264C77.4056-18.2521 77.5341-20.0407 78.9592-21.6794C82.5373-25.576 84.4639-30.8631 84.4639-36.7362Z"/>
  </g>
  <g id="Medium-M" transform="matrix(1 0 0 1 1687.4 1126)">
   <path d="M59.1344 15.2237C86.7435 15.2237 109.59-7.57896 109.59-35.1881C109.59-62.7972 86.7001-85.5998 59.091-85.5998C31.5167-85.5998 8.72266-62.7972 8.72266-35.1881C8.72266-7.57896 31.5601 15.2237 59.1344 15.2237ZM27.6443-36.7906C27.6443-44.3009 30.3687-51.4335 35.2283-56.6713C36.6642-58.2706 38.7813-58.2706 40.0744-56.7581C41.1669-55.5307 41.0058-53.7319 39.671-52.1696C35.9496-48.1725 33.9001-42.6959 33.9001-36.7906C33.9001-30.7881 35.9496-25.3653 39.671-21.2932C41.0144-19.7001 41.1669-17.9636 40.0309-16.6825C38.7727-15.2237 36.6642-15.3208 35.2283-16.8144C30.3047-22.1248 27.6443-29.1334 27.6443-36.7906ZM39.8046-36.7906C39.8046-41.0999 41.2412-45.2315 43.784-48.3245C45.137-49.9902 47.4255-50.077 48.7381-48.5331C49.7461-47.304 49.6232-45.7548 48.4209-44.04C46.9826-42.0194 46.0604-39.4011 46.0604-36.7906C46.0604-33.977 46.8981-31.49 48.3626-29.5434C49.5993-27.7704 49.7855-26.1658 48.7381-24.9212C47.4467-23.4567 45.137-23.5144 43.784-25.1383C41.2515-28.2525 39.8046-32.4293 39.8046-36.7906ZM53.1284-36.7906C53.1284-40.1431 55.7819-42.8171 59.1344-42.8171C62.4869-42.8171 65.1838-40.1431 65.1838-36.7906C65.1838-34.5701 63.948-32.6262 62.16-31.6222L62.16-6.55357C62.16-4.57536 60.9309-3.27368 59.1344-3.27368C57.3813-3.27368 56.1522-4.62906 56.1522-6.55357L56.1522-31.5788C54.3642-32.5914 53.1284-34.5266 53.1284-36.7906ZM72.2518-36.7906C72.2518-39.4011 71.3296-42.0194 69.8913-44.04C68.6891-45.7548 68.5661-47.304 69.5307-48.5331C70.8867-50.077 73.1666-49.9902 74.4848-48.3245C77.071-45.2315 78.5076-41.0999 78.5076-36.7906C78.5076-32.4293 77.0607-28.2525 74.4848-25.1383C73.1666-23.5144 70.8347-23.4361 69.5307-24.9212C68.5575-26.1555 68.6719-27.7498 69.9085-29.4818C71.3627-31.3975 72.2518-33.9461 72.2518-36.7906ZM84.3687-36.7906C84.3687-42.6959 82.3626-48.1725 78.6413-52.1696C77.263-53.7319 77.1367-55.5307 78.2379-56.7581C79.5309-58.2706 81.648-58.2706 83.0839-56.6713C87.9001-51.4335 90.668-44.3009 90.668-36.7906C90.668-29.1334 87.9641-22.1248 83.0839-16.8144C81.648-15.3208 79.5395-15.2237 78.2813-16.6825C77.1367-17.9636 77.2544-19.7001 78.6413-21.2932C82.3626-25.3653 84.3687-30.7881 84.3687-36.7906Z"/>
  </g>
  <g id="Regular-M" transform="matrix(1 0 0 1 1391.32 1126)">
   <path d="M58.4961 14.5751C85.7192 14.5751 108.321-7.9752 108.321-35.1983C108.321-62.4215 85.6675-84.9718 58.4443-84.9718C31.2624-84.9718 8.72266-62.4215 8.72266-35.1983C8.72266-7.9752 31.3141 14.5751 58.4961 14.5751ZM26.8609-36.8615C26.8609-44.4521 29.6445-51.6277 34.7027-57.0999C35.988-58.5922 37.9883-58.5922 39.2007-57.2034C40.2474-56.0322 40.0921-54.3012 38.8174-52.7677C34.9093-48.5808 32.7477-42.9291 32.7477-36.8615C32.7477-30.6903 34.9093-25.0904 38.8174-20.7894C40.1027-19.2559 40.2474-17.5872 39.149-16.3642C37.9777-15.0272 35.988-15.1307 34.7027-16.5089C29.5927-22.0435 26.8609-29.1568 26.8609-36.8615ZM39.2067-36.8615C39.2067-41.1605 40.682-45.3455 43.3103-48.6054C44.5333-50.2012 46.6889-50.3047 47.9741-48.8536C48.969-47.6929 48.8339-46.2102 47.632-44.532C46.0397-42.3176 45.0936-39.6471 45.0936-36.8615C45.0936-33.795 45.9879-31.2068 47.6109-29.1086C48.855-27.4093 48.9796-25.8853 47.9741-24.693C46.7512-23.3253 44.5333-23.4182 43.3103-24.9517C40.682-28.274 39.2067-32.5001 39.2067-36.8615ZM52.6656-36.8615C52.6656-40.1089 55.2487-42.692 58.4961-42.692C61.7435-42.692 64.3784-40.1089 64.3784-36.8615C64.3784-34.6713 63.1323-32.7514 61.336-31.7977L61.336-5.6569C61.336-3.82242 60.1753-2.59943 58.4961-2.59943C56.8686-2.59943 55.7079-3.87417 55.7079-5.6569L55.7079-31.7459C53.9117-32.7102 52.6656-34.6195 52.6656-36.8615ZM71.9504-36.8615C71.9504-39.6471 71.0042-42.3176 69.412-44.532C68.2101-46.2102 68.0749-47.6929 69.018-48.8536C70.3551-50.3047 72.5001-50.2012 73.6819-48.6054C76.362-45.3455 77.8372-41.1605 77.8372-36.8615C77.8372-32.5001 76.362-28.274 73.6819-24.9517C72.5001-23.4182 70.2928-23.3253 69.018-24.693C68.0644-25.8853 68.189-27.4093 69.4331-29.1086C71.056-31.2068 71.9504-33.795 71.9504-36.8615ZM84.2445-36.8615C84.2445-42.9291 82.1347-48.5808 78.2266-52.7677C76.9001-54.3012 76.786-56.0322 77.8432-57.2034C79.0556-58.5922 81.0559-58.5922 82.3412-57.0999C87.3477-51.6277 90.1831-44.4521 90.1831-36.8615C90.1831-29.1568 87.3995-22.0435 82.3412-16.5089C81.0559-15.1307 79.0662-15.0272 77.895-16.3642C76.786-17.5872 76.8895-19.2559 78.2266-20.7894C82.1347-25.0904 84.2445-30.6903 84.2445-36.8615Z"/>
  </g>
  <g id="Light-M" transform="matrix(1 0 0 1 1095.44 1126)">
   <path d="M57.6748 13.7538C84.4872 13.7538 106.662-8.38586 106.662-35.1983C106.662-62.0108 84.4526-84.1504 57.6401-84.1504C30.8346-84.1504 8.72266-62.0108 8.72266-35.1983C8.72266-8.38586 30.8693 13.7538 57.6748 13.7538ZM26.57-37.0326C26.57-44.6061 29.422-51.7988 34.6-57.2539C35.6458-58.4382 37.2525-58.4382 38.2083-57.3232C39.0325-56.3744 38.9286-54.9686 37.9105-53.7773C33.6259-49.3679 31.2933-43.4425 31.2933-37.0326C31.2933-30.5534 33.6259-24.6626 37.9105-20.1563C38.9562-18.965 39.0325-17.6214 38.1737-16.638C37.2249-15.5576 35.6458-15.6269 34.6-16.7143C29.3874-22.2317 26.57-29.3621 26.57-37.0326ZM38.8303-37.0326C38.8303-41.3316 40.374-45.5337 43.1221-48.7252C44.1055-49.9788 45.8162-50.0481 46.8619-48.8707C47.6515-47.9496 47.4992-46.6893 46.5711-45.4217C44.6195-42.9507 43.5536-40.092 43.5536-37.0326C43.5536-33.641 44.5848-30.7962 46.5158-28.6295C47.5545-27.3066 47.6791-26.0393 46.8619-25.0352C45.8785-23.9755 44.1055-24.0171 43.1221-25.2084C40.374-28.4622 38.8303-32.6712 38.8303-37.0326ZM52.3918-37.0326C52.3918-39.9891 54.7183-42.3156 57.6748-42.3156C60.6313-42.3156 62.9924-39.9891 62.9924-37.0326C62.9924-34.9279 61.7463-33.1278 59.9671-32.3452L59.9671-4.73291C59.9671-3.25776 59.046-2.27432 57.6748-2.27432C56.3382-2.27432 55.4171-3.2924 55.4171-4.73291L55.4171-32.3106C53.6379-33.1208 52.3918-34.8933 52.3918-37.0326ZM71.8306-37.0326C71.8306-40.092 70.7647-42.9507 68.8131-45.4217C67.885-46.6893 67.7327-47.9496 68.4876-48.8707C69.568-50.0481 71.251-49.9788 72.2274-48.7252C75.0102-45.5337 76.5539-41.3316 76.5539-37.0326C76.5539-32.6712 75.0102-28.4622 72.2274-25.2084C71.251-24.0171 69.5057-23.9755 68.4876-25.0352C67.705-26.0393 67.8296-27.3066 68.8684-28.6295C70.7993-30.7962 71.8306-33.641 71.8306-37.0326ZM84.0563-37.0326C84.0563-43.4425 81.7582-49.3679 77.4737-53.7773C76.421-54.9686 76.324-56.3744 77.1759-57.3232C78.1316-58.4382 79.7384-58.4382 80.7841-57.2539C85.9275-51.7988 88.8142-44.6061 88.8142-37.0326C88.8142-29.3621 85.9621-22.2317 80.7841-16.7143C79.7384-15.6269 78.1593-15.5576 77.2105-16.638C76.324-17.6214 76.3933-18.965 77.4737-20.1563C81.7582-24.6626 84.0563-30.5534 84.0563-37.0326Z"/>
  </g>
  <g id="Thin-M" transform="matrix(1 0 0 1 799.828 1126)">
   <path d="M56.5885 12.6675C82.8578 12.6675 104.466-8.92899 104.466-35.1983C104.466-61.4677 82.8458-83.0642 56.5765-83.0642C30.2689-83.0642 8.72266-61.4677 8.72266-35.1983C8.72266-8.92899 30.2809 12.6675 56.5885 12.6675ZM26.1853-37.2589C26.1853-44.8098 29.1278-52.0251 34.4643-57.4576C35.1932-58.2346 36.2794-58.2346 36.8957-57.4816C37.4257-56.827 37.3897-55.8512 36.7111-55.1125C31.9286-50.4089 29.3697-44.1214 29.3697-37.2589C29.3697-30.3724 31.9286-24.0969 36.7111-19.319C37.44-18.5803 37.4257-17.6667 36.8837-17.0001C36.2291-16.2592 35.1932-16.2832 34.4643-16.9858C29.1158-22.4807 26.1853-29.6337 26.1853-37.2589ZM38.3324-37.2589C38.3324-41.5579 39.9666-45.7826 42.8731-48.8836C43.5398-49.6846 44.662-49.7086 45.3909-48.8934C45.9089-48.2891 45.734-47.3229 45.168-46.5985C42.7411-43.7881 41.5168-40.6804 41.5168-37.2589C41.5168-33.4373 42.7291-30.253 45.0674-27.9958C45.8346-27.1708 45.9592-26.243 45.3909-25.4878C44.7243-24.8354 43.5398-24.8092 42.8731-25.5478C39.9666-28.7111 38.3324-32.8976 38.3324-37.2589ZM52.0297-37.2589C52.0297-39.8307 54.0167-41.8177 56.5885-41.8177C59.1603-41.8177 61.1593-39.8307 61.1593-37.2589C61.1593-35.2674 59.9132-33.6257 58.1567-33.0694L58.1567-3.51086C58.1567-2.51095 57.5524-1.84434 56.5885-1.84434C55.6366-1.84434 55.0323-2.52296 55.0323-3.51086L55.0323-33.0574C53.2758-33.664 52.0297-35.2554 52.0297-37.2589ZM71.6722-37.2589C71.6722-40.6804 70.4479-43.7881 68.021-46.5985C67.455-47.3229 67.2801-48.2891 67.786-48.8934C68.527-49.7086 69.599-49.6846 70.3038-48.8836C73.2224-45.7826 74.8566-41.5579 74.8566-37.2589C74.8566-32.8976 73.2224-28.7111 70.3038-25.5478C69.599-24.8092 68.4647-24.8354 67.786-25.4878C67.2298-26.243 67.3544-27.1708 68.1216-27.9958C70.4599-30.253 71.6722-33.4373 71.6722-37.2589ZM83.8073-37.2589C83.8073-44.1214 81.2604-50.4089 76.4779-55.1125C75.7873-55.8512 75.713-56.827 76.2933-57.4816C76.9096-58.2346 77.9958-58.2346 78.7247-57.4576C84.0492-52.0251 87.0037-44.8098 87.0037-37.2589C87.0037-29.6337 84.0612-22.4807 78.7247-16.9858C77.9958-16.2832 76.9599-16.2592 76.3053-17.0001C75.713-17.6667 75.737-18.5803 76.4779-19.319C81.2604-24.0969 83.8073-30.3724 83.8073-37.2589Z"/>
  </g>
  <g id="Ultralight-M" transform="matrix(1 0 0 1 503.679 1126)">
   <path d="M56.0321 12.1111C82.0233 12.1111 103.342-9.20719 103.342-35.1983C103.342-61.1895 82.0228-82.5078 56.0317-82.5078C29.9791-82.5078 8.72266-61.1895 8.72266-35.1983C8.72266-9.20719 29.9795 12.1111 56.0321 12.1111ZM25.9882-37.3748C25.9882-44.9141 28.9772-52.141 34.3947-57.5619C34.9613-58.1303 35.781-58.1303 36.2234-57.5628C36.6027-57.0589 36.6015-56.3032 36.0967-55.7964C31.0593-50.9421 28.3844-44.4691 28.3844-37.3748C28.3844-30.2796 31.0593-23.8071 36.0967-18.8901C36.6634-18.3832 36.6027-17.6899 36.223-17.1856C35.7191-16.6185 34.9613-16.6193 34.3947-17.1249C28.9767-22.6082 25.9882-29.7728 25.9882-37.3748ZM38.0774-37.3748C38.0774-41.6738 39.758-45.9101 42.7456-48.9647C43.25-49.5339 44.0709-49.5347 44.6375-48.905C45.0164-48.4629 44.8299-47.6475 44.4493-47.2013C41.7791-44.2169 40.4736-40.9817 40.4736-37.3748C40.4736-33.333 41.7786-29.9748 44.3256-27.6713C44.9537-27.1013 45.0783-26.3473 44.6375-25.7196C44.1332-25.2759 43.25-25.2149 42.7456-25.7217C39.758-28.8386 38.0774-33.0135 38.0774-37.3748ZM51.8442-37.3748C51.8442-39.7495 53.6574-41.5627 56.0321-41.5627C58.4068-41.5627 60.2204-39.7495 60.2204-37.3748C60.2204-35.4412 58.9743-33.8807 57.2294-33.4403L57.2294-2.88493C57.2294-2.12844 56.7873-1.62411 56.0321-1.62411C55.2773-1.62411 54.8353-2.12886 54.8353-2.88493L54.8353-33.4399C53.0903-33.9421 51.8442-35.4408 51.8442-37.3748ZM71.591-37.3748C71.591-40.9817 70.2856-44.2169 67.6153-47.2013C67.2348-47.6475 67.0483-48.4629 67.4267-48.905C67.9938-49.5347 68.7528-49.5339 69.3186-48.9647C72.3067-45.9101 73.9872-41.6738 73.9872-37.3748C73.9872-33.0135 72.3067-28.8386 69.3186-25.7217C68.7528-25.2149 67.9315-25.2759 67.4267-25.7196C66.9864-26.3473 67.111-27.1013 67.7391-27.6713C70.286-29.9748 71.591-33.333 71.591-37.3748ZM83.6798-37.3748C83.6798-44.4691 81.0054-50.9421 75.9679-55.7964C75.4628-56.3032 75.4-57.0589 75.8412-57.5628C76.2837-58.1303 77.1033-58.1303 77.6699-57.5619C83.0871-52.141 86.0764-44.9141 86.0764-37.3748C86.0764-29.7728 83.0875-22.6082 77.6699-17.1249C77.1033-16.6193 76.3455-16.6185 75.8416-17.1856C75.4-17.6899 75.4009-18.3832 75.9679-18.8901C81.0054-23.8071 83.6798-30.2796 83.6798-37.3748Z"/>
  </g>
  <g id="Black-S" transform="matrix(1 0 0 1 2884.57 696)">
   <path d="M48.8281 6.83594C71.9727 6.83594 90.8203-12.0117 90.8203-35.1562C90.8203-58.3008 71.9727-77.1484 48.8281-77.1484C25.6836-77.1484 6.83594-58.3008 6.83594-35.1562C6.83594-12.0117 25.6836 6.83594 48.8281 6.83594ZM24.7559-36.1816C24.7559-41.748 26.6602-47.168 29.6875-50.3418C31.3965-52.002 33.4961-52.002 34.8145-50.3418C35.8398-49.1699 35.6934-47.5098 34.4238-46.1914C32.2266-43.7988 31.0547-40.1855 31.0547-36.1816C31.0547-32.1289 32.2266-28.5645 34.4238-26.2695C35.6934-24.8047 35.8398-23.1934 34.8145-21.9727C33.4961-20.3613 31.3965-20.4102 29.6875-22.0215C26.5625-25.293 24.7559-30.3711 24.7559-36.1816ZM33.5449-36.1816C33.5449-39.5996 34.5215-42.627 36.1816-44.3848C37.7441-45.9473 40.0391-45.9473 41.1621-44.3848C41.9922-43.1641 41.9434-41.6992 41.0156-40.2344C40.4785-39.4043 39.8438-37.5488 39.8438-36.1816C39.8438-34.9609 40.2832-33.3984 40.8203-32.4707C41.748-30.8105 42.1387-29.248 41.1621-28.0762C39.8926-26.5625 37.7441-26.4648 36.1816-28.0762C34.5703-29.6875 33.5449-32.7637 33.5449-36.1816ZM43.457-36.1816C43.457-39.209 45.8008-41.6504 48.8281-41.6504C51.8555-41.6504 54.1992-39.209 54.1992-36.1816C54.1992-34.3262 53.2715-32.7148 51.9043-31.7383L51.9043-16.2598C51.9043-14.1602 50.6836-12.8418 48.8281-12.8418C46.9727-12.8418 45.752-14.209 45.752-16.2598L45.752-31.7383C44.3848-32.7148 43.457-34.3262 43.457-36.1816ZM57.8125-36.1816C57.8125-37.5488 57.1777-39.4043 56.6406-40.2344C55.7129-41.6992 55.6641-43.1641 56.4941-44.3848C57.6172-45.9473 59.9121-45.9473 61.4746-44.3848C63.1348-42.627 64.1113-39.5996 64.1113-36.1816C64.1113-32.7637 63.0859-29.6875 61.4746-28.0762C59.9121-26.4648 57.6172-26.4648 56.4941-28.0762C55.6641-29.1992 55.7129-30.7129 56.6406-32.1777C57.1289-32.959 57.8125-34.8145 57.8125-36.1816ZM66.6016-36.1816C66.6016-40.1855 65.4297-43.7988 63.2324-46.1914C61.9629-47.5098 61.8164-49.1699 62.8418-50.3418C64.1602-52.002 66.2598-52.002 67.9688-50.3418C70.9961-47.168 72.9004-41.748 72.9004-36.1816C72.9004-30.3711 71.0938-25.293 67.9688-22.0215C66.2598-20.4102 64.1602-20.3613 62.8418-21.9727C61.8164-23.1934 61.9629-24.8047 63.2324-26.2695C65.4297-28.5645 66.6016-32.1289 66.6016-36.1816Z"/>
  </g>
  <g id="Heavy-S" transform="matrix(1 0 0 1 2588.47 696)">
   <path d="M48.2173 6.21362C70.9816 6.21362 89.6102-12.4036 89.6102-35.1678C89.6102-57.932 70.97-76.5492 48.2058-76.5492C25.4531-76.5492 6.83594-57.932 6.83594-35.1678C6.83594-12.4036 25.4646 6.21362 48.2173 6.21362ZM23.9146-36.2393C23.9146-41.8979 25.8765-47.3639 29.1113-50.8028C30.682-52.3823 32.7009-52.3823 33.9616-50.8258C34.964-49.6885 34.8175-48.0629 33.5825-46.7331C31.2239-44.1561 29.9483-40.3815 29.9483-36.2393C29.9483-32.0367 31.2239-28.3109 33.5825-25.7855C34.8175-24.3437 34.964-22.767 33.9501-21.5808C32.7009-20.0732 30.682-20.1336 29.1113-21.6527C25.7904-25.1777 23.9146-30.3711 23.9146-36.2393ZM32.9226-36.2393C32.9226-39.6457 33.9337-42.7307 35.6746-44.6844C37.1218-46.2123 39.3245-46.2354 40.4476-44.742C41.2892-43.5674 41.2288-42.1487 40.2665-40.6723C39.6027-39.6578 38.9564-37.7678 38.9564-36.2393C38.9564-34.7765 39.4419-33.1334 40.1173-32.0443C41.0796-30.4187 41.4011-28.9138 40.4476-27.7765C39.2242-26.332 37.1218-26.2805 35.6746-27.8342C33.971-29.6875 32.9226-32.8213 32.9226-36.2393ZM42.973-36.2393C42.973-39.1859 45.2707-41.5582 48.2173-41.5582C51.164-41.5582 53.4732-39.1859 53.4732-36.2393C53.4732-34.4068 52.5339-32.807 51.1552-31.8651L51.1552-15.3724C51.1552-13.388 49.9806-12.1273 48.2173-12.1273C46.4656-12.1273 45.291-13.4368 45.291-15.3724L45.291-31.8535C43.9123-32.7955 42.973-34.3953 42.973-36.2393ZM57.4898-36.2393C57.4898-37.7678 56.8435-39.6578 56.1796-40.6723C55.2173-42.1487 55.157-43.5674 55.9871-44.742C57.1216-46.2354 59.3244-46.2123 60.7601-44.6844C62.5124-42.7307 63.5236-39.6457 63.5236-36.2393C63.5236-32.8213 62.4751-29.6875 60.7601-27.8342C59.3244-26.2805 57.1101-26.2574 55.9871-27.7765C55.157-28.8765 55.2173-30.3441 56.1796-31.8205C56.8177-32.7976 57.4898-34.6646 57.4898-36.2393ZM66.4863-36.2393C66.4863-40.3815 65.2222-44.1561 62.8636-46.7331C61.6172-48.0629 61.4822-49.6885 62.4845-50.8258C63.7453-52.3823 65.7642-52.3823 67.3349-50.8028C70.5582-47.3639 72.5316-41.8979 72.5316-36.2393C72.5316-30.3711 70.6443-25.1777 67.3349-21.6527C65.7642-20.1336 63.7453-20.0732 62.4961-21.5808C61.4822-22.767 61.6172-24.3437 62.8636-25.7855C65.2222-28.3109 66.4863-32.0367 66.4863-36.2393Z"/>
  </g>
  <g id="Bold-S" transform="matrix(1 0 0 1 2292.43 696)">
   <path d="M47.5342 5.51758C69.873 5.51758 88.2568-12.8418 88.2568-35.1807C88.2568-57.5195 69.8486-75.8789 47.5098-75.8789C25.1953-75.8789 6.83594-57.5195 6.83594-35.1807C6.83594-12.8418 25.2197 5.51758 47.5342 5.51758ZM22.9736-36.3037C22.9736-42.0654 25-47.583 28.4668-51.3184C29.8828-52.8076 31.8115-52.8076 33.0078-51.3672C33.9844-50.2686 33.8379-48.6816 32.6416-47.3389C30.1025-44.5557 28.7109-40.6006 28.7109-36.3037C28.7109-31.9336 30.1025-28.0273 32.6416-25.2441C33.8379-23.8281 33.9844-22.29 32.9834-21.1426C31.8115-19.751 29.8828-19.8242 28.4668-21.2402C24.9268-25.0488 22.9736-30.3711 22.9736-36.3037ZM32.2266-36.3037C32.2266-39.6973 33.2764-42.8467 35.1074-45.0195C36.4258-46.5088 38.5254-46.5576 39.6484-45.1416C40.5029-44.0186 40.4297-42.6514 39.4287-41.1621C38.623-39.9414 37.9639-38.0127 37.9639-36.3037C37.9639-34.5703 38.501-32.8369 39.3311-31.5674C40.332-29.9805 40.5762-28.54 39.6484-27.4414C38.4766-26.0742 36.4258-26.0742 35.1074-27.5635C33.3008-29.6875 32.2266-32.8857 32.2266-36.3037ZM42.4316-36.3037C42.4316-39.1602 44.6777-41.4551 47.5342-41.4551C50.3906-41.4551 52.6611-39.1602 52.6611-36.3037C52.6611-34.4971 51.709-32.9102 50.3174-32.0068L50.3174-14.3799C50.3174-12.5244 49.1943-11.3281 47.5342-11.3281C45.8984-11.3281 44.7754-12.5732 44.7754-14.3799L44.7754-31.9824C43.3838-32.8857 42.4316-34.4727 42.4316-36.3037ZM57.1289-36.3037C57.1289-38.0127 56.4697-39.9414 55.6641-41.1621C54.6631-42.6514 54.5898-44.0186 55.4199-45.1416C56.5674-46.5576 58.667-46.5088 59.9609-45.0195C61.8164-42.8467 62.8662-39.6973 62.8662-36.3037C62.8662-32.8857 61.792-29.6875 59.9609-27.5635C58.667-26.0742 56.543-26.0254 55.4199-27.4414C54.5898-28.5156 54.6631-29.9316 55.6641-31.4209C56.4697-32.6172 57.1289-34.4971 57.1289-36.3037ZM66.3574-36.3037C66.3574-40.6006 64.9902-44.5557 62.4512-47.3389C61.2305-48.6816 61.1084-50.2686 62.085-51.3672C63.2812-52.8076 65.21-52.8076 66.626-51.3184C70.0684-47.583 72.1191-42.0654 72.1191-36.3037C72.1191-30.3711 70.1416-25.0488 66.626-21.2402C65.21-19.8242 63.2812-19.751 62.1094-21.1426C61.1084-22.29 61.2305-23.8281 62.4512-25.2441C64.9902-28.0273 66.3574-31.9336 66.3574-36.3037Z"/>
  </g>
  <g id="Semibold-S" transform="matrix(1 0 0 1 1996.19 696)">
   <path d="M47.0632 5.0377C69.1088 5.0377 87.3237-13.1439 87.3237-35.1896C87.3237-57.2352 69.0755-75.4168 47.0299-75.4168C25.0176-75.4168 6.83594-57.2352 6.83594-35.1896C6.83594-13.1439 25.0509 5.0377 47.0632 5.0377ZM22.3249-36.3481C22.3249-42.181 24.3957-47.7341 28.0225-51.6738C29.3318-53.1009 31.1983-53.1009 32.3502-51.7404C33.309-50.6685 33.1625-49.1082 31.9929-47.7565C29.3294-44.8312 27.8578-40.7517 27.8578-36.3481C27.8578-31.8625 29.3294-27.8318 31.9929-24.8709C33.1625-23.4727 33.309-21.9612 32.3169-20.8404C31.1983-19.5288 29.3318-19.6109 28.0225-20.9559C24.3313-24.96 22.3249-30.3711 22.3249-36.3481ZM31.7467-36.3481C31.7467-39.7328 32.8231-42.9267 34.7164-45.2506C35.9459-46.7132 37.9744-46.7798 39.0975-45.4171C39.9608-44.3296 39.8787-42.9979 38.8511-41.4998C37.9477-40.1369 37.2796-38.1815 37.2796-36.3481C37.2796-34.4281 37.8522-32.6325 38.789-31.2386C39.8166-29.6783 40.0074-28.2823 39.0975-27.2104C37.9611-25.8965 35.9459-25.932 34.7164-27.3769C32.8387-29.6875 31.7467-32.9302 31.7467-36.3481ZM42.0584-36.3481C42.0584-39.1424 44.2689-41.384 47.0632-41.384C49.8574-41.384 52.1013-39.1424 52.1013-36.3481C52.1013-34.5593 51.1402-32.9813 49.7397-32.1046L49.7397-13.6956C49.7397-11.929 48.6522-10.7771 47.0632-10.7771C45.5074-10.7771 44.4199-11.9778 44.4199-13.6956L44.4199-32.0713C43.0194-32.9479 42.0584-34.526 42.0584-36.3481ZM56.8801-36.3481C56.8801-38.1815 56.212-40.1369 55.3086-41.4998C54.281-42.9979 54.1988-44.3296 55.0289-45.4171C56.1853-46.7798 58.2138-46.7132 59.41-45.2506C61.3365-42.9267 62.413-39.7328 62.413-36.3481C62.413-32.9302 61.321-29.6875 59.41-27.3769C58.2138-25.932 56.152-25.8654 55.0289-27.2104C54.1988-28.2668 54.281-29.6473 55.3086-31.1454C56.2298-32.4928 56.8801-34.3815 56.8801-36.3481ZM66.2686-36.3481C66.2686-40.7517 64.8303-44.8312 62.1668-47.7565C60.9639-49.1082 60.8507-50.6685 61.8095-51.7404C62.9613-53.1009 64.8278-53.1009 66.1372-51.6738C69.7307-47.7341 71.8348-42.181 71.8348-36.3481C71.8348-30.3711 69.795-24.96 66.1372-20.9559C64.8278-19.6109 62.9613-19.5288 61.8428-20.8404C60.8507-21.9612 60.9639-23.4727 62.1668-24.8709C64.8303-27.8318 66.2686-31.8625 66.2686-36.3481Z"/>
  </g>
  <g id="Medium-S" transform="matrix(1 0 0 1 1699.83 696)">
   <path d="M46.7061 4.67383C68.5293 4.67383 86.6162-13.373 86.6162-35.1963C86.6162-57.0195 68.4893-75.0664 46.666-75.0664C24.8828-75.0664 6.83594-57.0195 6.83594-35.1963C6.83594-13.373 24.9229 4.67383 46.7061 4.67383ZM21.833-36.3818C21.833-42.2686 23.9375-47.8486 27.6855-51.9434C28.9141-53.3232 30.7334-53.3232 31.8516-52.0234C32.7969-50.9717 32.6504-49.4316 31.501-48.0732C28.7432-45.04 27.2109-40.8662 27.2109-36.3818C27.2109-31.8086 28.7432-27.6836 31.501-24.5879C32.6504-23.2031 32.7969-21.7119 31.8115-20.6113C30.7334-19.3604 28.9141-19.4492 27.6855-20.7402C23.8799-24.8926 21.833-30.3711 21.833-36.3818ZM31.3828-36.3818C31.3828-39.7598 32.4795-42.9873 34.4199-45.4258C35.582-46.8682 37.5566-46.9482 38.6797-45.626C39.5498-44.5654 39.4609-43.2607 38.4131-41.7559C37.4355-40.2852 36.7607-38.3096 36.7607-36.3818C36.7607-34.3203 37.3604-32.4775 38.3779-30.9893C39.4258-29.4492 39.5762-28.0869 38.6797-27.0352C37.5703-25.7617 35.582-25.8242 34.4199-27.2354C32.4883-29.6875 31.3828-32.9639 31.3828-36.3818ZM41.7754-36.3818C41.7754-39.1289 43.959-41.3301 46.7061-41.3301C49.4531-41.3301 51.6768-39.1289 51.6768-36.3818C51.6768-34.6064 50.709-33.0352 49.3018-32.1787L49.3018-13.1768C49.3018-11.4775 48.2412-10.3594 46.7061-10.3594C45.2109-10.3594 44.1504-11.5264 44.1504-13.1768L44.1504-32.1387C42.7432-32.9951 41.7754-34.5664 41.7754-36.3818ZM56.6914-36.3818C56.6914-38.3096 56.0166-40.2852 55.0391-41.7559C53.9912-43.2607 53.9023-44.5654 54.7324-45.626C55.8955-46.9482 57.8701-46.8682 58.9922-45.4258C60.9727-42.9873 62.0693-39.7598 62.0693-36.3818C62.0693-32.9639 60.9639-29.6875 58.9922-27.2354C57.8701-25.8242 55.8555-25.7441 54.7324-27.0352C53.9023-28.0781 53.9912-29.4316 55.0391-30.9365C56.0479-32.3984 56.6914-34.2939 56.6914-36.3818ZM66.2012-36.3818C66.2012-40.8662 64.709-45.04 61.9512-48.0732C60.7617-49.4316 60.6553-50.9717 61.6006-52.0234C62.7188-53.3232 64.5381-53.3232 65.7666-51.9434C69.4746-47.8486 71.6191-42.2686 71.6191-36.3818C71.6191-30.3711 69.5322-24.8926 65.7666-20.7402C64.5381-19.4492 62.7188-19.3604 61.6406-20.6113C60.6553-21.7119 60.7617-23.2031 61.9512-24.5879C64.709-27.6836 66.2012-31.8086 66.2012-36.3818Z"/>
  </g>
  <g id="Regular-S" transform="matrix(1 0 0 1 1403.58 696)">
   <path d="M46.2402 4.19922C67.7734 4.19922 85.6934-13.6719 85.6934-35.2051C85.6934-56.7383 67.7246-74.6094 46.1914-74.6094C24.707-74.6094 6.83594-56.7383 6.83594-35.2051C6.83594-13.6719 24.7559 4.19922 46.2402 4.19922ZM21.1914-36.4258C21.1914-42.3828 23.3398-47.998 27.2461-52.2949C28.3691-53.6133 30.127-53.6133 31.2012-52.3926C32.1289-51.3672 31.9824-49.8535 30.8594-48.4863C27.9785-45.3125 26.3672-41.0156 26.3672-36.4258C26.3672-31.7383 27.9785-27.4902 30.8594-24.2188C31.9824-22.8516 32.1289-21.3867 31.1523-20.3125C30.127-19.1406 28.3691-19.2383 27.2461-20.459C23.291-24.8047 21.1914-30.3711 21.1914-36.4258ZM30.9082-36.4258C30.9082-39.7949 32.0312-43.0664 34.0332-45.6543C35.1074-47.0703 37.0117-47.168 38.1348-45.8984C39.0137-44.873 38.916-43.6035 37.8418-42.0898C36.7676-40.4785 36.084-38.4766 36.084-36.4258C36.084-34.1797 36.7188-32.2754 37.8418-30.6641C38.916-29.1504 39.0137-27.832 38.1348-26.8066C37.0605-25.5859 35.1074-25.6836 34.0332-27.0508C32.0312-29.6875 30.9082-33.0078 30.9082-36.4258ZM41.4062-36.4258C41.4062-39.1113 43.5547-41.2598 46.2402-41.2598C48.9258-41.2598 51.123-39.1113 51.123-36.4258C51.123-34.668 50.1465-33.1055 48.7305-32.2754L48.7305-12.5C48.7305-10.8887 47.7051-9.81445 46.2402-9.81445C44.8242-9.81445 43.7988-10.9375 43.7988-12.5L43.7988-32.2266C42.3828-33.0566 41.4062-34.6191 41.4062-36.4258ZM56.4453-36.4258C56.4453-38.4766 55.7617-40.4785 54.6875-42.0898C53.6133-43.6035 53.5156-44.873 54.3457-45.8984C55.5176-47.168 57.4219-47.0703 58.4473-45.6543C60.498-43.0664 61.6211-39.7949 61.6211-36.4258C61.6211-33.0078 60.498-29.6875 58.4473-27.0508C57.4219-25.6836 55.4688-25.5859 54.3457-26.8066C53.5156-27.832 53.6133-29.1504 54.6875-30.6641C55.8105-32.2754 56.4453-34.1797 56.4453-36.4258ZM66.1133-36.4258C66.1133-41.0156 64.5508-45.3125 61.6699-48.4863C60.498-49.8535 60.4004-51.3672 61.3281-52.3926C62.4023-53.6133 64.1602-53.6133 65.2832-52.2949C69.1406-47.998 71.3379-42.3828 71.3379-36.4258C71.3379-30.3711 69.1895-24.8047 65.2832-20.459C64.1602-19.2383 62.4023-19.1406 61.377-20.3125C60.4004-21.3867 60.498-22.8516 61.6699-24.2188C64.5508-27.4902 66.1133-31.7383 66.1133-36.4258Z"/>
  </g>
  <g id="Light-S" transform="matrix(1 0 0 1 1107.6 696)">
   <path d="M45.5137 3.47266C66.6836 3.47266 84.2251-14.0352 84.2251-35.2051C84.2251-56.375 66.6499-73.8828 45.48-73.8828C24.3286-73.8828 6.83594-56.375 6.83594-35.2051C6.83594-14.0352 24.3623 3.47266 45.5137 3.47266ZM20.9341-36.5771C20.9341-42.519 23.1431-48.1494 27.1553-52.4312C28.0664-53.4771 29.4761-53.4771 30.3232-52.4985C31.0542-51.6699 30.9531-50.4438 30.0571-49.3794C26.8433-46.0088 25.0806-41.4697 25.0806-36.5771C25.0806-31.6172 26.8433-27.1118 30.0571-23.6587C30.9683-22.5942 31.0542-21.417 30.2896-20.5547C29.4609-19.6099 28.0664-19.6772 27.1553-20.6406C23.1094-24.9712 20.9341-30.5527 20.9341-36.5771ZM30.5752-36.5771C30.5752-39.9463 31.7588-43.2329 33.8667-45.7603C34.729-46.8735 36.2398-46.9409 37.1509-45.9136C37.8482-45.1001 37.7354-44.0273 36.9033-42.8769C35.5112-41.0386 34.7217-38.8701 34.7217-36.5771C34.7217-34.0435 35.4775-31.9121 36.8731-30.2402C37.7656-29.0596 37.8633-27.9683 37.1509-27.1094C36.2886-26.1611 34.729-26.2134 33.8667-27.2778C31.7588-29.854 30.5752-33.1592 30.5752-36.5771ZM41.1641-36.5771C41.1641-39.0054 43.0855-40.9268 45.5137-40.9268C47.9419-40.9268 49.897-39.0054 49.897-36.5771C49.897-34.895 48.9204-33.4385 47.5195-32.7598L47.5195-11.6826C47.5195-10.3892 46.7061-9.52686 45.5137-9.52686C44.355-9.52686 43.5415-10.4229 43.5415-11.6826L43.5415-32.7261C42.1406-33.4199 41.1641-34.8613 41.1641-36.5771ZM56.3394-36.5771C56.3394-38.8701 55.5498-41.0386 54.1577-42.8769C53.3257-44.0273 53.2129-45.1001 53.8765-45.9136C54.8213-46.9409 56.3169-46.8735 57.1607-45.7603C59.3023-43.2329 60.4858-39.9463 60.4858-36.5771C60.4858-33.1592 59.3023-29.854 57.1607-27.2778C56.3169-26.2134 54.7725-26.1611 53.8765-27.1094C53.1978-27.9683 53.2954-29.0596 54.188-30.2402C55.5835-31.9121 56.3394-34.0435 56.3394-36.5771ZM65.9468-36.5771C65.9468-41.4697 64.2178-46.0088 61.0039-49.3794C60.0742-50.4438 59.9917-51.6699 60.7378-52.4985C61.585-53.4771 62.9946-53.4771 63.9058-52.4312C67.8843-48.1494 70.127-42.519 70.127-36.5771C70.127-30.5527 67.918-24.9712 63.9058-20.6406C62.9946-19.6772 61.6001-19.6099 60.7715-20.5547C59.9917-21.417 60.0591-22.5942 61.0039-23.6587C64.2178-27.1118 65.9468-31.6172 65.9468-36.5771Z"/>
  </g>
  <g id="Thin-S" transform="matrix(1 0 0 1 811.863 696)">
   <path d="M44.5527 2.51173C65.2422 2.51173 82.2832-14.5156 82.2832-35.2051C82.2832-55.8945 65.2285-72.9219 44.5391-72.9219C23.8281-72.9219 6.83594-55.8945 6.83594-35.2051C6.83594-14.5156 23.8418 2.51173 44.5527 2.51173ZM20.5938-36.7773C20.5938-42.6992 22.8828-48.3496 27.0352-52.6113C27.666-53.2969 28.6152-53.2969 29.1621-52.6387C29.6328-52.0703 29.5918-51.2246 28.9961-50.5605C25.3418-46.9297 23.3789-42.0703 23.3789-36.7773C23.3789-31.457 25.3418-26.6113 28.9961-22.918C29.627-22.2539 29.6328-21.457 29.1485-20.875C28.5801-20.2305 27.666-20.2578 27.0352-20.8809C22.8691-25.1914 20.5938-30.793 20.5938-36.7773ZM30.1348-36.7773C30.1348-40.1465 31.3984-43.4531 33.6465-45.9004C34.2285-46.6133 35.2188-46.6406 35.8496-45.9336C36.3067-45.4004 36.1738-44.5879 35.6621-43.918C33.8496-41.7793 32.9199-39.3906 32.9199-36.7773C32.9199-33.8633 33.836-31.4316 35.5918-29.6797C36.2442-28.9395 36.3418-28.1484 35.8496-27.5098C35.2676-26.9219 34.2285-26.9141 33.6465-27.5781C31.3984-30.0742 30.1348-33.3594 30.1348-36.7773ZM40.8438-36.7773C40.8438-38.8652 42.4649-40.4863 44.5527-40.4863C46.6406-40.4863 48.2754-38.8652 48.2754-36.7773C48.2754-35.1953 47.2989-33.8789 45.918-33.4004L45.918-10.6016C45.918-9.72852 45.3848-9.14649 44.5527-9.14649C43.7344-9.14649 43.2012-9.7422 43.2012-10.6016L43.2012-33.3867C41.8203-33.9004 40.8438-35.1816 40.8438-36.7773ZM56.1992-36.7773C56.1992-39.3906 55.2695-41.7793 53.457-43.918C52.9453-44.5879 52.8125-45.4004 53.2559-45.9336C53.9004-46.6406 54.8555-46.6133 55.459-45.9004C57.7207-43.4531 58.9844-40.1465 58.9844-36.7773C58.9844-33.3594 57.7207-30.0742 55.459-27.5781C54.8555-26.9141 53.8516-26.9219 53.2559-27.5098C52.7773-28.1484 52.875-28.9395 53.5274-29.6797C55.2832-31.4316 56.1992-33.8633 56.1992-36.7773ZM65.7266-36.7773C65.7266-42.0703 63.7773-46.9297 60.1231-50.5605C59.5137-51.2246 59.4512-52.0703 59.957-52.6387C60.5039-53.2969 61.4531-53.2969 62.084-52.6113C66.2227-48.3496 68.5254-42.6992 68.5254-36.7773C68.5254-30.793 66.2364-25.1914 62.084-20.8809C61.4531-20.2578 60.5391-20.2305 59.9707-20.875C59.4512-21.457 59.4785-22.2539 60.1231-22.918C63.7773-26.6113 65.7266-31.457 65.7266-36.7773Z"/>
  </g>
  <g id="Ultralight-S" transform="matrix(1 0 0 1 515.649 696)">
   <path d="M44.0606 2.01955C64.5039 2.01955 81.2886-14.7617 81.2886-35.2051C81.2886-55.6484 64.5005-72.4297 44.0571-72.4297C23.5718-72.4297 6.83594-55.6484 6.83594-35.2051C6.83594-14.7617 23.5752 2.01955 44.0606 2.01955ZM20.4194-36.8799C20.4194-42.7915 22.7495-48.4521 26.9736-52.7036C27.4609-53.2046 28.1743-53.2046 28.5674-52.7104C28.9048-52.2754 28.8946-51.6245 28.4527-51.1655C24.5728-47.4014 22.5074-42.3779 22.5074-36.8799C22.5074-31.375 24.5728-26.355 28.4527-22.5386C28.94-22.0796 28.9048-21.4775 28.564-21.0391C28.1289-20.5483 27.4609-20.5552 26.9736-21.0039C22.7461-25.3042 20.4194-30.916 20.4194-36.8799ZM29.9092-36.8799C29.9092-40.249 31.2139-43.5659 33.5337-45.9722C33.9722-46.48 34.6958-46.4868 35.1831-45.9438C35.5171-45.5542 35.3741-44.875 35.0264-44.4512C32.9986-42.1587 31.9971-39.6572 31.9971-36.8799C31.9971-33.771 32.9951-31.1856 34.9356-29.3926C35.4649-28.8779 35.5625-28.2407 35.1831-27.7148C34.7446-27.3115 33.9722-27.2729 33.5337-27.7319C31.2139-30.187 29.9092-33.4619 29.9092-36.8799ZM40.6797-36.8799C40.6797-38.7935 42.147-40.2608 44.0606-40.2608C45.9741-40.2608 47.4449-38.7935 47.4449-36.8799C47.4449-35.3491 46.4683-34.1045 45.0977-33.7285L45.0977-10.0479C45.0977-9.39015 44.708-8.95167 44.0606-8.95167C43.4165-8.95167 43.0269-9.39357 43.0269-10.0479L43.0269-33.7251C41.6563-34.1465 40.6797-35.3457 40.6797-36.8799ZM56.1274-36.8799C56.1274-39.6572 55.126-42.1587 53.0982-44.4512C52.7505-44.875 52.6074-45.5542 52.938-45.9438C53.4287-46.4868 54.107-46.48 54.5874-45.9722C56.9107-43.5659 58.2154-40.249 58.2154-36.8799C58.2154-33.4619 56.9107-30.187 54.5874-27.7319C54.107-27.2729 53.3799-27.3115 52.938-27.7148C52.562-28.2407 52.6597-28.8779 53.189-29.3926C55.1294-31.1856 56.1274-33.771 56.1274-36.8799ZM65.6138-36.8799C65.6138-42.3779 63.5518-47.4014 59.6719-51.1655C59.2266-51.6245 59.1743-52.2754 59.5571-52.7104C59.9502-53.2046 60.6636-53.2046 61.1509-52.7036C65.3716-48.4521 67.7051-42.7915 67.7051-36.8799C67.7051-30.916 65.375-25.3042 61.1509-21.0039C60.6636-20.5552 59.9956-20.5483 59.5606-21.0391C59.1743-21.4775 59.1812-22.0796 59.6719-22.5386C63.5518-26.355 65.6138-31.375 65.6138-36.8799Z"/>
  </g>
 </g>
</svg>
