<?xml version="1.0" encoding="UTF-8"?>
<!--Generator: Apple Native CoreSVG 175-->
<!DOCTYPE svg
PUBLIC "-//W3C//DTD SVG 1.1//EN"
       "http://www.w3.org/Graphics/SVG/1.1/DTD/svg11.dtd">
<svg version="1.1" xmlns="http://www.w3.org/2000/svg" xmlns:xlink="http://www.w3.org/1999/xlink" width="3300" height="2200">
 <!--glyph: "uni100D40.medium", point size: 100.0, font version: "17.1d1e1", template writer version: "65.1"-->
 <style>.multicolor-0:tintColor {fill:#007AFF;opacity:1.0}
.multicolor-1:systemYellowColor {fill:#FFCC00;opacity:1.0}
.multicolor-2:white {fill:#FFFFFF;opacity:1.0}

.hierarchical-0:secondary {fill:#4D4D4D}
.hierarchical-1:primary {fill:#212121}

.SFSymbolsPreview007AFF {fill:#007AFF;opacity:1.0}
.SFSymbolsPreviewFFCC00 {fill:#FFCC00;opacity:1.0}
.SFSymbolsPreviewFFFFFF {fill:#FFFFFF;opacity:1.0}
</style>
 <g id="Notes">
  <rect height="2200" id="artboard" style="fill:white;opacity:1" width="3300" x="0" y="0"/>
  <line style="fill:none;stroke:black;opacity:1;stroke-width:0.5;" x1="263" x2="3036" y1="292" y2="292"/>
  <text style="stroke:none;fill:black;font-family:sans-serif;font-size:13;font-weight:bold;" transform="matrix(1 0 0 1 263 322)">Weight/Scale Variations</text>
  <text style="stroke:none;fill:black;font-family:sans-serif;font-size:13;text-anchor:middle;" transform="matrix(1 0 0 1 559.711 322)">Ultralight</text>
  <text style="stroke:none;fill:black;font-family:sans-serif;font-size:13;text-anchor:middle;" transform="matrix(1 0 0 1 856.422 322)">Thin</text>
  <text style="stroke:none;fill:black;font-family:sans-serif;font-size:13;text-anchor:middle;" transform="matrix(1 0 0 1 1153.13 322)">Light</text>
  <text style="stroke:none;fill:black;font-family:sans-serif;font-size:13;text-anchor:middle;" transform="matrix(1 0 0 1 1449.84 322)">Regular</text>
  <text style="stroke:none;fill:black;font-family:sans-serif;font-size:13;text-anchor:middle;" transform="matrix(1 0 0 1 1746.56 322)">Medium</text>
  <text style="stroke:none;fill:black;font-family:sans-serif;font-size:13;text-anchor:middle;" transform="matrix(1 0 0 1 2043.27 322)">Semibold</text>
  <text style="stroke:none;fill:black;font-family:sans-serif;font-size:13;text-anchor:middle;" transform="matrix(1 0 0 1 2339.98 322)">Bold</text>
  <text style="stroke:none;fill:black;font-family:sans-serif;font-size:13;text-anchor:middle;" transform="matrix(1 0 0 1 2636.69 322)">Heavy</text>
  <text style="stroke:none;fill:black;font-family:sans-serif;font-size:13;text-anchor:middle;" transform="matrix(1 0 0 1 2933.4 322)">Black</text>
  <line style="fill:none;stroke:black;opacity:1;stroke-width:0.5;" x1="263" x2="3036" y1="1903" y2="1903"/>
  <g transform="matrix(1 0 0 1 263 1933)">
   <path d="M9.24805 0.830078Q10.8691 0.830078 12.2949 0.214844Q13.7207-0.400391 14.8096-1.49414Q15.8984-2.58789 16.5186-4.01367Q17.1387-5.43945 17.1387-7.05078Q17.1387-8.66211 16.5186-10.0879Q15.8984-11.5137 14.8047-12.6074Q13.7109-13.7012 12.2852-14.3164Q10.8594-14.9316 9.23828-14.9316Q7.62695-14.9316 6.20117-14.3164Q4.77539-13.7012 3.69141-12.6074Q2.60742-11.5137 1.9873-10.0879Q1.36719-8.66211 1.36719-7.05078Q1.36719-5.43945 1.9873-4.01367Q2.60742-2.58789 3.69629-1.49414Q4.78516-0.400391 6.21094 0.214844Q7.63672 0.830078 9.24805 0.830078ZM9.24805-0.654297Q7.91992-0.654297 6.7627-1.14746Q5.60547-1.64062 4.73145-2.51953Q3.85742-3.39844 3.36426-4.56055Q2.87109-5.72266 2.87109-7.05078Q2.87109-8.37891 3.35938-9.54102Q3.84766-10.7031 4.72168-11.582Q5.5957-12.4609 6.75293-12.9541Q7.91016-13.4473 9.23828-13.4473Q10.5762-13.4473 11.7334-12.9541Q12.8906-12.4609 13.7695-11.582Q14.6484-10.7031 15.1465-9.54102Q15.6445-8.37891 15.6445-7.05078Q15.6445-5.72266 15.1514-4.56055Q14.6582-3.39844 13.7842-2.51953Q12.9102-1.64062 11.748-1.14746Q10.5859-0.654297 9.24805-0.654297ZM5.6543-7.05078Q5.6543-6.72852 5.85938-6.52832Q6.06445-6.32812 6.40625-6.32812L8.51562-6.32812L8.51562-4.20898Q8.51562-3.88672 8.71094-3.67676Q8.90625-3.4668 9.23828-3.4668Q9.56055-3.4668 9.77051-3.67676Q9.98047-3.88672 9.98047-4.20898L9.98047-6.32812L12.0898-6.32812Q12.4219-6.32812 12.627-6.52832Q12.832-6.72852 12.832-7.05078Q12.832-7.38281 12.627-7.58789Q12.4219-7.79297 12.0898-7.79297L9.98047-7.79297L9.98047-9.90234Q9.98047-10.2344 9.77051-10.4443Q9.56055-10.6543 9.23828-10.6543Q8.90625-10.6543 8.71094-10.4443Q8.51562-10.2344 8.51562-9.90234L8.51562-7.79297L6.40625-7.79297Q6.06445-7.79297 5.85938-7.58789Q5.6543-7.38281 5.6543-7.05078Z"/>
  </g>
  <g transform="matrix(1 0 0 1 281.867 1933)">
   <path d="M11.709 2.91016Q13.75 2.91016 15.5518 2.12891Q17.3535 1.34766 18.7305-0.0292969Q20.1074-1.40625 20.8887-3.20801Q21.6699-5.00977 21.6699-7.05078Q21.6699-9.0918 20.8887-10.8936Q20.1074-12.6953 18.7305-14.0723Q17.3535-15.4492 15.5469-16.2305Q13.7402-17.0117 11.6992-17.0117Q9.6582-17.0117 7.85645-16.2305Q6.05469-15.4492 4.68262-14.0723Q3.31055-12.6953 2.5293-10.8936Q1.74805-9.0918 1.74805-7.05078Q1.74805-5.00977 2.5293-3.20801Q3.31055-1.40625 4.6875-0.0292969Q6.06445 1.34766 7.86621 2.12891Q9.66797 2.91016 11.709 2.91016ZM11.709 1.25Q9.98047 1.25 8.47656 0.605469Q6.97266-0.0390625 5.83496-1.17676Q4.69727-2.31445 4.05762-3.81836Q3.41797-5.32227 3.41797-7.05078Q3.41797-8.7793 4.05762-10.2832Q4.69727-11.7871 5.83008-12.9297Q6.96289-14.0723 8.4668-14.7119Q9.9707-15.3516 11.6992-15.3516Q13.4277-15.3516 14.9316-14.7119Q16.4355-14.0723 17.5781-12.9297Q18.7207-11.7871 19.3652-10.2832Q20.0098-8.7793 20.0098-7.05078Q20.0098-5.32227 19.3701-3.81836Q18.7305-2.31445 17.5928-1.17676Q16.4551-0.0390625 14.9463 0.605469Q13.4375 1.25 11.709 1.25ZM7.17773-7.05078Q7.17773-6.69922 7.41211-6.47461Q7.64648-6.25 8.01758-6.25L10.8887-6.25L10.8887-3.36914Q10.8887-2.99805 11.1133-2.76855Q11.3379-2.53906 11.6895-2.53906Q12.0605-2.53906 12.29-2.76855Q12.5195-2.99805 12.5195-3.36914L12.5195-6.25L15.4004-6.25Q15.7715-6.25 16.001-6.47461Q16.2305-6.69922 16.2305-7.05078Q16.2305-7.42188 16.001-7.65137Q15.7715-7.88086 15.4004-7.88086L12.5195-7.88086L12.5195-10.752Q12.5195-11.1328 12.29-11.3623Q12.0605-11.5918 11.6895-11.5918Q11.3379-11.5918 11.1133-11.3574Q10.8887-11.123 10.8887-10.752L10.8887-7.88086L8.01758-7.88086Q7.63672-7.88086 7.40723-7.65137Q7.17773-7.42188 7.17773-7.05078Z"/>
  </g>
  <g transform="matrix(1 0 0 1 305.646 1933)">
   <path d="M14.9707 5.66406Q17.0605 5.66406 18.96 5.01465Q20.8594 4.36523 22.4512 3.19336Q24.043 2.02148 25.2197 0.429688Q26.3965-1.16211 27.0459-3.06641Q27.6953-4.9707 27.6953-7.05078Q27.6953-9.14062 27.0459-11.04Q26.3965-12.9395 25.2197-14.5312Q24.043-16.123 22.4512-17.2998Q20.8594-18.4766 18.9551-19.126Q17.0508-19.7754 14.9609-19.7754Q12.8711-19.7754 10.9717-19.126Q9.07227-18.4766 7.48535-17.2998Q5.89844-16.123 4.72168-14.5312Q3.54492-12.9395 2.90039-11.04Q2.25586-9.14062 2.25586-7.05078Q2.25586-4.9707 2.90527-3.06641Q3.55469-1.16211 4.72656 0.429688Q5.89844 2.02148 7.49023 3.19336Q9.08203 4.36523 10.9814 5.01465Q12.8809 5.66406 14.9707 5.66406ZM14.9707 3.84766Q13.1641 3.84766 11.5283 3.2959Q9.89258 2.74414 8.53516 1.74805Q7.17773 0.751953 6.17676-0.610352Q5.17578-1.97266 4.62891-3.6084Q4.08203-5.24414 4.08203-7.05078Q4.08203-8.86719 4.62891-10.5029Q5.17578-12.1387 6.17188-13.501Q7.16797-14.8633 8.52539-15.8594Q9.88281-16.8555 11.5186-17.4023Q13.1543-17.9492 14.9609-17.9492Q16.7773-17.9492 18.4131-17.4023Q20.0488-16.8555 21.4111-15.8594Q22.7734-14.8633 23.7695-13.501Q24.7656-12.1387 25.3174-10.5029Q25.8691-8.86719 25.8691-7.05078Q25.8789-5.24414 25.332-3.6084Q24.7852-1.97266 23.7842-0.610352Q22.7832 0.751953 21.4209 1.74805Q20.0586 2.74414 18.4229 3.2959Q16.7871 3.84766 14.9707 3.84766ZM9.19922-7.05078Q9.19922-6.66992 9.45801-6.4209Q9.7168-6.17188 10.1172-6.17188L14.0625-6.17188L14.0625-2.2168Q14.0625-1.81641 14.3115-1.55762Q14.5605-1.29883 14.9512-1.29883Q15.3516-1.29883 15.6104-1.55273Q15.8691-1.80664 15.8691-2.2168L15.8691-6.17188L19.8242-6.17188Q20.2246-6.17188 20.4785-6.4209Q20.7324-6.66992 20.7324-7.05078Q20.7324-7.46094 20.4785-7.71484Q20.2246-7.96875 19.8242-7.96875L15.8691-7.96875L15.8691-11.9141Q15.8691-12.3242 15.6104-12.583Q15.3516-12.8418 14.9512-12.8418Q14.5605-12.8418 14.3115-12.583Q14.0625-12.3242 14.0625-11.9141L14.0625-7.96875L10.1172-7.96875Q9.70703-7.96875 9.45312-7.71484Q9.19922-7.46094 9.19922-7.05078Z"/>
  </g>
  <text style="stroke:none;fill:black;font-family:sans-serif;font-size:13;font-weight:bold;" transform="matrix(1 0 0 1 263 1953)">Design Variations</text>
  <text style="stroke:none;fill:black;font-family:sans-serif;font-size:13;" transform="matrix(1 0 0 1 263 1971)">Symbols are supported in up to nine weights and three scales.</text>
  <text style="stroke:none;fill:black;font-family:sans-serif;font-size:13;" transform="matrix(1 0 0 1 263 1989)">For optimal layout with text and other symbols, vertically align</text>
  <text style="stroke:none;fill:black;font-family:sans-serif;font-size:13;" transform="matrix(1 0 0 1 263 2007)">symbols with the adjacent text.</text>
  <line style="fill:none;stroke:#00AEEF;stroke-width:0.5;opacity:1.0;" x1="776" x2="776" y1="1919" y2="1933"/>
  <g transform="matrix(1 0 0 1 776 1933)">
   <path d="M3.31055 0.15625Q3.70117 0.15625 3.91602-0.00976562Q4.13086-0.175781 4.26758-0.585938L5.52734-4.0332L11.2891-4.0332L12.5488-0.585938Q12.6855-0.175781 12.9004-0.00976562Q13.1152 0.15625 13.4961 0.15625Q13.8867 0.15625 14.1162-0.0585938Q14.3457-0.273438 14.3457-0.644531Q14.3457-0.869141 14.2383-1.17188L9.6582-13.3691Q9.48242-13.8184 9.17969-14.043Q8.87695-14.2676 8.4082-14.2676Q7.5-14.2676 7.17773-13.3789L2.59766-1.16211Q2.49023-0.859375 2.49023-0.634766Q2.49023-0.263672 2.70996-0.0537109Q2.92969 0.15625 3.31055 0.15625ZM6.00586-5.51758L8.37891-12.0898L8.42773-12.0898L10.8008-5.51758Z"/>
  </g>
  <line style="fill:none;stroke:#00AEEF;stroke-width:0.5;opacity:1.0;" x1="793.197" x2="793.197" y1="1919" y2="1933"/>
  <text style="stroke:none;fill:black;font-family:sans-serif;font-size:13;font-weight:bold;" transform="matrix(1 0 0 1 776 1953)">Margins</text>
  <text style="stroke:none;fill:black;font-family:sans-serif;font-size:13;" transform="matrix(1 0 0 1 776 1971)">Leading and trailing margins on the left and right side of each symbol</text>
  <text style="stroke:none;fill:black;font-family:sans-serif;font-size:13;" transform="matrix(1 0 0 1 776 1989)">can be adjusted by modifying the x-location of the margin guidelines.</text>
  <text style="stroke:none;fill:black;font-family:sans-serif;font-size:13;" transform="matrix(1 0 0 1 776 2007)">Modifications are automatically applied proportionally to all</text>
  <text style="stroke:none;fill:black;font-family:sans-serif;font-size:13;" transform="matrix(1 0 0 1 776 2025)">scales and weights.</text>
  <g transform="matrix(1 0 0 1 1289 1933)">
   <path d="M2.8418 1.86523L4.54102 3.57422Q5.18555 4.22852 5.90332 4.17969Q6.62109 4.13086 7.31445 3.35938L18.0078-8.42773L17.041-9.4043L6.42578 2.27539Q6.16211 2.57812 5.89355 2.61719Q5.625 2.65625 5.27344 2.30469L4.10156 1.14258Q3.75 0.791016 3.79395 0.522461Q3.83789 0.253906 4.14062-0.0195312L15.6152-10.8203L14.6387-11.7871L3.04688-0.898438Q2.30469-0.214844 2.25098 0.498047Q2.19727 1.21094 2.8418 1.86523ZM9.25781-16.3281Q8.94531-16.0254 8.90625-15.6348Q8.86719-15.2441 9.04297-14.9512Q9.21875-14.6777 9.55566-14.541Q9.89258-14.4043 10.3809-14.5215Q11.4746-14.7754 12.5977-14.7314Q13.7207-14.6875 14.7949-13.9844L14.209-12.5293Q13.9551-11.9043 14.0674-11.4404Q14.1797-10.9766 14.5801-10.5664L16.875-8.25195Q17.2363-7.88086 17.5781-7.82227Q17.9199-7.76367 18.3398-7.8418L19.4043-8.03711L20.0684-7.36328L20.0293-6.80664Q20-6.43555 20.1221-6.12305Q20.2441-5.81055 20.6055-5.44922L21.3672-4.70703Q21.7285-4.3457 22.1533-4.33105Q22.5781-4.31641 22.9297-4.66797L25.8398-7.58789Q26.1914-7.93945 26.1816-8.35449Q26.1719-8.76953 25.8105-9.13086L25.0391-9.89258Q24.6875-10.2539 24.3799-10.3857Q24.0723-10.5176 23.7109-10.4883L23.1348-10.4395L22.4902-11.0742L22.7344-12.1973Q22.832-12.6172 22.6953-12.9834Q22.5586-13.3496 22.1191-13.7891L19.9219-15.9766Q18.6719-17.2168 17.2607-17.8369Q15.8496-18.457 14.4189-18.4814Q12.9883-18.5059 11.665-17.959Q10.3418-17.4121 9.25781-16.3281ZM10.752-15.957Q11.6602-16.6211 12.7002-16.9043Q13.7402-17.1875 14.8047-17.085Q15.8691-16.9824 16.8701-16.5137Q17.8711-16.0449 18.7012-15.2051L21.1328-12.793Q21.3086-12.6172 21.3525-12.4512Q21.3965-12.2852 21.3379-12.0312L21.0156-10.5469L22.5195-9.0625L23.5059-9.12109Q23.6914-9.13086 23.7891-9.09668Q23.8867-9.0625 24.0332-8.91602L24.6094-8.33984L22.168-5.89844L21.5918-6.47461Q21.4453-6.62109 21.4062-6.71875Q21.3672-6.81641 21.377-7.01172L21.4453-7.98828L19.9512-9.47266L18.4277-9.21875Q18.1836-9.16992 18.042-9.2041Q17.9004-9.23828 17.7148-9.41406L15.7129-11.416Q15.5176-11.5918 15.4932-11.7529Q15.4688-11.9141 15.5859-12.1875L16.4648-14.2773Q15.293-15.3711 13.8281-15.791Q12.3633-16.2109 10.8398-15.7617Q10.7227-15.7324 10.6885-15.8057Q10.6543-15.8789 10.752-15.957Z"/>
  </g>
  <text style="stroke:none;fill:black;font-family:sans-serif;font-size:13;font-weight:bold;" transform="matrix(1 0 0 1 1289 1953)">Exporting</text>
  <text style="stroke:none;fill:black;font-family:sans-serif;font-size:13;" transform="matrix(1 0 0 1 1289 1971)">Symbols should be outlined when exporting to ensure the</text>
  <text style="stroke:none;fill:black;font-family:sans-serif;font-size:13;" transform="matrix(1 0 0 1 1289 1989)">design is preserved when submitting to Xcode.</text>
  <text id="template-version" style="stroke:none;fill:black;font-family:sans-serif;font-size:13;text-anchor:end;" transform="matrix(1 0 0 1 3036 1933)">Template v.3.0</text>
  <text style="stroke:none;fill:black;font-family:sans-serif;font-size:13;text-anchor:end;" transform="matrix(1 0 0 1 3036 1951)">Requires Xcode 13 or greater</text>
  <text id="descriptive-name" style="stroke:none;fill:black;font-family:sans-serif;font-size:13;text-anchor:end;" transform="matrix(1 0 0 1 3036 1969)">Generated from aqi.high</text>
  <text style="stroke:none;fill:black;font-family:sans-serif;font-size:13;text-anchor:end;" transform="matrix(1 0 0 1 3036 1987)">Typeset at 100 points</text>
  <text style="stroke:none;fill:black;font-family:sans-serif;font-size:13;" transform="matrix(1 0 0 1 263 726)">Small</text>
  <text style="stroke:none;fill:black;font-family:sans-serif;font-size:13;" transform="matrix(1 0 0 1 263 1156)">Medium</text>
  <text style="stroke:none;fill:black;font-family:sans-serif;font-size:13;" transform="matrix(1 0 0 1 263 1586)">Large</text>
 </g>
 <g id="Guides">
  <g id="H-reference" style="fill:#27AAE1;stroke:none;" transform="matrix(1 0 0 1 339 696)">
   <path d="M0.993347 0L3.6377 0L29.3282-67.1326L30.0301-67.1326L30.0301-70.459L28.1227-70.459ZM11.6882-24.4797L46.9818-24.4797L46.2311-26.7288L12.4382-26.7288ZM55.1193 0L57.7637 0L30.6381-70.459L29.4327-70.459L29.4327-67.1326Z"/>
  </g>
  <line id="Baseline-S" style="fill:none;stroke:#27AAE1;opacity:1;stroke-width:0.5;" x1="263" x2="3036" y1="696" y2="696"/>
  <line id="Capline-S" style="fill:none;stroke:#27AAE1;opacity:1;stroke-width:0.5;" x1="263" x2="3036" y1="625.541" y2="625.541"/>
  <g id="H-reference" style="fill:#27AAE1;stroke:none;" transform="matrix(1 0 0 1 339 1126)">
   <path d="M0.993347 0L3.6377 0L29.3282-67.1326L30.0301-67.1326L30.0301-70.459L28.1227-70.459ZM11.6882-24.4797L46.9818-24.4797L46.2311-26.7288L12.4382-26.7288ZM55.1193 0L57.7637 0L30.6381-70.459L29.4327-70.459L29.4327-67.1326Z"/>
  </g>
  <line id="Baseline-M" style="fill:none;stroke:#27AAE1;opacity:1;stroke-width:0.5;" x1="263" x2="3036" y1="1126" y2="1126"/>
  <line id="Capline-M" style="fill:none;stroke:#27AAE1;opacity:1;stroke-width:0.5;" x1="263" x2="3036" y1="1055.54" y2="1055.54"/>
  <g id="H-reference" style="fill:#27AAE1;stroke:none;" transform="matrix(1 0 0 1 339 1556)">
   <path d="M0.993347 0L3.6377 0L29.3282-67.1326L30.0301-67.1326L30.0301-70.459L28.1227-70.459ZM11.6882-24.4797L46.9818-24.4797L46.2311-26.7288L12.4382-26.7288ZM55.1193 0L57.7637 0L30.6381-70.459L29.4327-70.459L29.4327-67.1326Z"/>
  </g>
  <line id="Baseline-L" style="fill:none;stroke:#27AAE1;opacity:1;stroke-width:0.5;" x1="263" x2="3036" y1="1556" y2="1556"/>
  <line id="Capline-L" style="fill:none;stroke:#27AAE1;opacity:1;stroke-width:0.5;" x1="263" x2="3036" y1="1485.54" y2="1485.54"/>
  <line id="left-margin-Ultralight-S" style="fill:none;stroke:#00AEEF;stroke-width:0.5;opacity:1.0;" x1="507.79" x2="507.79" y1="600.785" y2="720.121"/>
  <line id="right-margin-Ultralight-S" style="fill:none;stroke:#FF3B30;stroke-width:0.5;opacity:1.0;" x1="611.632" x2="611.632" y1="600.785" y2="720.121"/>
  <line id="left-margin-Regular-S" style="fill:none;stroke:#00AEEF;stroke-width:0.5;opacity:1.0;" x1="1395.11" x2="1395.11" y1="600.785" y2="720.121"/>
  <line id="right-margin-Regular-S" style="fill:none;stroke:#FF3B30;stroke-width:0.5;opacity:1.0;" x1="1504.58" x2="1504.58" y1="600.785" y2="720.121"/>
  <line id="left-margin-Black-S" style="fill:none;stroke:#00AEEF;stroke-width:0.5;opacity:1.0;" x1="2875.32" x2="2875.32" y1="600.785" y2="720.121"/>
  <line id="right-margin-Black-S" style="fill:none;stroke:#FF3B30;stroke-width:0.5;opacity:1.0;" x1="2991.48" x2="2991.48" y1="600.785" y2="720.121"/>
 </g>
 <g id="Symbols">
  <g id="Black-S" transform="matrix(1 0 0 1 2875.32 696)">
   <path class="multicolor-0:tintColor hierarchical-0:secondary SFSymbolsPreview007AFF" d="M58.1543-25.3418Q62.3535-25.3418 65.21-28.2227Q68.0664-31.1035 68.0664-35.2539Q68.0664-39.3555 65.1611-42.2607Q62.2559-45.166 58.1543-45.166Q54.1016-45.166 51.1719-42.2363Q48.2422-39.3066 48.2422-35.2539Q48.2422-31.1523 51.1475-28.2471Q54.0527-25.3418 58.1543-25.3418ZM58.1543-4.05273Q61.8164-4.05273 64.3311-6.56738Q66.8457-9.08203 66.8457-12.7441Q66.8457-16.3574 64.3066-18.8965Q61.7676-21.4355 58.1543-21.4355Q54.5898-21.4355 52.0264-18.8721Q49.4629-16.3086 49.4629-12.7441Q49.4629-9.17969 52.0264-6.61621Q54.5898-4.05273 58.1543-4.05273ZM58.1543-49.0723Q61.8164-49.0723 64.3311-51.5869Q66.8457-54.1016 66.8457-57.7637Q66.8457-61.377 64.3066-63.916Q61.7676-66.4551 58.1543-66.4551Q54.5898-66.4551 52.0264-63.8916Q49.4629-61.3281 49.4629-57.7637Q49.4629-54.1992 52.0264-51.6357Q54.5898-49.0723 58.1543-49.0723ZM38.7695-15.2832Q42.4316-15.2832 44.9463-17.7979Q47.4609-20.3125 47.4609-23.9746Q47.4609-27.5879 44.9219-30.127Q42.3828-32.666 38.7695-32.666Q35.2051-32.666 32.6416-30.1025Q30.0781-27.5391 30.0781-23.9746Q30.0781-20.4102 32.6416-17.8467Q35.2051-15.2832 38.7695-15.2832ZM38.7695-37.8418Q42.4805-37.8418 44.9707-40.3564Q47.4609-42.8711 47.4609-46.5332Q47.4609-50.1465 44.9219-52.6855Q42.3828-55.2246 38.7695-55.2246Q35.2051-55.2246 32.6416-52.6611Q30.0781-50.0977 30.0781-46.5332Q30.0781-42.9688 32.6416-40.4053Q35.2051-37.8418 38.7695-37.8418ZM77.5391-37.8418Q81.2012-37.8418 83.7158-40.3564Q86.2305-42.8711 86.2305-46.5332Q86.2305-50.1465 83.6914-52.6855Q81.1523-55.2246 77.5391-55.2246Q73.9746-55.2246 71.4111-52.6611Q68.8477-50.0977 68.8477-46.5332Q68.8477-42.9199 71.3867-40.3809Q73.9258-37.8418 77.5391-37.8418ZM77.5391-15.2832Q77.5391-15.2832 77.5635-15.2832Q77.5879-15.2832 77.5879-15.2832L84.9609-28.5156L84.9609-28.5156Q83.8379-30.3711 81.8848-31.5186Q79.9316-32.666 77.5391-32.666Q73.9746-32.666 71.4111-30.127Q68.8477-27.5879 68.8477-23.9746Q68.8477-20.3613 71.3867-17.8223Q73.9258-15.2832 77.5391-15.2832ZM77.5391-62.1094Q80.5176-62.1094 82.5195-64.1113Q84.5215-66.1133 84.5215-69.0918Q84.5215-71.9727 82.4707-74.0234Q80.4199-76.0742 77.5391-76.0742Q74.707-76.0742 72.6318-74.0234Q70.5566-71.9727 70.5566-69.0918Q70.5566-66.1621 72.583-64.1357Q74.6094-62.1094 77.5391-62.1094ZM38.7695-62.1094Q41.748-62.1094 43.75-64.1113Q45.752-66.1133 45.752-69.0918Q45.752-71.9727 43.7012-74.0234Q41.6504-76.0742 38.7695-76.0742Q35.9375-76.0742 33.8623-74.0234Q31.7871-71.9727 31.7871-69.0918Q31.7871-66.2109 33.8379-64.1602Q35.8887-62.1094 38.7695-62.1094ZM38.7695 5.56641Q41.748 5.56641 43.75 3.56445Q45.752 1.5625 45.752-1.41602Q45.752-4.3457 43.7256-6.37207Q41.6992-8.39844 38.7695-8.39844Q35.9375-8.39844 33.8623-6.34766Q31.7871-4.29688 31.7871-1.41602Q31.7871 1.46484 33.8379 3.51562Q35.8887 5.56641 38.7695 5.56641ZM58.1543 16.748Q61.084 16.748 63.1104 14.7217Q65.1367 12.6953 65.1367 9.76562Q65.1367 6.83594 63.1104 4.80957Q61.084 2.7832 58.1543 2.7832Q55.3223 2.7832 53.2471 4.83398Q51.1719 6.88477 51.1719 9.76562Q51.1719 12.6465 53.2227 14.6973Q55.2734 16.748 58.1543 16.748ZM19.3848-50.7812Q22.3633-50.7812 24.3652-52.7832Q26.3672-54.7852 26.3672-57.7637Q26.3672-60.6445 24.3164-62.6953Q22.2656-64.7461 19.3848-64.7461Q16.5527-64.7461 14.502-62.6953Q12.4512-60.6445 12.4512-57.7637Q12.4512-54.8828 14.4775-52.832Q16.5039-50.7812 19.3848-50.7812ZM19.3848-5.76172Q22.3145-5.76172 24.3408-7.73926Q26.3672-9.7168 26.3672-12.7441Q26.3672-15.6738 24.3408-17.7002Q22.3145-19.7266 19.3848-19.7266Q16.5527-19.7266 14.502-17.6758Q12.4512-15.625 12.4512-12.7441Q12.4512-9.86328 14.4775-7.8125Q16.5039-5.76172 19.3848-5.76172ZM19.3848-28.2715Q22.3633-28.2715 24.3652-30.2734Q26.3672-32.2754 26.3672-35.2539Q26.3672-38.1348 24.3164-40.1855Q22.2656-42.2363 19.3848-42.2363Q16.5527-42.2363 14.502-40.1855Q12.4512-38.1348 12.4512-35.2539Q12.4512-32.373 14.4775-30.3223Q16.5039-28.2715 19.3848-28.2715ZM58.1543-73.291Q61.1328-73.291 63.1348-75.293Q65.1367-77.2949 65.1367-80.2734Q65.1367-83.1543 63.0859-85.2051Q61.0352-87.2559 58.1543-87.2559Q55.3223-87.2559 53.2471-85.2051Q51.1719-83.1543 51.1719-80.2734Q51.1719-77.3926 53.2227-75.3418Q55.2734-73.291 58.1543-73.291ZM96.7773-50.7812Q99.707-50.7812 101.709-52.8076Q103.711-54.834 103.711-57.7637Q103.711-60.6445 101.685-62.6953Q99.6582-64.7461 96.7773-64.7461Q93.9453-64.7461 91.8701-62.6953Q89.7949-60.6445 89.7949-57.7637Q89.7949-54.834 91.8213-52.8076Q93.8477-50.7812 96.7773-50.7812ZM103.564-33.5449Q103.711-34.5703 103.711-35.2539Q103.711-38.1348 101.685-40.1855Q99.6582-42.2363 96.7773-42.2363Q93.9453-42.2363 91.8701-40.1855Q89.7949-38.1348 89.7949-35.2539Q89.7949-34.3262 90.0391-33.5449Q93.1152-35.3516 96.7773-35.3516Q100.391-35.3516 103.564-33.5449Z"/>
   <path class="multicolor-1:systemYellowColor hierarchical-1:primary SFSymbolsPreviewFFCC00" d="M80.2734 14.5508L113.232 14.5508Q116.064 14.5508 117.871 12.5977Q119.678 10.6445 119.678 8.10547Q119.678 6.39648 118.848 4.93164L102.344-24.6582Q101.367-26.416 99.9023-27.2217Q98.4375-28.0273 96.7773-28.0273Q95.1172-28.0273 93.6523-27.1973Q92.1875-26.3672 91.2109-24.6582L74.707 4.93164Q73.8281 6.44531 73.8281 8.10547Q73.8281 10.6445 75.6348 12.5977Q77.4414 14.5508 80.2734 14.5508Z"/>
   <path class="multicolor-2:white hierarchical-1:primary SFSymbolsPreviewFFFFFF" d="M96.7285-1.51367Q95.1172-1.51367 94.0674-2.51465Q93.0176-3.51562 92.9199-5.0293L92.5781-14.3066Q92.5293-16.0645 93.7012-17.1875Q94.873-18.3105 96.7285-18.3105Q98.584-18.3105 99.8047-17.2119Q101.025-16.1133 100.928-14.3066L100.586-5.0293Q100.537-3.51562 99.4385-2.51465Q98.3398-1.51367 96.7285-1.51367ZM96.7285 8.93555Q94.7266 8.93555 93.457 7.73926Q92.1875 6.54297 92.1875 4.6875Q92.1875 2.83203 93.4814 1.68457Q94.7754 0.537109 96.7285 0.537109Q98.7305 0.537109 100.024 1.68457Q101.318 2.83203 101.318 4.6875Q101.318 6.54297 100.049 7.73926Q98.7793 8.93555 96.7285 8.93555Z"/>
  </g>
  <g id="Regular-S" transform="matrix(1 0 0 1 1395.11 696)">
   <path class="multicolor-0:tintColor hierarchical-0:secondary SFSymbolsPreview007AFF" d="M54.834-27.5391Q58.0078-27.5391 60.2539-29.7852Q62.5-32.0312 62.5-35.2539Q62.5-38.4277 60.2539-40.6982Q58.0078-42.9688 54.834-42.9688Q51.6602-42.9688 49.3896-40.6738Q47.1191-38.3789 47.1191-35.2539Q47.1191-32.0801 49.3896-29.8096Q51.6602-27.5391 54.834-27.5391ZM54.834-7.12891Q57.6172-7.12891 59.5947-9.08203Q61.5723-11.0352 61.5723-13.8672Q61.5723-16.6504 59.5947-18.6279Q57.6172-20.6055 54.834-20.6055Q52.0508-20.6055 50.0732-18.6035Q48.0957-16.6016 48.0957-13.8672Q48.0957-11.084 50.0732-9.10645Q52.0508-7.12891 54.834-7.12891ZM54.834-49.9023Q57.6172-49.9023 59.5947-51.8555Q61.5723-53.8086 61.5723-56.6406Q61.5723-59.4238 59.5947-61.4014Q57.6172-63.3789 54.834-63.3789Q52.0508-63.3789 50.0732-61.377Q48.0957-59.375 48.0957-56.6406Q48.0957-53.8574 50.0732-51.8799Q52.0508-49.9023 54.834-49.9023ZM36.4258-17.8223Q39.209-17.8223 41.1865-19.7754Q43.1641-21.7285 43.1641-24.5605Q43.1641-27.2949 41.1865-29.2969Q39.209-31.2988 36.4258-31.2988Q33.6426-31.2988 31.665-29.2969Q29.6875-27.2949 29.6875-24.5605Q29.6875-21.7773 31.665-19.7998Q33.6426-17.8223 36.4258-17.8223ZM36.4258-39.209Q39.209-39.209 41.1865-41.1865Q43.1641-43.1641 43.1641-45.9473Q43.1641-48.7305 41.1865-50.708Q39.209-52.6855 36.4258-52.6855Q33.6426-52.6855 31.665-50.708Q29.6875-48.7305 29.6875-45.9473Q29.6875-43.2129 31.665-41.2109Q33.6426-39.209 36.4258-39.209ZM73.2422-39.209Q76.0254-39.209 78.0029-41.1865Q79.9805-43.1641 79.9805-45.9473Q79.9805-48.7305 78.0029-50.708Q76.0254-52.6855 73.2422-52.6855Q70.5078-52.6855 68.5059-50.708Q66.5039-48.7305 66.5039-45.9473Q66.5039-43.2129 68.4814-41.2109Q70.459-39.209 73.2422-39.209ZM73.2422-17.8223Q73.9746-17.8223 74.6582-17.9688Q75.3418-18.1152 75.9277-18.3594L79.8828-25.4395L79.8828-25.4883Q79.541-27.9297 77.6611-29.6143Q75.7812-31.2988 73.2422-31.2988Q70.459-31.2988 68.4814-29.2969Q66.5039-27.2949 66.5039-24.5605Q66.5039-21.7773 68.4814-19.7998Q70.459-17.8223 73.2422-17.8223ZM73.2422-62.1094Q75.4395-62.1094 76.9775-63.6475Q78.5156-65.1855 78.5156-67.3828Q78.5156-69.5801 76.9775-71.1426Q75.4395-72.7051 73.2422-72.7051Q71.0449-72.7051 69.4824-71.1426Q67.9199-69.5801 67.9199-67.3828Q67.9199-65.1855 69.4824-63.6475Q71.0449-62.1094 73.2422-62.1094ZM36.4258-62.1094Q38.623-62.1094 40.1611-63.6475Q41.6992-65.1855 41.6992-67.3828Q41.6992-69.5801 40.1611-71.1426Q38.623-72.7051 36.4258-72.7051Q34.2285-72.7051 32.666-71.1426Q31.1035-69.5801 31.1035-67.3828Q31.1035-65.1855 32.666-63.6475Q34.2285-62.1094 36.4258-62.1094ZM36.4258 2.19727Q38.623 2.19727 40.1611 0.65918Q41.6992-0.878906 41.6992-3.125Q41.6992-5.32227 40.1611-6.86035Q38.623-8.39844 36.4258-8.39844Q34.2285-8.39844 32.666-6.83594Q31.1035-5.27344 31.1035-3.125Q31.1035-0.927734 32.666 0.634766Q34.2285 2.19727 36.4258 2.19727ZM54.834 12.793Q57.0312 12.793 58.5693 11.2793Q60.1074 9.76562 60.1074 7.51953Q60.1074 5.32227 58.5693 3.78418Q57.0312 2.24609 54.834 2.24609Q52.6367 2.24609 51.0742 3.78418Q49.5117 5.32227 49.5117 7.51953Q49.5117 9.7168 51.0742 11.2549Q52.6367 12.793 54.834 12.793ZM18.0176-51.3672Q20.2148-51.3672 21.7529-52.8809Q23.291-54.3945 23.291-56.6406Q23.291-58.8379 21.7529-60.376Q20.2148-61.9141 18.0176-61.9141Q15.8203-61.9141 14.2578-60.3516Q12.6953-58.7891 12.6953-56.6406Q12.6953-54.4434 14.2334-52.9053Q15.7715-51.3672 18.0176-51.3672ZM18.0176-8.59375Q20.2148-8.59375 21.7529-10.1074Q23.291-11.6211 23.291-13.8672Q23.291-16.0645 21.7529-17.6025Q20.2148-19.1406 18.0176-19.1406Q15.8203-19.1406 14.2578-17.5781Q12.6953-16.0156 12.6953-13.8672Q12.6953-11.6699 14.2334-10.1318Q15.7715-8.59375 18.0176-8.59375ZM18.0176-29.9805Q20.2148-29.9805 21.7529-31.4941Q23.291-33.0078 23.291-35.2539Q23.291-37.4512 21.7529-38.9893Q20.2148-40.5273 18.0176-40.5273Q15.8203-40.5273 14.2578-38.9648Q12.6953-37.4023 12.6953-35.2539Q12.6953-33.0566 14.2334-31.5186Q15.7715-29.9805 18.0176-29.9805ZM54.834-72.7539Q57.0312-72.7539 58.5693-74.2676Q60.1074-75.7812 60.1074-78.0273Q60.1074-80.2246 58.5693-81.7627Q57.0312-83.3008 54.834-83.3008Q52.6367-83.3008 51.0742-81.7383Q49.5117-80.1758 49.5117-78.0273Q49.5117-75.8301 51.0742-74.292Q52.6367-72.7539 54.834-72.7539ZM91.5039-51.3672Q93.75-51.3672 95.2637-52.8809Q96.7773-54.3945 96.7773-56.6406Q96.7773-58.8379 95.2393-60.376Q93.7012-61.9141 91.5039-61.9141Q89.3066-61.9141 87.7441-60.3516Q86.1816-58.7891 86.1816-56.6406Q86.1816-54.4434 87.7441-52.9053Q89.3066-51.3672 91.5039-51.3672ZM96.4355-33.3008Q96.7773-34.3262 96.7773-35.2539Q96.7773-37.4512 95.2393-38.9893Q93.7012-40.5273 91.5039-40.5273Q89.3066-40.5273 87.7441-38.9648Q86.1816-37.4023 86.1816-35.2539Q86.1816-34.3262 86.5723-33.3496Q88.916-34.4727 91.5039-34.4727Q94.0918-34.4727 96.4355-33.3008Z"/>
   <path class="multicolor-1:systemYellowColor hierarchical-1:primary SFSymbolsPreviewFFCC00" d="M74.8047 11.5234L108.105 11.5234Q110.547 11.5234 111.987 10.0342Q113.428 8.54492 113.428 6.29883Q113.428 4.93164 112.695 3.71094L95.9961-26.123Q95.2637-27.4414 94.043-28.1006Q92.8223-28.7598 91.5039-28.7598Q90.1367-28.7598 88.8916-28.1006Q87.6465-27.4414 86.9141-26.123L70.3125 3.71094Q69.5801 4.93164 69.5801 6.29883Q69.5801 8.54492 70.9717 10.0342Q72.3633 11.5234 74.8047 11.5234Z"/>
   <path class="multicolor-2:white hierarchical-1:primary SFSymbolsPreviewFFFFFF" d="M91.5039-3.66211Q90.4297-3.66211 89.7461-4.32129Q89.0625-4.98047 89.0137-6.00586L88.6719-16.6992Q88.623-17.9688 89.4043-18.75Q90.1855-19.5312 91.5039-19.5312Q92.7734-19.5312 93.5547-18.75Q94.3359-17.9688 94.2871-16.6992L93.9941-6.00586Q93.9453-4.98047 93.2617-4.32129Q92.5781-3.66211 91.5039-3.66211ZM91.5039 5.71289Q90.1367 5.71289 89.1357 4.73633Q88.1348 3.75977 88.1348 2.34375Q88.1348 0.976562 89.1357-0.0244141Q90.1367-1.02539 91.5039-1.02539Q92.9199-1.02539 93.8965-0.0244141Q94.873 0.976562 94.873 2.34375Q94.873 3.75977 93.8965 4.73633Q92.9199 5.71289 91.5039 5.71289Z"/>
  </g>
  <g id="Ultralight-S" transform="matrix(1 0 0 1 507.79 696)">
   <path class="multicolor-0:tintColor hierarchical-0:secondary SFSymbolsPreview007AFF" d="M52.0187-29.4464Q54.4205-29.4464 56.1214-31.1474Q57.8224-32.8484 57.8224-35.2539Q57.8224-37.6556 56.0986-39.3585Q54.3747-41.0614 52.0187-41.0614Q49.617-41.0614 47.9141-39.357Q46.2112-37.6526 46.2112-35.2539Q46.2112-32.8522 47.9141-31.1493Q49.617-29.4464 52.0187-29.4464ZM52.0187-9.71756Q54.1206-9.71756 55.5988-11.1938Q57.077-12.6701 57.077-14.7751Q57.077-16.8777 55.5759-18.3784Q54.0749-19.8792 52.0187-19.8792Q49.9619-19.8792 48.4383-18.354Q46.9147-16.8289 46.9147-14.7751Q46.9147-12.6732 48.3929-11.1954Q49.8711-9.71756 52.0187-9.71756ZM52.0187-50.6287Q54.1206-50.6287 55.5988-52.1049Q57.077-53.5812 57.077-55.7327Q57.077-57.7888 55.5759-59.2896Q54.0749-60.7903 52.0187-60.7903Q49.9168-60.7903 48.4158-59.288Q46.9147-57.7858 46.9147-55.7327Q46.9147-53.6301 48.4158-52.1294Q49.9168-50.6287 52.0187-50.6287ZM34.3826-19.9112Q36.4845-19.9112 37.9623-21.3875Q39.4402-22.8638 39.4402-24.9695Q39.4402-27.1133 37.9623-28.5931Q36.4845-30.0728 34.3826-30.0728Q32.28-30.0728 30.8022-28.5702Q29.3243-27.0676 29.3243-24.9695Q29.3243-22.9126 30.8022-21.4119Q32.28-19.9112 34.3826-19.9112ZM34.3826-40.435Q36.5295-40.435 37.9848-41.9132Q39.4402-43.3914 39.4402-45.5383Q39.4402-47.5952 37.9623-49.0959Q36.4845-50.5966 34.3826-50.5966Q32.3257-50.5966 30.825-49.0959Q29.3243-47.5952 29.3243-45.5383Q29.3243-43.3945 30.8022-41.9147Q32.28-40.435 34.3826-40.435ZM69.6091-40.435Q71.7567-40.435 73.2121-41.9132Q74.6674-43.3914 74.6674-45.5383Q74.6674-47.5952 73.1895-49.0959Q71.7117-50.5966 69.6091-50.5966Q67.556-50.5966 66.0538-49.0959Q64.5515-47.5952 64.5515-45.5383Q64.5515-43.3945 66.0294-41.9147Q67.5072-40.435 69.6091-40.435ZM69.6091-19.9112Q70.6146-19.9112 71.4798-20.2393Q72.345-20.5673 73.0217-21.1746L74.7063-24.0768L74.7063-25.0343Q74.6819-27.1126 73.2109-28.5927Q71.74-30.0728 69.6091-30.0728Q67.5529-30.0728 66.0522-28.5702Q64.5515-27.0676 64.5515-24.9695Q64.5515-22.9126 66.0522-21.4119Q67.5529-19.9112 69.6091-19.9112ZM69.6091-62.1552Q71.2616-62.1552 72.3682-63.2618Q73.4749-64.3684 73.4749-66.0202Q73.4749-67.6277 72.3457-68.7588Q71.2166-69.8898 69.6091-69.8898Q68.0481-69.8898 66.917-68.7588Q65.786-67.6277 65.786-66.0202Q65.786-64.4135 66.8941-63.2843Q68.0023-62.1552 69.6091-62.1552ZM34.3826-62.1552Q36.0344-62.1552 37.1185-63.2618Q38.2027-64.3684 38.2027-66.0202Q38.2027-67.6277 37.096-68.7588Q35.9894-69.8898 34.3826-69.8898Q32.8209-69.8898 31.6898-68.7588Q30.5588-67.6277 30.5588-66.0202Q30.5588-64.4135 31.6669-63.2843Q32.7751-62.1552 34.3826-62.1552ZM34.3826-0.617981Q36.0344-0.617981 37.1185-1.72462Q38.2027-2.83127 38.2027-4.48761Q38.2027-6.09436 37.096-7.22351Q35.9894-8.35266 34.3826-8.35266Q32.8209-8.35266 31.6898-7.2216Q30.5588-6.09055 30.5588-4.48761Q30.5588-2.8801 31.6669-1.74904Q32.7751-0.617981 34.3826-0.617981ZM52.0187 9.52377Q53.6255 9.52377 54.7321 8.44116Q55.8388 7.35855 55.8388 5.65796Q55.8388 4.05045 54.7321 2.9438Q53.6255 1.83716 52.0187 1.83716Q50.412 1.83716 49.2805 2.96669Q48.1491 4.09622 48.1491 5.65796Q48.1491 7.30972 49.2805 8.41675Q50.412 9.52377 52.0187 9.52377ZM16.7458-51.8669Q18.3983-51.8669 19.5049-52.9716Q20.6116-54.0764 20.6116-55.7327Q20.6116-57.3395 19.4824-58.4461Q18.3533-59.5528 16.7458-59.5528Q15.139-59.5528 14.0308-58.4442Q12.9227-57.3357 12.9227-55.7327Q12.9227-54.1252 14.0293-52.9961Q15.136-51.8669 16.7458-51.8669ZM16.7458-10.955Q18.3983-10.955 19.5049-12.0602Q20.6116-13.1653 20.6116-14.7751Q20.6116-16.3826 19.4824-17.5117Q18.3533-18.6409 16.7458-18.6409Q15.1848-18.6409 14.0537-17.5098Q12.9227-16.3788 12.9227-14.7751Q12.9227-13.1683 14.0293-12.0617Q15.136-10.955 16.7458-10.955ZM16.7458-31.4339Q18.3983-31.4339 19.5049-32.5161Q20.6116-33.5983 20.6116-35.2539Q20.6116-36.8607 19.4824-37.9673Q18.3533-39.0739 16.7458-39.0739Q15.139-39.0739 14.0308-37.9658Q12.9227-36.8576 12.9227-35.2539Q12.9227-33.6472 14.0293-32.5405Q15.136-31.4339 16.7458-31.4339ZM52.0187-72.345Q53.6255-72.345 54.7321-73.4272Q55.8388-74.5094 55.8388-76.1658Q55.8388-77.7725 54.7321-78.9021Q53.6255-80.0316 52.0187-80.0316Q50.412-80.0316 49.2805-78.9001Q48.1491-77.7687 48.1491-76.1658Q48.1491-74.5583 49.2805-73.4516Q50.412-72.345 52.0187-72.345ZM87.0995-51.8669Q88.755-51.8669 89.8373-52.9716Q90.9195-54.0764 90.9195-55.7327Q90.9195-57.3395 89.8354-58.4461Q88.7512-59.5528 87.0995-59.5528Q85.5377-59.5528 84.4067-58.4217Q83.2756-57.2906 83.2756-55.7327Q83.2756-54.1252 84.3838-52.9961Q85.4919-51.8669 87.0995-51.8669ZM90.3053-33.1192Q90.9195-34.1446 90.9195-35.2539Q90.9195-36.9064 89.8354-37.9902Q88.7512-39.0739 87.0995-39.0739Q85.5377-39.0739 84.4067-37.9429Q83.2756-36.8118 83.2756-35.2539Q83.2756-34.1446 83.8928-33.1223Q85.4195-33.8371 87.0995-33.8371Q88.7337-33.8371 90.3053-33.1192Z"/>
   <path class="multicolor-1:systemYellowColor hierarchical-1:primary SFSymbolsPreviewFFCC00" d="M70.8542 7.43637L103.337 7.43637Q105.415 7.43637 106.697 6.0154Q107.979 4.59442 107.979 2.71149Q107.979 1.48087 107.337 0.350952L91.1369-28.3936Q90.4503-29.5303 89.3658-30.1441Q88.2812-30.7579 87.0995-30.7579Q85.9138-30.7579 84.8049-30.1441Q83.696-29.5303 83.0086-28.3936L66.7252 0.395966Q66.1293 1.52588 66.1293 2.71149Q66.1293 4.59442 67.4526 6.0154Q68.7759 7.43637 70.8542 7.43637Z"/>
   <path class="multicolor-2:white hierarchical-1:primary SFSymbolsPreviewFFFFFF" d="M87.0995-6.38657Q86.4334-6.38657 85.9768-6.86417Q85.5202-7.34177 85.5171-8.04901L85.3119-20.105Q85.3081-20.8748 85.7941-21.3837Q86.2801-21.8925 87.0995-21.8925Q87.8693-21.8925 88.3553-21.3837Q88.8412-20.8748 88.8382-20.105L88.636-8.04901Q88.6322-7.34177 88.1985-6.86417Q87.7647-6.38657 87.0995-6.38657ZM87.0537 1.53503Q85.9589 1.53503 85.2077 0.762939Q84.4566-0.00915527 84.4566-1.10703Q84.4566-2.11105 85.2306-2.88506Q86.0046-3.65906 87.0537-3.65906Q88.1065-3.65906 88.9015-2.88506Q89.6965-2.11105 89.6965-1.10703Q89.6507-0.00915527 88.8786 0.762939Q88.1065 1.53503 87.0537 1.53503Z"/>
  </g>
 </g>
</svg>
