<?xml version="1.0" encoding="UTF-8"?>
<!--Generator: Apple Native CoreSVG 175-->
<!DOCTYPE svg
PUBLIC "-//W3C//DTD SVG 1.1//EN"
       "http://www.w3.org/Graphics/SVG/1.1/DTD/svg11.dtd">
<svg version="1.1" xmlns="http://www.w3.org/2000/svg" xmlns:xlink="http://www.w3.org/1999/xlink" width="3300" height="2200">
 <!--glyph: "uni1008A4.medium", point size: 100.0, font version: "17.1d1e1", template writer version: "65.1"-->
 <style>.hierarchical-0:secondary {fill:#4D4D4D}
.hierarchical-1:primary {fill:#212121}

.SFSymbolsPreview212121 {fill:#212121;opacity:1.0}
.SFSymbolsPreview4D4D4D {fill:#4D4D4D;opacity:1.0}
</style>
 <g id="Notes">
  <rect height="2200" id="artboard" style="fill:white;opacity:1" width="3300" x="0" y="0"/>
  <line style="fill:none;stroke:black;opacity:1;stroke-width:0.5;" x1="263" x2="3036" y1="292" y2="292"/>
  <text style="stroke:none;fill:black;font-family:sans-serif;font-size:13;font-weight:bold;" transform="matrix(1 0 0 1 263 322)">Weight/Scale Variations</text>
  <text style="stroke:none;fill:black;font-family:sans-serif;font-size:13;text-anchor:middle;" transform="matrix(1 0 0 1 559.711 322)">Ultralight</text>
  <text style="stroke:none;fill:black;font-family:sans-serif;font-size:13;text-anchor:middle;" transform="matrix(1 0 0 1 856.422 322)">Thin</text>
  <text style="stroke:none;fill:black;font-family:sans-serif;font-size:13;text-anchor:middle;" transform="matrix(1 0 0 1 1153.13 322)">Light</text>
  <text style="stroke:none;fill:black;font-family:sans-serif;font-size:13;text-anchor:middle;" transform="matrix(1 0 0 1 1449.84 322)">Regular</text>
  <text style="stroke:none;fill:black;font-family:sans-serif;font-size:13;text-anchor:middle;" transform="matrix(1 0 0 1 1746.56 322)">Medium</text>
  <text style="stroke:none;fill:black;font-family:sans-serif;font-size:13;text-anchor:middle;" transform="matrix(1 0 0 1 2043.27 322)">Semibold</text>
  <text style="stroke:none;fill:black;font-family:sans-serif;font-size:13;text-anchor:middle;" transform="matrix(1 0 0 1 2339.98 322)">Bold</text>
  <text style="stroke:none;fill:black;font-family:sans-serif;font-size:13;text-anchor:middle;" transform="matrix(1 0 0 1 2636.69 322)">Heavy</text>
  <text style="stroke:none;fill:black;font-family:sans-serif;font-size:13;text-anchor:middle;" transform="matrix(1 0 0 1 2933.4 322)">Black</text>
  <line style="fill:none;stroke:black;opacity:1;stroke-width:0.5;" x1="263" x2="3036" y1="1903" y2="1903"/>
  <g transform="matrix(1 0 0 1 263 1933)">
   <path d="M9.24805 0.830078Q10.8691 0.830078 12.2949 0.214844Q13.7207-0.400391 14.8096-1.49414Q15.8984-2.58789 16.5186-4.01367Q17.1387-5.43945 17.1387-7.05078Q17.1387-8.66211 16.5186-10.0879Q15.8984-11.5137 14.8047-12.6074Q13.7109-13.7012 12.2852-14.3164Q10.8594-14.9316 9.23828-14.9316Q7.62695-14.9316 6.20117-14.3164Q4.77539-13.7012 3.69141-12.6074Q2.60742-11.5137 1.9873-10.0879Q1.36719-8.66211 1.36719-7.05078Q1.36719-5.43945 1.9873-4.01367Q2.60742-2.58789 3.69629-1.49414Q4.78516-0.400391 6.21094 0.214844Q7.63672 0.830078 9.24805 0.830078ZM9.24805-0.654297Q7.91992-0.654297 6.7627-1.14746Q5.60547-1.64062 4.73145-2.51953Q3.85742-3.39844 3.36426-4.56055Q2.87109-5.72266 2.87109-7.05078Q2.87109-8.37891 3.35938-9.54102Q3.84766-10.7031 4.72168-11.582Q5.5957-12.4609 6.75293-12.9541Q7.91016-13.4473 9.23828-13.4473Q10.5762-13.4473 11.7334-12.9541Q12.8906-12.4609 13.7695-11.582Q14.6484-10.7031 15.1465-9.54102Q15.6445-8.37891 15.6445-7.05078Q15.6445-5.72266 15.1514-4.56055Q14.6582-3.39844 13.7842-2.51953Q12.9102-1.64062 11.748-1.14746Q10.5859-0.654297 9.24805-0.654297ZM5.6543-7.05078Q5.6543-6.72852 5.85938-6.52832Q6.06445-6.32812 6.40625-6.32812L8.51562-6.32812L8.51562-4.20898Q8.51562-3.88672 8.71094-3.67676Q8.90625-3.4668 9.23828-3.4668Q9.56055-3.4668 9.77051-3.67676Q9.98047-3.88672 9.98047-4.20898L9.98047-6.32812L12.0898-6.32812Q12.4219-6.32812 12.627-6.52832Q12.832-6.72852 12.832-7.05078Q12.832-7.38281 12.627-7.58789Q12.4219-7.79297 12.0898-7.79297L9.98047-7.79297L9.98047-9.90234Q9.98047-10.2344 9.77051-10.4443Q9.56055-10.6543 9.23828-10.6543Q8.90625-10.6543 8.71094-10.4443Q8.51562-10.2344 8.51562-9.90234L8.51562-7.79297L6.40625-7.79297Q6.06445-7.79297 5.85938-7.58789Q5.6543-7.38281 5.6543-7.05078Z"/>
  </g>
  <g transform="matrix(1 0 0 1 281.867 1933)">
   <path d="M11.709 2.91016Q13.75 2.91016 15.5518 2.12891Q17.3535 1.34766 18.7305-0.0292969Q20.1074-1.40625 20.8887-3.20801Q21.6699-5.00977 21.6699-7.05078Q21.6699-9.0918 20.8887-10.8936Q20.1074-12.6953 18.7305-14.0723Q17.3535-15.4492 15.5469-16.2305Q13.7402-17.0117 11.6992-17.0117Q9.6582-17.0117 7.85645-16.2305Q6.05469-15.4492 4.68262-14.0723Q3.31055-12.6953 2.5293-10.8936Q1.74805-9.0918 1.74805-7.05078Q1.74805-5.00977 2.5293-3.20801Q3.31055-1.40625 4.6875-0.0292969Q6.06445 1.34766 7.86621 2.12891Q9.66797 2.91016 11.709 2.91016ZM11.709 1.25Q9.98047 1.25 8.47656 0.605469Q6.97266-0.0390625 5.83496-1.17676Q4.69727-2.31445 4.05762-3.81836Q3.41797-5.32227 3.41797-7.05078Q3.41797-8.7793 4.05762-10.2832Q4.69727-11.7871 5.83008-12.9297Q6.96289-14.0723 8.4668-14.7119Q9.9707-15.3516 11.6992-15.3516Q13.4277-15.3516 14.9316-14.7119Q16.4355-14.0723 17.5781-12.9297Q18.7207-11.7871 19.3652-10.2832Q20.0098-8.7793 20.0098-7.05078Q20.0098-5.32227 19.3701-3.81836Q18.7305-2.31445 17.5928-1.17676Q16.4551-0.0390625 14.9463 0.605469Q13.4375 1.25 11.709 1.25ZM7.17773-7.05078Q7.17773-6.69922 7.41211-6.47461Q7.64648-6.25 8.01758-6.25L10.8887-6.25L10.8887-3.36914Q10.8887-2.99805 11.1133-2.76855Q11.3379-2.53906 11.6895-2.53906Q12.0605-2.53906 12.29-2.76855Q12.5195-2.99805 12.5195-3.36914L12.5195-6.25L15.4004-6.25Q15.7715-6.25 16.001-6.47461Q16.2305-6.69922 16.2305-7.05078Q16.2305-7.42188 16.001-7.65137Q15.7715-7.88086 15.4004-7.88086L12.5195-7.88086L12.5195-10.752Q12.5195-11.1328 12.29-11.3623Q12.0605-11.5918 11.6895-11.5918Q11.3379-11.5918 11.1133-11.3574Q10.8887-11.123 10.8887-10.752L10.8887-7.88086L8.01758-7.88086Q7.63672-7.88086 7.40723-7.65137Q7.17773-7.42188 7.17773-7.05078Z"/>
  </g>
  <g transform="matrix(1 0 0 1 305.646 1933)">
   <path d="M14.9707 5.66406Q17.0605 5.66406 18.96 5.01465Q20.8594 4.36523 22.4512 3.19336Q24.043 2.02148 25.2197 0.429688Q26.3965-1.16211 27.0459-3.06641Q27.6953-4.9707 27.6953-7.05078Q27.6953-9.14062 27.0459-11.04Q26.3965-12.9395 25.2197-14.5312Q24.043-16.123 22.4512-17.2998Q20.8594-18.4766 18.9551-19.126Q17.0508-19.7754 14.9609-19.7754Q12.8711-19.7754 10.9717-19.126Q9.07227-18.4766 7.48535-17.2998Q5.89844-16.123 4.72168-14.5312Q3.54492-12.9395 2.90039-11.04Q2.25586-9.14062 2.25586-7.05078Q2.25586-4.9707 2.90527-3.06641Q3.55469-1.16211 4.72656 0.429688Q5.89844 2.02148 7.49023 3.19336Q9.08203 4.36523 10.9814 5.01465Q12.8809 5.66406 14.9707 5.66406ZM14.9707 3.84766Q13.1641 3.84766 11.5283 3.2959Q9.89258 2.74414 8.53516 1.74805Q7.17773 0.751953 6.17676-0.610352Q5.17578-1.97266 4.62891-3.6084Q4.08203-5.24414 4.08203-7.05078Q4.08203-8.86719 4.62891-10.5029Q5.17578-12.1387 6.17188-13.501Q7.16797-14.8633 8.52539-15.8594Q9.88281-16.8555 11.5186-17.4023Q13.1543-17.9492 14.9609-17.9492Q16.7773-17.9492 18.4131-17.4023Q20.0488-16.8555 21.4111-15.8594Q22.7734-14.8633 23.7695-13.501Q24.7656-12.1387 25.3174-10.5029Q25.8691-8.86719 25.8691-7.05078Q25.8789-5.24414 25.332-3.6084Q24.7852-1.97266 23.7842-0.610352Q22.7832 0.751953 21.4209 1.74805Q20.0586 2.74414 18.4229 3.2959Q16.7871 3.84766 14.9707 3.84766ZM9.19922-7.05078Q9.19922-6.66992 9.45801-6.4209Q9.7168-6.17188 10.1172-6.17188L14.0625-6.17188L14.0625-2.2168Q14.0625-1.81641 14.3115-1.55762Q14.5605-1.29883 14.9512-1.29883Q15.3516-1.29883 15.6104-1.55273Q15.8691-1.80664 15.8691-2.2168L15.8691-6.17188L19.8242-6.17188Q20.2246-6.17188 20.4785-6.4209Q20.7324-6.66992 20.7324-7.05078Q20.7324-7.46094 20.4785-7.71484Q20.2246-7.96875 19.8242-7.96875L15.8691-7.96875L15.8691-11.9141Q15.8691-12.3242 15.6104-12.583Q15.3516-12.8418 14.9512-12.8418Q14.5605-12.8418 14.3115-12.583Q14.0625-12.3242 14.0625-11.9141L14.0625-7.96875L10.1172-7.96875Q9.70703-7.96875 9.45312-7.71484Q9.19922-7.46094 9.19922-7.05078Z"/>
  </g>
  <text style="stroke:none;fill:black;font-family:sans-serif;font-size:13;font-weight:bold;" transform="matrix(1 0 0 1 263 1953)">Design Variations</text>
  <text style="stroke:none;fill:black;font-family:sans-serif;font-size:13;" transform="matrix(1 0 0 1 263 1971)">Symbols are supported in up to nine weights and three scales.</text>
  <text style="stroke:none;fill:black;font-family:sans-serif;font-size:13;" transform="matrix(1 0 0 1 263 1989)">For optimal layout with text and other symbols, vertically align</text>
  <text style="stroke:none;fill:black;font-family:sans-serif;font-size:13;" transform="matrix(1 0 0 1 263 2007)">symbols with the adjacent text.</text>
  <line style="fill:none;stroke:#00AEEF;stroke-width:0.5;opacity:1.0;" x1="776" x2="776" y1="1919" y2="1933"/>
  <g transform="matrix(1 0 0 1 776 1933)">
   <path d="M3.31055 0.15625Q3.70117 0.15625 3.91602-0.00976562Q4.13086-0.175781 4.26758-0.585938L5.52734-4.0332L11.2891-4.0332L12.5488-0.585938Q12.6855-0.175781 12.9004-0.00976562Q13.1152 0.15625 13.4961 0.15625Q13.8867 0.15625 14.1162-0.0585938Q14.3457-0.273438 14.3457-0.644531Q14.3457-0.869141 14.2383-1.17188L9.6582-13.3691Q9.48242-13.8184 9.17969-14.043Q8.87695-14.2676 8.4082-14.2676Q7.5-14.2676 7.17773-13.3789L2.59766-1.16211Q2.49023-0.859375 2.49023-0.634766Q2.49023-0.263672 2.70996-0.0537109Q2.92969 0.15625 3.31055 0.15625ZM6.00586-5.51758L8.37891-12.0898L8.42773-12.0898L10.8008-5.51758Z"/>
  </g>
  <line style="fill:none;stroke:#00AEEF;stroke-width:0.5;opacity:1.0;" x1="793.197" x2="793.197" y1="1919" y2="1933"/>
  <text style="stroke:none;fill:black;font-family:sans-serif;font-size:13;font-weight:bold;" transform="matrix(1 0 0 1 776 1953)">Margins</text>
  <text style="stroke:none;fill:black;font-family:sans-serif;font-size:13;" transform="matrix(1 0 0 1 776 1971)">Leading and trailing margins on the left and right side of each symbol</text>
  <text style="stroke:none;fill:black;font-family:sans-serif;font-size:13;" transform="matrix(1 0 0 1 776 1989)">can be adjusted by modifying the x-location of the margin guidelines.</text>
  <text style="stroke:none;fill:black;font-family:sans-serif;font-size:13;" transform="matrix(1 0 0 1 776 2007)">Modifications are automatically applied proportionally to all</text>
  <text style="stroke:none;fill:black;font-family:sans-serif;font-size:13;" transform="matrix(1 0 0 1 776 2025)">scales and weights.</text>
  <g transform="matrix(1 0 0 1 1289 1933)">
   <path d="M2.8418 1.86523L4.54102 3.57422Q5.18555 4.22852 5.90332 4.17969Q6.62109 4.13086 7.31445 3.35938L18.0078-8.42773L17.041-9.4043L6.42578 2.27539Q6.16211 2.57812 5.89355 2.61719Q5.625 2.65625 5.27344 2.30469L4.10156 1.14258Q3.75 0.791016 3.79395 0.522461Q3.83789 0.253906 4.14062-0.0195312L15.6152-10.8203L14.6387-11.7871L3.04688-0.898438Q2.30469-0.214844 2.25098 0.498047Q2.19727 1.21094 2.8418 1.86523ZM9.25781-16.3281Q8.94531-16.0254 8.90625-15.6348Q8.86719-15.2441 9.04297-14.9512Q9.21875-14.6777 9.55566-14.541Q9.89258-14.4043 10.3809-14.5215Q11.4746-14.7754 12.5977-14.7314Q13.7207-14.6875 14.7949-13.9844L14.209-12.5293Q13.9551-11.9043 14.0674-11.4404Q14.1797-10.9766 14.5801-10.5664L16.875-8.25195Q17.2363-7.88086 17.5781-7.82227Q17.9199-7.76367 18.3398-7.8418L19.4043-8.03711L20.0684-7.36328L20.0293-6.80664Q20-6.43555 20.1221-6.12305Q20.2441-5.81055 20.6055-5.44922L21.3672-4.70703Q21.7285-4.3457 22.1533-4.33105Q22.5781-4.31641 22.9297-4.66797L25.8398-7.58789Q26.1914-7.93945 26.1816-8.35449Q26.1719-8.76953 25.8105-9.13086L25.0391-9.89258Q24.6875-10.2539 24.3799-10.3857Q24.0723-10.5176 23.7109-10.4883L23.1348-10.4395L22.4902-11.0742L22.7344-12.1973Q22.832-12.6172 22.6953-12.9834Q22.5586-13.3496 22.1191-13.7891L19.9219-15.9766Q18.6719-17.2168 17.2607-17.8369Q15.8496-18.457 14.4189-18.4814Q12.9883-18.5059 11.665-17.959Q10.3418-17.4121 9.25781-16.3281ZM10.752-15.957Q11.6602-16.6211 12.7002-16.9043Q13.7402-17.1875 14.8047-17.085Q15.8691-16.9824 16.8701-16.5137Q17.8711-16.0449 18.7012-15.2051L21.1328-12.793Q21.3086-12.6172 21.3525-12.4512Q21.3965-12.2852 21.3379-12.0312L21.0156-10.5469L22.5195-9.0625L23.5059-9.12109Q23.6914-9.13086 23.7891-9.09668Q23.8867-9.0625 24.0332-8.91602L24.6094-8.33984L22.168-5.89844L21.5918-6.47461Q21.4453-6.62109 21.4062-6.71875Q21.3672-6.81641 21.377-7.01172L21.4453-7.98828L19.9512-9.47266L18.4277-9.21875Q18.1836-9.16992 18.042-9.2041Q17.9004-9.23828 17.7148-9.41406L15.7129-11.416Q15.5176-11.5918 15.4932-11.7529Q15.4688-11.9141 15.5859-12.1875L16.4648-14.2773Q15.293-15.3711 13.8281-15.791Q12.3633-16.2109 10.8398-15.7617Q10.7227-15.7324 10.6885-15.8057Q10.6543-15.8789 10.752-15.957Z"/>
  </g>
  <text style="stroke:none;fill:black;font-family:sans-serif;font-size:13;font-weight:bold;" transform="matrix(1 0 0 1 1289 1953)">Exporting</text>
  <text style="stroke:none;fill:black;font-family:sans-serif;font-size:13;" transform="matrix(1 0 0 1 1289 1971)">Symbols should be outlined when exporting to ensure the</text>
  <text style="stroke:none;fill:black;font-family:sans-serif;font-size:13;" transform="matrix(1 0 0 1 1289 1989)">design is preserved when submitting to Xcode.</text>
  <text id="template-version" style="stroke:none;fill:black;font-family:sans-serif;font-size:13;text-anchor:end;" transform="matrix(1 0 0 1 3036 1933)">Template v.3.0</text>
  <text style="stroke:none;fill:black;font-family:sans-serif;font-size:13;text-anchor:end;" transform="matrix(1 0 0 1 3036 1951)">Requires Xcode 13 or greater</text>
  <text id="descriptive-name" style="stroke:none;fill:black;font-family:sans-serif;font-size:13;text-anchor:end;" transform="matrix(1 0 0 1 3036 1969)">Generated from exclamationmark.arrow.triangle.2.circlepath</text>
  <text style="stroke:none;fill:black;font-family:sans-serif;font-size:13;text-anchor:end;" transform="matrix(1 0 0 1 3036 1987)">Typeset at 100 points</text>
  <text style="stroke:none;fill:black;font-family:sans-serif;font-size:13;" transform="matrix(1 0 0 1 263 726)">Small</text>
  <text style="stroke:none;fill:black;font-family:sans-serif;font-size:13;" transform="matrix(1 0 0 1 263 1156)">Medium</text>
  <text style="stroke:none;fill:black;font-family:sans-serif;font-size:13;" transform="matrix(1 0 0 1 263 1586)">Large</text>
 </g>
 <g id="Guides">
  <g id="H-reference" style="fill:#27AAE1;stroke:none;" transform="matrix(1 0 0 1 339 696)">
   <path d="M0.993347 0L3.6377 0L29.3282-67.1326L30.0301-67.1326L30.0301-70.459L28.1227-70.459ZM11.6882-24.4797L46.9818-24.4797L46.2311-26.7288L12.4382-26.7288ZM55.1193 0L57.7637 0L30.6381-70.459L29.4327-70.459L29.4327-67.1326Z"/>
  </g>
  <line id="Baseline-S" style="fill:none;stroke:#27AAE1;opacity:1;stroke-width:0.5;" x1="263" x2="3036" y1="696" y2="696"/>
  <line id="Capline-S" style="fill:none;stroke:#27AAE1;opacity:1;stroke-width:0.5;" x1="263" x2="3036" y1="625.541" y2="625.541"/>
  <g id="H-reference" style="fill:#27AAE1;stroke:none;" transform="matrix(1 0 0 1 339 1126)">
   <path d="M0.993347 0L3.6377 0L29.3282-67.1326L30.0301-67.1326L30.0301-70.459L28.1227-70.459ZM11.6882-24.4797L46.9818-24.4797L46.2311-26.7288L12.4382-26.7288ZM55.1193 0L57.7637 0L30.6381-70.459L29.4327-70.459L29.4327-67.1326Z"/>
  </g>
  <line id="Baseline-M" style="fill:none;stroke:#27AAE1;opacity:1;stroke-width:0.5;" x1="263" x2="3036" y1="1126" y2="1126"/>
  <line id="Capline-M" style="fill:none;stroke:#27AAE1;opacity:1;stroke-width:0.5;" x1="263" x2="3036" y1="1055.54" y2="1055.54"/>
  <g id="H-reference" style="fill:#27AAE1;stroke:none;" transform="matrix(1 0 0 1 339 1556)">
   <path d="M0.993347 0L3.6377 0L29.3282-67.1326L30.0301-67.1326L30.0301-70.459L28.1227-70.459ZM11.6882-24.4797L46.9818-24.4797L46.2311-26.7288L12.4382-26.7288ZM55.1193 0L57.7637 0L30.6381-70.459L29.4327-70.459L29.4327-67.1326Z"/>
  </g>
  <line id="Baseline-L" style="fill:none;stroke:#27AAE1;opacity:1;stroke-width:0.5;" x1="263" x2="3036" y1="1556" y2="1556"/>
  <line id="Capline-L" style="fill:none;stroke:#27AAE1;opacity:1;stroke-width:0.5;" x1="263" x2="3036" y1="1485.54" y2="1485.54"/>
  <line id="left-margin-Ultralight-S" style="fill:none;stroke:#00AEEF;stroke-width:0.5;opacity:1.0;" x1="507.908" x2="507.908" y1="600.785" y2="720.121"/>
  <line id="right-margin-Ultralight-S" style="fill:none;stroke:#00AEEF;stroke-width:0.5;opacity:1.0;" x1="611.514" x2="611.514" y1="600.785" y2="720.121"/>
  <line id="left-margin-Regular-S" style="fill:none;stroke:#00AEEF;stroke-width:0.5;opacity:1.0;" x1="1395.82" x2="1395.82" y1="600.785" y2="720.121"/>
  <line id="right-margin-Regular-S" style="fill:none;stroke:#00AEEF;stroke-width:0.5;opacity:1.0;" x1="1503.87" x2="1503.87" y1="600.785" y2="720.121"/>
  <line id="left-margin-Black-S" style="fill:none;stroke:#00AEEF;stroke-width:0.5;opacity:1.0;" x1="2874.98" x2="2874.98" y1="600.785" y2="720.121"/>
  <line id="right-margin-Black-S" style="fill:none;stroke:#00AEEF;stroke-width:0.5;opacity:1.0;" x1="2991.82" x2="2991.82" y1="600.785" y2="720.121"/>
 </g>
 <g id="Symbols">
  <g id="Black-S" transform="matrix(1 0 0 1 2874.98 696)">
   <path class="hierarchical-0:secondary SFSymbolsPreview4D4D4D" d="M34.1309-69.1895Q31.3477-67.0898 30.9082-64.2822Q30.4688-61.4746 31.6895-59.3262Q33.1055-56.9336 36.0352-56.1523Q38.9648-55.3711 42.5781-57.9102Q45.9473-60.2539 50.0244-61.6455Q54.1016-63.0371 58.4961-63.0371Q63.6719-63.0371 68.1396-61.4014Q72.6074-59.7656 76.1963-56.8604Q79.7852-53.9551 82.2266-50.1953Q84.668-46.4355 85.7422-42.1875L79.4434-42.1875Q76.5625-42.1875 75.7812-39.9414Q75-37.6953 77.002-34.9609L88.916-18.8965Q90.5273-16.7969 92.7979-16.8213Q95.0684-16.8457 96.582-18.8965L108.545-34.9609Q110.547-37.6465 109.814-39.917Q109.082-42.1875 106.104-42.1875L100.195-42.1875Q99.0723-49.3652 95.459-55.6885Q91.8457-62.0117 86.2793-66.8457Q80.7129-71.6797 73.6572-74.4385Q66.6016-77.1973 58.4961-77.1973Q51.5137-77.1973 45.2637-75Q39.0137-72.8027 34.1309-69.1895ZM8.25195-35.4492Q6.29883-32.7637 7.03125-30.4932Q7.76367-28.2227 10.6934-28.2227L16.7969-28.2227Q17.9688-21.0449 21.582-14.7217Q25.1953-8.39844 30.7373-3.56445Q36.2793 1.26953 43.3594 4.02832Q50.4395 6.78711 58.4961 6.78711Q65.5273 6.78711 71.7773 4.56543Q78.0273 2.34375 82.8613-1.2207Q85.6934-3.32031 86.1328-6.12793Q86.5723-8.93555 85.3027-11.084Q83.9355-13.4766 81.0059-14.2578Q78.0762-15.0391 74.4141-12.5Q71.0449-10.1562 66.9922-8.76465Q62.9395-7.37305 58.4961-7.37305Q53.3691-7.37305 48.877-9.00879Q44.3848-10.6445 40.8203-13.5498Q37.2559-16.4551 34.79-20.2148Q32.3242-23.9746 31.25-28.2227L37.3535-28.2227Q40.2832-28.2227 41.0645-30.4932Q41.8457-32.7637 39.7949-35.4492L27.8809-51.5137Q26.3184-53.6621 24.0479-53.6133Q21.7773-53.5645 20.2148-51.5137Z"/>
   <path class="hierarchical-1:primary SFSymbolsPreview212121" d="M58.5449-31.4941Q63.5742-31.4941 63.8672-36.5723L64.5508-47.1191Q64.7461-49.8047 63.0615-51.416Q61.377-53.0273 58.4961-53.0273Q55.6641-53.0273 53.9551-51.416Q52.2461-49.8047 52.4414-47.1191L53.125-36.4746Q53.418-31.4941 58.5449-31.4941ZM58.5449-17.627Q61.2793-17.627 62.9883-18.9941Q64.6973-20.3613 64.6973-22.9004Q64.6973-25.3906 62.9883-26.7822Q61.2793-28.1738 58.5449-28.1738Q55.8594-28.1738 54.0771-26.8066Q52.2949-25.4395 52.2949-22.9004Q52.2949-20.3613 54.0771-18.9941Q55.8594-17.627 58.5449-17.627Z"/>
  </g>
  <g id="Regular-S" transform="matrix(1 0 0 1 1395.82 696)">
   <path class="hierarchical-0:secondary SFSymbolsPreview4D4D4D" d="M24.6094-61.2793Q23.3887-59.8633 23.5107-58.3008Q23.6328-56.7383 24.9023-55.8594Q26.2207-54.9316 27.6611-55.1758Q29.1016-55.4199 30.1758-56.6406Q34.5703-61.5234 40.7471-64.3799Q46.9238-67.2363 54.0039-67.2363Q60.1074-67.2363 65.4785-65.1611Q70.8496-63.0859 75.0977-59.3506Q79.3457-55.6152 82.0801-50.6348Q84.8145-45.6543 85.5957-39.8438L80.3711-39.8438Q78.125-39.8438 77.5635-38.501Q77.002-37.1582 78.2227-35.4492L86.9141-23.0957Q87.8906-21.6309 89.2578-21.6309Q90.625-21.6309 91.6504-23.0957L100.342-35.4004Q101.611-37.1582 101.05-38.501Q100.488-39.8438 98.1934-39.8438L93.1641-39.8438Q92.2852-47.1191 88.916-53.4424Q85.5469-59.7656 80.2246-64.5264Q74.9023-69.2871 68.2129-71.9727Q61.5234-74.6582 54.0039-74.6582Q45.3125-74.6582 37.6953-71.0449Q30.0781-67.4316 24.6094-61.2793ZM7.71484-35.0586Q6.44531-33.3496 7.00684-32.0068Q7.56836-30.6641 9.86328-30.6641L14.8926-30.6641Q15.7715-23.3887 19.1406-17.0654Q22.5098-10.7422 27.832-5.95703Q33.1543-1.17188 39.8438 1.48926Q46.5332 4.15039 54.0039 4.15039Q62.7441 4.15039 70.3857 0.512695Q78.0273-3.125 83.4473-9.27734Q84.668-10.6445 84.5459-12.2314Q84.4238-13.8184 83.1543-14.7461Q81.8848-15.6738 80.4443-15.4053Q79.0039-15.1367 77.9297-13.916Q73.584-8.98438 67.3828-6.12793Q61.1816-3.27148 54.0039-3.27148Q47.9492-3.27148 42.5781-5.34668Q37.207-7.42188 32.959-11.1328Q28.7109-14.8438 25.9766-19.8486Q23.2422-24.8535 22.4121-30.6641L27.6367-30.6641Q29.9316-30.6641 30.4932-31.9824Q31.0547-33.3008 29.834-35.0098L21.1426-47.4121Q20.1172-48.8281 18.7744-48.8525Q17.4316-48.877 16.4062-47.4121Z"/>
   <path class="hierarchical-1:primary SFSymbolsPreview212121" d="M54.0527-28.3203Q57.2754-28.3203 57.3242-31.6895L57.959-51.709Q58.0078-53.3203 56.8604-54.4189Q55.7129-55.5176 54.0039-55.5176Q52.2461-55.5176 51.1475-54.4434Q50.0488-53.3691 50.0977-51.7578L50.6348-31.6895Q50.7324-28.3203 54.0527-28.3203ZM54.0527-15.5273Q55.8105-15.5273 57.1533-16.7725Q58.4961-18.0176 58.4961-19.8242Q58.4961-21.6797 57.1777-22.9004Q55.8594-24.1211 54.0527-24.1211Q52.1973-24.1211 50.8789-22.876Q49.5605-21.6309 49.5605-19.8242Q49.5605-18.0664 50.9033-16.7969Q52.2461-15.5273 54.0527-15.5273Z"/>
  </g>
  <g id="Ultralight-S" transform="matrix(1 0 0 1 507.908 696)">
   <path class="hierarchical-0:secondary SFSymbolsPreview4D4D4D" d="M22.4121-57.959Q22.168-57.6172 22.1924-57.1533Q22.2168-56.6895 22.6074-56.3965Q22.998-56.1035 23.4375-56.2012Q23.877-56.2988 24.1699-56.6406Q29.0039-62.793 36.1816-66.4795Q43.3594-70.166 51.7578-70.166Q58.7891-70.166 64.9658-67.6025Q71.1426-65.0391 75.9033-60.498Q80.6641-55.957 83.5205-49.9756Q86.377-43.9941 86.7188-37.0605L79.0039-37.0605Q78.0273-37.0605 77.71-36.4258Q77.3926-35.791 78.0273-34.9121L85.9863-23.4863Q86.5234-22.7539 87.1826-22.7539Q87.8418-22.7539 88.3789-23.4863L96.3379-34.9121Q96.9727-35.791 96.6553-36.4258Q96.3379-37.0605 95.3613-37.0605L88.9648-37.0605Q88.623-44.3848 85.5713-50.8057Q82.5195-57.2266 77.4414-62.085Q72.3633-66.9434 65.8203-69.6777Q59.2773-72.4121 51.7578-72.4121Q42.8711-72.4121 35.2295-68.4814Q27.5879-64.5508 22.4121-57.959ZM7.27539-35.4004Q6.64062-34.5215 6.93359-33.8867Q7.22656-33.252 8.25195-33.252L14.5996-33.252Q14.9902-25.9277 18.0176-19.5068Q21.0449-13.0859 26.1475-8.25195Q31.25-3.41797 37.793-0.683594Q44.3359 2.05078 51.7578 2.05078Q60.6934 2.05078 68.335-1.85547Q75.9766-5.76172 81.1523-12.3047Q81.4453-12.7441 81.4209-13.1836Q81.3965-13.623 80.957-13.916Q80.6152-14.209 80.1758-14.1357Q79.7363-14.0625 79.4434-13.6719Q74.6094-7.51953 67.4072-3.85742Q60.2051-0.195312 51.7578-0.195312Q44.8242-0.195312 38.6475-2.73438Q32.4707-5.27344 27.71-9.81445Q22.9492-14.3555 20.0928-20.3613Q17.2363-26.3672 16.8945-33.252L24.6094-33.252Q25.5859-33.252 25.8789-33.8867Q26.1719-34.5215 25.5371-35.4004L17.5781-46.8262Q17.041-47.5586 16.4062-47.5586Q15.7715-47.5586 15.2344-46.8262Z"/>
   <path class="hierarchical-1:primary SFSymbolsPreview212121" d="M51.7578-28.4668Q53.0273-28.4668 53.0273-30.0293L53.2715-50.9277Q53.2715-51.6602 52.8564-52.0996Q52.4414-52.5391 51.7578-52.5391Q51.0254-52.5391 50.6104-52.0996Q50.1953-51.6602 50.1953-50.9277L50.4395-30.0293Q50.4883-28.4668 51.7578-28.4668ZM51.7578-17.627Q52.832-17.627 53.5645-18.3838Q54.2969-19.1406 54.2969-20.166Q54.2969-21.1914 53.5645-21.9238Q52.832-22.6562 51.7578-22.6562Q50.6348-22.6562 49.9268-21.9238Q49.2188-21.1914 49.2188-20.166Q49.2188-19.1406 49.9512-18.3838Q50.6836-17.627 51.7578-17.627Z"/>
  </g>
 </g>
</svg>
