<?xml version="1.0" encoding="UTF-8"?>
<!--Generator: Apple Native CoreSVG 175-->
<!DOCTYPE svg
PUBLIC "-//W3C//DTD SVG 1.1//EN"
       "http://www.w3.org/Graphics/SVG/1.1/DTD/svg11.dtd">
<svg version="1.1" xmlns="http://www.w3.org/2000/svg" xmlns:xlink="http://www.w3.org/1999/xlink" width="3300" height="2200">
 <!--glyph: "uni100F0D.medium", point size: 100.0, font version: "17.1d1e1", template writer version: "65.1"-->
 <style>.multicolor-0:tertiaryLabelColor {fill:#BDBDBD;opacity:1.0}
.multicolor-1:systemPurpleColor {fill:#AF52DE;opacity:1.0}
.multicolor-2:white {fill:#FFFFFF;opacity:1.0}

.SFSymbolsPreviewAF52DE {fill:#AF52DE;opacity:1.0}
.SFSymbolsPreviewBDBDBD {fill:#BDBDBD;opacity:1.0}
.SFSymbolsPreviewFFFFFF {fill:#FFFFFF;opacity:1.0}
</style>
 <g id="Notes">
  <rect height="2200" id="artboard" style="fill:white;opacity:1" width="3300" x="0" y="0"/>
  <line style="fill:none;stroke:black;opacity:1;stroke-width:0.5;" x1="263" x2="3036" y1="292" y2="292"/>
  <text style="stroke:none;fill:black;font-family:sans-serif;font-size:13;font-weight:bold;" transform="matrix(1 0 0 1 263 322)">Weight/Scale Variations</text>
  <text style="stroke:none;fill:black;font-family:sans-serif;font-size:13;text-anchor:middle;" transform="matrix(1 0 0 1 559.711 322)">Ultralight</text>
  <text style="stroke:none;fill:black;font-family:sans-serif;font-size:13;text-anchor:middle;" transform="matrix(1 0 0 1 856.422 322)">Thin</text>
  <text style="stroke:none;fill:black;font-family:sans-serif;font-size:13;text-anchor:middle;" transform="matrix(1 0 0 1 1153.13 322)">Light</text>
  <text style="stroke:none;fill:black;font-family:sans-serif;font-size:13;text-anchor:middle;" transform="matrix(1 0 0 1 1449.84 322)">Regular</text>
  <text style="stroke:none;fill:black;font-family:sans-serif;font-size:13;text-anchor:middle;" transform="matrix(1 0 0 1 1746.56 322)">Medium</text>
  <text style="stroke:none;fill:black;font-family:sans-serif;font-size:13;text-anchor:middle;" transform="matrix(1 0 0 1 2043.27 322)">Semibold</text>
  <text style="stroke:none;fill:black;font-family:sans-serif;font-size:13;text-anchor:middle;" transform="matrix(1 0 0 1 2339.98 322)">Bold</text>
  <text style="stroke:none;fill:black;font-family:sans-serif;font-size:13;text-anchor:middle;" transform="matrix(1 0 0 1 2636.69 322)">Heavy</text>
  <text style="stroke:none;fill:black;font-family:sans-serif;font-size:13;text-anchor:middle;" transform="matrix(1 0 0 1 2933.4 322)">Black</text>
  <line style="fill:none;stroke:black;opacity:1;stroke-width:0.5;" x1="263" x2="3036" y1="1903" y2="1903"/>
  <g transform="matrix(1 0 0 1 263 1933)">
   <path d="M9.24805 0.830078Q10.8691 0.830078 12.2949 0.214844Q13.7207-0.400391 14.8096-1.49414Q15.8984-2.58789 16.5186-4.01367Q17.1387-5.43945 17.1387-7.05078Q17.1387-8.66211 16.5186-10.0879Q15.8984-11.5137 14.8047-12.6074Q13.7109-13.7012 12.2852-14.3164Q10.8594-14.9316 9.23828-14.9316Q7.62695-14.9316 6.20117-14.3164Q4.77539-13.7012 3.69141-12.6074Q2.60742-11.5137 1.9873-10.0879Q1.36719-8.66211 1.36719-7.05078Q1.36719-5.43945 1.9873-4.01367Q2.60742-2.58789 3.69629-1.49414Q4.78516-0.400391 6.21094 0.214844Q7.63672 0.830078 9.24805 0.830078ZM9.24805-0.654297Q7.91992-0.654297 6.7627-1.14746Q5.60547-1.64062 4.73145-2.51953Q3.85742-3.39844 3.36426-4.56055Q2.87109-5.72266 2.87109-7.05078Q2.87109-8.37891 3.35938-9.54102Q3.84766-10.7031 4.72168-11.582Q5.5957-12.4609 6.75293-12.9541Q7.91016-13.4473 9.23828-13.4473Q10.5762-13.4473 11.7334-12.9541Q12.8906-12.4609 13.7695-11.582Q14.6484-10.7031 15.1465-9.54102Q15.6445-8.37891 15.6445-7.05078Q15.6445-5.72266 15.1514-4.56055Q14.6582-3.39844 13.7842-2.51953Q12.9102-1.64062 11.748-1.14746Q10.5859-0.654297 9.24805-0.654297ZM5.6543-7.05078Q5.6543-6.72852 5.85938-6.52832Q6.06445-6.32812 6.40625-6.32812L8.51562-6.32812L8.51562-4.20898Q8.51562-3.88672 8.71094-3.67676Q8.90625-3.4668 9.23828-3.4668Q9.56055-3.4668 9.77051-3.67676Q9.98047-3.88672 9.98047-4.20898L9.98047-6.32812L12.0898-6.32812Q12.4219-6.32812 12.627-6.52832Q12.832-6.72852 12.832-7.05078Q12.832-7.38281 12.627-7.58789Q12.4219-7.79297 12.0898-7.79297L9.98047-7.79297L9.98047-9.90234Q9.98047-10.2344 9.77051-10.4443Q9.56055-10.6543 9.23828-10.6543Q8.90625-10.6543 8.71094-10.4443Q8.51562-10.2344 8.51562-9.90234L8.51562-7.79297L6.40625-7.79297Q6.06445-7.79297 5.85938-7.58789Q5.6543-7.38281 5.6543-7.05078Z"/>
  </g>
  <g transform="matrix(1 0 0 1 281.867 1933)">
   <path d="M11.709 2.91016Q13.75 2.91016 15.5518 2.12891Q17.3535 1.34766 18.7305-0.0292969Q20.1074-1.40625 20.8887-3.20801Q21.6699-5.00977 21.6699-7.05078Q21.6699-9.0918 20.8887-10.8936Q20.1074-12.6953 18.7305-14.0723Q17.3535-15.4492 15.5469-16.2305Q13.7402-17.0117 11.6992-17.0117Q9.6582-17.0117 7.85645-16.2305Q6.05469-15.4492 4.68262-14.0723Q3.31055-12.6953 2.5293-10.8936Q1.74805-9.0918 1.74805-7.05078Q1.74805-5.00977 2.5293-3.20801Q3.31055-1.40625 4.6875-0.0292969Q6.06445 1.34766 7.86621 2.12891Q9.66797 2.91016 11.709 2.91016ZM11.709 1.25Q9.98047 1.25 8.47656 0.605469Q6.97266-0.0390625 5.83496-1.17676Q4.69727-2.31445 4.05762-3.81836Q3.41797-5.32227 3.41797-7.05078Q3.41797-8.7793 4.05762-10.2832Q4.69727-11.7871 5.83008-12.9297Q6.96289-14.0723 8.4668-14.7119Q9.9707-15.3516 11.6992-15.3516Q13.4277-15.3516 14.9316-14.7119Q16.4355-14.0723 17.5781-12.9297Q18.7207-11.7871 19.3652-10.2832Q20.0098-8.7793 20.0098-7.05078Q20.0098-5.32227 19.3701-3.81836Q18.7305-2.31445 17.5928-1.17676Q16.4551-0.0390625 14.9463 0.605469Q13.4375 1.25 11.709 1.25ZM7.17773-7.05078Q7.17773-6.69922 7.41211-6.47461Q7.64648-6.25 8.01758-6.25L10.8887-6.25L10.8887-3.36914Q10.8887-2.99805 11.1133-2.76855Q11.3379-2.53906 11.6895-2.53906Q12.0605-2.53906 12.29-2.76855Q12.5195-2.99805 12.5195-3.36914L12.5195-6.25L15.4004-6.25Q15.7715-6.25 16.001-6.47461Q16.2305-6.69922 16.2305-7.05078Q16.2305-7.42188 16.001-7.65137Q15.7715-7.88086 15.4004-7.88086L12.5195-7.88086L12.5195-10.752Q12.5195-11.1328 12.29-11.3623Q12.0605-11.5918 11.6895-11.5918Q11.3379-11.5918 11.1133-11.3574Q10.8887-11.123 10.8887-10.752L10.8887-7.88086L8.01758-7.88086Q7.63672-7.88086 7.40723-7.65137Q7.17773-7.42188 7.17773-7.05078Z"/>
  </g>
  <g transform="matrix(1 0 0 1 305.646 1933)">
   <path d="M14.9707 5.66406Q17.0605 5.66406 18.96 5.01465Q20.8594 4.36523 22.4512 3.19336Q24.043 2.02148 25.2197 0.429688Q26.3965-1.16211 27.0459-3.06641Q27.6953-4.9707 27.6953-7.05078Q27.6953-9.14062 27.0459-11.04Q26.3965-12.9395 25.2197-14.5312Q24.043-16.123 22.4512-17.2998Q20.8594-18.4766 18.9551-19.126Q17.0508-19.7754 14.9609-19.7754Q12.8711-19.7754 10.9717-19.126Q9.07227-18.4766 7.48535-17.2998Q5.89844-16.123 4.72168-14.5312Q3.54492-12.9395 2.90039-11.04Q2.25586-9.14062 2.25586-7.05078Q2.25586-4.9707 2.90527-3.06641Q3.55469-1.16211 4.72656 0.429688Q5.89844 2.02148 7.49023 3.19336Q9.08203 4.36523 10.9814 5.01465Q12.8809 5.66406 14.9707 5.66406ZM14.9707 3.84766Q13.1641 3.84766 11.5283 3.2959Q9.89258 2.74414 8.53516 1.74805Q7.17773 0.751953 6.17676-0.610352Q5.17578-1.97266 4.62891-3.6084Q4.08203-5.24414 4.08203-7.05078Q4.08203-8.86719 4.62891-10.5029Q5.17578-12.1387 6.17188-13.501Q7.16797-14.8633 8.52539-15.8594Q9.88281-16.8555 11.5186-17.4023Q13.1543-17.9492 14.9609-17.9492Q16.7773-17.9492 18.4131-17.4023Q20.0488-16.8555 21.4111-15.8594Q22.7734-14.8633 23.7695-13.501Q24.7656-12.1387 25.3174-10.5029Q25.8691-8.86719 25.8691-7.05078Q25.8789-5.24414 25.332-3.6084Q24.7852-1.97266 23.7842-0.610352Q22.7832 0.751953 21.4209 1.74805Q20.0586 2.74414 18.4229 3.2959Q16.7871 3.84766 14.9707 3.84766ZM9.19922-7.05078Q9.19922-6.66992 9.45801-6.4209Q9.7168-6.17188 10.1172-6.17188L14.0625-6.17188L14.0625-2.2168Q14.0625-1.81641 14.3115-1.55762Q14.5605-1.29883 14.9512-1.29883Q15.3516-1.29883 15.6104-1.55273Q15.8691-1.80664 15.8691-2.2168L15.8691-6.17188L19.8242-6.17188Q20.2246-6.17188 20.4785-6.4209Q20.7324-6.66992 20.7324-7.05078Q20.7324-7.46094 20.4785-7.71484Q20.2246-7.96875 19.8242-7.96875L15.8691-7.96875L15.8691-11.9141Q15.8691-12.3242 15.6104-12.583Q15.3516-12.8418 14.9512-12.8418Q14.5605-12.8418 14.3115-12.583Q14.0625-12.3242 14.0625-11.9141L14.0625-7.96875L10.1172-7.96875Q9.70703-7.96875 9.45312-7.71484Q9.19922-7.46094 9.19922-7.05078Z"/>
  </g>
  <text style="stroke:none;fill:black;font-family:sans-serif;font-size:13;font-weight:bold;" transform="matrix(1 0 0 1 263 1953)">Design Variations</text>
  <text style="stroke:none;fill:black;font-family:sans-serif;font-size:13;" transform="matrix(1 0 0 1 263 1971)">Symbols are supported in up to nine weights and three scales.</text>
  <text style="stroke:none;fill:black;font-family:sans-serif;font-size:13;" transform="matrix(1 0 0 1 263 1989)">For optimal layout with text and other symbols, vertically align</text>
  <text style="stroke:none;fill:black;font-family:sans-serif;font-size:13;" transform="matrix(1 0 0 1 263 2007)">symbols with the adjacent text.</text>
  <line style="fill:none;stroke:#00AEEF;stroke-width:0.5;opacity:1.0;" x1="776" x2="776" y1="1919" y2="1933"/>
  <g transform="matrix(1 0 0 1 776 1933)">
   <path d="M3.31055 0.15625Q3.70117 0.15625 3.91602-0.00976562Q4.13086-0.175781 4.26758-0.585938L5.52734-4.0332L11.2891-4.0332L12.5488-0.585938Q12.6855-0.175781 12.9004-0.00976562Q13.1152 0.15625 13.4961 0.15625Q13.8867 0.15625 14.1162-0.0585938Q14.3457-0.273438 14.3457-0.644531Q14.3457-0.869141 14.2383-1.17188L9.6582-13.3691Q9.48242-13.8184 9.17969-14.043Q8.87695-14.2676 8.4082-14.2676Q7.5-14.2676 7.17773-13.3789L2.59766-1.16211Q2.49023-0.859375 2.49023-0.634766Q2.49023-0.263672 2.70996-0.0537109Q2.92969 0.15625 3.31055 0.15625ZM6.00586-5.51758L8.37891-12.0898L8.42773-12.0898L10.8008-5.51758Z"/>
  </g>
  <line style="fill:none;stroke:#00AEEF;stroke-width:0.5;opacity:1.0;" x1="793.197" x2="793.197" y1="1919" y2="1933"/>
  <text style="stroke:none;fill:black;font-family:sans-serif;font-size:13;font-weight:bold;" transform="matrix(1 0 0 1 776 1953)">Margins</text>
  <text style="stroke:none;fill:black;font-family:sans-serif;font-size:13;" transform="matrix(1 0 0 1 776 1971)">Leading and trailing margins on the left and right side of each symbol</text>
  <text style="stroke:none;fill:black;font-family:sans-serif;font-size:13;" transform="matrix(1 0 0 1 776 1989)">can be adjusted by modifying the x-location of the margin guidelines.</text>
  <text style="stroke:none;fill:black;font-family:sans-serif;font-size:13;" transform="matrix(1 0 0 1 776 2007)">Modifications are automatically applied proportionally to all</text>
  <text style="stroke:none;fill:black;font-family:sans-serif;font-size:13;" transform="matrix(1 0 0 1 776 2025)">scales and weights.</text>
  <g transform="matrix(1 0 0 1 1289 1933)">
   <path d="M2.8418 1.86523L4.54102 3.57422Q5.18555 4.22852 5.90332 4.17969Q6.62109 4.13086 7.31445 3.35938L18.0078-8.42773L17.041-9.4043L6.42578 2.27539Q6.16211 2.57812 5.89355 2.61719Q5.625 2.65625 5.27344 2.30469L4.10156 1.14258Q3.75 0.791016 3.79395 0.522461Q3.83789 0.253906 4.14062-0.0195312L15.6152-10.8203L14.6387-11.7871L3.04688-0.898438Q2.30469-0.214844 2.25098 0.498047Q2.19727 1.21094 2.8418 1.86523ZM9.25781-16.3281Q8.94531-16.0254 8.90625-15.6348Q8.86719-15.2441 9.04297-14.9512Q9.21875-14.6777 9.55566-14.541Q9.89258-14.4043 10.3809-14.5215Q11.4746-14.7754 12.5977-14.7314Q13.7207-14.6875 14.7949-13.9844L14.209-12.5293Q13.9551-11.9043 14.0674-11.4404Q14.1797-10.9766 14.5801-10.5664L16.875-8.25195Q17.2363-7.88086 17.5781-7.82227Q17.9199-7.76367 18.3398-7.8418L19.4043-8.03711L20.0684-7.36328L20.0293-6.80664Q20-6.43555 20.1221-6.12305Q20.2441-5.81055 20.6055-5.44922L21.3672-4.70703Q21.7285-4.3457 22.1533-4.33105Q22.5781-4.31641 22.9297-4.66797L25.8398-7.58789Q26.1914-7.93945 26.1816-8.35449Q26.1719-8.76953 25.8105-9.13086L25.0391-9.89258Q24.6875-10.2539 24.3799-10.3857Q24.0723-10.5176 23.7109-10.4883L23.1348-10.4395L22.4902-11.0742L22.7344-12.1973Q22.832-12.6172 22.6953-12.9834Q22.5586-13.3496 22.1191-13.7891L19.9219-15.9766Q18.6719-17.2168 17.2607-17.8369Q15.8496-18.457 14.4189-18.4814Q12.9883-18.5059 11.665-17.959Q10.3418-17.4121 9.25781-16.3281ZM10.752-15.957Q11.6602-16.6211 12.7002-16.9043Q13.7402-17.1875 14.8047-17.085Q15.8691-16.9824 16.8701-16.5137Q17.8711-16.0449 18.7012-15.2051L21.1328-12.793Q21.3086-12.6172 21.3525-12.4512Q21.3965-12.2852 21.3379-12.0312L21.0156-10.5469L22.5195-9.0625L23.5059-9.12109Q23.6914-9.13086 23.7891-9.09668Q23.8867-9.0625 24.0332-8.91602L24.6094-8.33984L22.168-5.89844L21.5918-6.47461Q21.4453-6.62109 21.4062-6.71875Q21.3672-6.81641 21.377-7.01172L21.4453-7.98828L19.9512-9.47266L18.4277-9.21875Q18.1836-9.16992 18.042-9.2041Q17.9004-9.23828 17.7148-9.41406L15.7129-11.416Q15.5176-11.5918 15.4932-11.7529Q15.4688-11.9141 15.5859-12.1875L16.4648-14.2773Q15.293-15.3711 13.8281-15.791Q12.3633-16.2109 10.8398-15.7617Q10.7227-15.7324 10.6885-15.8057Q10.6543-15.8789 10.752-15.957Z"/>
  </g>
  <text style="stroke:none;fill:black;font-family:sans-serif;font-size:13;font-weight:bold;" transform="matrix(1 0 0 1 1289 1953)">Exporting</text>
  <text style="stroke:none;fill:black;font-family:sans-serif;font-size:13;" transform="matrix(1 0 0 1 1289 1971)">Symbols should be outlined when exporting to ensure the</text>
  <text style="stroke:none;fill:black;font-family:sans-serif;font-size:13;" transform="matrix(1 0 0 1 1289 1989)">design is preserved when submitting to Xcode.</text>
  <text id="template-version" style="stroke:none;fill:black;font-family:sans-serif;font-size:13;text-anchor:end;" transform="matrix(1 0 0 1 3036 1933)">Template v.3.0</text>
  <text style="stroke:none;fill:black;font-family:sans-serif;font-size:13;text-anchor:end;" transform="matrix(1 0 0 1 3036 1951)">Requires Xcode 13 or greater</text>
  <text id="descriptive-name" style="stroke:none;fill:black;font-family:sans-serif;font-size:13;text-anchor:end;" transform="matrix(1 0 0 1 3036 1969)">Generated from ivfluid.bag</text>
  <text style="stroke:none;fill:black;font-family:sans-serif;font-size:13;text-anchor:end;" transform="matrix(1 0 0 1 3036 1987)">Typeset at 100 points</text>
  <text style="stroke:none;fill:black;font-family:sans-serif;font-size:13;" transform="matrix(1 0 0 1 263 726)">Small</text>
  <text style="stroke:none;fill:black;font-family:sans-serif;font-size:13;" transform="matrix(1 0 0 1 263 1156)">Medium</text>
  <text style="stroke:none;fill:black;font-family:sans-serif;font-size:13;" transform="matrix(1 0 0 1 263 1586)">Large</text>
 </g>
 <g id="Guides">
  <g id="H-reference" style="fill:#27AAE1;stroke:none;" transform="matrix(1 0 0 1 339 696)">
   <path d="M0.993347 0L3.6377 0L29.3282-67.1326L30.0301-67.1326L30.0301-70.459L28.1227-70.459ZM11.6882-24.4797L46.9818-24.4797L46.2311-26.7288L12.4382-26.7288ZM55.1193 0L57.7637 0L30.6381-70.459L29.4327-70.459L29.4327-67.1326Z"/>
  </g>
  <line id="Baseline-S" style="fill:none;stroke:#27AAE1;opacity:1;stroke-width:0.5;" x1="263" x2="3036" y1="696" y2="696"/>
  <line id="Capline-S" style="fill:none;stroke:#27AAE1;opacity:1;stroke-width:0.5;" x1="263" x2="3036" y1="625.541" y2="625.541"/>
  <g id="H-reference" style="fill:#27AAE1;stroke:none;" transform="matrix(1 0 0 1 339 1126)">
   <path d="M0.993347 0L3.6377 0L29.3282-67.1326L30.0301-67.1326L30.0301-70.459L28.1227-70.459ZM11.6882-24.4797L46.9818-24.4797L46.2311-26.7288L12.4382-26.7288ZM55.1193 0L57.7637 0L30.6381-70.459L29.4327-70.459L29.4327-67.1326Z"/>
  </g>
  <line id="Baseline-M" style="fill:none;stroke:#27AAE1;opacity:1;stroke-width:0.5;" x1="263" x2="3036" y1="1126" y2="1126"/>
  <line id="Capline-M" style="fill:none;stroke:#27AAE1;opacity:1;stroke-width:0.5;" x1="263" x2="3036" y1="1055.54" y2="1055.54"/>
  <g id="H-reference" style="fill:#27AAE1;stroke:none;" transform="matrix(1 0 0 1 339 1556)">
   <path d="M0.993347 0L3.6377 0L29.3282-67.1326L30.0301-67.1326L30.0301-70.459L28.1227-70.459ZM11.6882-24.4797L46.9818-24.4797L46.2311-26.7288L12.4382-26.7288ZM55.1193 0L57.7637 0L30.6381-70.459L29.4327-70.459L29.4327-67.1326Z"/>
  </g>
  <line id="Baseline-L" style="fill:none;stroke:#27AAE1;opacity:1;stroke-width:0.5;" x1="263" x2="3036" y1="1556" y2="1556"/>
  <line id="Capline-L" style="fill:none;stroke:#27AAE1;opacity:1;stroke-width:0.5;" x1="263" x2="3036" y1="1485.54" y2="1485.54"/>
  <line id="left-margin-Ultralight-S" style="fill:none;stroke:#00AEEF;stroke-width:0.5;opacity:1.0;" x1="525.803" x2="525.803" y1="600.785" y2="720.121"/>
  <line id="right-margin-Ultralight-S" style="fill:none;stroke:#00AEEF;stroke-width:0.5;opacity:1.0;" x1="593.62" x2="593.62" y1="600.785" y2="720.121"/>
  <line id="left-margin-Regular-S" style="fill:none;stroke:#00AEEF;stroke-width:0.5;opacity:1.0;" x1="1410.78" x2="1410.78" y1="600.785" y2="720.121"/>
  <line id="right-margin-Regular-S" style="fill:none;stroke:#00AEEF;stroke-width:0.5;opacity:1.0;" x1="1488.91" x2="1488.91" y1="600.785" y2="720.121"/>
  <line id="left-margin-Black-S" style="fill:none;stroke:#00AEEF;stroke-width:0.5;opacity:1.0;" x1="2889.8" x2="2889.8" y1="600.785" y2="720.121"/>
  <line id="right-margin-Black-S" style="fill:none;stroke:#00AEEF;stroke-width:0.5;opacity:1.0;" x1="2977" x2="2977" y1="600.785" y2="720.121"/>
 </g>
 <g id="Symbols">
  <g id="Black-S" transform="matrix(1 0 0 1 2889.8 696)">
   <path class="multicolor-0:tertiaryLabelColor SFSymbolsPreviewBDBDBD" d="M25 4.58984L62.207 4.58984Q69.3848 4.58984 73.4131 0.561523Q77.4414-3.4668 77.4414-10.6445L77.4414-65.8691Q77.4414-73.0469 73.4131-77.0752Q69.3848-81.1035 62.207-81.1035L54.6387-81.1035L54.6387-81.2012Q54.6387-86.1328 51.6113-89.1357Q48.584-92.1387 43.6035-92.1387Q38.623-92.1387 35.5957-89.1357Q32.5684-86.1328 32.5684-81.2012L32.5684-81.1035L25-81.1035Q17.8223-81.1035 13.7939-77.0752Q9.76562-73.0469 9.76562-65.8691L9.76562-10.6445Q9.76562-3.4668 13.7939 0.561523Q17.8223 4.58984 25 4.58984ZM27.2461-9.57031Q25.7324-9.57031 24.8291-10.4736Q23.9258-11.377 23.9258-12.8906L23.9258-63.623Q23.9258-65.1367 24.8291-66.04Q25.7324-66.9434 27.2461-66.9434L59.9609-66.9434Q61.4746-66.9434 62.3779-66.04Q63.2812-65.1367 63.2812-63.623L63.2812-12.8906Q63.2812-11.377 62.3779-10.4736Q61.4746-9.57031 59.9609-9.57031ZM51.9531 21.5332L70.9961 21.5332Q73.6816 21.5332 75.5615 19.6533Q77.4414 17.7734 77.4414 15.0879Q77.4414 12.3535 75.5615 10.4736Q73.6816 8.59375 70.9961 8.59375L52.4414 8.59375Q50.9277 8.59375 50.0732 7.83691Q49.2188 7.08008 49.2188 5.76172L49.2188-2.29492L36.2305-2.29492L36.2305 6.25Q36.2305 13.4766 40.4053 17.5049Q44.5801 21.5332 51.9531 21.5332ZM43.6523-78.418Q42.5293-78.418 41.7236-79.2236Q40.918-80.0293 40.918-81.1523Q40.918-82.2754 41.7236-83.0566Q42.5293-83.8379 43.6523-83.8379Q44.7754-83.8379 45.5566-83.0566Q46.3379-82.2754 46.3379-81.1523Q46.3379-80.0293 45.5566-79.2236Q44.7754-78.418 43.6523-78.418Z"/>
   <path class="multicolor-1:systemPurpleColor SFSymbolsPreviewAF52DE" d="M32.1777-14.4531L55.0293-14.4531Q56.5918-14.4531 57.4951-15.332Q58.3984-16.2109 58.3984-17.7246L58.3984-52.7344Q58.3984-54.2969 57.4951-55.1514Q56.5918-56.0059 55.0293-56.0059L32.1777-56.0059Q30.6152-56.0059 29.7119-55.1514Q28.8086-54.2969 28.8086-52.7344L28.8086-17.7246Q28.8086-16.2109 29.7119-15.332Q30.6152-14.4531 32.1777-14.4531Z"/>
   <path class="multicolor-2:white SFSymbolsPreviewFFFFFF" d="M43.6523-37.1582Q41.6992-37.1582 40.2588-38.5498Q38.8184-39.9414 38.8184-41.8945Q38.8184-43.0176 39.2822-44.0918Q39.7461-45.166 40.2832-46.1426L42.2363-49.6582Q42.9199-50.8301 43.6768-50.8545Q44.4336-50.8789 45.0684-49.6582L46.9727-46.1426Q47.5098-45.166 47.9736-44.0918Q48.4375-43.0176 48.4375-41.8945Q48.4375-39.9414 47.0459-38.5498Q45.6543-37.1582 43.6523-37.1582ZM36.6211-28.5156Q35.6445-28.5156 34.9854-29.1992Q34.3262-29.8828 34.3262-30.8594Q34.3262-31.8359 34.9854-32.4707Q35.6445-33.1055 36.6211-33.1055L50.5859-33.1055Q51.5625-33.1055 52.2217-32.4707Q52.8809-31.8359 52.8809-30.8594Q52.8809-29.8828 52.2217-29.1992Q51.5625-28.5156 50.5859-28.5156ZM39.209-20.1172Q38.2324-20.1172 37.5732-20.7275Q36.9141-21.3379 36.9141-22.2656Q36.9141-23.2422 37.5732-23.9258Q38.2324-24.6094 39.209-24.6094L48.0469-24.6094Q49.0723-24.6094 49.707-23.9258Q50.3418-23.2422 50.3418-22.2656Q50.3418-21.3379 49.707-20.7275Q49.0723-20.1172 48.0469-20.1172Z"/>
  </g>
  <g id="Regular-S" transform="matrix(1 0 0 1 1410.78 696)">
   <path class="multicolor-0:tertiaryLabelColor SFSymbolsPreviewBDBDBD" d="M20.9473-0.634766L57.1777-0.634766Q62.4512-0.634766 65.4053-3.66211Q68.3594-6.68945 68.3594-12.0117L68.3594-67.6758Q68.3594-73.0469 65.4053-76.0498Q62.4512-79.0527 57.1777-79.0527L47.6074-79.0527L47.6074-79.1992Q47.6074-83.0078 45.2637-85.3516Q42.9199-87.6953 39.0625-87.7441Q35.2051-87.6953 32.8613-85.3516Q30.5176-83.0078 30.5176-79.1992L30.5176-79.0527L20.9473-79.0527Q15.625-79.0527 12.6953-76.0498Q9.76562-73.0469 9.76562-67.6758L9.76562-12.0117Q9.76562-6.68945 12.6953-3.66211Q15.625-0.634766 20.9473-0.634766ZM21.3379-7.95898Q19.2871-7.95898 18.1885-9.05762Q17.0898-10.1562 17.0898-12.1094L17.0898-67.5781Q17.0898-69.5312 18.1885-70.6299Q19.2871-71.7285 21.3379-71.7285L56.7871-71.7285Q58.8379-71.7285 59.9365-70.6299Q61.0352-69.5312 61.0352-67.5781L61.0352-12.1094Q61.0352-10.1562 59.9365-9.05762Q58.8379-7.95898 56.7871-7.95898ZM47.998 16.4551L65.1855 16.4551Q66.5039 16.4551 67.4316 15.5273Q68.3594 14.5996 68.3594 13.2812Q68.3594 11.9629 67.4316 11.0352Q66.5039 10.1074 65.1855 10.1074L47.998 10.1074Q44.8242 10.1074 43.1885 8.71582Q41.5527 7.32422 41.5527 4.10156L41.5527-5.56641L35.2051-5.56641L35.2051 4.10156Q35.2051 9.96094 38.6963 13.208Q42.1875 16.4551 47.998 16.4551ZM39.0625-75.9766Q37.793-75.9766 36.9141-76.8799Q36.0352-77.7832 36.0352-79.1016Q36.0352-80.3711 36.9141-81.2744Q37.793-82.1777 39.0625-82.1777Q40.332-82.1777 41.2109-81.2744Q42.0898-80.3711 42.0898-79.1016Q42.0898-77.7832 41.2109-76.8799Q40.332-75.9766 39.0625-75.9766Z"/>
   <path class="multicolor-1:systemPurpleColor SFSymbolsPreviewAF52DE" d="M26.1719-13.1348L52.002-13.1348Q53.7598-13.1348 54.834-14.1846Q55.9082-15.2344 55.9082-16.9434L55.9082-58.8867Q55.9082-60.5957 54.834-61.6455Q53.7598-62.6953 52.002-62.6953L26.1719-62.6953Q24.3652-62.6953 23.291-61.6455Q22.2168-60.5957 22.2168-58.8867L22.2168-16.9434Q22.2168-15.2344 23.291-14.1846Q24.3652-13.1348 26.1719-13.1348Z"/>
   <path class="multicolor-2:white SFSymbolsPreviewFFFFFF" d="M39.0625-38.4277Q36.5723-38.4277 34.7656-40.1367Q32.959-41.8457 32.959-44.3848Q32.959-45.752 33.5693-47.1191Q34.1797-48.4863 34.8633-49.707L37.8906-55.3223Q38.4277-56.3477 39.0625-56.3721Q39.6973-56.3965 40.2344-55.3223L43.2617-49.707Q43.9453-48.4863 44.5557-47.1191Q45.166-45.752 45.166-44.3848Q45.166-41.8457 43.3594-40.1367Q41.5527-38.4277 39.0625-38.4277ZM31.4453-28.9062Q30.5176-28.9062 29.9316-29.4922Q29.3457-30.0781 29.3457-30.957Q29.3457-31.8359 29.9316-32.4219Q30.5176-33.0078 31.4453-33.0078L46.7285-33.0078Q47.6562-33.0078 48.2178-32.4219Q48.7793-31.8359 48.7793-30.957Q48.7793-30.0781 48.2178-29.4922Q47.6562-28.9062 46.7285-28.9062ZM34.4238-20.6543Q33.4961-20.6543 32.9346-21.2646Q32.373-21.875 32.373-22.7051Q32.373-23.584 32.9346-24.1943Q33.4961-24.8047 34.4238-24.8047L43.75-24.8047Q44.6289-24.8047 45.1904-24.1943Q45.752-23.584 45.752-22.7051Q45.752-21.875 45.1904-21.2646Q44.6289-20.6543 43.75-20.6543Z"/>
  </g>
  <g id="Ultralight-S" transform="matrix(1 0 0 1 525.803 696)">
   <path class="multicolor-0:tertiaryLabelColor SFSymbolsPreviewBDBDBD" d="M17.5873-7.58209L50.2304-7.58209Q54.0504-7.58209 56.0509-9.63326Q58.0513-11.6844 58.0513-15.6448L58.0513-65.6776Q58.0513-69.6411 56.0509-71.6679Q54.0504-73.6946 50.2304-73.6946L37.6175-73.6946L37.6175-74.6582Q37.6175-76.1963 36.5452-77.2915Q35.4729-78.3867 33.931-78.3897Q32.3441-78.3867 31.2492-77.2915Q30.1544-76.1963 30.1544-74.6582L30.1544-73.6946L17.5873-73.6946Q13.7634-73.6946 11.7645-71.6679Q9.76562-69.6411 9.76562-65.6776L9.76562-15.6448Q9.76562-11.6844 11.7645-9.63326Q13.7634-7.58209 17.5873-7.58209ZM17.614-9.77554Q14.7919-9.77554 13.3751-11.2602Q11.9583-12.7449 11.9583-15.6517L11.9583-65.6708Q11.9583-68.5776 13.3751-70.0623Q14.7919-71.5469 17.614-71.5469L50.2029-71.5469Q53.0258-71.5469 54.4647-70.0623Q55.9036-68.5776 55.9036-65.6708L55.9036-15.6517Q55.9036-12.7449 54.4647-11.2602Q53.0258-9.77554 50.2029-9.77554ZM42.5491 8.05435L56.9664 8.05435Q57.4219 8.05435 57.7366 7.73964Q58.0513 7.42493 58.0513 6.96945Q58.0513 6.51398 57.7366 6.19926Q57.4219 5.88455 56.9664 5.88455L42.5491 5.88455Q38.8298 5.88455 36.9217 4.06151Q35.0136 2.23846 35.0136-1.34735L35.0136-8.65402L32.798-8.65402L32.798-1.34735Q32.798 3.1044 35.3584 5.57938Q37.9189 8.05435 42.5491 8.05435ZM33.931-73.0247Q33.2069-73.0247 32.7366-73.4966Q32.2662-73.9685 32.2662-74.6513Q32.2662-75.2853 32.7366-75.7572Q33.2069-76.2291 33.931-76.2291Q34.565-76.2291 35.0353-75.7572Q35.5057-75.2853 35.5057-74.6513Q35.5057-73.9685 35.0353-73.4966Q34.565-73.0247 33.931-73.0247Z"/>
   <path class="multicolor-1:systemPurpleColor SFSymbolsPreviewAF52DE" d="M21.949-16.2224L45.9167-16.2224Q47.493-16.2224 48.4764-17.1814Q49.4598-18.1404 49.4598-19.6678L49.4598-57.7515Q49.4598-59.3239 48.4764-60.2604Q47.493-61.1969 45.9167-61.1969L21.949-61.1969Q20.369-61.1969 19.3855-60.2604Q18.4021-59.3239 18.4021-57.7515L18.4021-19.6678Q18.4021-18.1404 19.3855-17.1814Q20.369-16.2224 21.949-16.2224Z"/>
   <path class="multicolor-2:white SFSymbolsPreviewFFFFFF" d="M33.931-37.4741Q31.5315-37.4741 29.7932-39.1151Q28.0548-40.7562 28.0548-43.1587Q28.0548-44.5709 28.6198-45.8702Q29.1847-47.1695 29.8683-48.3444L33.3046-54.7318Q33.5236-55.1216 33.9085-55.1231Q34.2934-55.1247 34.5131-54.6867L37.9486-48.3444Q38.6322-47.1695 39.1972-45.8702Q39.7621-44.5709 39.7621-43.1587Q39.7621-40.7562 38.0463-39.1151Q36.3304-37.4741 33.931-37.4741ZM26.2688-30.3139Q25.795-30.3139 25.4814-30.6046Q25.1678-30.8952 25.1678-31.3202Q25.1678-31.7451 25.4814-32.0587Q25.795-32.3723 26.2688-32.3723L42.1425-32.3723Q42.6155-32.3723 42.9047-32.0587Q43.1938-31.7451 43.1938-31.3202Q43.1938-30.8952 42.9047-30.6046Q42.6155-30.3139 42.1425-30.3139ZM28.7025-23.3788Q28.2288-23.3788 27.9396-23.6938Q27.6505-24.0089 27.6505-24.4308Q27.6505-24.8558 27.9396-25.148Q28.2288-25.4402 28.7025-25.4402L39.209-25.4402Q39.679-25.4402 39.9681-25.148Q40.2573-24.8558 40.2573-24.4308Q40.2573-24.0089 39.9681-23.6938Q39.679-23.3788 39.209-23.3788Z"/>
  </g>
 </g>
</svg>
