<?xml version="1.0" encoding="UTF-8"?>
<!--Generator: Apple Native CoreSVG 175-->
<!DOCTYPE svg
PUBLIC "-//W3C//DTD SVG 1.1//EN"
       "http://www.w3.org/Graphics/SVG/1.1/DTD/svg11.dtd">
<svg version="1.1" xmlns="http://www.w3.org/2000/svg" xmlns:xlink="http://www.w3.org/1999/xlink" width="3300" height="2200">
 <!--glyph: "uni1007C0.medium", point size: 100.0, font version: "17.1d1e1", template writer version: "65.1"-->
 <g id="Notes">
  <rect height="2200" id="artboard" style="fill:white;opacity:1" width="3300" x="0" y="0"/>
  <line style="fill:none;stroke:black;opacity:1;stroke-width:0.5;" x1="263" x2="3036" y1="292" y2="292"/>
  <text style="stroke:none;fill:black;font-family:sans-serif;font-size:13;font-weight:bold;" transform="matrix(1 0 0 1 263 322)">Weight/Scale Variations</text>
  <text style="stroke:none;fill:black;font-family:sans-serif;font-size:13;text-anchor:middle;" transform="matrix(1 0 0 1 559.711 322)">Ultralight</text>
  <text style="stroke:none;fill:black;font-family:sans-serif;font-size:13;text-anchor:middle;" transform="matrix(1 0 0 1 856.422 322)">Thin</text>
  <text style="stroke:none;fill:black;font-family:sans-serif;font-size:13;text-anchor:middle;" transform="matrix(1 0 0 1 1153.13 322)">Light</text>
  <text style="stroke:none;fill:black;font-family:sans-serif;font-size:13;text-anchor:middle;" transform="matrix(1 0 0 1 1449.84 322)">Regular</text>
  <text style="stroke:none;fill:black;font-family:sans-serif;font-size:13;text-anchor:middle;" transform="matrix(1 0 0 1 1746.56 322)">Medium</text>
  <text style="stroke:none;fill:black;font-family:sans-serif;font-size:13;text-anchor:middle;" transform="matrix(1 0 0 1 2043.27 322)">Semibold</text>
  <text style="stroke:none;fill:black;font-family:sans-serif;font-size:13;text-anchor:middle;" transform="matrix(1 0 0 1 2339.98 322)">Bold</text>
  <text style="stroke:none;fill:black;font-family:sans-serif;font-size:13;text-anchor:middle;" transform="matrix(1 0 0 1 2636.69 322)">Heavy</text>
  <text style="stroke:none;fill:black;font-family:sans-serif;font-size:13;text-anchor:middle;" transform="matrix(1 0 0 1 2933.4 322)">Black</text>
  <line style="fill:none;stroke:black;opacity:1;stroke-width:0.5;" x1="263" x2="3036" y1="1903" y2="1903"/>
  <g transform="matrix(1 0 0 1 263 1933)">
   <path d="M9.24805 0.830078Q10.8691 0.830078 12.2949 0.214844Q13.7207-0.400391 14.8096-1.49414Q15.8984-2.58789 16.5186-4.01367Q17.1387-5.43945 17.1387-7.05078Q17.1387-8.66211 16.5186-10.0879Q15.8984-11.5137 14.8047-12.6074Q13.7109-13.7012 12.2852-14.3164Q10.8594-14.9316 9.23828-14.9316Q7.62695-14.9316 6.20117-14.3164Q4.77539-13.7012 3.69141-12.6074Q2.60742-11.5137 1.9873-10.0879Q1.36719-8.66211 1.36719-7.05078Q1.36719-5.43945 1.9873-4.01367Q2.60742-2.58789 3.69629-1.49414Q4.78516-0.400391 6.21094 0.214844Q7.63672 0.830078 9.24805 0.830078ZM9.24805-0.654297Q7.91992-0.654297 6.7627-1.14746Q5.60547-1.64062 4.73145-2.51953Q3.85742-3.39844 3.36426-4.56055Q2.87109-5.72266 2.87109-7.05078Q2.87109-8.37891 3.35938-9.54102Q3.84766-10.7031 4.72168-11.582Q5.5957-12.4609 6.75293-12.9541Q7.91016-13.4473 9.23828-13.4473Q10.5762-13.4473 11.7334-12.9541Q12.8906-12.4609 13.7695-11.582Q14.6484-10.7031 15.1465-9.54102Q15.6445-8.37891 15.6445-7.05078Q15.6445-5.72266 15.1514-4.56055Q14.6582-3.39844 13.7842-2.51953Q12.9102-1.64062 11.748-1.14746Q10.5859-0.654297 9.24805-0.654297ZM5.6543-7.05078Q5.6543-6.72852 5.85938-6.52832Q6.06445-6.32812 6.40625-6.32812L8.51562-6.32812L8.51562-4.20898Q8.51562-3.88672 8.71094-3.67676Q8.90625-3.4668 9.23828-3.4668Q9.56055-3.4668 9.77051-3.67676Q9.98047-3.88672 9.98047-4.20898L9.98047-6.32812L12.0898-6.32812Q12.4219-6.32812 12.627-6.52832Q12.832-6.72852 12.832-7.05078Q12.832-7.38281 12.627-7.58789Q12.4219-7.79297 12.0898-7.79297L9.98047-7.79297L9.98047-9.90234Q9.98047-10.2344 9.77051-10.4443Q9.56055-10.6543 9.23828-10.6543Q8.90625-10.6543 8.71094-10.4443Q8.51562-10.2344 8.51562-9.90234L8.51562-7.79297L6.40625-7.79297Q6.06445-7.79297 5.85938-7.58789Q5.6543-7.38281 5.6543-7.05078Z"/>
  </g>
  <g transform="matrix(1 0 0 1 281.867 1933)">
   <path d="M11.709 2.91016Q13.75 2.91016 15.5518 2.12891Q17.3535 1.34766 18.7305-0.0292969Q20.1074-1.40625 20.8887-3.20801Q21.6699-5.00977 21.6699-7.05078Q21.6699-9.0918 20.8887-10.8936Q20.1074-12.6953 18.7305-14.0723Q17.3535-15.4492 15.5469-16.2305Q13.7402-17.0117 11.6992-17.0117Q9.6582-17.0117 7.85645-16.2305Q6.05469-15.4492 4.68262-14.0723Q3.31055-12.6953 2.5293-10.8936Q1.74805-9.0918 1.74805-7.05078Q1.74805-5.00977 2.5293-3.20801Q3.31055-1.40625 4.6875-0.0292969Q6.06445 1.34766 7.86621 2.12891Q9.66797 2.91016 11.709 2.91016ZM11.709 1.25Q9.98047 1.25 8.47656 0.605469Q6.97266-0.0390625 5.83496-1.17676Q4.69727-2.31445 4.05762-3.81836Q3.41797-5.32227 3.41797-7.05078Q3.41797-8.7793 4.05762-10.2832Q4.69727-11.7871 5.83008-12.9297Q6.96289-14.0723 8.4668-14.7119Q9.9707-15.3516 11.6992-15.3516Q13.4277-15.3516 14.9316-14.7119Q16.4355-14.0723 17.5781-12.9297Q18.7207-11.7871 19.3652-10.2832Q20.0098-8.7793 20.0098-7.05078Q20.0098-5.32227 19.3701-3.81836Q18.7305-2.31445 17.5928-1.17676Q16.4551-0.0390625 14.9463 0.605469Q13.4375 1.25 11.709 1.25ZM7.17773-7.05078Q7.17773-6.69922 7.41211-6.47461Q7.64648-6.25 8.01758-6.25L10.8887-6.25L10.8887-3.36914Q10.8887-2.99805 11.1133-2.76855Q11.3379-2.53906 11.6895-2.53906Q12.0605-2.53906 12.29-2.76855Q12.5195-2.99805 12.5195-3.36914L12.5195-6.25L15.4004-6.25Q15.7715-6.25 16.001-6.47461Q16.2305-6.69922 16.2305-7.05078Q16.2305-7.42188 16.001-7.65137Q15.7715-7.88086 15.4004-7.88086L12.5195-7.88086L12.5195-10.752Q12.5195-11.1328 12.29-11.3623Q12.0605-11.5918 11.6895-11.5918Q11.3379-11.5918 11.1133-11.3574Q10.8887-11.123 10.8887-10.752L10.8887-7.88086L8.01758-7.88086Q7.63672-7.88086 7.40723-7.65137Q7.17773-7.42188 7.17773-7.05078Z"/>
  </g>
  <g transform="matrix(1 0 0 1 305.646 1933)">
   <path d="M14.9707 5.66406Q17.0605 5.66406 18.96 5.01465Q20.8594 4.36523 22.4512 3.19336Q24.043 2.02148 25.2197 0.429688Q26.3965-1.16211 27.0459-3.06641Q27.6953-4.9707 27.6953-7.05078Q27.6953-9.14062 27.0459-11.04Q26.3965-12.9395 25.2197-14.5312Q24.043-16.123 22.4512-17.2998Q20.8594-18.4766 18.9551-19.126Q17.0508-19.7754 14.9609-19.7754Q12.8711-19.7754 10.9717-19.126Q9.07227-18.4766 7.48535-17.2998Q5.89844-16.123 4.72168-14.5312Q3.54492-12.9395 2.90039-11.04Q2.25586-9.14062 2.25586-7.05078Q2.25586-4.9707 2.90527-3.06641Q3.55469-1.16211 4.72656 0.429688Q5.89844 2.02148 7.49023 3.19336Q9.08203 4.36523 10.9814 5.01465Q12.8809 5.66406 14.9707 5.66406ZM14.9707 3.84766Q13.1641 3.84766 11.5283 3.2959Q9.89258 2.74414 8.53516 1.74805Q7.17773 0.751953 6.17676-0.610352Q5.17578-1.97266 4.62891-3.6084Q4.08203-5.24414 4.08203-7.05078Q4.08203-8.86719 4.62891-10.5029Q5.17578-12.1387 6.17188-13.501Q7.16797-14.8633 8.52539-15.8594Q9.88281-16.8555 11.5186-17.4023Q13.1543-17.9492 14.9609-17.9492Q16.7773-17.9492 18.4131-17.4023Q20.0488-16.8555 21.4111-15.8594Q22.7734-14.8633 23.7695-13.501Q24.7656-12.1387 25.3174-10.5029Q25.8691-8.86719 25.8691-7.05078Q25.8789-5.24414 25.332-3.6084Q24.7852-1.97266 23.7842-0.610352Q22.7832 0.751953 21.4209 1.74805Q20.0586 2.74414 18.4229 3.2959Q16.7871 3.84766 14.9707 3.84766ZM9.19922-7.05078Q9.19922-6.66992 9.45801-6.4209Q9.7168-6.17188 10.1172-6.17188L14.0625-6.17188L14.0625-2.2168Q14.0625-1.81641 14.3115-1.55762Q14.5605-1.29883 14.9512-1.29883Q15.3516-1.29883 15.6104-1.55273Q15.8691-1.80664 15.8691-2.2168L15.8691-6.17188L19.8242-6.17188Q20.2246-6.17188 20.4785-6.4209Q20.7324-6.66992 20.7324-7.05078Q20.7324-7.46094 20.4785-7.71484Q20.2246-7.96875 19.8242-7.96875L15.8691-7.96875L15.8691-11.9141Q15.8691-12.3242 15.6104-12.583Q15.3516-12.8418 14.9512-12.8418Q14.5605-12.8418 14.3115-12.583Q14.0625-12.3242 14.0625-11.9141L14.0625-7.96875L10.1172-7.96875Q9.70703-7.96875 9.45312-7.71484Q9.19922-7.46094 9.19922-7.05078Z"/>
  </g>
  <text style="stroke:none;fill:black;font-family:sans-serif;font-size:13;font-weight:bold;" transform="matrix(1 0 0 1 263 1953)">Design Variations</text>
  <text style="stroke:none;fill:black;font-family:sans-serif;font-size:13;" transform="matrix(1 0 0 1 263 1971)">Symbols are supported in up to nine weights and three scales.</text>
  <text style="stroke:none;fill:black;font-family:sans-serif;font-size:13;" transform="matrix(1 0 0 1 263 1989)">For optimal layout with text and other symbols, vertically align</text>
  <text style="stroke:none;fill:black;font-family:sans-serif;font-size:13;" transform="matrix(1 0 0 1 263 2007)">symbols with the adjacent text.</text>
  <line style="fill:none;stroke:#00AEEF;stroke-width:0.5;opacity:1.0;" x1="776" x2="776" y1="1919" y2="1933"/>
  <g transform="matrix(1 0 0 1 776 1933)">
   <path d="M3.31055 0.15625Q3.70117 0.15625 3.91602-0.00976562Q4.13086-0.175781 4.26758-0.585938L5.52734-4.0332L11.2891-4.0332L12.5488-0.585938Q12.6855-0.175781 12.9004-0.00976562Q13.1152 0.15625 13.4961 0.15625Q13.8867 0.15625 14.1162-0.0585938Q14.3457-0.273438 14.3457-0.644531Q14.3457-0.869141 14.2383-1.17188L9.6582-13.3691Q9.48242-13.8184 9.17969-14.043Q8.87695-14.2676 8.4082-14.2676Q7.5-14.2676 7.17773-13.3789L2.59766-1.16211Q2.49023-0.859375 2.49023-0.634766Q2.49023-0.263672 2.70996-0.0537109Q2.92969 0.15625 3.31055 0.15625ZM6.00586-5.51758L8.37891-12.0898L8.42773-12.0898L10.8008-5.51758Z"/>
  </g>
  <line style="fill:none;stroke:#00AEEF;stroke-width:0.5;opacity:1.0;" x1="793.197" x2="793.197" y1="1919" y2="1933"/>
  <text style="stroke:none;fill:black;font-family:sans-serif;font-size:13;font-weight:bold;" transform="matrix(1 0 0 1 776 1953)">Margins</text>
  <text style="stroke:none;fill:black;font-family:sans-serif;font-size:13;" transform="matrix(1 0 0 1 776 1971)">Leading and trailing margins on the left and right side of each symbol</text>
  <text style="stroke:none;fill:black;font-family:sans-serif;font-size:13;" transform="matrix(1 0 0 1 776 1989)">can be adjusted by modifying the x-location of the margin guidelines.</text>
  <text style="stroke:none;fill:black;font-family:sans-serif;font-size:13;" transform="matrix(1 0 0 1 776 2007)">Modifications are automatically applied proportionally to all</text>
  <text style="stroke:none;fill:black;font-family:sans-serif;font-size:13;" transform="matrix(1 0 0 1 776 2025)">scales and weights.</text>
  <g transform="matrix(1 0 0 1 1289 1933)">
   <path d="M2.8418 1.86523L4.54102 3.57422Q5.18555 4.22852 5.90332 4.17969Q6.62109 4.13086 7.31445 3.35938L18.0078-8.42773L17.041-9.4043L6.42578 2.27539Q6.16211 2.57812 5.89355 2.61719Q5.625 2.65625 5.27344 2.30469L4.10156 1.14258Q3.75 0.791016 3.79395 0.522461Q3.83789 0.253906 4.14062-0.0195312L15.6152-10.8203L14.6387-11.7871L3.04688-0.898438Q2.30469-0.214844 2.25098 0.498047Q2.19727 1.21094 2.8418 1.86523ZM9.25781-16.3281Q8.94531-16.0254 8.90625-15.6348Q8.86719-15.2441 9.04297-14.9512Q9.21875-14.6777 9.55566-14.541Q9.89258-14.4043 10.3809-14.5215Q11.4746-14.7754 12.5977-14.7314Q13.7207-14.6875 14.7949-13.9844L14.209-12.5293Q13.9551-11.9043 14.0674-11.4404Q14.1797-10.9766 14.5801-10.5664L16.875-8.25195Q17.2363-7.88086 17.5781-7.82227Q17.9199-7.76367 18.3398-7.8418L19.4043-8.03711L20.0684-7.36328L20.0293-6.80664Q20-6.43555 20.1221-6.12305Q20.2441-5.81055 20.6055-5.44922L21.3672-4.70703Q21.7285-4.3457 22.1533-4.33105Q22.5781-4.31641 22.9297-4.66797L25.8398-7.58789Q26.1914-7.93945 26.1816-8.35449Q26.1719-8.76953 25.8105-9.13086L25.0391-9.89258Q24.6875-10.2539 24.3799-10.3857Q24.0723-10.5176 23.7109-10.4883L23.1348-10.4395L22.4902-11.0742L22.7344-12.1973Q22.832-12.6172 22.6953-12.9834Q22.5586-13.3496 22.1191-13.7891L19.9219-15.9766Q18.6719-17.2168 17.2607-17.8369Q15.8496-18.457 14.4189-18.4814Q12.9883-18.5059 11.665-17.959Q10.3418-17.4121 9.25781-16.3281ZM10.752-15.957Q11.6602-16.6211 12.7002-16.9043Q13.7402-17.1875 14.8047-17.085Q15.8691-16.9824 16.8701-16.5137Q17.8711-16.0449 18.7012-15.2051L21.1328-12.793Q21.3086-12.6172 21.3525-12.4512Q21.3965-12.2852 21.3379-12.0312L21.0156-10.5469L22.5195-9.0625L23.5059-9.12109Q23.6914-9.13086 23.7891-9.09668Q23.8867-9.0625 24.0332-8.91602L24.6094-8.33984L22.168-5.89844L21.5918-6.47461Q21.4453-6.62109 21.4062-6.71875Q21.3672-6.81641 21.377-7.01172L21.4453-7.98828L19.9512-9.47266L18.4277-9.21875Q18.1836-9.16992 18.042-9.2041Q17.9004-9.23828 17.7148-9.41406L15.7129-11.416Q15.5176-11.5918 15.4932-11.7529Q15.4688-11.9141 15.5859-12.1875L16.4648-14.2773Q15.293-15.3711 13.8281-15.791Q12.3633-16.2109 10.8398-15.7617Q10.7227-15.7324 10.6885-15.8057Q10.6543-15.8789 10.752-15.957Z"/>
  </g>
  <text style="stroke:none;fill:black;font-family:sans-serif;font-size:13;font-weight:bold;" transform="matrix(1 0 0 1 1289 1953)">Exporting</text>
  <text style="stroke:none;fill:black;font-family:sans-serif;font-size:13;" transform="matrix(1 0 0 1 1289 1971)">Symbols should be outlined when exporting to ensure the</text>
  <text style="stroke:none;fill:black;font-family:sans-serif;font-size:13;" transform="matrix(1 0 0 1 1289 1989)">design is preserved when submitting to Xcode.</text>
  <text id="template-version" style="stroke:none;fill:black;font-family:sans-serif;font-size:13;text-anchor:end;" transform="matrix(1 0 0 1 3036 1933)">Template v.3.0</text>
  <text style="stroke:none;fill:black;font-family:sans-serif;font-size:13;text-anchor:end;" transform="matrix(1 0 0 1 3036 1951)">Requires Xcode 13 or greater</text>
  <text id="descriptive-name" style="stroke:none;fill:black;font-family:sans-serif;font-size:13;text-anchor:end;" transform="matrix(1 0 0 1 3036 1969)">Generated from ruler</text>
  <text style="stroke:none;fill:black;font-family:sans-serif;font-size:13;text-anchor:end;" transform="matrix(1 0 0 1 3036 1987)">Typeset at 100 points</text>
  <text style="stroke:none;fill:black;font-family:sans-serif;font-size:13;" transform="matrix(1 0 0 1 263 726)">Small</text>
  <text style="stroke:none;fill:black;font-family:sans-serif;font-size:13;" transform="matrix(1 0 0 1 263 1156)">Medium</text>
  <text style="stroke:none;fill:black;font-family:sans-serif;font-size:13;" transform="matrix(1 0 0 1 263 1586)">Large</text>
 </g>
 <g id="Guides">
  <g id="H-reference" style="fill:#27AAE1;stroke:none;" transform="matrix(1 0 0 1 339 696)">
   <path d="M0.993347 0L3.6377 0L29.3282-67.1326L30.0301-67.1326L30.0301-70.459L28.1227-70.459ZM11.6882-24.4797L46.9818-24.4797L46.2311-26.7288L12.4382-26.7288ZM55.1193 0L57.7637 0L30.6381-70.459L29.4327-70.459L29.4327-67.1326Z"/>
  </g>
  <line id="Baseline-S" style="fill:none;stroke:#27AAE1;opacity:1;stroke-width:0.5;" x1="263" x2="3036" y1="696" y2="696"/>
  <line id="Capline-S" style="fill:none;stroke:#27AAE1;opacity:1;stroke-width:0.5;" x1="263" x2="3036" y1="625.541" y2="625.541"/>
  <g id="H-reference" style="fill:#27AAE1;stroke:none;" transform="matrix(1 0 0 1 339 1126)">
   <path d="M0.993347 0L3.6377 0L29.3282-67.1326L30.0301-67.1326L30.0301-70.459L28.1227-70.459ZM11.6882-24.4797L46.9818-24.4797L46.2311-26.7288L12.4382-26.7288ZM55.1193 0L57.7637 0L30.6381-70.459L29.4327-70.459L29.4327-67.1326Z"/>
  </g>
  <line id="Baseline-M" style="fill:none;stroke:#27AAE1;opacity:1;stroke-width:0.5;" x1="263" x2="3036" y1="1126" y2="1126"/>
  <line id="Capline-M" style="fill:none;stroke:#27AAE1;opacity:1;stroke-width:0.5;" x1="263" x2="3036" y1="1055.54" y2="1055.54"/>
  <g id="H-reference" style="fill:#27AAE1;stroke:none;" transform="matrix(1 0 0 1 339 1556)">
   <path d="M0.993347 0L3.6377 0L29.3282-67.1326L30.0301-67.1326L30.0301-70.459L28.1227-70.459ZM11.6882-24.4797L46.9818-24.4797L46.2311-26.7288L12.4382-26.7288ZM55.1193 0L57.7637 0L30.6381-70.459L29.4327-70.459L29.4327-67.1326Z"/>
  </g>
  <line id="Baseline-L" style="fill:none;stroke:#27AAE1;opacity:1;stroke-width:0.5;" x1="263" x2="3036" y1="1556" y2="1556"/>
  <line id="Capline-L" style="fill:none;stroke:#27AAE1;opacity:1;stroke-width:0.5;" x1="263" x2="3036" y1="1485.54" y2="1485.54"/>
  <line id="left-margin-Ultralight-S" style="fill:none;stroke:#00AEEF;stroke-width:0.5;opacity:1.0;" x1="505.602" x2="505.602" y1="600.785" y2="720.121"/>
  <line id="right-margin-Ultralight-S" style="fill:none;stroke:#00AEEF;stroke-width:0.5;opacity:1.0;" x1="613.82" x2="613.82" y1="600.785" y2="720.121"/>
  <line id="left-margin-Regular-S" style="fill:none;stroke:#00AEEF;stroke-width:0.5;opacity:1.0;" x1="1392.72" x2="1392.72" y1="600.785" y2="720.121"/>
  <line id="right-margin-Regular-S" style="fill:none;stroke:#00AEEF;stroke-width:0.5;opacity:1.0;" x1="1506.97" x2="1506.97" y1="600.785" y2="720.121"/>
  <line id="left-margin-Black-S" style="fill:none;stroke:#00AEEF;stroke-width:0.5;opacity:1.0;" x1="2870.83" x2="2870.83" y1="600.785" y2="720.121"/>
  <line id="right-margin-Black-S" style="fill:none;stroke:#00AEEF;stroke-width:0.5;opacity:1.0;" x1="2995.97" x2="2995.97" y1="600.785" y2="720.121"/>
 </g>
 <g id="Symbols">
  <g id="Black-S" transform="matrix(1 0 0 1 2870.83 696)">
   <path d="M115.381-47.3633Q115.381-53.2715 111.816-56.7383Q108.252-60.2051 102.295-60.2051L22.8027-60.2051Q16.8457-60.2051 13.3057-56.7383Q9.76562-53.2715 9.76562-47.3633L9.76562-23.1934Q9.76562-17.2852 13.3301-13.7695Q16.8945-10.2539 22.8516-10.2539L102.344-10.2539Q108.301-10.2539 111.841-13.7695Q115.381-17.2852 115.381-23.1934ZM103.223-45.7031L103.174-24.8047Q103.174-23.7305 102.563-23.0957Q101.953-22.4609 100.977-22.4609L24.1211-22.4609Q23.1445-22.4609 22.5342-23.0957Q21.9238-23.7305 21.9238-24.8047L21.9238-45.7031Q21.9238-46.7773 22.5586-47.4121Q23.1934-48.0469 24.1699-48.0469L101.025-48.0469Q102.002-48.0469 102.612-47.4121Q103.223-46.7773 103.223-45.7031ZM28.9062-50.5371L24.1699-50.5371L24.1699-31.8359Q24.1699-30.8594 24.9023-30.1758Q25.6348-29.4922 26.6113-29.4922Q27.6367-29.4922 28.2715-30.1758Q28.9062-30.8594 28.9062-31.8848ZM36.084-50.5371L31.3477-50.5371L31.3477-36.6211Q31.3477-35.6445 32.0801-34.9609Q32.8125-34.2773 33.7891-34.2773Q34.8145-34.2773 35.4492-34.9609Q36.084-35.6445 36.084-36.6699ZM43.2617-50.5371L38.5254-50.5371L38.5254-36.6211Q38.5254-35.6445 39.2578-34.9609Q39.9902-34.2773 40.9668-34.2773Q41.9922-34.2773 42.627-34.9609Q43.2617-35.6445 43.2617-36.6699ZM50.4395-50.5371L45.7031-50.5371L45.7031-36.6211Q45.7031-35.6445 46.4355-34.9609Q47.168-34.2773 48.1445-34.2773Q49.1699-34.2773 49.8047-34.9609Q50.4395-35.6445 50.4395-36.6699ZM57.6172-50.5371L52.8809-50.5371L52.8809-36.6211Q52.8809-35.6445 53.6133-34.9609Q54.3457-34.2773 55.3223-34.2773Q56.3477-34.2773 56.9824-34.9609Q57.6172-35.6445 57.6172-36.6699ZM64.7949-50.5371L60.0586-50.5371L60.0586-31.8359Q60.0586-30.8594 60.791-30.1758Q61.5234-29.4922 62.5-29.4922Q63.5254-29.4922 64.1602-30.1758Q64.7949-30.8594 64.7949-31.8848ZM71.9727-50.5371L67.2363-50.5371L67.2363-36.6211Q67.2363-35.6445 67.9688-34.9609Q68.7012-34.2773 69.6777-34.2773Q70.7031-34.2773 71.3379-34.9609Q71.9727-35.6445 71.9727-36.6699ZM79.1504-50.5371L74.4141-50.5371L74.4141-36.6211Q74.4141-35.6445 75.1465-34.9609Q75.8789-34.2773 76.8555-34.2773Q77.8809-34.2773 78.5156-34.9609Q79.1504-35.6445 79.1504-36.6699ZM86.3281-50.5371L81.5918-50.5371L81.5918-36.6211Q81.5918-35.6445 82.3242-34.9609Q83.0566-34.2773 84.0332-34.2773Q85.0586-34.2773 85.6934-34.9609Q86.3281-35.6445 86.3281-36.6699ZM93.5059-50.5371L88.7695-50.5371L88.7695-36.6211Q88.7695-35.6445 89.502-34.9609Q90.2344-34.2773 91.2109-34.2773Q92.2363-34.2773 92.8711-34.9609Q93.5059-35.6445 93.5059-36.6699ZM100.684-50.5371L95.9473-50.5371L95.9473-31.8359Q95.9473-30.8594 96.6797-30.1758Q97.4121-29.4922 98.3887-29.4922Q99.4141-29.4922 100.049-30.1758Q100.684-30.8594 100.684-31.8848Z"/>
  </g>
  <g id="Regular-S" transform="matrix(1 0 0 1 1392.72 696)">
   <path d="M104.492-45.9473Q104.492-51.2207 101.807-53.8818Q99.1211-56.543 93.75-56.543L20.459-56.543Q15.0879-56.543 12.4268-53.8818Q9.76562-51.2207 9.76562-45.9473L9.81445-24.4629Q9.81445-19.1895 12.4756-16.5283Q15.1367-13.8672 20.5078-13.8672L93.7988-13.8672Q99.1699-13.8672 101.831-16.5283Q104.492-19.1895 104.492-24.4629ZM97.4121-44.6289L97.4121-25.7812Q97.4121-23.3887 96.167-22.1436Q94.9219-20.8984 92.627-20.8984L21.582-20.8984Q19.3359-20.8984 18.0908-22.1436Q16.8457-23.3887 16.8457-25.7812L16.8457-44.6289Q16.8457-47.0703 18.0908-48.291Q19.3359-49.5117 21.6309-49.5117L92.6758-49.5117Q94.9219-49.5117 96.167-48.291Q97.4121-47.0703 97.4121-44.6289ZM25.2441-51.9043L21.875-51.9043L21.875-31.2988Q21.875-30.5664 22.3633-30.1025Q22.8516-29.6387 23.5352-29.6387Q24.2676-29.6875 24.7314-30.1514Q25.1953-30.6152 25.1953-31.3477ZM31.9824-51.9043L28.6133-51.9043L28.6133-38.0371Q28.6133-37.3047 29.1016-36.8408Q29.5898-36.377 30.2734-36.377Q31.0059-36.4258 31.4697-36.8896Q31.9336-37.3535 31.9336-38.0859ZM38.6719-51.9043L35.3027-51.9043L35.3027-38.0371Q35.3027-37.3047 35.791-36.8408Q36.2793-36.377 36.9629-36.377Q37.6953-36.4258 38.1592-36.8896Q38.623-37.3535 38.623-38.0859ZM45.3613-51.9043L41.9922-51.9043L41.9922-38.0371Q41.9922-37.3047 42.4805-36.8408Q42.9688-36.377 43.6523-36.377Q44.4336-36.4258 44.873-36.8896Q45.3125-37.3535 45.3125-38.0859ZM52.0996-51.9043L48.7305-51.9043L48.7305-38.0371Q48.7305-37.3047 49.2188-36.8408Q49.707-36.377 50.3906-36.377Q51.1719-36.4258 51.6113-36.8896Q52.0508-37.3535 52.0508-38.0859ZM58.8867-51.9043L55.4688-51.9043L55.4688-31.2988Q55.4688-30.5664 55.957-30.1025Q56.4453-29.6387 57.1289-29.6387Q57.9102-29.6875 58.374-30.1514Q58.8379-30.6152 58.8379-31.3477ZM65.5762-51.9043L62.1582-51.9043L62.1582-38.0371Q62.1582-37.3047 62.6709-36.8408Q63.1836-36.377 63.8672-36.377Q64.5996-36.4258 65.0635-36.8896Q65.5273-37.3535 65.5273-38.0859ZM72.3145-51.9043L68.8965-51.9043L68.8965-38.0371Q68.8965-37.3047 69.4092-36.8408Q69.9219-36.377 70.6055-36.377Q71.3379-36.4258 71.8018-36.8896Q72.2656-37.3535 72.2656-38.0859ZM79.0039-51.9043L75.6348-51.9043L75.6348-38.0371Q75.6348-37.3047 76.123-36.8408Q76.6113-36.377 77.2949-36.377Q78.0273-36.4258 78.4912-36.8896Q78.9551-37.3535 78.9551-38.0859ZM85.7422-51.9043L82.373-51.9043L82.373-38.0371Q82.373-37.3047 82.8613-36.8408Q83.3496-36.377 84.0332-36.377Q84.7656-36.4258 85.2295-36.8896Q85.6934-37.3535 85.6934-38.0859ZM92.4805-51.9043L89.1113-51.9043L89.1113-31.2988Q89.1113-30.5664 89.5996-30.1025Q90.0879-29.6387 90.7715-29.6387Q91.5039-29.6875 91.9678-30.1514Q92.4316-30.6152 92.4316-31.3477Z"/>
  </g>
  <g id="Ultralight-S" transform="matrix(1 0 0 1 505.602 696)">
   <path d="M98.4528-44.3123Q98.4528-48.5413 96.085-50.9075Q93.7172-53.2738 89.4814-53.2738L18.7332-53.2738Q14.4974-53.2738 12.1315-50.9075Q9.76562-48.5413 9.76562-44.3123L9.76868-26.1887Q9.76868-21.9597 12.1349-19.5934Q14.5012-17.2272 18.737-17.2272L89.4852-17.2272Q93.721-17.2272 96.0869-19.5934Q98.4528-21.9597 98.4528-26.1887ZM96.2311-44.175L96.2311-26.326Q96.2311-23.0255 94.4187-21.2128Q92.6064-19.4 89.312-19.4L18.9026-19.4Q15.612-19.4 13.7993-21.2128Q11.9865-23.0255 11.9865-26.326L11.9865-44.175Q11.9865-47.4792 13.7993-49.2901Q15.612-51.1009 18.9064-51.1009L89.3158-51.1009Q92.6064-51.1009 94.4187-49.2901Q96.2311-47.4792 96.2311-44.175ZM20.9755-52.0859L18.969-52.0859L18.969-31.0715Q18.969-30.5664 19.2303-30.2841Q19.4916-30.0018 19.9478-30.0018Q20.4079-30.0056 20.6902-30.2876Q20.9724-30.5695 20.9724-31.0753ZM27.8046-52.0859L25.798-52.0859L25.798-37.674Q25.798-37.1681 26.0593-36.8862Q26.3206-36.6043 26.7769-36.6043Q27.2369-36.6074 27.5192-36.8896Q27.8015-37.1719 27.8015-37.677ZM34.6306-52.0859L32.6233-52.0859L32.6233-37.674Q32.6233-37.1681 32.9075-36.8862Q33.1917-36.6043 33.6029-36.6043Q34.0622-36.6074 34.3445-36.8896Q34.6268-37.1719 34.6268-37.677ZM41.4558-52.0859L39.4493-52.0859L39.4493-37.674Q39.4493-37.1681 39.7331-36.8862Q40.0169-36.6043 40.4282-36.6043Q40.8913-36.6074 41.172-36.8896Q41.4528-37.1719 41.4528-37.677ZM48.2849-52.0859L46.2784-52.0859L46.2784-37.674Q46.2784-37.1681 46.5622-36.8862Q46.846-36.6043 47.303-36.6043Q47.7211-36.6074 48.0015-36.8896Q48.2819-37.1719 48.2819-37.677ZM55.1628-52.0859L53.1532-52.0859L53.1532-31.0715Q53.1532-30.5664 53.437-30.2841Q53.7209-30.0018 54.1771-30.0018Q54.5952-30.0056 54.8775-30.2876Q55.1598-30.5695 55.1598-31.0753ZM61.9888-52.0859L59.9785-52.0859L59.9785-37.674Q59.9785-37.1681 60.2642-36.8862Q60.5499-36.6043 61.0062-36.6043Q61.4662-36.6074 61.7256-36.8896Q61.985-37.1719 61.985-37.677ZM68.8179-52.0859L66.8076-52.0859L66.8076-37.674Q66.8076-37.1681 67.0933-36.8862Q67.379-36.6043 67.8352-36.6043Q68.2953-36.6074 68.5551-36.8896Q68.8148-37.1719 68.8148-37.677ZM75.6439-52.0859L73.6366-52.0859L73.6366-37.674Q73.6366-37.1681 73.9204-36.8862Q74.2043-36.6043 74.6613-36.6043Q75.1213-36.6074 75.3807-36.8896Q75.6401-37.1719 75.6401-37.677ZM82.473-52.0859L80.4657-52.0859L80.4657-37.674Q80.4657-37.1681 80.7499-36.8862Q81.0341-36.6043 81.4903-36.6043Q81.9504-36.6074 82.2098-36.8896Q82.4692-37.1719 82.4692-37.677ZM89.2563-52.0859L87.2498-52.0859L87.2498-31.0715Q87.2498-30.5664 87.5336-30.2841Q87.8174-30.0018 88.2736-30.0018Q88.7337-30.0056 89.016-30.2876Q89.2982-30.5695 89.2982-31.0753Z"/>
  </g>
 </g>
</svg>
