<?xml version="1.0" encoding="UTF-8"?>
<!--Generator: Apple Native CoreSVG 175.5-->
<!DOCTYPE svg
PUBLIC "-//W3C//DTD SVG 1.1//EN"
       "http://www.w3.org/Graphics/SVG/1.1/DTD/svg11.dtd">
<svg version="1.1" xmlns="http://www.w3.org/2000/svg" xmlns:xlink="http://www.w3.org/1999/xlink" width="3300" height="2200">
 <!--glyph: "uni10105D.medium", point size: 100.0, font version: "18.0d10e1", template writer version: "90"-->
 <g id="Notes">
  <rect height="2200" id="artboard" style="fill:white;opacity:1" width="3300" x="0" y="0"/>
  <line style="fill:none;stroke:black;opacity:1;stroke-width:0.5;" x1="263" x2="3036" y1="292" y2="292"/>
  <text style="stroke:none;fill:black;font-family:sans-serif;font-size:13;font-weight:bold;" transform="matrix(1 0 0 1 263 322)">Weight/Scale Variations</text>
  <text style="stroke:none;fill:black;font-family:sans-serif;font-size:13;text-anchor:middle;" transform="matrix(1 0 0 1 559.711 322)">Ultralight</text>
  <text style="stroke:none;fill:black;font-family:sans-serif;font-size:13;text-anchor:middle;" transform="matrix(1 0 0 1 856.422 322)">Thin</text>
  <text style="stroke:none;fill:black;font-family:sans-serif;font-size:13;text-anchor:middle;" transform="matrix(1 0 0 1 1153.13 322)">Light</text>
  <text style="stroke:none;fill:black;font-family:sans-serif;font-size:13;text-anchor:middle;" transform="matrix(1 0 0 1 1449.84 322)">Regular</text>
  <text style="stroke:none;fill:black;font-family:sans-serif;font-size:13;text-anchor:middle;" transform="matrix(1 0 0 1 1746.56 322)">Medium</text>
  <text style="stroke:none;fill:black;font-family:sans-serif;font-size:13;text-anchor:middle;" transform="matrix(1 0 0 1 2043.27 322)">Semibold</text>
  <text style="stroke:none;fill:black;font-family:sans-serif;font-size:13;text-anchor:middle;" transform="matrix(1 0 0 1 2339.98 322)">Bold</text>
  <text style="stroke:none;fill:black;font-family:sans-serif;font-size:13;text-anchor:middle;" transform="matrix(1 0 0 1 2636.69 322)">Heavy</text>
  <text style="stroke:none;fill:black;font-family:sans-serif;font-size:13;text-anchor:middle;" transform="matrix(1 0 0 1 2933.4 322)">Black</text>
  <line style="fill:none;stroke:black;opacity:1;stroke-width:0.5;" x1="263" x2="3036" y1="1903" y2="1903"/>
  <g transform="matrix(1 0 0 1 263 1933)">
   <path d="M9.24805 0.830078C13.5547 0.830078 17.1387-2.74414 17.1387-7.05078C17.1387-11.3574 13.5449-14.9316 9.23828-14.9316C4.94141-14.9316 1.36719-11.3574 1.36719-7.05078C1.36719-2.74414 4.95117 0.830078 9.24805 0.830078ZM9.24805-0.654297C5.70312-0.654297 2.87109-3.49609 2.87109-7.05078C2.87109-10.6055 5.69336-13.4473 9.23828-13.4473C12.793-13.4473 15.6445-10.6055 15.6445-7.05078C15.6445-3.49609 12.8027-0.654297 9.24805-0.654297ZM5.6543-7.05078C5.6543-6.62109 5.95703-6.32812 6.40625-6.32812L8.50586-6.32812L8.50586-4.20898C8.50586-3.76953 8.79883-3.4668 9.22852-3.4668C9.67773-3.4668 9.9707-3.76953 9.9707-4.20898L9.9707-6.32812L12.0898-6.32812C12.5293-6.32812 12.832-6.62109 12.832-7.05078C12.832-7.49023 12.5293-7.79297 12.0898-7.79297L9.9707-7.79297L9.9707-9.90234C9.9707-10.3516 9.67773-10.6543 9.22852-10.6543C8.79883-10.6543 8.50586-10.3516 8.50586-9.90234L8.50586-7.79297L6.40625-7.79297C5.95703-7.79297 5.6543-7.49023 5.6543-7.05078Z"/>
  </g>
  <g transform="matrix(1 0 0 1 281.867 1933)">
   <path d="M11.709 2.91016C17.1582 2.91016 21.6699-1.61133 21.6699-7.05078C21.6699-12.5 17.1484-17.0117 11.6992-17.0117C6.25977-17.0117 1.74805-12.5 1.74805-7.05078C1.74805-1.61133 6.26953 2.91016 11.709 2.91016ZM11.709 1.25C7.09961 1.25 3.41797-2.44141 3.41797-7.05078C3.41797-11.6602 7.08984-15.3516 11.6992-15.3516C16.3086-15.3516 20.0098-11.6602 20.0098-7.05078C20.0098-2.44141 16.3184 1.25 11.709 1.25ZM7.17773-7.05078C7.17773-6.57227 7.50977-6.25 8.00781-6.25L10.8789-6.25L10.8789-3.36914C10.8789-2.88086 11.2109-2.53906 11.6895-2.53906C12.1777-2.53906 12.5195-2.87109 12.5195-3.36914L12.5195-6.25L15.4004-6.25C15.8887-6.25 16.2305-6.57227 16.2305-7.05078C16.2305-7.53906 15.8887-7.88086 15.4004-7.88086L12.5195-7.88086L12.5195-10.752C12.5195-11.25 12.1777-11.5918 11.6895-11.5918C11.2109-11.5918 10.8789-11.25 10.8789-10.752L10.8789-7.88086L8.00781-7.88086C7.50977-7.88086 7.17773-7.53906 7.17773-7.05078Z"/>
  </g>
  <g transform="matrix(1 0 0 1 305.646 1933)">
   <path d="M14.9707 5.66406C21.9336 5.66406 27.6953-0.0976562 27.6953-7.05078C27.6953-14.0137 21.9238-19.7754 14.9609-19.7754C8.00781-19.7754 2.25586-14.0137 2.25586-7.05078C2.25586-0.0976562 8.01758 5.66406 14.9707 5.66406ZM14.9707 3.84766C8.93555 3.84766 4.08203-1.01562 4.08203-7.05078C4.08203-13.0957 8.92578-17.9492 14.9609-17.9492C21.0059-17.9492 25.8691-13.0957 25.8691-7.05078C25.8691-1.01562 21.0156 3.84766 14.9707 3.84766ZM9.19922-7.05078C9.19922-6.5332 9.57031-6.17188 10.1172-6.17188L14.0625-6.17188L14.0625-2.2168C14.0625-1.67969 14.4336-1.29883 14.9512-1.29883C15.4883-1.29883 15.8594-1.66992 15.8594-2.2168L15.8594-6.17188L19.8145-6.17188C20.3516-6.17188 20.7324-6.5332 20.7324-7.05078C20.7324-7.59766 20.3613-7.96875 19.8145-7.96875L15.8594-7.96875L15.8594-11.9141C15.8594-12.4609 15.4883-12.8418 14.9512-12.8418C14.4336-12.8418 14.0625-12.4609 14.0625-11.9141L14.0625-7.96875L10.1172-7.96875C9.57031-7.96875 9.19922-7.59766 9.19922-7.05078Z"/>
  </g>
  <text style="stroke:none;fill:black;font-family:sans-serif;font-size:13;font-weight:bold;" transform="matrix(1 0 0 1 263 1953)">Design Variations</text>
  <text style="stroke:none;fill:black;font-family:sans-serif;font-size:13;" transform="matrix(1 0 0 1 263 1971)">Symbols are supported in up to nine weights and three scales.</text>
  <text style="stroke:none;fill:black;font-family:sans-serif;font-size:13;" transform="matrix(1 0 0 1 263 1989)">For optimal layout with text and other symbols, vertically align</text>
  <text style="stroke:none;fill:black;font-family:sans-serif;font-size:13;" transform="matrix(1 0 0 1 263 2007)">symbols with the adjacent text.</text>
  <line style="fill:none;stroke:#00AEEF;stroke-width:0.5;opacity:1.0;" x1="776" x2="776" y1="1919" y2="1933"/>
  <g transform="matrix(1 0 0 1 776 1933)">
   <path d="M3.31055 0.15625C3.82812 0.15625 4.08203-0.0390625 4.26758-0.585938L5.52734-4.0332L11.2891-4.0332L12.5488-0.585938C12.7344-0.0390625 12.9883 0.15625 13.4961 0.15625C14.0137 0.15625 14.3457-0.15625 14.3457-0.644531C14.3457-0.810547 14.3164-0.966797 14.2383-1.17188L9.6582-13.3691C9.43359-13.9648 9.0332-14.2676 8.4082-14.2676C7.80273-14.2676 7.39258-13.9746 7.17773-13.3789L2.59766-1.16211C2.51953-0.957031 2.49023-0.800781 2.49023-0.634766C2.49023-0.146484 2.80273 0.15625 3.31055 0.15625ZM6.00586-5.51758L8.37891-12.0898L8.42773-12.0898L10.8008-5.51758Z"/>
  </g>
  <line style="fill:none;stroke:#00AEEF;stroke-width:0.5;opacity:1.0;" x1="793.197" x2="793.197" y1="1919" y2="1933"/>
  <text style="stroke:none;fill:black;font-family:sans-serif;font-size:13;font-weight:bold;" transform="matrix(1 0 0 1 776 1953)">Margins</text>
  <text style="stroke:none;fill:black;font-family:sans-serif;font-size:13;" transform="matrix(1 0 0 1 776 1971)">Leading and trailing margins on the left and right side of each symbol</text>
  <text style="stroke:none;fill:black;font-family:sans-serif;font-size:13;" transform="matrix(1 0 0 1 776 1989)">can be adjusted by modifying the x-location of the margin guidelines.</text>
  <text style="stroke:none;fill:black;font-family:sans-serif;font-size:13;" transform="matrix(1 0 0 1 776 2007)">Modifications are automatically applied proportionally to all</text>
  <text style="stroke:none;fill:black;font-family:sans-serif;font-size:13;" transform="matrix(1 0 0 1 776 2025)">scales and weights.</text>
  <g transform="matrix(1 0 0 1 1289 1933)">
   <path d="M2.8418 1.86523L4.54102 3.57422C5.40039 4.44336 6.38672 4.38477 7.31445 3.35938L18.0078-8.42773L17.041-9.4043L6.42578 2.27539C6.07422 2.67578 5.74219 2.77344 5.27344 2.30469L4.10156 1.14258C3.63281 0.683594 3.74023 0.341797 4.14062-0.0195312L15.6152-10.8203L14.6387-11.7871L3.04688-0.898438C2.06055 0.0195312 1.98242 0.996094 2.8418 1.86523ZM9.25781-16.3281C8.83789-15.918 8.80859-15.3418 9.04297-14.9512C9.27734-14.5898 9.73633-14.3555 10.3809-14.5215C11.8457-14.8633 13.3691-14.9219 14.7949-13.9844L14.209-12.5293C13.8672-11.6992 14.043-11.1133 14.5801-10.5664L16.875-8.25195C17.3633-7.76367 17.7734-7.74414 18.3398-7.8418L19.4043-8.03711L20.0684-7.36328L20.0293-6.80664C19.9902-6.30859 20.1172-5.92773 20.6055-5.44922L21.3672-4.70703C21.8457-4.22852 22.4609-4.19922 22.9297-4.66797L25.8398-7.58789C26.3086-8.05664 26.2891-8.65234 25.8105-9.13086L25.0391-9.89258C24.5605-10.3711 24.1895-10.5273 23.7109-10.4883L23.1348-10.4395L22.4902-11.0742L22.7344-12.1973C22.8613-12.7637 22.7051-13.2031 22.1191-13.7891L19.9219-15.9766C16.582-19.2969 12.1484-19.2188 9.25781-16.3281ZM10.752-15.957C13.1836-17.7344 16.4746-17.4316 18.7012-15.2051L21.1328-12.793C21.3672-12.5586 21.4062-12.373 21.3379-12.0312L21.0156-10.5469L22.5195-9.0625L23.5059-9.12109C23.7598-9.13086 23.8379-9.11133 24.0332-8.91602L24.6094-8.33984L22.168-5.89844L21.5918-6.47461C21.3965-6.66992 21.3672-6.74805 21.377-7.01172L21.4453-7.98828L19.9512-9.47266L18.4277-9.21875C18.1055-9.15039 17.959-9.17969 17.7148-9.41406L15.7129-11.416C15.459-11.6504 15.4297-11.8164 15.5859-12.1875L16.4648-14.2773C14.9023-15.7324 12.8711-16.3574 10.8398-15.7617C10.6836-15.7227 10.625-15.8496 10.752-15.957Z"/>
  </g>
  <text style="stroke:none;fill:black;font-family:sans-serif;font-size:13;font-weight:bold;" transform="matrix(1 0 0 1 1289 1953)">Exporting</text>
  <text style="stroke:none;fill:black;font-family:sans-serif;font-size:13;" transform="matrix(1 0 0 1 1289 1971)">Symbols should be outlined when exporting to ensure the</text>
  <text style="stroke:none;fill:black;font-family:sans-serif;font-size:13;" transform="matrix(1 0 0 1 1289 1989)">design is preserved when submitting to Xcode.</text>
  <text id="template-version" style="stroke:none;fill:black;font-family:sans-serif;font-size:13;text-anchor:end;" transform="matrix(1 0 0 1 3036 1933)">Template v.4.0</text>
  <text style="stroke:none;fill:black;font-family:sans-serif;font-size:13;text-anchor:end;" transform="matrix(1 0 0 1 3036 1951)">Requires Xcode 14 or greater</text>
  <text id="descriptive-name" style="stroke:none;fill:black;font-family:sans-serif;font-size:13;text-anchor:end;" transform="matrix(1 0 0 1 3036 1969)">Generated from sensor.tag.radiowaves.forward</text>
  <text style="stroke:none;fill:black;font-family:sans-serif;font-size:13;text-anchor:end;" transform="matrix(1 0 0 1 3036 1987)">Typeset at 100 points</text>
  <text style="stroke:none;fill:black;font-family:sans-serif;font-size:13;" transform="matrix(1 0 0 1 263 726)">Small</text>
  <text style="stroke:none;fill:black;font-family:sans-serif;font-size:13;" transform="matrix(1 0 0 1 263 1156)">Medium</text>
  <text style="stroke:none;fill:black;font-family:sans-serif;font-size:13;" transform="matrix(1 0 0 1 263 1586)">Large</text>
 </g>
 <g id="Guides">
  <g id="H-reference" style="fill:#27AAE1;stroke:none;" transform="matrix(1 0 0 1 339 696)">
   <path d="M0.993654 0L3.63775 0L29.3281-67.1323L30.0303-67.1323L30.0303-70.459L28.1226-70.459ZM11.6885-24.4799L46.9815-24.4799L46.2315-26.7285L12.4385-26.7285ZM55.1196 0L57.7637 0L30.6382-70.459L29.4326-70.459L29.4326-67.1323Z"/>
  </g>
  <line id="Baseline-S" style="fill:none;stroke:#27AAE1;opacity:1;stroke-width:0.5;" x1="263" x2="3036" y1="696" y2="696"/>
  <line id="Capline-S" style="fill:none;stroke:#27AAE1;opacity:1;stroke-width:0.5;" x1="263" x2="3036" y1="625.541" y2="625.541"/>
  <g id="H-reference" style="fill:#27AAE1;stroke:none;" transform="matrix(1 0 0 1 339 1126)">
   <path d="M0.993654 0L3.63775 0L29.3281-67.1323L30.0303-67.1323L30.0303-70.459L28.1226-70.459ZM11.6885-24.4799L46.9815-24.4799L46.2315-26.7285L12.4385-26.7285ZM55.1196 0L57.7637 0L30.6382-70.459L29.4326-70.459L29.4326-67.1323Z"/>
  </g>
  <line id="Baseline-M" style="fill:none;stroke:#27AAE1;opacity:1;stroke-width:0.5;" x1="263" x2="3036" y1="1126" y2="1126"/>
  <line id="Capline-M" style="fill:none;stroke:#27AAE1;opacity:1;stroke-width:0.5;" x1="263" x2="3036" y1="1055.54" y2="1055.54"/>
  <g id="H-reference" style="fill:#27AAE1;stroke:none;" transform="matrix(1 0 0 1 339 1556)">
   <path d="M0.993654 0L3.63775 0L29.3281-67.1323L30.0303-67.1323L30.0303-70.459L28.1226-70.459ZM11.6885-24.4799L46.9815-24.4799L46.2315-26.7285L12.4385-26.7285ZM55.1196 0L57.7637 0L30.6382-70.459L29.4326-70.459L29.4326-67.1323Z"/>
  </g>
  <line id="Baseline-L" style="fill:none;stroke:#27AAE1;opacity:1;stroke-width:0.5;" x1="263" x2="3036" y1="1556" y2="1556"/>
  <line id="Capline-L" style="fill:none;stroke:#27AAE1;opacity:1;stroke-width:0.5;" x1="263" x2="3036" y1="1485.54" y2="1485.54"/>
  <line id="left-margin-Regular-M" style="fill:none;stroke:#00AEEF;stroke-width:0.5;opacity:1.0;" x1="1376.04" x2="1376.04" y1="1030.79" y2="1150.12"/>
  <line id="right-margin-Regular-M" style="fill:none;stroke:#00AEEF;stroke-width:0.5;opacity:1.0;" x1="1523.65" x2="1523.65" y1="1030.79" y2="1150.12"/>
 </g>
 <g id="Symbols">
  <g id="Black-L" transform="matrix(1 0 0 1 2826.84 1556)">
   <path d="M75.3824 28.9123C110.371 28.9123 139.544-0.260225 139.544-35.2697C139.544-70.2804 110.292-99.4529 75.3019-99.4529C40.2925-99.4529 11.2588-70.3388 11.2588-35.2697C11.2588-0.260225 40.3729 28.9123 75.3824 28.9123ZM75.3019 9.57492C50.3354 9.57492 30.6557-10.2448 30.6557-35.2697C30.6557-60.2362 50.3562-78.867 75.2215-80.0351C100.167-81.2032 120.067-60.2362 120.067-35.2697C120.089-10.3032 100.25 9.57492 75.3019 9.57492ZM75.4628-48.531C82.1667-48.531 87.7096-54.0959 87.7096-60.8778C87.7096-67.6818 82.1667-73.2247 75.4628-73.2247C68.6576-73.2247 63.0355-67.6598 63.0355-60.8778C63.0355-54.0947 68.6576-48.531 75.4628-48.531ZM153.728-10.6369C156.406-7.13565 161.868-6.94081 165.639-10.959C170.799-16.5931 173.471-25.6377 173.471-35.2697C173.471-44.9017 170.799-53.9463 165.639-59.6388C161.868-63.657 156.406-63.4038 153.728-59.9025C151.385-56.7541 152.162-53.0648 154.449-49.7706C156.867-46.3888 158.765-40.3398 158.765-35.2697C158.765-30.1996 156.867-24.1506 154.449-20.8272C152.104-17.533 151.385-13.7853 153.728-10.6369ZM174.6 7.73527C177.432 11.2561 182.402 11.7806 186.645 7.45476C196.883-3.05405 201.863-18.6824 201.863-35.2697C201.863-51.7402 196.182-67.8358 186.645-77.9358C182.519-82.32 177.49-81.6787 174.6-78.2163C171.965-75.0082 172.777-71.1033 175.693-67.93C183.158-59.7438 187.155-47.9961 187.155-35.2697C187.155-22.4849 183.041-10.7372 175.693-2.55101C172.836 0.622257 172.023 4.52725 174.6 7.73527Z"/>
  </g>
  <g id="Heavy-L" transform="matrix(1 0 0 1 2533 1556)">
   <path d="M73.1825 26.6986C106.952 26.6986 135.121-1.46962 135.121-35.2697C135.121-69.0754 106.878-97.2437 73.1021-97.2437C39.302-97.2437 11.2588-69.12 11.2588-35.2697C11.2588-1.46962 39.3824 26.6986 73.1825 26.6986ZM73.1021 9.6947C48.0688 9.6947 28.313-10.1918 28.313-35.2697C28.313-60.303 48.0989-79.2668 73.0217-80.1593C98.0248-81.0518 117.992-60.303 117.992-35.2697C118.027-10.2364 98.1165 9.6947 73.1021 9.6947ZM73.2629-49.3106C79.6426-49.3106 84.8932-54.597 84.8932-61.0459C84.8932-67.5306 79.6426-72.7812 73.2629-72.7812C66.7726-72.7812 61.4472-67.4948 61.4472-61.0459C61.4472-54.5914 66.7726-49.3106 73.2629-49.3106ZM149.578-10.5743C152.09-7.38579 157.095-7.22735 160.471-10.925C165.709-16.8055 168.5-25.7326 168.5-35.2697C168.5-44.8068 165.709-53.7339 160.471-59.659C157.095-63.3567 152.09-63.1536 149.578-59.9651C147.361-57.0556 148.13-53.6189 150.32-50.4981C153.09-46.8042 155.005-40.7176 155.005-35.2697C155.005-29.8218 153.09-23.7352 150.32-20.0859C148.086-16.9651 147.361-13.4838 149.578-10.5743ZM169.668 7.67596C172.278 10.889 176.855 11.285 180.634 7.38556C190.924-3.29628 196.123-18.7673 196.123-35.2697C196.123-51.6828 190.388-67.5109 180.634-77.8803C176.945-81.8244 172.323-81.3392 169.668-78.1707C167.221-75.211 167.971-71.5857 170.707-68.6001C178.431-60.1112 182.623-48.2184 182.623-35.2697C182.623-22.2764 178.342-10.3836 170.707-1.89473C168.015 1.09091 167.266 4.7162 169.668 7.67596Z"/>
  </g>
  <g id="Bold-L" transform="matrix(1 0 0 1 2239.87 1556)">
   <path d="M70.4995 24.0002C102.786 24.0002 129.731-2.94562 129.731-35.2697C129.731-67.607 102.718-94.5529 70.4191-94.5529C38.095-94.5529 11.2588-67.6362 11.2588-35.2697C11.2588-2.94562 38.1754 24.0002 70.4995 24.0002ZM70.4191 9.89293C45.2789 9.89293 25.4085-10.1003 25.4085-35.2697C25.4085-60.4099 45.3169-79.7811 70.3387-80.3651C95.4408-80.9492 115.515-60.4099 115.515-35.2697C115.566-10.1295 95.5477 9.89293 70.4191 9.89293ZM70.5799-50.2042C76.5674-50.2042 81.4643-55.1523 81.4643-61.1938C81.4643-67.2865 76.5674-72.1833 70.5799-72.1833C64.474-72.1833 59.51-67.2353 59.51-61.1938C59.51-55.1391 64.474-50.2042 70.5799-50.2042ZM144.46-10.6167C146.728-7.84227 151.112-7.7299 153.981-10.9834C159.319-17.0966 162.248-25.8628 162.248-35.2697C162.248-44.6766 159.319-53.4428 153.981-59.5852C151.112-62.8387 146.728-62.6971 144.46-59.9228C142.441-57.35 143.173-54.2656 145.202-51.427C148.441-47.3787 150.401-41.1938 150.401-35.2697C150.401-29.3456 148.441-23.1607 145.202-19.1416C143.144-16.303 142.441-13.1894 144.46-10.6167ZM163.633 7.46508C165.937 10.2642 169.978 10.5138 173.166 7.17431C183.502-3.65559 188.963-18.8972 188.963-35.2697C188.963-51.5838 183.152-67.059 173.166-77.6845C170.037-81.0532 165.967-80.7452 163.633-77.9753C161.455-75.3601 162.12-72.1254 164.589-69.4299C172.65-60.5944 177.103-48.5099 177.103-35.2697C177.103-22.0003 172.592-9.91583 164.589-1.08028C162.149 1.61517 161.484 4.84995 163.633 7.46508Z"/>
  </g>
  <g id="Semibold-L" transform="matrix(1 0 0 1 1945.62 1556)">
   <path d="M68.6499 22.1399C99.913 22.1399 126.016-3.96317 126.016-35.2697C126.016-66.5947 99.8511-92.6978 68.5694-92.6978C37.2629-92.6978 11.2588-66.6133 11.2588-35.2697C11.2588-3.96317 37.3433 22.1399 68.6499 22.1399ZM68.5694 10.0296C43.3556 10.0296 23.4062-10.0373 23.4062-35.2697C23.4062-60.4835 43.399-80.1356 68.489-80.5071C93.6595-80.8785 113.807-60.4835 113.807-35.2697C113.869-10.0559 93.7768 10.0296 68.5694 10.0296ZM68.7303-50.8203C74.4474-50.8203 79.1005-55.5351 79.1005-61.2957C79.1005-67.1182 74.4474-71.7712 68.7303-71.7712C62.8894-71.7712 58.1744-67.0563 58.1744-61.2957C58.1744-55.5166 62.8894-50.8203 68.7303-50.8203ZM140.932-10.6459C143.03-8.15696 146.987-8.07636 149.507-11.0236C154.913-17.2973 157.938-25.9526 157.938-35.2697C157.938-44.5868 154.913-53.2421 149.507-59.5344C146.987-62.4816 143.03-62.3824 140.932-59.8935C139.049-57.553 139.755-54.7114 141.674-52.0674C145.235-47.7747 147.227-41.522 147.227-35.2697C147.227-29.0174 145.235-22.7647 141.674-18.4906C139.737-15.8465 139.049-12.9864 140.932-10.6459ZM159.473 7.31971C161.566 9.83349 165.238 9.98217 168.018 7.02868C178.386-3.90329 184.027-18.9867 184.027-35.2697C184.027-51.5155 178.163-66.7476 168.018-77.5495C165.275-80.5216 161.585-80.3358 159.473-77.8405C157.48-75.463 158.086-72.4974 160.371-70.002C168.665-60.9275 173.297-48.7108 173.297-35.2697C173.297-21.81 168.628-9.59333 160.371-0.518799C158.105 1.97659 157.498 4.94215 159.473 7.31971Z"/>
  </g>
  <g id="Medium-L" transform="matrix(1 0 0 1 1650.78 1556)">
   <path d="M67.2474 20.7294C97.7349 20.7294 123.199-4.73471 123.199-35.2697C123.199-65.8272 97.677-91.2913 67.167-91.2913C36.632-91.2913 11.2588-65.8377 11.2588-35.2697C11.2588-4.73471 36.7124 20.7294 67.2474 20.7294ZM67.167 10.1332C41.8973 10.1332 21.888-9.98955 21.888-35.2697C21.888-60.5393 41.9448-80.4044 67.0865-80.6147C92.3087-80.8249 112.512-60.5393 112.512-35.2697C112.582-10.0001 92.4341 10.1332 67.167 10.1332ZM67.3278-51.2874C72.84-51.2874 77.3081-55.8254 77.3081-61.373C77.3081-66.9906 72.84-71.4587 67.3278-71.4587C61.6878-71.4587 57.1617-66.9207 57.1617-61.373C57.1617-55.8029 61.6878-51.2874 67.3278-51.2874ZM138.256-10.668C140.227-8.39558 143.859-8.33906 146.114-11.0541C151.573-17.4494 154.67-26.0207 154.67-35.2697C154.67-44.5187 151.573-53.09 146.114-59.4958C143.859-62.2109 140.227-62.1438 138.256-59.8714C136.478-57.707 137.164-55.0495 138.999-52.5529C142.805-48.075 144.82-41.7709 144.82-35.2697C144.82-28.7685 142.805-22.4644 138.999-17.997C137.153-15.5004 136.478-12.8325 138.256-10.668ZM156.319 7.20948C158.252 9.5069 161.643 9.57905 164.114 6.91825C174.506-4.0911 180.284-19.0546 180.284-35.2697C180.284-51.4638 174.38-66.5114 164.114-77.4471C161.664-80.1185 158.262-80.0253 156.319-77.7384C154.466-75.541 155.028-72.7795 157.173-70.4358C165.643-61.1801 170.412-48.8632 170.412-35.2697C170.412-21.6657 165.622-9.34881 157.173-0.0930634C155.039 2.25063 154.476 5.01206 156.319 7.20948Z"/>
  </g>
  <g id="Regular-L" transform="matrix(1 0 0 1 1356.51 1556)">
   <path d="M65.4181 18.8896C94.8939 18.8896 119.525-5.74108 119.525-35.2697C119.525-64.826 94.8412-89.4566 65.3377-89.4566C35.809-89.4566 11.2588-64.826 11.2588-35.2697C11.2588-5.74108 35.8894 18.8896 65.4181 18.8896ZM65.3377 10.2684C39.9952 10.2684 19.9077-9.92723 19.9077-35.2697C19.9077-60.6122 40.0479-80.755 65.2572-80.755C90.5469-80.755 110.823-60.6122 110.823-35.2697C110.903-9.92723 90.6827 10.2684 65.3377 10.2684ZM65.4985-51.8966C70.7432-51.8966 74.9702-56.204 74.9702-61.4738C74.9702-66.8241 70.7432-71.0511 65.4985-71.0511C60.1206-71.0511 55.8408-66.7437 55.8408-61.4738C55.8408-56.1763 60.1206-51.8966 65.4985-51.8966ZM134.767-10.6969C136.571-8.70681 139.779-8.6817 141.689-11.0939C147.216-17.6479 150.407-26.1095 150.407-35.2697C150.407-44.4299 147.216-52.8915 141.689-59.4455C139.779-61.8577 136.571-61.8326 134.767-59.8425C133.123-57.9077 133.784-55.4904 135.51-53.1863C139.635-48.4666 141.68-42.0956 141.68-35.2697C141.68-28.4438 139.635-22.0728 135.51-17.3531C133.784-15.049 133.123-12.6317 134.767-10.6969ZM152.205 7.0657C153.929 9.0809 156.954 9.05324 159.022 6.77422C169.446-4.33608 175.403-19.1432 175.403-35.2697C175.403-51.3962 169.446-66.2033 159.022-77.3136C156.954-79.5926 153.929-79.6203 152.205-77.6051C150.534-75.6427 151.039-73.1475 153.001-71.0016C161.702-61.5095 166.648-49.0619 166.648-35.2697C166.648-21.4775 161.702-9.02986 153.001 0.462244C151.039 2.60808 150.534 5.10325 152.205 7.0657Z"/>
  </g>
  <g id="Light-L" transform="matrix(1 0 0 1 1062.44 1556)">
   <path d="M63.834 17.3055C92.451 17.3055 116.376-6.619 116.376-35.2697C116.376-63.9671 92.4173-87.8916 63.7536-87.8916C35.1029-87.8916 11.2588-63.9671 11.2588-35.2697C11.2588-6.619 35.1833 17.3055 63.834 17.3055ZM63.7536 10.7264C38.1821 10.7264 17.8846-9.6982 17.8846-35.2697C17.8846-60.8412 38.2158-81.2321 63.6732-81.2321C89.211-81.2321 109.716-60.8412 109.716-35.2697C109.796-9.6982 89.3849 10.7264 63.7536 10.7264ZM63.9144-52.0493C68.9492-52.0493 72.9853-56.1658 72.9853-61.1876C72.9853-66.2897 68.9492-70.3258 63.9144-70.3258C58.7655-70.3258 54.6957-66.2093 54.6957-61.1876C54.6957-56.1191 58.7655-52.0493 63.9144-52.0493ZM131.369-11.4985C132.754-9.96644 135.18-9.9795 136.631-11.781C142.253-18.0296 145.483-26.2812 145.483-35.2697C145.483-44.2582 142.253-52.5098 136.631-58.7584C135.18-60.5599 132.754-60.573 131.369-59.0409C130.146-57.6023 130.597-55.6813 131.96-54.0069C136.6-49.2491 138.837-42.4773 138.837-35.2697C138.837-28.0621 136.6-21.2903 131.96-16.5325C130.597-14.8581 130.146-12.9371 131.369-11.4985ZM148.521 6.03509C149.825 7.55408 152.164 7.50733 153.716 5.81996C164.064-4.9659 170.135-19.3913 170.135-35.2697C170.135-51.1481 164.064-65.5735 153.716-76.3594C152.164-78.0467 149.825-78.0935 148.521-76.5745C147.251-75.0892 147.661-73.1475 149.146-71.5742C158.19-62.0248 163.442-49.3673 163.442-35.2697C163.442-21.1721 158.19-8.51455 149.146 1.0348C147.661 2.60808 147.251 4.54978 148.521 6.03509Z"/>
  </g>
  <g id="Thin-L" transform="matrix(1 0 0 1 769.209 1556)">
   <path d="M61.7389 15.2104C89.2201 15.2104 112.211-7.78013 112.211-35.2697C112.211-62.8313 89.2116-85.8218 61.6585-85.8218C34.1689-85.8218 11.2588-62.8313 11.2588-35.2697C11.2588-7.78013 34.2493 15.2104 61.7389 15.2104ZM61.6585 11.3322C35.7841 11.3322 15.209-9.3953 15.209-35.2697C15.209-61.1441 35.7925-81.8632 61.5781-81.8632C87.444-81.8632 108.252-61.1441 108.252-35.2697C108.332-9.3953 87.6684 11.3322 61.6585 11.3322ZM61.8193-52.2512C66.5765-52.2512 70.3602-56.1153 70.3602-60.8089C70.3602-65.583 66.5765-69.3666 61.8193-69.3666C56.9733-69.3666 53.1812-65.5025 53.1812-60.8089C53.1812-56.0434 56.9733-52.2512 61.8193-52.2512ZM126.876-12.5586C127.705-11.6324 129.097-11.6959 129.942-12.6897C135.69-18.5345 138.971-26.5084 138.971-35.2697C138.971-44.031 135.69-52.0049 129.942-57.8497C129.097-58.8435 127.705-58.907 126.876-57.9808C126.208-57.1985 126.381-55.9337 127.265-55.0923C132.587-50.284 135.076-42.9821 135.076-35.2697C135.076-27.5573 132.587-20.2554 127.265-15.4471C126.381-14.6057 126.208-13.3409 126.876-12.5586ZM143.65 4.67203C144.398 5.53473 145.828 5.46275 146.699 4.55787C156.946-5.79888 163.168-19.7194 163.168-35.2697C163.168-50.82 156.946-64.7405 146.699-75.0973C145.828-76.0022 144.398-76.0741 143.65-75.2114C142.91-74.3572 143.193-73.1475 144.047-72.3315C153.546-62.7064 159.201-49.7711 159.201-35.2697C159.201-20.7683 153.546-7.83303 144.047 1.79206C143.193 2.60808 142.91 3.81777 143.65 4.67203Z"/>
  </g>
  <g id="Ultralight-L" transform="matrix(1 0 0 1 474.282 1556)">
   <path d="M60.6658 14.1373C87.5652 14.1373 110.077-8.37485 110.077-35.2697C110.077-62.2495 87.5697-84.7617 60.5854-84.7617C33.6906-84.7617 11.2588-62.2495 11.2588-35.2697C11.2588-8.37485 33.771 14.1373 60.6658 14.1373ZM60.5854 11.6425C34.5559 11.6425 13.8385-9.24016 13.8385-35.2697C13.8385-61.2992 34.5514-82.1864 60.505-82.1864C86.539-82.1864 107.502-61.2992 107.502-35.2697C107.583-9.24016 86.7893 11.6425 60.5854 11.6425ZM60.7463-52.3547C65.3612-52.3547 69.0156-56.0895 69.0156-60.615C69.0156-65.221 65.3612-68.8754 60.7463-68.8754C56.0554-68.8754 52.4055-65.1405 52.4055-60.615C52.4055-56.0046 56.0554-52.3547 60.7463-52.3547ZM124.575-13.1017C125.12-12.4857 125.981-12.5751 126.516-13.1551C132.329-18.793 135.635-26.6248 135.635-35.2697C135.635-43.9146 132.329-51.7464 126.516-57.3843C125.981-57.9643 125.12-58.0537 124.575-57.4378C124.191-56.9916 124.222-56.063 124.861-55.6483C130.531-50.8141 133.149-43.2407 133.149-35.2697C133.149-27.2987 130.531-19.7253 124.861-14.8911C124.222-14.4764 124.191-13.5478 124.575-13.1017ZM141.155 3.97388C141.619 4.50043 142.583 4.41552 143.105 3.91143C153.3-6.22553 159.6-19.8875 159.6-35.2697C159.6-50.6519 153.3-64.3139 143.105-74.4508C142.583-74.9549 141.619-75.0398 141.155-74.5133C140.686-73.9822 140.905-73.1475 141.436-72.7193C151.167-63.0555 157.029-49.978 157.029-35.2697C157.029-20.5614 151.167-7.48395 141.436 2.17992C140.905 2.60808 140.686 3.44284 141.155 3.97388Z"/>
  </g>
  <g id="Black-M" transform="matrix(1 0 0 1 2848.73 1126)">
   <path d="M60.0779 16.1517C88.1161 16.1517 111.485-7.21689 111.485-35.2606C111.485-63.3041 88.0535-86.6727 60.0156-86.6727C31.9718-86.6727 8.72266-63.3612 8.72266-35.2606C8.72266-7.21689 32.0341 16.1517 60.0779 16.1517ZM60.0156-0.558519C40.6993-0.558519 25.4896-15.8873 25.4896-35.2606C25.4896-54.5769 40.7048-68.7583 59.9532-69.9002C79.264-71.0421 94.6551-54.5769 94.6551-35.2606C94.6603-15.9444 79.3258-0.558519 60.0156-0.558519ZM60.1402-44.8853C65.5842-44.8853 70.1039-49.4102 70.1039-54.9171C70.1039-60.4292 65.5842-64.9489 60.1402-64.9489C54.6283-64.9489 50.0461-60.424 50.0461-54.9171C50.0461-49.4105 54.6283-44.8853 60.1402-44.8853ZM122.205-16.339C124.366-13.4197 128.884-13.2426 132.084-16.5484C136.028-20.6603 138.001-27.7401 138.001-35.2606C138.001-42.7812 136.028-49.861 132.084-54.0299C128.884-57.3358 124.366-57.1016 122.205-54.1823C120.34-51.605 120.92-48.5968 122.727-45.9811C124.365-43.6241 125.847-38.9157 125.847-35.2606C125.847-31.6056 124.365-26.8972 122.727-24.5973C120.863-21.9816 120.34-18.9163 122.205-16.339ZM139.01-2.03156C141.337 0.893511 145.433 1.40766 149.049-2.23002C156.926-10.179 160.611-22.3703 160.611-35.2606C160.611-48.0368 156.241-60.6849 149.049-68.2342C145.547-71.9289 141.394-71.3006 139.01-68.4326C136.86-65.7985 137.531-62.6078 139.88-60.0656C145.487-53.9759 148.458-44.9706 148.458-35.2606C148.458-25.4936 145.373-16.4883 139.88-10.3986C137.588-7.85641 136.917-4.66565 139.01-2.03156Z"/>
  </g>
  <g id="Heavy-M" transform="matrix(1 0 0 1 2554.58 1126)">
   <path d="M58.0735 14.1338C84.9996 14.1338 107.452-8.31817 107.452-35.2606C107.452-62.2054 84.9395-84.6574 58.0112-84.6574C31.0687-84.6574 8.72266-62.249 8.72266-35.2606C8.72266-8.31817 31.131 14.1338 58.0735 14.1338ZM58.0112-0.48368C38.6508-0.48368 23.386-15.8566 23.386-35.2606C23.386-54.6211 38.6672-69.1051 57.9489-69.9776C77.2929-70.85 92.7281-54.6211 92.7281-35.2606C92.7468-15.9002 77.3598-0.48368 58.0112-0.48368ZM58.1358-45.6334C63.2822-45.6334 67.5338-49.9036 67.5338-55.1078C67.5338-60.3307 63.2822-64.5822 58.1358-64.5822C52.9106-64.5822 48.5991-60.312 48.5991-55.1078C48.5991-49.9013 52.9106-45.6334 58.1358-45.6334ZM118.462-16.2038C120.499-13.548 124.643-13.403 127.498-16.4518C131.51-20.8327 133.595-27.817 133.595-35.2606C133.595-42.7043 131.51-49.6886 127.498-54.1131C124.643-57.1619 120.499-56.9733 118.462-54.3175C116.68-51.9279 117.272-49.1209 119.017-46.6165C120.954-43.958 122.434-39.2498 122.434-35.2606C122.434-31.2715 120.954-26.5633 119.017-23.9484C117.229-21.444 116.68-18.5934 118.462-16.2038ZM134.528-1.99446C136.677 0.675488 140.452 1.06581 143.662-2.20964C151.597-10.3577 155.486-22.4305 155.486-35.2606C155.486-48.0035 151.073-60.4253 143.662-68.268C140.54-71.5871 136.721-71.1095 134.528-68.4832C132.526-66.0478 133.144-63.0794 135.361-60.6678C141.19-54.2874 144.323-45.1598 144.323-35.2606C144.323-25.3179 141.103-16.1902 135.361-9.80982C133.187-7.39827 132.57-4.42988 134.528-1.99446Z"/>
  </g>
  <g id="Bold-M" transform="matrix(1 0 0 1 2260.74 1126)">
   <path d="M55.8313 11.8766C81.5133 11.8766 102.94-9.5501 102.94-35.2606C102.94-60.9763 81.4561-82.403 55.769-82.403C30.0585-82.403 8.72266-61.0049 8.72266-35.2606C8.72266-9.5501 30.1208 11.8766 55.8313 11.8766ZM55.769-0.399961C36.3592-0.399961 21.0329-15.8223 21.0329-35.2606C21.0329-54.6705 36.3878-69.4932 55.7067-70.0642C75.0879-70.6351 90.5725-54.6705 90.5725-35.2606C90.6063-15.8508 75.1605-0.399961 55.769-0.399961ZM55.8936-46.4703C60.7072-46.4703 64.6587-50.4556 64.6587-55.3212C64.6587-60.2205 60.7072-64.1721 55.8936-64.1721C50.9892-64.1721 46.9804-60.1867 46.9804-55.3212C46.9804-50.4505 50.9892-46.4703 55.8936-46.4703ZM114.275-16.0526C116.174-13.6916 119.899-13.5824 122.369-16.3438C126.455-21.0255 128.667-27.903 128.667-35.2606C128.667-42.6183 126.455-49.4958 122.369-54.2061C119.899-56.9674 116.174-56.8297 114.275-54.4686C112.586-52.2891 113.192-49.7073 114.868-47.3274C117.138-44.3315 118.617-39.6236 118.617-35.2606C118.617-30.8977 117.138-26.1898 114.868-23.2224C113.163-20.8426 112.586-18.2321 114.275-16.0526ZM129.514-1.95295C131.465 0.431599 134.881 0.683398 137.637-2.18684C145.635-10.5576 149.752-22.4978 149.752-35.2606C149.752-47.9664 145.293-60.135 137.637-68.3059C134.938-71.2047 131.494-70.8958 129.514-68.5398C127.678-66.3266 128.236-63.607 130.307-61.3415C136.383-54.636 139.697-45.3713 139.697-35.2606C139.697-25.1214 136.326-15.8568 130.307-9.15122C128.265-6.88577 127.706-4.16614 129.514-1.95295Z"/>
  </g>
  <g id="Semibold-M" transform="matrix(1 0 0 1 1966.01 1126)">
   <path d="M54.2856 10.3205C79.1098 10.3205 99.8297-10.3994 99.8297-35.2606C99.8297-60.129 79.0546-80.8488 54.2233-80.8488C29.362-80.8488 8.72266-60.1472 8.72266-35.2606C8.72266-10.3994 29.4243 10.3205 54.2856 10.3205ZM54.2233-0.342246C34.7794-0.342246 19.4106-15.7986 19.4106-35.2606C19.4106-54.7045 34.8165-69.7607 54.161-70.1238C73.5678-70.487 89.0865-54.7045 89.0865-35.2606C89.1306-15.8168 73.6443-0.342246 54.2233-0.342246ZM54.3479-47.0472C58.9319-47.0472 62.6767-50.8362 62.6767-55.4682C62.6767-60.1445 58.9319-63.8893 54.3479-63.8893C49.6646-63.8893 45.8645-60.1003 45.8645-55.4682C45.8645-50.8291 49.6646-47.0472 54.3479-47.0472ZM111.389-15.9484C113.192-13.7905 116.628-13.7061 118.833-16.2693C122.97-21.1585 125.269-27.9623 125.269-35.2606C125.269-42.559 122.97-49.3628 118.833-54.2702C116.628-56.8333 113.192-56.7307 111.389-54.5729C109.764-52.5382 110.379-50.1115 112.007-47.8175C114.507-44.589 115.985-39.8812 115.985-35.2606C115.985-30.6401 114.507-25.9323 112.007-22.722C110.361-20.428 109.764-17.9831 111.389-15.9484ZM126.058-1.92434C127.872 0.263463 131.04 0.419767 133.483-2.17113C141.525-10.6954 145.8-22.5442 145.8-35.2606C145.8-47.9407 141.307-59.9348 133.483-68.332C131.076-70.9411 127.89-70.7484 126.058-68.5788C124.335-66.5188 124.853-63.9707 126.822-61.8059C133.069-54.8763 136.508-45.5172 136.508-35.2606C136.508-24.9859 133.033-15.6269 126.822-8.69719C124.871-6.53246 124.354-3.98432 126.058-1.92434Z"/>
  </g>
  <g id="Medium-M" transform="matrix(1 0 0 1 1670.79 1126)">
   <path d="M53.1136 9.14054C77.2874 9.14054 97.4713-11.0433 97.4713-35.2606C97.4713-59.4865 77.2337-79.6704 53.0513-79.6704C28.834-79.6704 8.72266-59.4968 8.72266-35.2606C8.72266-11.0433 28.8963 9.14054 53.1136 9.14054ZM53.0513-0.298485C33.5816-0.298485 18.1806-15.7807 18.1806-35.2606C18.1806-54.7303 33.625-69.9636 52.9889-70.1691C72.4152-70.3746 87.9597-54.7303 87.9597-35.2606C88.0117-15.791 72.4947-0.298485 53.0513-0.298485ZM53.1759-47.4846C57.5858-47.4846 61.1739-51.1247 61.1739-55.5798C61.1739-60.0869 57.5858-63.6749 53.1759-63.6749C48.6602-63.6749 45.0184-60.0348 45.0184-55.5798C45.0184-51.1161 48.6602-47.4846 53.1759-47.4846ZM109.2-15.8694C110.931-13.8656 114.149-13.7999 116.152-16.2128C120.328-21.2593 122.693-28.0073 122.693-35.2606C122.693-42.514 120.328-49.262 116.152-54.3188C114.149-56.7316 110.931-56.6557 109.2-54.6519C107.624-52.727 108.246-50.418 109.838-48.189C112.512-44.7843 113.989-40.0766 113.989-35.2606C113.989-30.4447 112.512-25.737 109.838-22.3425C108.236-20.1136 107.624-17.7943 109.2-15.8694ZM123.437-1.90264C125.147 0.135975 128.127 0.21987 130.333-2.15921C138.409-10.7999 142.803-22.5794 142.803-35.2606C142.803-47.9213 138.286-59.7831 130.333-68.3518C128.148-70.7412 125.157-70.6367 123.437-68.6084C121.801-66.6646 122.287-64.2464 124.18-62.1581C130.556-55.0585 134.09-45.6278 134.09-35.2606C134.09-24.8832 130.536-15.4525 124.18-8.35292C122.298-6.26457 121.811-3.84645 123.437-1.90264Z"/>
  </g>
  <g id="Regular-M" transform="matrix(1 0 0 1 1376.04 1126)">
   <path d="M51.5848 7.60151C74.9104 7.60151 94.3952-11.8833 94.3952-35.2606C94.3952-58.6485 74.8587-78.1334 51.5225-78.1334C28.1452-78.1334 8.72266-58.6485 8.72266-35.2606C8.72266-11.8833 28.2075 7.60151 51.5848 7.60151ZM51.5225-0.241404C32.0191-0.241404 16.5761-15.7573 16.5761-35.2606C16.5761-54.764 32.0709-70.2281 51.4602-70.2281C70.9118-70.2281 86.49-54.764 86.49-35.2606C86.5523-15.7573 70.9952-0.241404 51.5225-0.241404ZM51.6471-48.0552C55.8301-48.0552 59.2136-51.5011 59.2136-55.7252C59.2136-60.0117 55.8301-63.3953 51.6471-63.3953C47.3501-63.3953 43.9148-59.9494 43.9148-55.7252C43.9148-51.4905 47.3501-48.0552 51.6471-48.0552ZM106.345-15.7663C107.982-13.9635 110.914-13.9223 112.655-16.1391C116.882-21.3908 119.333-28.066 119.333-35.2606C119.333-42.4553 116.882-49.1305 112.655-54.3822C110.914-56.599 107.982-56.5578 106.345-54.755C104.833-52.9733 105.464-50.8177 107.008-48.6737C109.91-45.0389 111.386-40.3314 111.386-35.2606C111.386-30.1899 109.91-25.4823 107.008-21.8476C105.464-19.7036 104.833-17.548 106.345-15.7663ZM120.019-1.87435C121.593-0.0303135 124.329-0.0408645 126.224-2.14367C134.344-10.9362 138.893-22.6253 138.893-35.2606C138.893-47.8959 134.344-59.5851 126.224-68.3776C124.329-70.4804 121.593-70.491 120.019-68.6469C118.496-66.8547 118.941-64.6062 120.734-62.6174C127.279-55.2961 130.936-45.772 130.936-35.2606C130.936-24.7492 127.279-15.2252 120.734-7.90388C118.941-5.91514 118.496-3.66662 120.019-1.87435Z"/>
  </g>
  <g id="Light-M" transform="matrix(1 0 0 1 1081.69 1126)">
   <path d="M50.1646 6.1813C72.7202 6.1813 91.5719-12.6704 91.5719-35.2606C91.5719-57.8786 72.6856-76.7303 50.1023-76.7303C27.5121-76.7303 8.72266-57.8786 8.72266-35.2606C8.72266-12.6704 27.5744 6.1813 50.1646 6.1813ZM50.1023 0.169259C30.3936 0.169259 14.7624-15.5519 14.7624-35.2606C14.7624-54.9693 30.4282-70.6559 50.04-70.6559C69.7141-70.6559 85.4976-54.9693 85.4976-35.2606C85.5599-15.5519 69.8317 0.169259 50.1023 0.169259ZM50.2269-48.1921C54.2216-48.1921 57.4341-51.4668 57.4341-55.4686C57.4341-59.5326 54.2216-62.745 50.2269-62.745C46.1352-62.745 42.8881-59.4703 42.8881-55.4686C42.8881-51.4392 46.1352-48.1921 50.2269-48.1921ZM103.299-16.4849C104.56-15.0928 106.79-15.0858 108.12-16.7551C112.433-21.733 114.918-28.22 114.918-35.2606C114.918-42.3013 112.433-48.7883 108.12-53.7662C106.79-55.4355 104.56-55.4285 103.299-54.0363C102.163-52.6995 102.607-50.9888 103.826-49.4095C107.189-45.7405 108.837-40.6736 108.837-35.2606C108.837-29.8476 107.189-24.7808 103.826-21.1118C102.607-19.5325 102.163-17.8218 103.299-16.4849ZM116.716-2.79834C117.914-1.39919 120.034-1.42685 121.468-2.99921C129.519-11.5008 134.171-22.8478 134.171-35.2606C134.171-47.6735 129.519-59.0205 121.468-67.5221C120.034-69.0944 117.914-69.1221 116.716-67.723C115.552-66.3584 115.913-64.6062 117.277-63.1307C124.13-55.7581 128.062-46.0458 128.062-35.2606C128.062-24.4755 124.13-14.7632 117.277-7.39055C115.913-5.91514 115.552-4.16284 116.716-2.79834Z"/>
  </g>
  <g id="Thin-M" transform="matrix(1 0 0 1 788.099 1126)">
   <path d="M48.2863 4.30296C69.8235 4.30296 87.8379-13.7114 87.8379-35.2606C87.8379-56.8602 69.8115-74.8745 48.224-74.8745C26.6747-74.8745 8.72266-56.8602 8.72266-35.2606C8.72266-13.7114 26.737 4.30296 48.2863 4.30296ZM48.224 0.712393C28.2437 0.712393 12.3635-15.2804 12.3635-35.2606C12.3635-55.2409 28.2557-71.2217 48.1617-71.2217C68.1299-71.2217 84.185-55.2409 84.185-35.2606C84.2473-15.2804 68.2928 0.712393 48.224 0.712393ZM48.3486-48.3731C52.0944-48.3731 55.0805-51.4216 55.0805-55.1291C55.0805-58.8989 52.0944-61.8851 48.3486-61.8851C44.5284-61.8851 41.5303-58.8366 41.5303-55.1291C41.5303-51.3713 44.5284-48.3731 48.3486-48.3731ZM99.2712-17.4354C100.034-16.5864 101.336-16.6247 102.123-17.5698C106.549-22.1856 109.079-28.4236 109.079-35.2606C109.079-42.0977 106.549-48.3357 102.123-52.9515C101.336-53.8966 100.034-53.9349 99.2712-53.0859C98.6331-52.3374 98.8275-51.2151 99.6165-50.3826C103.591-46.6683 105.465-41.1263 105.465-35.2606C105.465-29.395 103.591-23.8529 99.6165-20.1387C98.8275-19.3062 98.6331-18.1839 99.2712-17.4354ZM112.348-4.02039C113.049-3.20964 114.354-3.25993 115.176-4.13074C123.137-12.2476 127.925-23.142 127.925-35.2606C127.925-47.3793 123.137-58.2736 115.176-66.3905C114.354-67.2614 113.049-67.3117 112.348-66.5009C111.66-65.7022 111.907-64.6062 112.706-63.8097C119.966-56.3691 124.26-46.4079 124.26-35.2606C124.26-24.1134 119.966-14.1522 112.706-6.71163C111.907-5.91514 111.66-4.81913 112.348-4.02039Z"/>
  </g>
  <g id="Ultralight-M" transform="matrix(1 0 0 1 492.987 1126)">
   <path d="M47.3242 3.34089C68.3398 3.34089 85.9253-14.2446 85.9253-35.2606C85.9253-56.3386 68.3394-73.9241 47.2619-73.9241C26.2458-73.9241 8.72266-56.3386 8.72266-35.2606C8.72266-14.2446 26.3081 3.34089 47.3242 3.34089ZM47.2619 0.990584C27.1425 0.990584 11.1348-15.1413 11.1348-35.2606C11.1348-55.38 27.1429-71.5115 47.1996-71.5115C67.3185-71.5115 83.5127-55.38 83.5127-35.2606C83.575-15.1413 67.5046 0.990584 47.2619 0.990584ZM47.3865-48.4659C51.0048-48.4659 53.875-51.3984 53.875-54.9552C53.875-58.5744 51.0048-61.4446 47.3865-61.4446C43.7055-61.4446 40.8348-58.5121 40.8348-54.9552C40.8348-51.3365 43.7055-48.4659 47.3865-48.4659ZM97.2079-17.9223C97.7156-17.3514 98.5428-17.4129 99.0514-17.9871C103.535-22.4175 106.089-28.528 106.089-35.2606C106.089-41.9933 103.535-48.1038 99.0514-52.5342C98.5428-53.1084 97.7156-53.1699 97.2079-52.599C96.8248-52.1519 96.8918-51.331 97.4605-50.881C101.748-47.1436 103.738-41.3581 103.738-35.2606C103.738-29.1632 101.748-23.3777 97.4605-19.6403C96.8918-19.1902 96.8248-18.3693 97.2079-17.9223ZM110.111-4.64632C110.557-4.13694 111.444-4.19882 111.954-4.71031C119.868-12.6302 124.726-23.2927 124.726-35.2606C124.726-47.2286 119.868-57.8911 111.954-65.811C111.444-66.3225 110.557-66.3844 110.111-65.875C109.666-65.366 109.855-64.6062 110.364-64.1574C117.833-56.6821 122.312-46.5934 122.312-35.2606C122.312-23.9279 117.833-13.8392 110.364-6.36389C109.855-5.91514 109.666-5.15528 110.111-4.64632Z"/>
  </g>
  <g id="Black-S" transform="matrix(1 0 0 1 2866.41 696)">
   <path d="M47.6074 5.56641C69.873 5.56641 88.4277-12.9883 88.4277-35.2539C88.4277-57.5195 69.8242-76.0742 47.5586-76.0742C25.293-76.0742 6.83594-57.5684 6.83594-35.2539C6.83594-12.9883 25.3418 5.56641 47.6074 5.56641ZM47.5586-8.05664C32.4219-8.05664 20.5078-20.0684 20.5078-35.2539C20.5078-50.3906 32.4219-61.4258 47.5098-62.4023C62.6465-63.3789 74.707-50.3906 74.707-35.2539C74.707-20.1172 62.6953-8.05664 47.5586-8.05664ZM47.6562-42.5781C52.002-42.5781 55.6152-46.1914 55.6152-50.5859C55.6152-54.9805 52.002-58.5938 47.6562-58.5938C43.2617-58.5938 39.5996-54.9805 39.5996-50.5859C39.5996-46.1914 43.2617-42.5781 47.6562-42.5781ZM96.7285-20.5078C98.4375-18.1641 102.051-18.0176 104.639-20.6543C107.715-23.7793 109.229-29.3457 109.229-35.2539C109.229-41.1621 107.715-46.7285 104.639-49.9023C102.051-52.5391 98.4375-52.3438 96.7285-50C95.2637-47.9492 95.7031-45.5566 97.1191-43.5059C98.3398-41.748 99.5117-38.0371 99.5117-35.2539C99.5117-32.4707 98.3398-28.7598 97.1191-27.0508C95.6543-25 95.2637-22.5586 96.7285-20.5078ZM110.107-9.27734C111.963-6.93359 115.234-6.49414 118.164-9.42383C124.316-15.5762 127.148-25.1465 127.148-35.2539C127.148-45.2637 123.73-55.2246 118.164-61.0352C115.332-64.0137 112.012-63.4766 110.107-61.1816C108.398-59.082 108.936-56.543 110.791-54.541C115.137-49.8535 117.432-42.8223 117.432-35.2539C117.432-27.6367 115.039-20.6055 110.791-15.918C108.984-13.916 108.447-11.377 110.107-9.27734Z"/>
  </g>
  <g id="Heavy-S" transform="matrix(1 0 0 1 2571.59 696)">
   <path d="M46.0747 4.02213C67.4875 4.02213 85.3392-13.8296 85.3392-35.2539C85.3392-56.6782 67.4387-74.5299 46.0258-74.5299C24.6015-74.5299 6.83594-56.7155 6.83594-35.2539C6.83594-13.8296 24.6503 4.02213 46.0747 4.02213ZM46.0258-8.04512C30.8776-8.04512 18.9405-20.0684 18.9405-35.2539C18.9405-50.4021 30.8891-61.6678 45.977-62.4139C61.1137-63.1599 73.1858-50.4021 73.1858-35.2539C73.1973-20.1057 61.1626-8.04512 46.0258-8.04512ZM46.1235-43.2004C50.2387-43.2004 53.6446-46.6178 53.6446-50.7819C53.6446-54.9574 50.2387-58.3633 46.1235-58.3633C41.9479-58.3633 38.4933-54.9459 38.4933-50.7819C38.4933-46.6178 41.9479-43.2004 46.1235-43.2004ZM93.9165-20.3004C95.5679-18.1295 98.9507-18.0061 101.297-20.493C104.419-23.883 106.025-29.3918 106.025-35.2539C106.025-41.116 104.419-46.6248 101.297-50.0522C98.9507-52.5391 95.5679-52.3783 93.9165-50.2074C92.4748-48.2604 92.9488-45.983 94.3533-43.9553C95.7699-41.944 96.9187-38.2791 96.9187-35.2539C96.9187-32.2287 95.7699-28.5638 94.3533-26.5898C92.9115-24.5621 92.4748-22.2474 93.9165-20.3004ZM106.696-9.12753C108.448-6.94512 111.523-6.60939 114.165-9.29706C120.375-15.6568 123.368-25.1695 123.368-35.2539C123.368-45.2637 119.927-55.0748 114.165-61.1734C111.598-63.8984 108.485-63.4881 106.696-61.343C105.068-59.3586 105.57-56.9463 107.368-54.9905C111.864-50.061 114.262-42.949 114.262-35.2539C114.262-27.5215 111.789-20.4096 107.368-15.48C105.608-13.5242 105.105-11.1119 106.696-9.12753Z"/>
  </g>
  <g id="Bold-S" transform="matrix(1 0 0 1 2276.99 696)">
   <path d="M44.3604 2.29492C64.8193 2.29492 81.8848-14.7705 81.8848-35.2539C81.8848-55.7373 64.7705-72.8027 44.3115-72.8027C23.8281-72.8027 6.83594-55.7617 6.83594-35.2539C6.83594-14.7705 23.877 2.29492 44.3604 2.29492ZM44.3115-8.03223C29.1504-8.03223 17.1875-20.0684 17.1875-35.2539C17.1875-50.415 29.1748-61.9385 44.2627-62.4268C59.3994-62.915 71.4844-50.415 71.4844-35.2539C71.5088-20.0928 59.4482-8.03223 44.3115-8.03223ZM44.4092-43.8965C48.2666-43.8965 51.4404-47.0947 51.4404-51.001C51.4404-54.9316 48.2666-58.1055 44.4092-58.1055C40.4785-58.1055 37.2559-54.9072 37.2559-51.001C37.2559-47.0947 40.4785-43.8965 44.4092-43.8965ZM90.7715-20.0684C92.3584-18.0908 95.4834-17.9932 97.5586-20.3125C100.732-23.999 102.441-29.4434 102.441-35.2539C102.441-41.0645 100.732-46.5088 97.5586-50.2197C95.4834-52.5391 92.3584-52.417 90.7715-50.4395C89.3555-48.6084 89.8682-46.46 91.2598-44.458C92.8955-42.1631 94.0186-38.5498 94.0186-35.2539C94.0186-31.958 92.8955-28.3447 91.2598-26.0742C89.8438-24.0723 89.3555-21.8994 90.7715-20.0684ZM102.881-8.95996C104.517-6.95801 107.373-6.73828 109.692-9.15527C115.967-15.7471 119.141-25.1953 119.141-35.2539C119.141-45.2637 115.674-54.9072 109.692-61.3281C107.422-63.7695 104.541-63.501 102.881-61.5234C101.343-59.668 101.807-57.3975 103.54-55.4932C108.203-50.293 110.718-43.0908 110.718-35.2539C110.718-27.3926 108.154-20.1904 103.54-14.9902C101.831-13.0859 101.367-10.8154 102.881-8.95996Z"/>
  </g>
  <g id="Semibold-S" transform="matrix(1 0 0 1 1981.74 696)">
   <path d="M43.1784 1.1041C62.9798 1.1041 79.5031-15.4192 79.5031-35.2539C79.5031-55.0886 62.931-71.6119 43.1296-71.6119C23.2949-71.6119 6.83594-55.1041 6.83594-35.2539C6.83594-15.4192 23.3438 1.1041 43.1784 1.1041ZM43.1296-8.02334C27.9596-8.02334 15.9789-20.0684 15.9789-35.2539C15.9789-50.4239 27.9929-62.1251 43.0808-62.4356C58.2175-62.7462 70.3113-50.4239 70.3113-35.2539C70.3446-20.0839 58.2663-8.02334 43.1296-8.02334ZM43.2272-44.3764C46.9069-44.3764 49.9208-47.4235 49.9208-51.1521C49.9208-54.9139 46.9069-57.9277 43.2272-57.9277C39.4654-57.9277 36.4027-54.8806 36.4027-51.1521C36.4027-47.4235 39.4654-44.3764 43.2272-44.3764ZM88.6031-19.9084C90.1456-18.0642 93.0929-17.9843 94.9814-20.1881C98.1908-24.079 99.9709-29.4789 99.9709-35.2539C99.9709-41.0289 98.1908-46.4288 94.9814-50.3353C93.0929-52.5391 90.1456-52.4437 88.6031-50.5994C87.2049-48.8483 87.7442-46.7888 89.127-44.8046C90.9138-42.3142 92.019-38.7364 92.019-35.2539C92.019-31.7714 90.9138-28.1937 89.127-25.7188C87.7287-23.7346 87.2049-21.6595 88.6031-19.9084ZM100.25-8.84443C101.806-6.96689 104.512-6.82715 106.609-9.05752C112.928-15.8093 116.226-25.2131 116.226-35.2539C116.226-45.2637 112.741-54.7917 106.609-61.4348C104.543-63.6807 101.822-63.5099 100.25-61.6479C98.7745-59.8813 99.2117-57.7085 100.901-55.8397C105.679-50.4529 108.274-43.1886 108.274-35.2539C108.274-27.3037 105.648-20.0394 100.901-14.6525C99.2272-12.7838 98.79-10.611 100.25-8.84443Z"/>
  </g>
  <g id="Medium-S" transform="matrix(1 0 0 1 1686.13 696)">
   <path d="M42.2822 0.201172C61.585 0.201172 77.6973-15.9111 77.6973-35.2539C77.6973-54.5967 61.5361-70.709 42.2334-70.709C22.8906-70.709 6.83594-54.6055 6.83594-35.2539C6.83594-15.9111 22.9395 0.201172 42.2822 0.201172ZM42.2334-8.0166C27.0566-8.0166 15.0625-20.0684 15.0625-35.2539C15.0625-50.4307 27.0967-62.2666 42.1846-62.4424C57.3213-62.6182 69.4219-50.4307 69.4219-35.2539C69.4619-20.0771 57.3701-8.0166 42.2334-8.0166ZM42.3311-44.7402C45.876-44.7402 48.7686-47.6729 48.7686-51.2666C48.7686-54.9004 45.876-57.793 42.3311-57.793C38.6973-57.793 35.7559-54.8604 35.7559-51.2666C35.7559-47.6729 38.6973-44.7402 42.3311-44.7402ZM86.959-19.7871C88.4678-18.0439 91.2803-17.9775 93.0273-20.0938C96.2637-24.1396 98.0977-29.5059 98.0977-35.2539C98.0977-41.002 96.2637-46.3682 93.0273-50.4229C91.2803-52.5391 88.4678-52.4639 86.959-50.7207C85.5742-49.0303 86.1338-47.0381 87.5098-45.0674C89.4111-42.4287 90.5029-38.8779 90.5029-35.2539C90.5029-31.6299 89.4111-28.0791 87.5098-25.4492C86.125-23.4785 85.5742-21.4775 86.959-19.7871ZM98.2559-8.75684C99.751-6.97363 102.342-6.89453 104.271-8.9834C110.623-15.8564 114.016-25.2266 114.016-35.2539C114.016-45.2637 110.518-54.7041 104.271-61.5156C102.359-63.6133 99.7598-63.5166 98.2559-61.7422C96.8271-60.043 97.2441-57.9443 98.8994-56.1025C103.766-50.5742 106.421-43.2627 106.421-35.2539C106.421-27.2363 103.748-19.9248 98.8994-14.3965C97.2529-12.5547 96.8359-10.4561 98.2559-8.75684Z"/>
  </g>
  <g id="Regular-S" transform="matrix(1 0 0 1 1390.86 696)">
   <path d="M41.1133-0.976562C59.7656-0.976562 75.3418-16.5527 75.3418-35.2539C75.3418-53.9551 59.7168-69.5312 41.0645-69.5312C22.3633-69.5312 6.83594-53.9551 6.83594-35.2539C6.83594-16.5527 22.4121-0.976562 41.1133-0.976562ZM41.0645-8.00781C25.8789-8.00781 13.8672-20.0684 13.8672-35.2539C13.8672-50.4395 25.9277-62.4512 41.0156-62.4512C56.1523-62.4512 68.2617-50.4395 68.2617-35.2539C68.3105-20.0684 56.2012-8.00781 41.0645-8.00781ZM41.1621-45.2148C44.5312-45.2148 47.2656-47.998 47.2656-51.416C47.2656-54.8828 44.5312-57.6172 41.1621-57.6172C37.6953-57.6172 34.9121-54.834 34.9121-51.416C34.9121-47.998 37.6953-45.2148 41.1621-45.2148ZM84.8145-19.6289C86.2793-18.0176 88.916-17.9688 90.4785-19.9707C93.75-24.2188 95.6543-29.541 95.6543-35.2539C95.6543-40.9668 93.75-46.2891 90.4785-50.5371C88.916-52.5391 86.2793-52.4902 84.8145-50.8789C83.4473-49.2676 84.0332-47.3633 85.4004-45.4102C87.4512-42.5781 88.5254-39.0625 88.5254-35.2539C88.5254-31.4453 87.4512-27.9297 85.4004-25.0977C84.0332-23.1445 83.4473-21.2402 84.8145-19.6289ZM95.6543-8.64258C97.0703-6.98242 99.5117-6.98242 101.221-8.88672C107.617-15.918 111.133-25.2441 111.133-35.2539C111.133-45.2637 107.617-54.5898 101.221-61.6211C99.5117-63.5254 97.0703-63.5254 95.6543-61.8652C94.2871-60.2539 94.6777-58.252 96.2891-56.4453C101.27-50.7324 104.004-43.3594 104.004-35.2539C104.004-27.1484 101.27-19.7754 96.2891-14.0625C94.6777-12.2559 94.2871-10.2539 95.6543-8.64258Z"/>
  </g>
  <g id="Light-S" transform="matrix(1 0 0 1 1096.24 696)">
   <path d="M39.8569-2.2329C57.8281-2.2329 72.8443-17.249 72.8443-35.2539C72.8443-53.2739 57.7944-68.29 39.8081-68.29C21.8032-68.29 6.83594-53.2739 6.83594-35.2539C6.83594-17.249 21.8521-2.2329 39.8569-2.2329ZM39.8081-7.64453C24.4409-7.64453 12.2627-19.8867 12.2627-35.2539C12.2627-50.6211 24.4746-62.8296 39.7593-62.8296C55.0928-62.8296 67.3838-50.6211 67.3838-35.2539C67.4326-19.8867 55.1719-7.64453 39.8081-7.64453ZM39.9058-45.3359C43.1084-45.3359 45.6914-47.9678 45.6914-51.189C45.6914-54.459 43.1084-57.042 39.9058-57.042C36.6206-57.042 34.0039-54.4102 34.0039-51.189C34.0039-47.9526 36.6206-45.3359 39.9058-45.3359ZM82.1201-20.2646C83.252-19.0166 85.2681-18.998 86.4673-20.5156C89.8145-24.5215 91.7491-29.6772 91.7491-35.2539C91.7491-40.8306 89.8145-45.9863 86.4673-49.9922C85.2681-51.5098 83.252-51.4912 82.1201-50.2432C81.086-49.0254 81.5054-47.5146 82.585-46.061C85.0445-43.1987 86.27-39.3652 86.27-35.2539C86.27-31.1426 85.0445-27.3091 82.585-24.4468C81.5054-22.9932 81.086-21.4824 82.1201-20.2646ZM92.7329-9.45995C93.8159-8.19335 95.7124-8.20849 97.0127-9.64355C103.349-16.4175 106.955-25.4409 106.955-35.2539C106.955-45.0669 103.349-54.0903 97.0127-60.8643C95.7124-62.2993 93.8159-62.3145 92.7329-61.0479C91.6836-59.8149 91.9986-58.252 93.2315-56.8994C98.4844-51.1411 101.461-43.6016 101.461-35.2539C101.461-26.9063 98.4844-19.3667 93.2315-13.6084C91.9986-12.2559 91.6836-10.6929 92.7329-9.45995Z"/>
  </g>
  <g id="Thin-S" transform="matrix(1 0 0 1 802.289 696)">
   <path d="M38.1953-3.89451C55.2657-3.89451 69.5411-18.1699 69.5411-35.2539C69.5411-52.3731 55.252-66.6485 38.1465-66.6485C21.0625-66.6485 6.83594-52.3731 6.83594-35.2539C6.83594-18.1699 21.1113-3.89451 38.1953-3.89451ZM38.1465-7.16407C22.5391-7.16407 10.1407-19.6465 10.1407-35.2539C10.1407-50.8613 22.5528-63.3301 38.0977-63.3301C53.6914-63.3301 66.2227-50.8613 66.2227-35.2539C66.2715-19.6465 53.8106-7.16407 38.1465-7.16407ZM38.2442-45.4961C41.2266-45.4961 43.6094-47.9277 43.6094-50.8887C43.6094-53.8984 41.2266-56.2813 38.2442-56.2813C35.1992-56.2813 32.8028-53.8496 32.8028-50.8887C32.8028-47.8926 35.1992-45.4961 38.2442-45.4961ZM78.5567-21.1055C79.2481-20.3379 80.4434-20.3594 81.1622-21.2363C84.6094-24.9219 86.5841-29.8574 86.5841-35.2539C86.5841-40.6504 84.6094-45.5859 81.1622-49.2715C80.4434-50.1485 79.2481-50.1699 78.5567-49.4024C77.9629-48.7051 78.1622-47.7148 78.8614-46.9219C81.8614-44.0195 83.2872-39.7656 83.2872-35.2539C83.2872-30.7422 81.8614-26.4883 78.8614-23.5859C78.1622-22.793 77.9629-21.8027 78.5567-21.1055ZM88.8692-10.541C89.5118-9.7949 90.6876-9.83006 91.4473-10.6445C97.7032-17.0781 101.43-25.7012 101.43-35.2539C101.43-44.8066 97.7032-53.4297 91.4473-59.8633C90.6876-60.6778 89.5118-60.7129 88.8692-59.9668C88.2403-59.2344 88.4551-58.252 89.1876-57.5C94.8008-51.6816 98.0977-43.9219 98.0977-35.2539C98.0977-26.5859 94.8008-18.8262 89.1876-13.0078C88.4551-12.2559 88.2403-11.2734 88.8692-10.541Z"/>
  </g>
  <g id="Ultralight-S" transform="matrix(1 0 0 1 506.993 696)">
   <path d="M37.3443-4.74558C53.9532-4.74558 67.8492-18.6416 67.8492-35.2539C67.8492-51.9116 53.9498-65.8076 37.2954-65.8076C20.6831-65.8076 6.83594-51.9116 6.83594-35.2539C6.83594-18.6416 20.7319-4.74558 37.3443-4.74558ZM37.2954-6.91798C21.565-6.91798 9.05375-19.5234 9.05375-35.2539C9.05375-50.9844 21.5684-63.5864 37.2466-63.5864C52.9737-63.5864 65.628-50.9844 65.628-35.2539C65.6768-19.5234 53.1133-6.91798 37.2954-6.91798ZM37.3931-45.5781C40.2627-45.5781 42.543-47.9072 42.543-50.7349C42.543-53.6113 40.2627-55.8916 37.3931-55.8916C34.4712-55.8916 32.1875-53.5625 32.1875-50.7349C32.1875-47.8618 34.4712-45.5781 37.3931-45.5781ZM76.7315-21.5361C77.1973-21.0146 77.9723-21.0566 78.4449-21.6055C81.9435-25.1269 83.9386-29.9497 83.9386-35.2539C83.9386-40.5581 81.9435-45.3809 78.4449-48.9024C77.9723-49.4512 77.1973-49.4932 76.7315-48.9717C76.3633-48.541 76.4498-47.8174 76.9542-47.3628C80.231-44.4399 81.7593-39.9707 81.7593-35.2539C81.7593-30.5371 80.231-26.0679 76.9542-23.145C76.4498-22.6904 76.3633-21.9668 76.7315-21.5361ZM86.8902-11.0947C87.3072-10.6152 88.1139-10.6606 88.5968-11.1572C94.8116-17.4165 98.5997-25.8345 98.5997-35.2539C98.5997-44.6733 94.8116-53.0913 88.5968-59.3506C88.1139-59.8472 87.3072-59.8926 86.8902-59.4131C86.4766-58.937 86.6402-58.252 87.1163-57.8076C92.9141-51.9585 96.3751-44.0859 96.3751-35.2539C96.3751-26.4219 92.9141-18.5493 87.1163-12.7002C86.6402-12.2559 86.4766-11.5708 86.8902-11.0947Z"/>
  </g>
 </g>
</svg>
