<?xml version="1.0" encoding="UTF-8"?>
<!--Generator: Apple Native CoreSVG 175-->
<!DOCTYPE svg
PUBLIC "-//W3C//DTD SVG 1.1//EN"
       "http://www.w3.org/Graphics/SVG/1.1/DTD/svg11.dtd">
<svg version="1.1" xmlns="http://www.w3.org/2000/svg" xmlns:xlink="http://www.w3.org/1999/xlink" width="3300" height="2200">
 <!--glyph: "uni1007C1.medium", point size: 100.0, font version: "17.1d1e1", template writer version: "65.1"-->
 <g id="Notes">
  <rect height="2200" id="artboard" style="fill:white;opacity:1" width="3300" x="0" y="0"/>
  <line style="fill:none;stroke:black;opacity:1;stroke-width:0.5;" x1="263" x2="3036" y1="292" y2="292"/>
  <text style="stroke:none;fill:black;font-family:sans-serif;font-size:13;font-weight:bold;" transform="matrix(1 0 0 1 263 322)">Weight/Scale Variations</text>
  <text style="stroke:none;fill:black;font-family:sans-serif;font-size:13;text-anchor:middle;" transform="matrix(1 0 0 1 559.711 322)">Ultralight</text>
  <text style="stroke:none;fill:black;font-family:sans-serif;font-size:13;text-anchor:middle;" transform="matrix(1 0 0 1 856.422 322)">Thin</text>
  <text style="stroke:none;fill:black;font-family:sans-serif;font-size:13;text-anchor:middle;" transform="matrix(1 0 0 1 1153.13 322)">Light</text>
  <text style="stroke:none;fill:black;font-family:sans-serif;font-size:13;text-anchor:middle;" transform="matrix(1 0 0 1 1449.84 322)">Regular</text>
  <text style="stroke:none;fill:black;font-family:sans-serif;font-size:13;text-anchor:middle;" transform="matrix(1 0 0 1 1746.56 322)">Medium</text>
  <text style="stroke:none;fill:black;font-family:sans-serif;font-size:13;text-anchor:middle;" transform="matrix(1 0 0 1 2043.27 322)">Semibold</text>
  <text style="stroke:none;fill:black;font-family:sans-serif;font-size:13;text-anchor:middle;" transform="matrix(1 0 0 1 2339.98 322)">Bold</text>
  <text style="stroke:none;fill:black;font-family:sans-serif;font-size:13;text-anchor:middle;" transform="matrix(1 0 0 1 2636.69 322)">Heavy</text>
  <text style="stroke:none;fill:black;font-family:sans-serif;font-size:13;text-anchor:middle;" transform="matrix(1 0 0 1 2933.4 322)">Black</text>
  <line style="fill:none;stroke:black;opacity:1;stroke-width:0.5;" x1="263" x2="3036" y1="1903" y2="1903"/>
  <g transform="matrix(1 0 0 1 263 1933)">
   <path d="M9.24805 0.830078Q10.8691 0.830078 12.2949 0.214844Q13.7207-0.400391 14.8096-1.49414Q15.8984-2.58789 16.5186-4.01367Q17.1387-5.43945 17.1387-7.05078Q17.1387-8.66211 16.5186-10.0879Q15.8984-11.5137 14.8047-12.6074Q13.7109-13.7012 12.2852-14.3164Q10.8594-14.9316 9.23828-14.9316Q7.62695-14.9316 6.20117-14.3164Q4.77539-13.7012 3.69141-12.6074Q2.60742-11.5137 1.9873-10.0879Q1.36719-8.66211 1.36719-7.05078Q1.36719-5.43945 1.9873-4.01367Q2.60742-2.58789 3.69629-1.49414Q4.78516-0.400391 6.21094 0.214844Q7.63672 0.830078 9.24805 0.830078ZM9.24805-0.654297Q7.91992-0.654297 6.7627-1.14746Q5.60547-1.64062 4.73145-2.51953Q3.85742-3.39844 3.36426-4.56055Q2.87109-5.72266 2.87109-7.05078Q2.87109-8.37891 3.35938-9.54102Q3.84766-10.7031 4.72168-11.582Q5.5957-12.4609 6.75293-12.9541Q7.91016-13.4473 9.23828-13.4473Q10.5762-13.4473 11.7334-12.9541Q12.8906-12.4609 13.7695-11.582Q14.6484-10.7031 15.1465-9.54102Q15.6445-8.37891 15.6445-7.05078Q15.6445-5.72266 15.1514-4.56055Q14.6582-3.39844 13.7842-2.51953Q12.9102-1.64062 11.748-1.14746Q10.5859-0.654297 9.24805-0.654297ZM5.6543-7.05078Q5.6543-6.72852 5.85938-6.52832Q6.06445-6.32812 6.40625-6.32812L8.51562-6.32812L8.51562-4.20898Q8.51562-3.88672 8.71094-3.67676Q8.90625-3.4668 9.23828-3.4668Q9.56055-3.4668 9.77051-3.67676Q9.98047-3.88672 9.98047-4.20898L9.98047-6.32812L12.0898-6.32812Q12.4219-6.32812 12.627-6.52832Q12.832-6.72852 12.832-7.05078Q12.832-7.38281 12.627-7.58789Q12.4219-7.79297 12.0898-7.79297L9.98047-7.79297L9.98047-9.90234Q9.98047-10.2344 9.77051-10.4443Q9.56055-10.6543 9.23828-10.6543Q8.90625-10.6543 8.71094-10.4443Q8.51562-10.2344 8.51562-9.90234L8.51562-7.79297L6.40625-7.79297Q6.06445-7.79297 5.85938-7.58789Q5.6543-7.38281 5.6543-7.05078Z"/>
  </g>
  <g transform="matrix(1 0 0 1 281.867 1933)">
   <path d="M11.709 2.91016Q13.75 2.91016 15.5518 2.12891Q17.3535 1.34766 18.7305-0.0292969Q20.1074-1.40625 20.8887-3.20801Q21.6699-5.00977 21.6699-7.05078Q21.6699-9.0918 20.8887-10.8936Q20.1074-12.6953 18.7305-14.0723Q17.3535-15.4492 15.5469-16.2305Q13.7402-17.0117 11.6992-17.0117Q9.6582-17.0117 7.85645-16.2305Q6.05469-15.4492 4.68262-14.0723Q3.31055-12.6953 2.5293-10.8936Q1.74805-9.0918 1.74805-7.05078Q1.74805-5.00977 2.5293-3.20801Q3.31055-1.40625 4.6875-0.0292969Q6.06445 1.34766 7.86621 2.12891Q9.66797 2.91016 11.709 2.91016ZM11.709 1.25Q9.98047 1.25 8.47656 0.605469Q6.97266-0.0390625 5.83496-1.17676Q4.69727-2.31445 4.05762-3.81836Q3.41797-5.32227 3.41797-7.05078Q3.41797-8.7793 4.05762-10.2832Q4.69727-11.7871 5.83008-12.9297Q6.96289-14.0723 8.4668-14.7119Q9.9707-15.3516 11.6992-15.3516Q13.4277-15.3516 14.9316-14.7119Q16.4355-14.0723 17.5781-12.9297Q18.7207-11.7871 19.3652-10.2832Q20.0098-8.7793 20.0098-7.05078Q20.0098-5.32227 19.3701-3.81836Q18.7305-2.31445 17.5928-1.17676Q16.4551-0.0390625 14.9463 0.605469Q13.4375 1.25 11.709 1.25ZM7.17773-7.05078Q7.17773-6.69922 7.41211-6.47461Q7.64648-6.25 8.01758-6.25L10.8887-6.25L10.8887-3.36914Q10.8887-2.99805 11.1133-2.76855Q11.3379-2.53906 11.6895-2.53906Q12.0605-2.53906 12.29-2.76855Q12.5195-2.99805 12.5195-3.36914L12.5195-6.25L15.4004-6.25Q15.7715-6.25 16.001-6.47461Q16.2305-6.69922 16.2305-7.05078Q16.2305-7.42188 16.001-7.65137Q15.7715-7.88086 15.4004-7.88086L12.5195-7.88086L12.5195-10.752Q12.5195-11.1328 12.29-11.3623Q12.0605-11.5918 11.6895-11.5918Q11.3379-11.5918 11.1133-11.3574Q10.8887-11.123 10.8887-10.752L10.8887-7.88086L8.01758-7.88086Q7.63672-7.88086 7.40723-7.65137Q7.17773-7.42188 7.17773-7.05078Z"/>
  </g>
  <g transform="matrix(1 0 0 1 305.646 1933)">
   <path d="M14.9707 5.66406Q17.0605 5.66406 18.96 5.01465Q20.8594 4.36523 22.4512 3.19336Q24.043 2.02148 25.2197 0.429688Q26.3965-1.16211 27.0459-3.06641Q27.6953-4.9707 27.6953-7.05078Q27.6953-9.14062 27.0459-11.04Q26.3965-12.9395 25.2197-14.5312Q24.043-16.123 22.4512-17.2998Q20.8594-18.4766 18.9551-19.126Q17.0508-19.7754 14.9609-19.7754Q12.8711-19.7754 10.9717-19.126Q9.07227-18.4766 7.48535-17.2998Q5.89844-16.123 4.72168-14.5312Q3.54492-12.9395 2.90039-11.04Q2.25586-9.14062 2.25586-7.05078Q2.25586-4.9707 2.90527-3.06641Q3.55469-1.16211 4.72656 0.429688Q5.89844 2.02148 7.49023 3.19336Q9.08203 4.36523 10.9814 5.01465Q12.8809 5.66406 14.9707 5.66406ZM14.9707 3.84766Q13.1641 3.84766 11.5283 3.2959Q9.89258 2.74414 8.53516 1.74805Q7.17773 0.751953 6.17676-0.610352Q5.17578-1.97266 4.62891-3.6084Q4.08203-5.24414 4.08203-7.05078Q4.08203-8.86719 4.62891-10.5029Q5.17578-12.1387 6.17188-13.501Q7.16797-14.8633 8.52539-15.8594Q9.88281-16.8555 11.5186-17.4023Q13.1543-17.9492 14.9609-17.9492Q16.7773-17.9492 18.4131-17.4023Q20.0488-16.8555 21.4111-15.8594Q22.7734-14.8633 23.7695-13.501Q24.7656-12.1387 25.3174-10.5029Q25.8691-8.86719 25.8691-7.05078Q25.8789-5.24414 25.332-3.6084Q24.7852-1.97266 23.7842-0.610352Q22.7832 0.751953 21.4209 1.74805Q20.0586 2.74414 18.4229 3.2959Q16.7871 3.84766 14.9707 3.84766ZM9.19922-7.05078Q9.19922-6.66992 9.45801-6.4209Q9.7168-6.17188 10.1172-6.17188L14.0625-6.17188L14.0625-2.2168Q14.0625-1.81641 14.3115-1.55762Q14.5605-1.29883 14.9512-1.29883Q15.3516-1.29883 15.6104-1.55273Q15.8691-1.80664 15.8691-2.2168L15.8691-6.17188L19.8242-6.17188Q20.2246-6.17188 20.4785-6.4209Q20.7324-6.66992 20.7324-7.05078Q20.7324-7.46094 20.4785-7.71484Q20.2246-7.96875 19.8242-7.96875L15.8691-7.96875L15.8691-11.9141Q15.8691-12.3242 15.6104-12.583Q15.3516-12.8418 14.9512-12.8418Q14.5605-12.8418 14.3115-12.583Q14.0625-12.3242 14.0625-11.9141L14.0625-7.96875L10.1172-7.96875Q9.70703-7.96875 9.45312-7.71484Q9.19922-7.46094 9.19922-7.05078Z"/>
  </g>
  <text style="stroke:none;fill:black;font-family:sans-serif;font-size:13;font-weight:bold;" transform="matrix(1 0 0 1 263 1953)">Design Variations</text>
  <text style="stroke:none;fill:black;font-family:sans-serif;font-size:13;" transform="matrix(1 0 0 1 263 1971)">Symbols are supported in up to nine weights and three scales.</text>
  <text style="stroke:none;fill:black;font-family:sans-serif;font-size:13;" transform="matrix(1 0 0 1 263 1989)">For optimal layout with text and other symbols, vertically align</text>
  <text style="stroke:none;fill:black;font-family:sans-serif;font-size:13;" transform="matrix(1 0 0 1 263 2007)">symbols with the adjacent text.</text>
  <line style="fill:none;stroke:#00AEEF;stroke-width:0.5;opacity:1.0;" x1="776" x2="776" y1="1919" y2="1933"/>
  <g transform="matrix(1 0 0 1 776 1933)">
   <path d="M3.31055 0.15625Q3.70117 0.15625 3.91602-0.00976562Q4.13086-0.175781 4.26758-0.585938L5.52734-4.0332L11.2891-4.0332L12.5488-0.585938Q12.6855-0.175781 12.9004-0.00976562Q13.1152 0.15625 13.4961 0.15625Q13.8867 0.15625 14.1162-0.0585938Q14.3457-0.273438 14.3457-0.644531Q14.3457-0.869141 14.2383-1.17188L9.6582-13.3691Q9.48242-13.8184 9.17969-14.043Q8.87695-14.2676 8.4082-14.2676Q7.5-14.2676 7.17773-13.3789L2.59766-1.16211Q2.49023-0.859375 2.49023-0.634766Q2.49023-0.263672 2.70996-0.0537109Q2.92969 0.15625 3.31055 0.15625ZM6.00586-5.51758L8.37891-12.0898L8.42773-12.0898L10.8008-5.51758Z"/>
  </g>
  <line style="fill:none;stroke:#00AEEF;stroke-width:0.5;opacity:1.0;" x1="793.197" x2="793.197" y1="1919" y2="1933"/>
  <text style="stroke:none;fill:black;font-family:sans-serif;font-size:13;font-weight:bold;" transform="matrix(1 0 0 1 776 1953)">Margins</text>
  <text style="stroke:none;fill:black;font-family:sans-serif;font-size:13;" transform="matrix(1 0 0 1 776 1971)">Leading and trailing margins on the left and right side of each symbol</text>
  <text style="stroke:none;fill:black;font-family:sans-serif;font-size:13;" transform="matrix(1 0 0 1 776 1989)">can be adjusted by modifying the x-location of the margin guidelines.</text>
  <text style="stroke:none;fill:black;font-family:sans-serif;font-size:13;" transform="matrix(1 0 0 1 776 2007)">Modifications are automatically applied proportionally to all</text>
  <text style="stroke:none;fill:black;font-family:sans-serif;font-size:13;" transform="matrix(1 0 0 1 776 2025)">scales and weights.</text>
  <g transform="matrix(1 0 0 1 1289 1933)">
   <path d="M2.8418 1.86523L4.54102 3.57422Q5.18555 4.22852 5.90332 4.17969Q6.62109 4.13086 7.31445 3.35938L18.0078-8.42773L17.041-9.4043L6.42578 2.27539Q6.16211 2.57812 5.89355 2.61719Q5.625 2.65625 5.27344 2.30469L4.10156 1.14258Q3.75 0.791016 3.79395 0.522461Q3.83789 0.253906 4.14062-0.0195312L15.6152-10.8203L14.6387-11.7871L3.04688-0.898438Q2.30469-0.214844 2.25098 0.498047Q2.19727 1.21094 2.8418 1.86523ZM9.25781-16.3281Q8.94531-16.0254 8.90625-15.6348Q8.86719-15.2441 9.04297-14.9512Q9.21875-14.6777 9.55566-14.541Q9.89258-14.4043 10.3809-14.5215Q11.4746-14.7754 12.5977-14.7314Q13.7207-14.6875 14.7949-13.9844L14.209-12.5293Q13.9551-11.9043 14.0674-11.4404Q14.1797-10.9766 14.5801-10.5664L16.875-8.25195Q17.2363-7.88086 17.5781-7.82227Q17.9199-7.76367 18.3398-7.8418L19.4043-8.03711L20.0684-7.36328L20.0293-6.80664Q20-6.43555 20.1221-6.12305Q20.2441-5.81055 20.6055-5.44922L21.3672-4.70703Q21.7285-4.3457 22.1533-4.33105Q22.5781-4.31641 22.9297-4.66797L25.8398-7.58789Q26.1914-7.93945 26.1816-8.35449Q26.1719-8.76953 25.8105-9.13086L25.0391-9.89258Q24.6875-10.2539 24.3799-10.3857Q24.0723-10.5176 23.7109-10.4883L23.1348-10.4395L22.4902-11.0742L22.7344-12.1973Q22.832-12.6172 22.6953-12.9834Q22.5586-13.3496 22.1191-13.7891L19.9219-15.9766Q18.6719-17.2168 17.2607-17.8369Q15.8496-18.457 14.4189-18.4814Q12.9883-18.5059 11.665-17.959Q10.3418-17.4121 9.25781-16.3281ZM10.752-15.957Q11.6602-16.6211 12.7002-16.9043Q13.7402-17.1875 14.8047-17.085Q15.8691-16.9824 16.8701-16.5137Q17.8711-16.0449 18.7012-15.2051L21.1328-12.793Q21.3086-12.6172 21.3525-12.4512Q21.3965-12.2852 21.3379-12.0312L21.0156-10.5469L22.5195-9.0625L23.5059-9.12109Q23.6914-9.13086 23.7891-9.09668Q23.8867-9.0625 24.0332-8.91602L24.6094-8.33984L22.168-5.89844L21.5918-6.47461Q21.4453-6.62109 21.4062-6.71875Q21.3672-6.81641 21.377-7.01172L21.4453-7.98828L19.9512-9.47266L18.4277-9.21875Q18.1836-9.16992 18.042-9.2041Q17.9004-9.23828 17.7148-9.41406L15.7129-11.416Q15.5176-11.5918 15.4932-11.7529Q15.4688-11.9141 15.5859-12.1875L16.4648-14.2773Q15.293-15.3711 13.8281-15.791Q12.3633-16.2109 10.8398-15.7617Q10.7227-15.7324 10.6885-15.8057Q10.6543-15.8789 10.752-15.957Z"/>
  </g>
  <text style="stroke:none;fill:black;font-family:sans-serif;font-size:13;font-weight:bold;" transform="matrix(1 0 0 1 1289 1953)">Exporting</text>
  <text style="stroke:none;fill:black;font-family:sans-serif;font-size:13;" transform="matrix(1 0 0 1 1289 1971)">Symbols should be outlined when exporting to ensure the</text>
  <text style="stroke:none;fill:black;font-family:sans-serif;font-size:13;" transform="matrix(1 0 0 1 1289 1989)">design is preserved when submitting to Xcode.</text>
  <text id="template-version" style="stroke:none;fill:black;font-family:sans-serif;font-size:13;text-anchor:end;" transform="matrix(1 0 0 1 3036 1933)">Template v.3.0</text>
  <text style="stroke:none;fill:black;font-family:sans-serif;font-size:13;text-anchor:end;" transform="matrix(1 0 0 1 3036 1951)">Requires Xcode 13 or greater</text>
  <text id="descriptive-name" style="stroke:none;fill:black;font-family:sans-serif;font-size:13;text-anchor:end;" transform="matrix(1 0 0 1 3036 1969)">Generated from ruler.fill</text>
  <text style="stroke:none;fill:black;font-family:sans-serif;font-size:13;text-anchor:end;" transform="matrix(1 0 0 1 3036 1987)">Typeset at 100 points</text>
  <text style="stroke:none;fill:black;font-family:sans-serif;font-size:13;" transform="matrix(1 0 0 1 263 726)">Small</text>
  <text style="stroke:none;fill:black;font-family:sans-serif;font-size:13;" transform="matrix(1 0 0 1 263 1156)">Medium</text>
  <text style="stroke:none;fill:black;font-family:sans-serif;font-size:13;" transform="matrix(1 0 0 1 263 1586)">Large</text>
 </g>
 <g id="Guides">
  <g id="H-reference" style="fill:#27AAE1;stroke:none;" transform="matrix(1 0 0 1 339 696)">
   <path d="M0.993347 0L3.6377 0L29.3282-67.1326L30.0301-67.1326L30.0301-70.459L28.1227-70.459ZM11.6882-24.4797L46.9818-24.4797L46.2311-26.7288L12.4382-26.7288ZM55.1193 0L57.7637 0L30.6381-70.459L29.4327-70.459L29.4327-67.1326Z"/>
  </g>
  <line id="Baseline-S" style="fill:none;stroke:#27AAE1;opacity:1;stroke-width:0.5;" x1="263" x2="3036" y1="696" y2="696"/>
  <line id="Capline-S" style="fill:none;stroke:#27AAE1;opacity:1;stroke-width:0.5;" x1="263" x2="3036" y1="625.541" y2="625.541"/>
  <g id="H-reference" style="fill:#27AAE1;stroke:none;" transform="matrix(1 0 0 1 339 1126)">
   <path d="M0.993347 0L3.6377 0L29.3282-67.1326L30.0301-67.1326L30.0301-70.459L28.1227-70.459ZM11.6882-24.4797L46.9818-24.4797L46.2311-26.7288L12.4382-26.7288ZM55.1193 0L57.7637 0L30.6381-70.459L29.4327-70.459L29.4327-67.1326Z"/>
  </g>
  <line id="Baseline-M" style="fill:none;stroke:#27AAE1;opacity:1;stroke-width:0.5;" x1="263" x2="3036" y1="1126" y2="1126"/>
  <line id="Capline-M" style="fill:none;stroke:#27AAE1;opacity:1;stroke-width:0.5;" x1="263" x2="3036" y1="1055.54" y2="1055.54"/>
  <g id="H-reference" style="fill:#27AAE1;stroke:none;" transform="matrix(1 0 0 1 339 1556)">
   <path d="M0.993347 0L3.6377 0L29.3282-67.1326L30.0301-67.1326L30.0301-70.459L28.1227-70.459ZM11.6882-24.4797L46.9818-24.4797L46.2311-26.7288L12.4382-26.7288ZM55.1193 0L57.7637 0L30.6381-70.459L29.4327-70.459L29.4327-67.1326Z"/>
  </g>
  <line id="Baseline-L" style="fill:none;stroke:#27AAE1;opacity:1;stroke-width:0.5;" x1="263" x2="3036" y1="1556" y2="1556"/>
  <line id="Capline-L" style="fill:none;stroke:#27AAE1;opacity:1;stroke-width:0.5;" x1="263" x2="3036" y1="1485.54" y2="1485.54"/>
  <line id="left-margin-Ultralight-S" style="fill:none;stroke:#00AEEF;stroke-width:0.5;opacity:1.0;" x1="505.604" x2="505.604" y1="600.785" y2="720.121"/>
  <line id="right-margin-Ultralight-S" style="fill:none;stroke:#00AEEF;stroke-width:0.5;opacity:1.0;" x1="613.819" x2="613.819" y1="600.785" y2="720.121"/>
  <line id="left-margin-Regular-S" style="fill:none;stroke:#00AEEF;stroke-width:0.5;opacity:1.0;" x1="1392.74" x2="1392.74" y1="600.785" y2="720.121"/>
  <line id="right-margin-Regular-S" style="fill:none;stroke:#00AEEF;stroke-width:0.5;opacity:1.0;" x1="1506.95" x2="1506.95" y1="600.785" y2="720.121"/>
  <line id="left-margin-Black-S" style="fill:none;stroke:#00AEEF;stroke-width:0.5;opacity:1.0;" x1="2870.83" x2="2870.83" y1="600.785" y2="720.121"/>
  <line id="right-margin-Black-S" style="fill:none;stroke:#00AEEF;stroke-width:0.5;opacity:1.0;" x1="2995.97" x2="2995.97" y1="600.785" y2="720.121"/>
 </g>
 <g id="Symbols">
  <g id="Black-S" transform="matrix(1 0 0 1 2870.83 696)">
   <path d="M115.381-47.4121Q115.381-53.3203 111.816-56.7871Q108.252-60.2539 102.295-60.2539L22.8027-60.2539Q16.8457-60.2539 13.3057-56.7871Q9.76562-53.3203 9.76562-47.4121L9.76562-23.2422Q9.76562-17.334 13.3301-13.8184Q16.8945-10.3027 22.8516-10.3027L102.344-10.3027Q108.301-10.3027 111.841-13.8184Q115.381-17.334 115.381-23.2422ZM27.6855-48.584L27.6855-31.9336Q27.6855-30.9082 27.002-30.2246Q26.3184-29.541 25.3418-29.541Q24.3164-29.541 23.6084-30.2246Q22.9004-30.9082 22.9004-31.8848L22.9004-48.584ZM35.1562-48.584L35.1562-36.7188Q35.1562-35.6934 34.4727-35.0098Q33.7891-34.3262 32.8125-34.3262Q31.7871-34.3262 31.0791-35.0098Q30.3711-35.6934 30.3711-36.6699L30.3711-48.584ZM42.627-48.584L42.627-36.7188Q42.627-35.6934 41.9434-35.0098Q41.2598-34.3262 40.2832-34.3262Q39.2578-34.3262 38.5498-35.0098Q37.8418-35.6934 37.8418-36.6699L37.8418-48.584ZM50.0977-48.584L50.0977-36.7188Q50.0977-35.6934 49.4141-35.0098Q48.7305-34.3262 47.7539-34.3262Q46.7285-34.3262 46.0205-35.0098Q45.3125-35.6934 45.3125-36.6699L45.3125-48.584ZM57.5684-48.584L57.5684-36.7188Q57.5684-35.6934 56.8848-35.0098Q56.2012-34.3262 55.2246-34.3262Q54.1992-34.3262 53.4912-35.0098Q52.7832-35.6934 52.7832-36.6699L52.7832-48.584ZM65.0391-48.584L65.0391-31.9336Q65.0391-30.9082 64.3555-30.2246Q63.6719-29.541 62.6953-29.541Q61.6699-29.541 60.9619-30.2246Q60.2539-30.9082 60.2539-31.8848L60.2539-48.584ZM72.5098-48.584L72.5098-36.7188Q72.5098-35.6934 71.8262-35.0098Q71.1426-34.3262 70.166-34.3262Q69.1406-34.3262 68.4326-35.0098Q67.7246-35.6934 67.7246-36.6699L67.7246-48.584ZM79.9805-48.584L79.9805-36.7188Q79.9805-35.6934 79.2969-35.0098Q78.6133-34.3262 77.6367-34.3262Q76.6113-34.3262 75.9033-35.0098Q75.1953-35.6934 75.1953-36.6699L75.1953-48.584ZM87.4512-48.584L87.4512-36.7188Q87.4512-35.6934 86.7676-35.0098Q86.084-34.3262 85.1074-34.3262Q84.082-34.3262 83.374-35.0098Q82.666-35.6934 82.666-36.6699L82.666-48.584ZM94.9219-48.584L94.9219-36.7188Q94.9219-35.6934 94.2383-35.0098Q93.5547-34.3262 92.5781-34.3262Q91.5527-34.3262 90.8447-35.0098Q90.1367-35.6934 90.1367-36.6699L90.1367-48.584ZM102.393-48.584L102.393-31.9336Q102.393-30.9082 101.709-30.2246Q101.025-29.541 100.049-29.541Q99.0234-29.541 98.3154-30.2246Q97.6074-30.9082 97.6074-31.8848L97.6074-48.584Z"/>
  </g>
  <g id="Regular-S" transform="matrix(1 0 0 1 1392.74 696)">
   <path d="M104.443-45.9473Q104.443-51.2207 101.782-53.8818Q99.1211-56.543 93.75-56.543L20.459-56.543Q15.0879-56.543 12.4268-53.9062Q9.76562-51.2695 9.76562-45.9473L9.76562-24.4629Q9.76562-19.1895 12.4512-16.5283Q15.1367-13.8672 20.5078-13.8672L93.75-13.8672Q99.1211-13.8672 101.782-16.5283Q104.443-19.1895 104.443-24.4629ZM21.2402-49.5117L21.1914-31.3477Q21.1914-30.6152 20.752-30.1514Q20.3125-29.6875 19.5312-29.6387Q18.8477-29.6387 18.3594-30.1025Q17.8711-30.5664 17.8711-31.2988L17.8711-49.5117ZM28.8086-49.5117L28.7598-38.0859Q28.7598-37.3535 28.2959-36.8896Q27.832-36.4258 27.0508-36.377Q26.416-36.377 25.9033-36.8408Q25.3906-37.3047 25.3906-38.0371L25.3906-49.5117ZM36.3281-49.5117L36.2793-38.0859Q36.2793-37.3535 35.8154-36.8896Q35.3516-36.4258 34.6191-36.377Q33.9355-36.377 33.4229-36.8408Q32.9102-37.3047 32.9102-38.0371L32.9102-49.5117ZM43.7988-49.5117L43.75-38.0859Q43.75-37.3535 43.2861-36.8896Q42.8223-36.4258 42.0898-36.377Q41.4062-36.377 40.918-36.8408Q40.4297-37.3047 40.4297-38.0371L40.4297-49.5117ZM51.3184-49.5117L51.2695-38.0859Q51.2695-37.3535 50.8301-36.8896Q50.3906-36.4258 49.6094-36.377Q48.9258-36.377 48.4375-36.8408Q47.9492-37.3047 47.9492-38.0371L47.9492-49.5117ZM58.8379-49.5117L58.7891-31.3477Q58.7891-30.6152 58.3252-30.1514Q57.8613-29.6875 57.0801-29.6387Q56.4453-29.6387 55.9326-30.1025Q55.4199-30.5664 55.4199-31.2988L55.4199-49.5117ZM66.3574-49.5117L66.3086-38.0859Q66.3086-37.3535 65.8447-36.8896Q65.3809-36.4258 64.6484-36.377Q63.9648-36.377 63.4521-36.8408Q62.9395-37.3047 62.9395-38.0371L62.9395-49.5117ZM73.877-49.5117L73.8281-38.0859Q73.8281-37.3535 73.3643-36.8896Q72.9004-36.4258 72.168-36.377Q71.4844-36.377 70.9961-36.8408Q70.5078-37.3047 70.5078-38.0371L70.5078-49.5117ZM81.3477-49.5117L81.2988-38.0859Q81.2988-37.3535 80.8594-36.8896Q80.4199-36.4258 79.6387-36.377Q78.9551-36.377 78.4668-36.8408Q77.9785-37.3047 77.9785-38.0371L77.9785-49.5117ZM88.916-49.5117L88.8672-38.0859Q88.8672-37.3535 88.4033-36.8896Q87.9395-36.4258 87.1582-36.377Q86.4746-36.377 85.9863-36.8408Q85.498-37.3047 85.498-38.0371L85.498-49.5117ZM96.3867-49.5117L96.3379-31.3477Q96.3379-30.6152 95.874-30.1514Q95.4102-29.6875 94.6777-29.6387Q93.9941-29.6387 93.4814-30.1025Q92.9688-30.5664 92.9688-31.2988L92.9688-49.5117Z"/>
  </g>
  <g id="Ultralight-S" transform="matrix(1 0 0 1 505.604 696)">
   <path d="M98.4489-44.3123Q98.4489-48.5413 96.0831-50.9075Q93.7172-53.2738 89.4814-53.2738L18.7332-53.2738Q14.4974-53.2738 12.1315-50.9094Q9.76562-48.5451 9.76562-44.3123L9.76562-26.1887Q9.76562-21.9597 12.1334-19.5934Q14.5012-17.2272 18.737-17.2272L89.4814-17.2272Q93.7172-17.2272 96.0831-19.5934Q98.4489-21.9597 98.4489-26.1887ZM20.7863-50.1022L20.7825-31.0753Q20.7825-30.5695 20.5021-30.2876Q20.2217-30.0056 19.7586-30.0018Q19.3016-30.0018 19.0178-30.2841Q18.734-30.5664 18.734-31.0715L18.734-50.1022ZM27.6276-50.1022L27.6245-37.677Q27.6245-37.1719 27.3651-36.8896Q27.1057-36.6074 26.6418-36.6043Q26.1887-36.6043 25.9033-36.8862Q25.618-37.1681 25.618-37.674L25.618-50.1022ZM34.5116-50.1022L34.5085-37.677Q34.5085-37.1719 34.2262-36.8896Q33.9439-36.6074 33.4839-36.6043Q33.0727-36.6043 32.7869-36.8862Q32.5012-37.1681 32.5012-37.674L32.5012-50.1022ZM41.3918-50.1022L41.3887-37.677Q41.3887-37.1719 41.1064-36.8896Q40.8241-36.6074 40.3641-36.6043Q39.9078-36.6043 39.624-36.8862Q39.3402-37.1681 39.3402-37.674L39.3402-50.1022ZM48.2758-50.1022L48.2727-37.677Q48.2727-37.1719 47.9919-36.8896Q47.7112-36.6074 47.2481-36.6043Q46.7918-36.6043 46.5076-36.8862Q46.2234-37.1681 46.2234-37.674L46.2234-50.1022ZM55.1598-50.1022L55.1559-31.0753Q55.1559-30.5695 54.874-30.2876Q54.5921-30.0056 54.174-30.0018Q53.7209-30.0018 53.4351-30.2841Q53.1494-30.5664 53.1494-31.0715L53.1494-50.1022ZM62.0438-50.1022L62.0399-37.677Q62.0399-37.1719 61.7577-36.8896Q61.4754-36.6074 61.0153-36.6043Q60.5591-36.6043 60.2962-36.8862Q60.0334-37.1681 60.0334-37.674L60.0334-50.1022ZM68.927-50.1022L68.924-37.677Q68.924-37.1719 68.6417-36.8896Q68.3594-36.6074 67.8993-36.6043Q67.4431-36.6043 67.1589-36.8862Q66.8747-37.1681 66.8747-37.674L66.8747-50.1022ZM75.7622-50.1022L75.7591-37.677Q75.7591-37.1719 75.5013-36.8896Q75.2434-36.6074 74.7795-36.6043Q74.3233-36.6043 74.0395-36.8862Q73.7556-37.1681 73.7556-37.674L73.7556-50.1022ZM82.6492-50.1022L82.6462-37.677Q82.6462-37.1719 82.3639-36.8896Q82.0816-36.6074 81.6185-36.6043Q81.1615-36.6043 80.9002-36.8862Q80.6389-37.1681 80.6389-37.674L80.6389-50.1022ZM89.4844-50.1022L89.4814-31.0753Q89.4814-30.5695 89.1991-30.2876Q88.9168-30.0056 88.4567-30.0018Q87.9997-30.0018 87.7144-30.2841Q87.429-30.5664 87.429-31.0715L87.429-50.1022Z"/>
  </g>
 </g>
</svg>
